<svg width="37" height="50" viewBox="0 0 37 50" fill="none" xmlns="http://www.w3.org/2000/svg">
<path d="M5.40543 14.53C5.57163 14.53 5.73363 14.4392 5.85115 14.2804C5.96782 14.1228 6.03582 13.9027 6.03582 13.6792C6.03582 13.4558 5.96782 13.2357 5.85115 13.078C5.73363 12.9192 5.57163 12.8285 5.40543 12.8285C5.24007 12.8285 5.07806 12.9192 4.96055 13.078C4.84303 13.2357 4.77588 13.4558 4.77588 13.6792C4.77588 13.9027 4.84303 14.1228 4.96055 14.2804C5.07806 14.4393 5.24007 14.53 5.40543 14.53Z" fill="#98BE1D"/>
<path d="M14.1354 14.53C14.3008 14.53 14.4636 14.4392 14.5803 14.2804C14.6978 14.1228 14.765 13.9027 14.765 13.6792C14.765 13.4558 14.6978 13.2357 14.5803 13.078C14.4636 12.9192 14.3008 12.8285 14.1354 12.8285C13.97 12.8285 13.8072 12.9192 13.6905 13.078C13.573 13.2357 13.5059 13.4558 13.5059 13.6792C13.5059 13.9027 13.573 14.1228 13.6905 14.2804C13.8072 14.4393 13.97 14.53 14.1354 14.53Z" fill="#98BE1D"/>
<path d="M31.5939 14.53C31.7593 14.53 31.922 14.4392 32.0388 14.2804C32.1562 14.1228 32.2235 13.9027 32.2235 13.6792C32.2235 13.4558 32.1562 13.2357 32.0388 13.078C31.922 12.9192 31.7593 12.8285 31.5939 12.8285C31.4285 12.8285 31.2657 12.9192 31.1489 13.078C31.0315 13.2357 30.9644 13.4546 30.9644 13.6792C30.9644 13.9027 31.0315 14.1228 31.1489 14.2804C31.2657 14.4393 31.4285 14.53 31.5939 14.53Z" fill="#98BE1D"/>
<path d="M22.8644 14.53C23.0305 14.53 23.1925 14.4392 23.3101 14.2804C23.4268 14.1228 23.494 13.9027 23.494 13.6792C23.494 13.4558 23.4267 13.2357 23.3101 13.078C23.1926 12.9192 23.0306 12.8285 22.8644 12.8285C22.699 12.8285 22.537 12.9192 22.4194 13.078C22.3028 13.2357 22.2349 13.4558 22.2349 13.6792C22.2349 13.9038 22.3029 14.1228 22.4194 14.2804C22.537 14.4393 22.699 14.53 22.8644 14.53Z" fill="#98BE1D"/>
<path d="M34.3243 6.37591H2.67575C1.20034 6.37591 0 7.99799 0 9.99179V36.3079C0 36.7778 0.28187 37.1587 0.629549 37.1587H2.0577V42.7732C2.0577 43.2431 2.33957 43.624 2.68725 43.624H5.48093C5.82861 43.624 6.11048 43.2431 6.11048 42.7732V40.7316H30.8896V42.7732C30.8896 43.2431 31.1714 43.624 31.5192 43.624H34.3128C34.6605 43.624 34.9423 43.2431 34.9423 42.7732V37.1587H36.3705C36.7182 37.1587 37 36.7778 37 36.3079V9.99179C37 7.99799 35.7997 6.37591 34.3243 6.37591ZM1.2591 9.99179C1.2591 8.93619 1.89461 8.07739 2.67575 8.07739H34.3243C35.1054 8.07739 35.7409 8.93619 35.7409 9.99179V26.5833H34.8675V25.5241C34.8675 24.4426 34.2165 23.5627 33.4162 23.5627H32.4674C33.2627 22.9723 34.0101 22.223 34.6832 21.3133C34.929 20.9811 34.929 20.4424 34.6832 20.1103C30.8472 14.9265 24.6054 14.9265 20.7695 20.1103C20.5236 20.4425 20.5236 20.9812 20.7695 21.3133C21.4426 22.223 22.19 22.9723 22.9852 23.5627H14.0216C14.8223 22.9648 15.5657 22.2117 16.2304 21.3133C16.4763 20.9811 16.4763 20.4424 16.2304 20.1103C14.3723 17.5991 11.9016 16.2162 9.27367 16.2162C6.64577 16.2162 4.17508 17.5991 2.31691 20.1103C2.07105 20.4425 2.07105 20.9812 2.31691 21.3133C2.98163 22.2117 3.72517 22.9648 4.52578 23.5627H3.58389C2.78361 23.5627 2.13249 24.4425 2.13249 25.5241V26.5833H1.2591V9.99179ZM33.6083 26.5833H3.39159V25.5241C3.39159 25.3808 3.47779 25.2642 3.58389 25.2642H33.4161C33.5221 25.2642 33.6083 25.3807 33.6083 25.5241V26.5833ZM22.1398 20.7119C25.3424 16.9934 30.11 16.9934 33.3126 20.7119C30.11 24.4305 25.3425 24.4305 22.1398 20.7119ZM9.27367 23.506C7.20137 23.506 5.24129 22.5199 3.68689 20.7118C5.24137 18.9038 7.20145 17.9176 9.27367 17.9176C11.346 17.9176 13.3061 18.9037 14.8605 20.7118C13.3061 22.5199 11.346 23.506 9.27367 23.506ZM4.8513 41.9225H3.3168V37.1587H4.85139V41.9225H4.8513ZM6.11032 39.0302V37.1587H30.8894V39.0302H6.11032ZM33.6831 41.9225H32.1486V37.1587H33.6831V41.9225ZM35.7408 35.4572H1.25901V28.2848H35.7408V35.4572Z" fill="#98BE1D"/>
</svg>
