<svg width="35" height="28" viewBox="0 0 35 28" fill="none" xmlns="http://www.w3.org/2000/svg">
<g clip-path="url(#clip0_54_689)">
<path d="M16.1875 8.75H13.125V5.6875C13.125 5.46875 12.9062 5.25 12.6875 5.25H10.0625C9.78906 5.25 9.625 5.46875 9.625 5.6875V8.75H6.5625C6.28906 8.75 6.125 8.96875 6.125 9.1875V11.8125C6.125 12.0859 6.28906 12.25 6.5625 12.25H9.625V15.3125C9.625 15.5859 9.78906 15.75 10.0625 15.75H12.6875C12.9062 15.75 13.125 15.5859 13.125 15.3125V12.25H16.1875C16.4062 12.25 16.625 12.0859 16.625 11.8125V9.1875C16.625 8.96875 16.4062 8.75 16.1875 8.75ZM34.125 20.125H33.25V13.7812C33.25 12.7422 32.8125 11.7578 32.0469 10.9922L27.5079 6.45312C26.7421 5.6875 25.7579 5.25 24.7188 5.25H22.75V3.0625C22.75 1.42188 21.3281 0 19.6875 0H3.0625C1.36719 0 0 1.42188 0 3.0625V19.6875C0 21.3829 1.36719 22.75 3.0625 22.75H3.5C3.5 25.6483 5.85156 28 8.75 28C11.6484 28 14 25.6483 14 22.75H21C21 25.6483 23.3517 28 26.25 28C29.1483 28 31.5 25.6483 31.5 22.75H34.125C34.5625 22.75 35 22.3671 35 21.875V21C35 20.5625 34.5625 20.125 34.125 20.125ZM8.75 25.375C7.27344 25.375 6.125 24.2267 6.125 22.75C6.125 21.3281 7.27344 20.125 8.75 20.125C10.1719 20.125 11.375 21.3281 11.375 22.75C11.375 24.2267 10.1719 25.375 8.75 25.375ZM20.125 20.125H13.2344C12.3594 18.5938 10.6641 17.5 8.75 17.5C6.78125 17.5 5.08594 18.5938 4.21094 20.125H3.0625C2.78906 20.125 2.625 19.9608 2.625 19.6875V3.0625C2.625 2.84375 2.78906 2.625 3.0625 2.625H19.6875C19.9062 2.625 20.125 2.84375 20.125 3.0625V20.125ZM22.75 7.875H24.7188C25.0469 7.875 25.375 8.03906 25.6483 8.25781L29.6406 12.25H22.75V7.875ZM26.25 25.375C24.7733 25.375 23.625 24.2267 23.625 22.75C23.625 21.3281 24.7733 20.125 26.25 20.125C27.6719 20.125 28.875 21.3281 28.875 22.75C28.875 24.2267 27.6719 25.375 26.25 25.375ZM30.625 19.9062C29.6406 18.4844 28.0546 17.5 26.25 17.5C24.8829 17.5 23.6796 18.0469 22.75 18.8671V14.875H30.625V19.9062Z" fill="#8B8EA2"/>
</g>
<defs>
<clipPath id="clip0_54_689">
<rect width="35" height="28" fill="white"/>
</clipPath>
</defs>
</svg>
