<svg width="45" height="45" viewBox="0 0 45 45" fill="none" xmlns="http://www.w3.org/2000/svg">
<path d="M1.875 41.25H43.125" stroke="#98BE1D" stroke-width="2" stroke-miterlimit="10" stroke-linecap="round" stroke-linejoin="round"/>
<path d="M37.0874 41.2688V32.9062" stroke="#98BE1D" stroke-width="2" stroke-miterlimit="10" stroke-linecap="round" stroke-linejoin="round"/>
<path d="M37.125 20.4188C34.8375 20.4188 33 22.2563 33 24.5438V28.8C33 31.0875 34.8375 32.925 37.125 32.925C39.4125 32.925 41.25 31.0875 41.25 28.8V24.5438C41.25 22.2563 39.4125 20.4188 37.125 20.4188Z" stroke="#98BE1D" stroke-width="2" stroke-miterlimit="10" stroke-linecap="round" stroke-linejoin="round"/>
<path d="M3.9375 41.25V11.3063C3.9375 7.53755 5.8126 5.64377 9.54385 5.64377H21.2251C24.9563 5.64377 26.8125 7.53755 26.8125 11.3063V41.25" stroke="#98BE1D" stroke-width="2" stroke-miterlimit="10" stroke-linecap="round" stroke-linejoin="round"/>
<path d="M10.875 15.4688H20.1563" stroke="#98BE1D" stroke-width="2" stroke-miterlimit="10" stroke-linecap="round" stroke-linejoin="round"/>
<path d="M10.875 22.5H20.1563" stroke="#98BE1D" stroke-width="2" stroke-miterlimit="10" stroke-linecap="round" stroke-linejoin="round"/>
<path d="M15.4688 41.25V34.2188" stroke="#98BE1D" stroke-width="2" stroke-miterlimit="10" stroke-linecap="round" stroke-linejoin="round"/>
</svg>
