<svg width="34" height="34" viewBox="0 0 34 34" fill="none" xmlns="http://www.w3.org/2000/svg">
<g clip-path="url(#clip0_66_300)">
<path d="M19.7012 22.5106H18.1525V20.9618C18.1525 20.3253 17.6364 19.8093 16.9999 19.8093C16.3634 19.8093 15.8473 20.3253 15.8473 20.9618V22.5106H14.2986C13.6621 22.5106 13.146 23.0267 13.146 23.6632C13.146 24.2997 13.6621 24.8157 14.2986 24.8157H15.8473V26.3645C15.8473 27.001 16.3634 27.5171 16.9999 27.5171C17.6364 27.5171 18.1525 27.001 18.1525 26.3645V24.8157H19.7012C20.3377 24.8157 20.8538 24.2997 20.8538 23.6632C20.8538 23.0267 20.3377 22.5106 19.7012 22.5106Z" fill="#98BE1D"/>
<path d="M28.8455 5.94279H26.0763V4.29396C26.0763 1.92621 24.1501 0 21.7822 0H12.2177C9.84993 0 7.92372 1.92621 7.92372 4.29396V5.94279H5.15449C2.31234 5.94279 0 8.25513 0 11.0973V29.0055C0 31.7595 2.24045 34 4.99434 34H29.0055C31.7595 34 34 31.7595 34 29.0055V11.0973C34 8.25513 31.6877 5.94279 28.8455 5.94279ZM10.2288 4.29396C10.2288 3.19726 11.1211 2.30502 12.2178 2.30502H21.7823C22.879 2.30502 23.7713 3.19726 23.7713 4.29396V5.94279H10.2288V4.29396ZM5.15449 8.24792H28.8455C30.4166 8.24792 31.6949 9.52618 31.6949 11.0973V11.8856H2.30513V11.0973C2.30513 9.52618 3.58339 8.24792 5.15449 8.24792ZM24.0954 14.1907H25.7521V15.8474H24.0954V14.1907ZM8.24792 14.1907H9.90465V15.8474H8.24792V14.1907ZM31.6949 29.0055C31.6949 30.4884 30.4884 31.6949 29.0055 31.6949H4.99434C3.5115 31.6949 2.30513 30.4884 2.30513 29.0055V14.1907H5.94279V17C5.94279 17.6365 6.45886 18.1526 7.09535 18.1526H11.0572C11.6937 18.1526 12.2098 17.6365 12.2098 17V14.1907H21.7903V17C21.7903 17.6365 22.3064 18.1526 22.9429 18.1526H26.9048C27.5413 18.1526 28.0573 17.6365 28.0573 17V14.1907H31.695V29.0055H31.6949Z" fill="#98BE1D"/>
</g>
<defs>
<clipPath id="clip0_66_300">
<rect width="34" height="34" fill="white"/>
</clipPath>
</defs>
</svg>
