<svg width="50" height="44" viewBox="0 0 50 44" fill="none" xmlns="http://www.w3.org/2000/svg">
<path d="M49.1774 3.04243L33.1747 0.212253C33.0617 0.192133 32.9408 0.192233 32.8279 0.212253L16.9987 3.01176L1.16952 0.212253C0.879482 0.160958 0.581673 0.240639 0.356076 0.429883C0.130478 0.619126 0 0.898508 0 1.19303V39.9768C0 40.46 0.346713 40.8734 0.82251 40.9576L16.8252 43.7878C16.9388 43.8081 17.0584 43.8081 17.1721 43.7878L33.0013 40.9883L48.8306 43.7878C48.8882 43.798 48.9463 43.803 49.004 43.803C49.2362 43.803 49.4632 43.7217 49.644 43.5701C49.8697 43.3809 50 43.1015 50 42.807V4.02321C50 3.54004 49.6533 3.1266 49.1774 3.04243ZM16.0027 41.6194L1.99203 39.1414V2.38068L16.0027 4.85857V8.01215C14.7753 7.16156 13.2874 6.66136 11.6844 6.66136C7.49333 6.66136 4.08367 10.071 4.08367 14.2621C4.08367 18.1355 10.1966 26.229 10.8936 27.1391C11.0821 27.3853 11.3744 27.5296 11.6844 27.5296C11.9943 27.5296 12.2867 27.3853 12.4751 27.1391C12.8136 26.6971 14.4298 24.5605 16.0027 22.0359V41.6194ZM11.6843 24.864C9.60697 22 6.0757 16.6362 6.0757 14.2621C6.0757 11.1694 8.59173 8.65339 11.6844 8.65339C14.777 8.65339 17.293 11.1694 17.293 14.2621C17.293 16.6342 13.7616 21.9992 11.6843 24.864ZM32.0053 39.1414L17.9946 41.6193V18.8127C17.9947 18.7225 17.9816 18.6355 17.9591 18.5523C18.7409 16.9485 19.2851 15.4174 19.2851 14.2621C19.2851 12.6967 18.8091 11.2405 17.9946 10.0301V4.85857L32.0053 2.38068V39.1414ZM48.008 41.6193L33.9973 39.1414V2.38068L48.008 4.85857V41.6193Z" fill="#98BE1D"/>
</svg>
