<svg width="50" height="50" viewBox="0 0 50 50" fill="none" xmlns="http://www.w3.org/2000/svg">
<path d="M49.1774 6.04243L33.1747 3.21225C33.0617 3.19213 32.9408 3.19223 32.8279 3.21225L16.9987 6.01176L1.16952 3.21225C0.879482 3.16096 0.581673 3.24064 0.356076 3.42988C0.130478 3.61913 0 3.89851 0 4.19303V42.9768C0 43.46 0.346713 43.8734 0.82251 43.9576L16.8252 46.7878C16.9388 46.8081 17.0584 46.8081 17.1721 46.7878L33.0013 43.9883L48.8306 46.7878C48.8882 46.798 48.9463 46.803 49.004 46.803C49.2362 46.803 49.4632 46.7217 49.644 46.5701C49.8697 46.3809 50 46.1015 50 45.807V7.02321C50 6.54004 49.6533 6.1266 49.1774 6.04243ZM16.0027 44.6194L1.99203 42.1414V5.38068L16.0027 7.85857V11.0122C14.7753 10.1616 13.2874 9.66136 11.6844 9.66136C7.49333 9.66136 4.08367 13.071 4.08367 17.2621C4.08367 21.1355 10.1966 29.229 10.8936 30.1391C11.0821 30.3853 11.3744 30.5296 11.6844 30.5296C11.9943 30.5296 12.2867 30.3853 12.4751 30.1391C12.8136 29.6971 14.4298 27.5605 16.0027 25.0359V44.6194ZM11.6843 27.864C9.60697 25 6.0757 19.6362 6.0757 17.2621C6.0757 14.1694 8.59173 11.6534 11.6844 11.6534C14.777 11.6534 17.293 14.1694 17.293 17.2621C17.293 19.6342 13.7616 24.9992 11.6843 27.864ZM32.0053 42.1414L17.9946 44.6193V21.8127C17.9947 21.7225 17.9816 21.6355 17.9591 21.5523C18.7409 19.9485 19.2851 18.4174 19.2851 17.2621C19.2851 15.6967 18.8091 14.2405 17.9946 13.0301V7.85857L32.0053 5.38068V42.1414ZM48.008 44.6193L33.9973 42.1414V5.38068L48.008 7.85857V44.6193Z" fill="#98BE1D"/>
<path d="M11.6842 13.7941C9.77199 13.7941 8.21631 15.3497 8.21631 17.262C8.21631 19.1742 9.77199 20.7299 11.6842 20.7299C13.5965 20.7299 15.1522 19.1741 15.1522 17.262C15.1522 15.3498 13.5965 13.7941 11.6842 13.7941ZM11.6842 18.7379C10.8705 18.7379 10.2083 18.0758 10.2083 17.262C10.2083 16.4483 10.8704 15.7861 11.6842 15.7861C12.4981 15.7861 13.1601 16.4482 13.1601 17.262C13.1601 18.0758 12.4981 18.7379 11.6842 18.7379Z" fill="#98BE1D"/>
<path d="M45.6176 29.6813C46.1676 29.6813 46.6136 29.2353 46.6136 28.6852V10.1593C46.6136 9.60925 46.1676 9.16333 45.6176 9.16333C45.0676 9.16333 44.6216 9.60925 44.6216 10.1593V28.6852C44.6216 29.2353 45.0676 29.6813 45.6176 29.6813Z" fill="#98BE1D"/>
<path d="M45.6176 36.6534C46.1676 36.6534 46.6136 36.2075 46.6136 35.6574V32.8686C46.6136 32.3185 46.1676 31.8726 45.6176 31.8726C45.0676 31.8726 44.6216 32.3185 44.6216 32.8686V35.6574C44.6216 36.2075 45.0676 36.6534 45.6176 36.6534Z" fill="#98BE1D"/>
</svg>
