<svg width="53" height="53" viewBox="0 0 53 53" fill="none" xmlns="http://www.w3.org/2000/svg">
<path d="M32.8054 16.4927C29.3049 14.4769 23.6477 14.466 20.1688 16.4927C16.6899 18.5085 16.7116 21.7923 20.2121 23.8081C23.7127 25.8239 29.3699 25.8239 32.8379 23.8081C36.3276 21.7814 36.306 18.5085 32.8054 16.4927ZM31.2015 19.6681C30.898 19.7656 30.6054 19.8632 30.2911 19.9499C30.1069 20.0041 29.9985 20.0149 29.9118 19.9716C29.8684 19.9499 29.8251 19.8957 29.7926 19.8307C29.5867 19.5055 29.2832 19.2238 28.8605 18.9853C28.8172 18.9528 28.763 18.9311 28.7088 18.8986C28.5788 18.8336 28.4379 18.7686 28.2753 18.7361C27.6901 18.606 27.1807 18.8228 27.2566 19.1804C27.2891 19.3646 27.3866 19.538 27.5058 19.7114C27.7118 20.0041 27.9393 20.2967 28.0911 20.6001C28.5788 21.5755 27.5167 22.5292 25.826 22.6268C25.2083 22.6593 24.6339 22.5834 24.092 22.41C23.8536 22.3341 23.6802 22.3341 23.4959 22.4534C23.3225 22.5617 23.1274 22.6701 22.9432 22.7785C22.7806 22.876 22.6072 22.876 22.4338 22.7785C22.3146 22.7135 22.1954 22.6484 22.0762 22.5834C21.9895 22.5401 21.9136 22.4859 21.8269 22.4317C21.6535 22.3341 21.6752 22.2258 21.8486 22.1174C21.9787 22.0415 22.1196 21.9548 22.2496 21.879C22.5531 21.7056 22.5531 21.6839 22.3038 21.4888C21.9895 21.2396 21.7077 20.9794 21.5343 20.6868C21.3934 20.4592 21.4368 20.4051 21.7836 20.2858C22.0545 20.1991 22.3146 20.1124 22.5856 20.0257C22.7806 19.9607 22.889 19.9499 22.9757 19.9932C23.0191 20.0257 23.0624 20.0691 23.0949 20.145C23.2792 20.4701 23.561 20.7735 23.9294 21.0445C23.9945 21.0878 24.0595 21.1312 24.1245 21.1745C24.3196 21.2937 24.5472 21.3804 24.8181 21.4455C25.4792 21.5972 26.097 21.3263 26.0211 20.9144C25.9994 20.7735 25.9235 20.6435 25.8368 20.5026C25.6093 20.1666 25.3166 19.8415 25.1541 19.4839C24.9048 18.9095 25.0132 18.3784 25.826 17.9666C26.7364 17.5006 27.7551 17.4681 28.828 17.7607C29.2724 17.8799 29.2724 17.8799 29.6083 17.6848C29.7275 17.6198 29.8359 17.5548 29.9551 17.4897C30.2152 17.3488 30.3019 17.3488 30.562 17.4897C30.5946 17.5006 30.6162 17.5223 30.6379 17.5331C30.6921 17.5656 30.7463 17.5981 30.7896 17.6306C31.3315 17.9449 31.3315 17.9449 30.8005 18.2592C30.4212 18.476 30.4212 18.4868 30.7354 18.7361C30.9847 18.9311 31.1798 19.1479 31.3315 19.3646C31.4507 19.5164 31.4074 19.6031 31.2015 19.6681ZM52.6708 23.3529L20.8732 5.00482C20.4397 4.75555 19.7244 4.75555 19.2909 5.00482L0.346803 16.0158C-0.0867008 16.2651 -0.0867008 16.6769 0.346803 16.937L32.1335 35.2851C32.5778 35.5452 33.2823 35.5343 33.7158 35.2851L52.6708 24.2741C53.1043 24.0248 53.1151 23.613 52.6708 23.3529ZM36.1001 31.0476C35.9267 30.8742 35.7099 30.7225 35.4606 30.5816C33.8458 29.6495 31.234 29.6495 29.6192 30.5816C29.5 30.6574 29.3916 30.7225 29.2832 30.8092L7.8681 18.4326C8.07401 18.3459 8.26909 18.2592 8.45333 18.1508C10.0573 17.2188 10.0465 15.7015 8.43166 14.7695C8.25826 14.672 8.06318 14.5744 7.8681 14.4986L16.7007 9.37237C16.8416 9.48075 16.9934 9.59996 17.1668 9.6975C18.7816 10.6295 21.4043 10.6295 23.0082 9.6975C23.1925 9.58913 23.355 9.48075 23.4851 9.36154L44.9652 21.7706C44.6834 21.8681 44.4125 21.9873 44.1741 22.1282C42.5701 23.0603 42.5809 24.5775 44.1957 25.5096C44.445 25.6505 44.7268 25.7697 45.0194 25.878L36.1001 31.0476ZM38.6902 26.3657L37.2922 27.1786C37.0754 27.2978 36.7286 27.3086 36.5119 27.1786L34.0518 25.7588C33.835 25.6288 33.835 25.4337 34.0518 25.3037L35.4498 24.4908C35.6666 24.3716 36.0134 24.3608 36.2301 24.4908L38.6902 25.9106C38.907 26.0406 38.907 26.2465 38.6902 26.3657ZM18.9658 14.9754L17.5678 15.7882C17.351 15.9074 17.0042 15.9183 16.7874 15.7882L14.3273 14.3685C14.1106 14.2385 14.1106 14.0434 14.3273 13.9133L15.7254 13.1005C15.9421 12.9813 16.2889 12.9705 16.5057 13.1005L18.9658 14.5202C19.1826 14.6503 19.1826 14.8562 18.9658 14.9754ZM50.5249 28.9993L52.9959 30.4298L33.1306 41.9719L32.4803 41.6034L30.6487 40.5522L0 22.8218L2.4493 21.4021L33.1089 39.1108L50.5249 28.9993ZM50.4816 35.2526L52.9525 36.6831L33.1631 48.1818L32.5237 47.8134L30.6921 46.7621L0 28.9993L2.4493 27.5795L33.1522 45.3315L50.4816 35.2526Z" fill="#98BE1D"/>
</svg>
