<svg width="116" height="153" viewBox="0 0 116 153" fill="none" xmlns="http://www.w3.org/2000/svg">
<path d="M-2.38965 141.441H-0.520508V152.162H-2.38965V141.441ZM-6.95508 145.803H4.43164V147.79H-6.95508V145.803Z" fill="#595D7A" fill-opacity="0.26"/>
<path d="M32.6104 141.441H34.4795V152.162H32.6104V141.441ZM28.0449 145.803H39.4316V147.79H28.0449V145.803Z" fill="#595D7A" fill-opacity="0.26"/>
<path d="M-2.38965 106.441H-0.520508V117.162H-2.38965V106.441ZM-6.95508 110.803H4.43164V112.79H-6.95508V110.803Z" fill="#595D7A" fill-opacity="0.26"/>
<path d="M32.6104 106.441H34.4795V117.162H32.6104V106.441ZM28.0449 110.803H39.4316V112.79H28.0449V110.803Z" fill="#595D7A" fill-opacity="0.26"/>
<path d="M67.6104 106.441H69.4795V117.162H67.6104V106.441ZM63.0449 110.803H74.4316V112.79H63.0449V110.803Z" fill="#595D7A" fill-opacity="0.26"/>
<path d="M-2.38965 71.4414H-0.520508V82.1621H-2.38965V71.4414ZM-6.95508 75.8027H4.43164V77.79H-6.95508V75.8027Z" fill="#595D7A" fill-opacity="0.26"/>
<path d="M32.6104 71.4414H34.4795V82.1621H32.6104V71.4414ZM28.0449 75.8027H39.4316V77.79H28.0449V75.8027Z" fill="#98BE1D"/>
<path d="M67.6104 71.4414H69.4795V82.1621H67.6104V71.4414ZM63.0449 75.8027H74.4316V77.79H63.0449V75.8027Z" fill="#595D7A" fill-opacity="0.26"/>
<path d="M102.61 71.4414H104.479V82.1621H102.61V71.4414ZM98.0449 75.8027H109.432V77.79H98.0449V75.8027Z" fill="#595D7A" fill-opacity="0.26"/>
<path d="M-2.38965 36.4414H-0.520508V47.1621H-2.38965V36.4414ZM-6.95508 40.8027H4.43164V42.79H-6.95508V40.8027Z" fill="#595D7A" fill-opacity="0.26"/>
<path d="M32.6104 36.4414H34.4795V47.1621H32.6104V36.4414ZM28.0449 40.8027H39.4316V42.79H28.0449V40.8027Z" fill="#595D7A" fill-opacity="0.26"/>
<path d="M67.6104 36.4414H69.4795V47.1621H67.6104V36.4414ZM63.0449 40.8027H74.4316V42.79H63.0449V40.8027Z" fill="#595D7A" fill-opacity="0.26"/>
<path d="M102.61 36.4414H104.479V47.1621H102.61V36.4414ZM98.0449 40.8027H109.432V42.79H98.0449V40.8027Z" fill="#595D7A" fill-opacity="0.26"/>
<path d="M-2.38965 1.44141H-0.520508V12.1621L-2.38965 12.1621V1.44141ZM-6.95508 5.80273L4.43164 5.80273V7.79004L-6.95508 7.79004V5.80273Z" fill="#595D7A" fill-opacity="0.26"/>
<path d="M32.6104 1.44141H34.4795V12.1621L32.6104 12.1621V1.44141ZM28.0449 5.80273L39.4316 5.80273V7.79004L28.0449 7.79004V5.80273Z" fill="#595D7A" fill-opacity="0.26"/>
<path d="M67.6104 1.44141H69.4795V12.1621L67.6104 12.1621V1.44141ZM63.0449 5.80273L74.4316 5.80273V7.79004L63.0449 7.79004V5.80273Z" fill="#595D7A" fill-opacity="0.26"/>
<path d="M102.61 1.44141H104.479V12.1621L102.61 12.1621V1.44141ZM98.0449 5.80273L109.432 5.80273V7.79004L98.0449 7.79004V5.80273Z" fill="#595D7A" fill-opacity="0.26"/>
</svg>
