<svg width="154" height="153" viewBox="0 0 154 153" fill="none" xmlns="http://www.w3.org/2000/svg">
<path d="M153.39 11.5586H151.521V0.837891L153.39 0.837891V11.5586ZM157.955 7.19727L146.568 7.19727V5.20996L157.955 5.20996V7.19727Z" fill="#615C7C"/>
<path d="M118.39 11.5586H116.521V0.837891L118.39 0.837891V11.5586ZM122.955 7.19727L111.568 7.19727V5.20996L122.955 5.20996V7.19727Z" fill="#595D7A" fill-opacity="0.26"/>
<path d="M83.3896 11.5586H81.5205V0.837891L83.3896 0.837891V11.5586ZM87.9551 7.19727L76.5684 7.19727V5.20996L87.9551 5.20996V7.19727Z" fill="#595D7A" fill-opacity="0.26"/>
<path d="M153.39 46.5586H151.521V35.8379H153.39V46.5586ZM157.955 42.1973H146.568V40.21H157.955V42.1973Z" fill="#595D7A" fill-opacity="0.26"/>
<path d="M118.39 46.5586H116.521V35.8379H118.39V46.5586ZM122.955 42.1973H111.568V40.21H122.955V42.1973Z" fill="#595D7A" fill-opacity="0.26"/>
<path d="M83.3896 46.5586H81.5205V35.8379H83.3896V46.5586ZM87.9551 42.1973H76.5684V40.21H87.9551V42.1973Z" fill="#595D7A" fill-opacity="0.26"/>
<path d="M48.3896 46.5586H46.5205V35.8379H48.3896V46.5586ZM52.9551 42.1973H41.5684V40.21H52.9551V42.1973Z" fill="#595D7A" fill-opacity="0.26"/>
<path d="M153.39 81.5586H151.521V70.8379H153.39V81.5586ZM157.955 77.1973H146.568V75.21H157.955V77.1973Z" fill="#595D7A" fill-opacity="0.26"/>
<path d="M118.39 81.5586H116.521V70.8379H118.39V81.5586ZM122.955 77.1973H111.568V75.21H122.955V77.1973Z" fill="#595D7A" fill-opacity="0.26"/>
<path d="M83.3896 81.5586H81.5205V70.8379H83.3896V81.5586ZM87.9551 77.1973H76.5684V75.21H87.9551V77.1973Z" fill="#98BE1D"/>
<path d="M48.3896 81.5586H46.5205V70.8379H48.3896V81.5586ZM52.9551 77.1973H41.5684V75.21H52.9551V77.1973Z" fill="#595D7A" fill-opacity="0.26"/>
<path d="M13.3896 81.5586H11.5205L11.5205 70.8379H13.3896L13.3896 81.5586ZM17.9551 77.1973H6.56836V75.21H17.9551V77.1973Z" fill="#595D7A" fill-opacity="0.26"/>
<path d="M153.39 116.559H151.521V105.838H153.39V116.559ZM157.955 112.197H146.568V110.21H157.955V112.197Z" fill="#595D7A" fill-opacity="0.26"/>
<path d="M118.39 116.559H116.521V105.838H118.39V116.559ZM122.955 112.197H111.568V110.21H122.955V112.197Z" fill="#595D7A" fill-opacity="0.26"/>
<path d="M83.3896 116.559H81.5205V105.838H83.3896V116.559ZM87.9551 112.197H76.5684V110.21H87.9551V112.197Z" fill="#595D7A" fill-opacity="0.26"/>
<path d="M48.3896 116.559H46.5205V105.838H48.3896V116.559ZM52.9551 112.197H41.5684V110.21H52.9551V112.197Z" fill="#595D7A" fill-opacity="0.26"/>
<path d="M13.3896 116.559H11.5205L11.5205 105.838H13.3896L13.3896 116.559ZM17.9551 112.197H6.56836V110.21H17.9551V112.197Z" fill="#595D7A" fill-opacity="0.26"/>
<path d="M153.39 151.559H151.521V140.838H153.39V151.559ZM157.955 147.197H146.568V145.21H157.955V147.197Z" fill="#595D7A" fill-opacity="0.26"/>
<path d="M118.39 151.559H116.521V140.838H118.39V151.559ZM122.955 147.197H111.568V145.21H122.955V147.197Z" fill="#595D7A" fill-opacity="0.26"/>
<path d="M83.3896 151.559H81.5205V140.838H83.3896V151.559ZM87.9551 147.197H76.5684V145.21H87.9551V147.197Z" fill="#595D7A" fill-opacity="0.26"/>
<path d="M48.3896 151.559H46.5205V140.838H48.3896V151.559ZM52.9551 147.197H41.5684V145.21H52.9551V147.197Z" fill="#595D7A" fill-opacity="0.26"/>
<path d="M13.3896 151.559H11.5205L11.5205 140.838H13.3896L13.3896 151.559ZM17.9551 147.197H6.56836V145.21H17.9551V147.197Z" fill="#595D7A" fill-opacity="0.26"/>
</svg>
