<svg width="1089" height="348" viewBox="0 0 1089 348" fill="none" xmlns="http://www.w3.org/2000/svg">
<g clip-path="url(#clip0_81_287)">
<rect width="1089" height="348" rx="20" fill="#F9F7FE"/>
<path d="M27.095 372.49C-5.19278 372.305 -31.2188 345.944 -31.0342 313.609C-30.8497 281.274 -4.52447 255.212 27.7633 255.396C60.051 255.58 86.077 281.941 85.8925 314.277C85.7079 346.612 59.3827 372.674 27.095 372.49Z" stroke="#6246E5" stroke-opacity="0.15"/>
<path d="M33.288 374.856C-2.85606 374.65 -31.9904 345.14 -31.7838 308.943C-31.5772 272.746 -2.10794 243.571 34.0362 243.778C70.1802 243.984 99.3145 273.493 99.108 309.69C98.9014 345.887 69.4321 375.062 33.288 374.856Z" stroke="#6246E5" stroke-opacity="0.15"/>
<path d="M38.318 377.216C-1.25391 376.99 -33.1512 344.682 -32.925 305.052C-32.6988 265.422 -0.434835 233.48 39.1371 233.706C78.709 233.932 110.606 266.24 110.38 305.87C110.154 345.5 77.89 377.441 38.318 377.216Z" stroke="#6246E5" stroke-opacity="0.15"/>
<path d="M45.6796 378.812C3.10829 378.569 -31.2065 343.812 -30.9632 301.178C-30.7199 258.545 3.98945 224.182 46.5608 224.425C89.1321 224.668 123.447 259.425 123.204 302.058C122.96 344.692 88.2509 379.055 45.6796 378.812Z" stroke="#6246E5" stroke-opacity="0.15"/>
<path d="M52.8472 380.406C7.38367 380.147 -29.2624 343.029 -29.0025 297.499C-28.7427 251.969 8.32469 215.272 53.7882 215.531C99.2518 215.791 135.898 252.909 135.638 298.439C135.378 343.968 98.3108 380.666 52.8472 380.406Z" stroke="#6246E5" stroke-opacity="0.15"/>
<path d="M60.9824 382.395C11.0198 382.11 -29.2526 341.319 -28.9671 291.284C-28.6815 241.249 12.0539 200.92 62.0165 201.205C111.979 201.49 152.251 242.281 151.966 292.316C151.68 342.351 110.945 382.68 60.9824 382.395Z" stroke="#6246E5" stroke-opacity="0.15"/>
<path d="M1028.87 -21.1095C1061.69 -27.2233 1093.27 -5.53434 1099.39 27.336C1105.51 60.2064 1083.87 91.8083 1051.04 97.9222C1018.22 104.036 986.65 82.3471 980.527 49.4767C974.404 16.6064 996.049 -14.9956 1028.87 -21.1095Z" stroke="#6246E5" stroke-opacity="0.15"/>
<path d="M1022.12 -22.3032C1058.86 -29.1471 1094.21 -4.86839 1101.06 31.9266C1107.91 68.7215 1083.68 104.097 1046.94 110.941C1010.2 117.785 974.859 93.5058 968.005 56.7109C961.151 19.9159 985.381 -15.4594 1022.12 -22.3032Z" stroke="#6246E5" stroke-opacity="0.15"/>
<path d="M1016.56 -23.7174C1056.78 -31.2102 1095.47 -4.62945 1102.98 35.654C1110.48 75.9375 1083.95 114.667 1043.73 122.16C1003.5 129.652 964.812 103.072 957.308 62.7882C949.804 22.5047 976.332 -16.2246 1016.56 -23.7174Z" stroke="#6246E5" stroke-opacity="0.15"/>
<path d="M1008.77 -23.9014C1052.04 -31.962 1093.67 -3.36702 1101.74 39.969C1109.81 83.3049 1081.28 124.969 1038 133.03C994.73 141.09 953.106 112.495 945.034 69.1593C936.961 25.8233 965.499 -15.8409 1008.77 -23.9014Z" stroke="#6246E5" stroke-opacity="0.15"/>
<path d="M1001.18 -24.1219C1047.4 -32.73 1091.85 -2.19271 1100.47 44.0867C1109.09 90.3661 1078.61 134.86 1032.4 143.468C986.19 152.076 941.738 121.539 933.117 75.2597C924.497 28.9803 954.972 -15.5138 1001.18 -24.1219Z" stroke="#6246E5" stroke-opacity="0.15"/>
<path d="M992.538 -24.5539C1043.32 -34.0137 1092.17 -0.455046 1101.65 50.4031C1111.12 101.261 1077.63 150.158 1026.84 159.617C976.059 169.077 927.21 135.518 917.736 84.6603C908.263 33.8022 941.753 -15.0942 992.538 -24.5539Z" stroke="#6246E5" stroke-opacity="0.15"/>
</g>
<defs>
<clipPath id="clip0_81_287">
<rect width="1089" height="348" rx="20" fill="white"/>
</clipPath>
</defs>
</svg>
