<svg width="103" height="103" viewBox="0 0 103 103" fill="none" xmlns="http://www.w3.org/2000/svg">
<path d="M45.0197 9.57044L23.6043 17.5958C18.6689 19.4413 14.6348 25.2779 14.6348 30.5566V62.4437C14.6348 67.5078 17.9823 74.1599 22.0594 77.207L40.5135 90.9834C46.5648 95.5325 56.5214 95.5325 62.5726 90.9834L81.0269 77.207C85.1039 74.1599 88.4514 67.5078 88.4514 62.4437V30.5566C88.4514 25.2779 84.4172 19.4413 79.4818 17.5958L58.0664 9.57044C54.4185 8.24003 48.5818 8.24003 45.0197 9.57044Z" stroke="#98BE1D" stroke-width="3.5" stroke-linecap="round" stroke-linejoin="round"/>
<path d="M51.4998 46.8651C51.3282 46.8651 51.1136 46.8651 50.9419 46.8651C46.9077 46.7363 43.689 43.3888 43.689 39.3117C43.689 35.1488 47.0794 31.7583 51.2423 31.7583C55.4053 31.7583 58.7957 35.1488 58.7957 39.3117C58.7528 43.4317 55.534 46.7363 51.4998 46.8651Z" stroke="#98BE1D" stroke-width="3.5" stroke-linecap="round" stroke-linejoin="round"/>
<path d="M42.9596 58.8817C38.8396 61.6283 38.8396 66.1345 42.9596 68.8812C47.6375 72.0141 55.3196 72.0141 59.9975 68.8812C64.1175 66.1345 64.1175 61.6283 59.9975 58.8817C55.3625 55.7488 47.6805 55.7488 42.9596 58.8817Z" stroke="#98BE1D" stroke-width="3.5" stroke-linecap="round" stroke-linejoin="round"/>
</svg>
