<svg width="122" height="122" viewBox="0 0 122 122" fill="none" xmlns="http://www.w3.org/2000/svg">
<g clip-path="url(#clip0_83_376)">
<path d="M54.6431 76.25C54.6431 74.8465 55.781 73.7083 57.1848 73.7083H57.6931C59.0969 73.7083 60.2348 74.8465 60.2348 76.25C60.2348 77.6535 59.0969 78.7917 57.6931 78.7917H57.1848C55.781 78.7917 54.6431 77.6535 54.6431 76.25ZM121.662 45.0147C121.04 46.651 119.669 47.8113 118.018 48.1727C118.928 49.6954 119.452 51.4754 119.452 53.375C119.452 58.9809 114.892 63.5417 109.286 63.5417H105.791C104.565 67.5206 102.218 71.0126 99.1192 73.6476C99.1198 73.6677 99.12 73.688 99.12 73.7083C99.12 88.3084 90.8698 101.019 78.7877 107.422V119.458C78.7877 120.862 77.6498 122 76.246 122C74.8423 122 73.7044 120.862 73.7044 119.458V109.656C69.7282 111.065 65.4503 111.833 60.997 111.833C56.5435 111.833 52.2656 111.065 48.2895 109.656V119.458C48.2895 120.862 47.1516 122 45.7478 122C44.344 122 43.2061 120.862 43.2061 119.458V107.422C31.1241 101.019 22.8741 88.3084 22.8741 73.7083C22.8741 73.688 22.8743 73.6677 22.8748 73.6476C19.7768 71.0126 17.4296 67.5206 16.2027 63.5417H12.7079C7.10226 63.5417 2.54175 58.9809 2.54175 53.375C2.54175 51.4748 3.06584 49.6949 3.97678 48.1717C2.32774 47.8093 0.958546 46.6495 0.337108 45.0147C-0.419546 43.0241 0.12005 40.8237 1.71164 39.4088C1.73833 39.3852 1.76553 39.3618 1.79298 39.3394L20.3324 24.2101V12.7083C20.3324 5.70096 26.0331 0 33.04 0H88.9536C95.9607 0 101.661 5.70096 101.661 12.7083V24.2101L120.205 39.3394C120.233 39.362 120.26 39.3852 120.287 39.4088C121.879 40.8237 122.419 43.0241 121.662 45.0147ZM25.4157 22.875H96.5781V12.7083C96.5781 8.50391 93.1578 5.08333 88.9536 5.08333H33.0402C28.8361 5.08333 25.4157 8.50391 25.4157 12.7083V22.875ZM15.2864 58.4583C15.2618 58.0377 15.2493 57.6145 15.2493 57.1875V48.2917H12.7079C9.90521 48.2917 7.62508 50.572 7.62508 53.375C7.62508 56.1779 9.90521 58.4583 12.7079 58.4583H15.2864ZM36.8525 73.7083C45.9616 73.7083 53.3723 66.2971 53.3723 57.1875V48.2917H39.6941L32.7721 62.1366C32.1443 63.392 30.618 63.9011 29.3622 63.2735C28.1069 62.6457 27.5978 61.1189 28.2255 59.8636L34.0109 48.2917H20.3329V57.1875C20.3329 66.2971 27.7436 73.7083 36.8525 73.7083ZM93.8796 76.9449C91.2065 78.1319 88.2498 78.7917 85.1416 78.7917C74.5304 78.7917 65.6813 71.1003 63.8755 61H58.1189C56.313 71.1003 47.4639 78.7917 36.8527 78.7917C33.7445 78.7917 30.7878 78.1319 28.1147 76.9449C29.7462 93.6508 43.8708 106.75 60.997 106.75C78.1233 106.75 92.2479 93.6508 93.8796 76.9449ZM63.5385 55.9167V48.2917H58.4556V55.9167H63.5385ZM101.661 48.2917H87.9829L81.061 62.1366C80.4332 63.392 78.9069 63.9011 77.6511 63.2735C76.3957 62.6457 75.8866 61.1189 76.5144 59.8636L82.2998 48.2917H68.6218V57.1875C68.6218 66.2971 76.0325 73.7083 85.1416 73.7083C94.2507 73.7083 101.661 66.2971 101.661 57.1875V48.2917H101.661ZM114.369 53.375C114.369 50.572 112.089 48.2917 109.286 48.2917H106.745V57.1875C106.745 57.6145 106.732 58.0377 106.707 58.4583H109.286C112.089 58.4583 114.369 56.1779 114.369 53.375ZM116.907 43.2083L98.2147 27.9583H23.7797L5.09257 43.2083H116.907ZM39.5283 63.2733C39.8933 63.4558 40.2809 63.5422 40.6629 63.5422C41.5952 63.5422 42.4929 63.0272 42.9382 62.1366L45.4797 57.0533C46.1074 55.798 45.5984 54.2712 44.343 53.6434C43.0872 53.0156 41.5607 53.5245 40.9331 54.7803L38.3917 59.8636C37.7639 61.1189 38.2728 62.6457 39.5283 63.2733ZM75.5018 84.6194C75.9784 85.0963 76.2463 85.7426 76.2463 86.4167C76.2463 94.8255 69.4056 101.667 60.997 101.667C52.5884 101.667 45.7478 94.8258 45.7478 86.4172C45.7478 85.0137 46.8857 83.8755 48.2895 83.8755L73.7046 83.875C74.3787 83.875 75.0253 84.1429 75.5018 84.6194ZM70.8414 88.9583H51.1527C52.2842 93.3384 56.2688 96.5833 60.997 96.5833C65.7253 96.5833 69.7101 93.3381 70.8414 88.9583ZM87.8172 63.2733C88.1822 63.4558 88.5698 63.5422 88.9518 63.5422C89.8841 63.5422 90.7818 63.0272 91.2271 62.1366L93.7685 57.0533C94.3963 55.798 93.8872 54.2712 92.6319 53.6434C91.3758 53.0156 89.8495 53.5245 89.222 54.7803L86.6806 59.8636C86.0528 61.1189 86.5616 62.6457 87.8172 63.2733ZM64.3009 78.7917H64.8093C66.213 78.7917 67.351 77.6535 67.351 76.25C67.351 74.8465 66.213 73.7083 64.8093 73.7083H64.3009C62.8972 73.7083 61.7593 74.8465 61.7593 76.25C61.7593 77.6535 62.8972 78.7917 64.3009 78.7917Z" fill="#98BE1D"/>
</g>
<defs>
<clipPath id="clip0_83_376">
<rect width="122" height="122" fill="white"/>
</clipPath>
</defs>
</svg>
