<svg width="27" height="27" viewBox="0 0 27 27" fill="none" xmlns="http://www.w3.org/2000/svg">
<path d="M25.7353 21.2353C25.5808 20.9265 25.169 20.8235 24.8604 20.978L22.8016 22.0588L19.6102 15.0073C19.4559 14.5441 18.9926 14.2353 18.5294 14.2353H10.5515L10.1912 11.7647H17.5C17.8088 11.7647 18.1176 11.5073 18.1176 11.1471V9.91176C18.1176 9.60293 17.8088 9.29411 17.5 9.29411H9.88235L9.36765 5.58823C10.6029 5.43382 11.5809 4.35293 11.4779 3.0147C11.4265 1.77941 10.3971 0.749994 9.11029 0.698523C7.72059 0.595582 6.58823 1.72793 6.58823 3.11764C6.58823 3.37499 6.43382 2.34558 8.23529 15.6765C8.28676 16.2941 8.80147 16.7059 9.47059 16.7059H17.7059L21.0514 24.2206C21.3604 24.8898 22.0808 25.1471 22.75 24.8382L25.9926 23.1912C26.3016 23.0368 26.4043 22.6765 26.25 22.3676L25.7353 21.2353ZM16.1103 19.1765H15.4926C14.9265 22.2647 12.25 24.5294 9.05882 24.5294C5.40441 24.5294 2.47059 21.5957 2.47059 17.9412C2.47059 15.7279 3.60294 13.7206 5.30147 12.5368L4.94118 9.86029C2.00735 11.3529 0 14.4412 0 17.9412C0 22.9853 4.01471 27 9.05882 27C12.6618 27 15.8015 24.8898 17.2427 21.8015L16.1103 19.1765Z" fill="#8B8EA2"/>
</svg>
