<svg width="36" height="23" viewBox="0 0 36 23" fill="none" xmlns="http://www.w3.org/2000/svg">
<path d="M26.2381 0H0.857143C0.0670815 0 -0.0613036 1.13338 0.708741 1.3101L4.00071 2.06557C4.07408 2.08241 4.14544 2.09091 4.22072 2.09091H26.2381C31.8287 2.09091 33.3199 6.69518 33.4163 9.5363C33.4339 10.0562 32.9966 10.4545 32.4764 10.4545H31.1429C30.5906 10.4545 30.1429 10.9023 30.1429 11.4545V22C30.1429 22.5523 30.5906 23 31.1429 23H35C35.5523 23 36 22.5546 36 22.0023V8.88636C36 2.19545 29.4921 0.174242 26.2381 0Z" fill="#96BB1E"/>
</svg>
