<svg width="143" height="30" viewBox="0 0 143 30" fill="none" xmlns="http://www.w3.org/2000/svg">
<path d="M5.9265 5.16084V12.5035H15.8746V17.1608H5.9265V24.9231H17.1445V29.7063H0V0.37762H17.1445V5.16084H5.9265Z" fill="white"/>
<path d="M49.9192 29.7063H43.9927L30.5734 9.60839V29.7063H24.6469V0.37762H30.5734L43.9927 20.5175V0.37762H49.9192V29.7063Z" fill="white"/>
<path d="M75.1217 0.41958V20.979C75.1217 23.8322 74.2892 26.0559 72.6241 27.6503C70.9591 29.2168 68.7296 30 65.9356 30C63.1135 30 60.8276 29.1888 59.0778 27.5664C57.3563 25.9441 56.4956 23.6783 56.4956 20.7692H62.4221C62.4503 22.028 62.7466 23.007 63.311 23.7063C63.9037 24.4056 64.7503 24.7552 65.851 24.7552C66.9234 24.7552 67.7418 24.4196 68.3062 23.7482C68.8707 23.0769 69.1529 22.1538 69.1529 20.979V0.41958H75.1217Z" fill="white"/>
<path d="M97.8673 30C95.1016 30 92.5617 29.3566 90.2475 28.0699C87.9334 26.7832 86.099 25.007 84.7443 22.7413C83.3897 20.4475 82.7124 17.8601 82.7124 14.979C82.7124 12.1259 83.3897 9.56643 84.7443 7.3007C86.099 5.00699 87.9334 3.21678 90.2475 1.93007C92.5617 0.643356 95.1016 0 97.8673 0C100.661 0 103.201 0.643356 105.487 1.93007C107.801 3.21678 109.622 5.00699 110.948 7.3007C112.303 9.56643 112.98 12.1259 112.98 14.979C112.98 17.8601 112.303 20.4475 110.948 22.7413C109.622 25.007 107.801 26.7832 105.487 28.0699C103.173 29.3566 100.633 30 97.8673 30ZM97.8673 24.7552C99.6453 24.7552 101.212 24.3636 102.566 23.5804C103.921 22.7692 104.979 21.6224 105.741 20.1399C106.503 18.6573 106.884 16.9371 106.884 14.979C106.884 13.021 106.503 11.3147 105.741 9.86014C104.979 8.37762 103.921 7.24475 102.566 6.46154C101.212 5.67832 99.6453 5.28671 97.8673 5.28671C96.0894 5.28671 94.509 5.67832 93.1261 6.46154C91.7715 7.24475 90.7132 8.37762 89.9512 9.86014C89.1892 11.3147 88.8082 13.021 88.8082 14.979C88.8082 16.9371 89.1892 18.6573 89.9512 20.1399C90.7132 21.6224 91.7715 22.7692 93.1261 23.5804C94.509 24.3636 96.0894 24.7552 97.8673 24.7552Z" fill="white"/>
<path d="M143 0.41958L133.01 19.5105V29.7063H127.083V19.5105L117.05 0.41958H123.739L130.089 13.8042L136.396 0.41958H143Z" fill="white"/>
</svg>
