<svg width="224" height="206" viewBox="0 0 224 206" fill="none" xmlns="http://www.w3.org/2000/svg">
<path d="M12.6104 194.441H14.4795V205.162H12.6104V194.441ZM8.04492 198.803H19.4316V200.79H8.04492V198.803Z" fill="white"/>
<path d="M59.7346 194.441H61.6037V205.162H59.7346V194.441ZM55.1691 198.803H66.5558V200.79H55.1691V198.803Z" fill="white"/>
<path d="M106.859 194.441H108.728V205.162H106.859V194.441ZM102.293 198.803H113.68V200.79H102.293V198.803Z" fill="white"/>
<path d="M12.6104 147.317H14.4795V158.038H12.6104V147.317ZM8.04492 151.678H19.4316V153.666H8.04492V151.678Z" fill="white"/>
<path d="M59.7346 147.317H61.6037V158.038H59.7346V147.317ZM55.1691 151.678H66.5558V153.666H55.1691V151.678Z" fill="white"/>
<path d="M106.859 147.317H108.728V158.038H106.859V147.317ZM102.293 151.678H113.68V153.666H102.293V151.678Z" fill="white"/>
<path d="M153.983 147.317H155.852V158.038H153.983V147.317ZM149.417 151.678H160.804V153.666H149.417V151.678Z" fill="white"/>
<path d="M12.6104 100.193H14.4795V110.914H12.6104V100.193ZM8.04492 104.554H19.4316V106.542H8.04492V104.554Z" fill="white"/>
<path d="M59.7346 100.193H61.6037V110.914H59.7346V100.193ZM55.1691 104.554H66.5558V106.542H55.1691V104.554Z" fill="white"/>
<path d="M106.859 100.193H108.728V110.914H106.859V100.193ZM102.293 104.554H113.68V106.542H102.293V104.554Z" fill="white"/>
<path d="M153.983 100.193H155.852V110.914H153.983V100.193ZM149.417 104.554H160.804V106.542H149.417V104.554Z" fill="white"/>
<path d="M201.107 100.193H202.976V110.914H201.107V100.193ZM196.542 104.554H207.928V106.542H196.542V104.554Z" fill="white"/>
<path d="M12.6104 53.0688H14.4795V63.7896H12.6104V53.0688ZM8.04492 57.4302H19.4316V59.4175H8.04492V57.4302Z" fill="white"/>
<path d="M59.7346 53.0688H61.6037V63.7896H59.7346V53.0688ZM55.1691 57.4302H66.5558V59.4175H55.1691V57.4302Z" fill="white"/>
<path d="M106.859 53.0688H108.728V63.7896H106.859V53.0688ZM102.293 57.4302H113.68V59.4175H102.293V57.4302Z" fill="white"/>
<path d="M153.983 53.0688H155.852V63.7896H153.983V53.0688ZM149.417 57.4302H160.804V59.4175H149.417V57.4302Z" fill="white"/>
<path d="M201.107 53.0688H202.976V63.7896H201.107V53.0688ZM196.542 57.4302H207.928V59.4175H196.542V57.4302Z" fill="white"/>
<path d="M12.6104 5.94458H14.4795V16.6653H12.6104V5.94458ZM8.04492 10.3059H19.4316V12.2932H8.04492V10.3059Z" fill="white"/>
<path d="M59.7346 5.94458H61.6037V16.6653H59.7346V5.94458ZM55.1691 10.3059H66.5558V12.2932H55.1691V10.3059Z" fill="white"/>
<path d="M106.859 5.94458H108.728V16.6653H106.859V5.94458ZM102.293 10.3059H113.68V12.2932H102.293V10.3059Z" fill="white"/>
<path d="M153.983 5.94458H155.852V16.6653H153.983V5.94458ZM149.417 10.3059H160.804V12.2932H149.417V10.3059Z" fill="white"/>
<path d="M201.107 5.94458H202.976V16.6653H201.107V5.94458ZM196.542 10.3059H207.928V12.2932H196.542V10.3059Z" fill="white"/>
</svg>
