<svg width="226" height="208" viewBox="0 0 226 208" fill="none" xmlns="http://www.w3.org/2000/svg">
<path d="M211.426 12.055L209.557 12.0645L209.503 1.34398L211.372 1.33446L211.426 12.055ZM215.969 7.67051L204.583 7.72848L204.573 5.7412L215.959 5.68323L215.969 7.67051Z" fill="white"/>
<path d="M164.303 12.295L162.434 12.3045L162.379 1.58397L164.248 1.57445L164.303 12.295ZM168.846 7.9105L157.459 7.96847L157.449 5.98119L168.836 5.92322L168.846 7.9105Z" fill="white"/>
<path d="M117.179 12.5349L115.31 12.5444L115.255 1.82383L117.125 1.81432L117.179 12.5349ZM121.722 8.15037L110.336 8.20834L110.326 6.22106L121.712 6.16309L121.722 8.15037Z" fill="white"/>
<path d="M211.666 59.1786L209.797 59.1881L209.742 48.4675L211.612 48.458L211.666 59.1786ZM216.209 54.794L204.823 54.852L204.813 52.8647L216.199 52.8068L216.209 54.794Z" fill="white"/>
<path d="M164.543 59.4185L162.674 59.4281L162.619 48.7075L164.488 48.698L164.543 59.4185ZM169.086 55.034L157.699 55.092L157.689 53.1047L169.076 53.0468L169.086 55.034Z" fill="white"/>
<path d="M117.419 59.6584L115.55 59.6679L115.495 48.9474L117.364 48.9379L117.419 59.6584ZM121.962 55.2739L110.575 55.3319L110.565 53.3446L121.952 53.2866L121.962 55.2739Z" fill="white"/>
<path d="M70.2955 59.8984L68.4263 59.9079L68.3718 49.1874L70.2409 49.1778L70.2955 59.8984ZM74.8386 55.5139L63.4521 55.5719L63.4419 53.5846L74.8285 53.5266L74.8386 55.5139Z" fill="white"/>
<path d="M211.906 106.302L210.037 106.312L209.982 95.5912L211.852 95.5817L211.906 106.302ZM216.449 101.918L205.063 101.976L205.053 99.9884L216.439 99.9304L216.449 101.918Z" fill="white"/>
<path d="M164.782 106.542L162.913 106.552L162.859 95.831L164.728 95.8215L164.782 106.542ZM169.326 102.158L157.939 102.216L157.929 100.228L169.315 100.17L169.326 102.158Z" fill="white"/>
<path d="M117.659 106.782L115.79 106.792L115.735 96.071L117.604 96.0615L117.659 106.782ZM122.202 102.398L110.815 102.456L110.805 100.468L122.192 100.41L122.202 102.398Z" fill="white"/>
<path d="M70.5353 107.022L68.6662 107.031L68.6116 96.3109L70.4807 96.3014L70.5353 107.022ZM75.0785 102.637L63.6919 102.695L63.6818 100.708L75.0684 100.65L75.0785 102.637Z" fill="white"/>
<path d="M23.4118 107.262L21.5427 107.271L21.4881 96.5509L23.3572 96.5414L23.4118 107.262ZM27.955 102.877L16.5684 102.935L16.5583 100.948L27.9448 100.89L27.955 102.877Z" fill="white"/>
<path d="M212.146 153.426L210.277 153.435L210.222 142.715L212.091 142.705L212.146 153.426ZM216.689 149.041L205.303 149.099L205.292 147.112L216.679 147.054L216.689 149.041Z" fill="white"/>
<path d="M165.022 153.666L163.153 153.675L163.099 142.955L164.968 142.945L165.022 153.666ZM169.566 149.281L158.179 149.339L158.169 147.352L169.555 147.294L169.566 149.281Z" fill="white"/>
<path d="M117.899 153.906L116.03 153.915L115.975 143.195L117.844 143.185L117.899 153.906ZM122.442 149.521L111.055 149.579L111.045 147.592L122.432 147.534L122.442 149.521Z" fill="white"/>
<path d="M70.7753 154.146L68.9062 154.155L68.8516 143.435L70.7207 143.425L70.7753 154.146ZM75.3185 149.761L63.9319 149.819L63.9218 147.832L75.3084 147.774L75.3185 149.761Z" fill="white"/>
<path d="M23.6517 154.385L21.7825 154.395L21.728 143.674L23.5971 143.665L23.6517 154.385ZM28.1948 150.001L16.8083 150.059L16.7981 148.072L28.1847 148.014L28.1948 150.001Z" fill="white"/>
<path d="M212.386 200.549L210.517 200.559L210.462 189.838L212.331 189.829L212.386 200.549ZM216.929 196.165L205.543 196.223L205.532 194.235L216.919 194.177L216.929 196.165Z" fill="white"/>
<path d="M165.262 200.789L163.393 200.799L163.339 190.078L165.208 190.069L165.262 200.789ZM169.806 196.405L158.419 196.463L158.409 194.475L169.795 194.417L169.806 196.405Z" fill="white"/>
<path d="M118.139 201.029L116.27 201.039L116.215 190.318L118.084 190.309L118.139 201.029ZM122.682 196.645L111.295 196.703L111.285 194.715L122.672 194.657L122.682 196.645Z" fill="white"/>
<path d="M71.0152 201.269L69.1461 201.279L69.0915 190.558L70.9606 190.549L71.0152 201.269ZM75.5584 196.885L64.1718 196.943L64.1617 194.955L75.5482 194.897L75.5584 196.885Z" fill="white"/>
<path d="M23.8917 201.509L22.0225 201.519L21.968 190.798L23.8371 190.789L23.8917 201.509ZM28.4348 197.125L17.0482 197.183L17.0381 195.195L28.4247 195.137L28.4348 197.125Z" fill="white"/>
</svg>
