<svg width="132" height="29" viewBox="0 0 132 29" fill="none" xmlns="http://www.w3.org/2000/svg">
<path d="M5.87664 24.3948H15.5311V29H0V0.0414898H5.87664V24.3948Z" fill="white"/>
<path d="M27.2417 4.72961V11.99H37.1061V16.5951H27.2417V24.2704H38.3654V29H21.3651V0H38.3654V4.72961H27.2417Z" fill="white"/>
<path d="M63.7704 23.4821H52.101L50.1701 29H43.9997L54.5356 0H61.3777L71.9137 29H65.7013L63.7704 23.4821ZM62.1753 18.8355L57.9357 6.72103L53.6961 18.8355H62.1753Z" fill="white"/>
<path d="M93.062 29L86.5977 17.7153H83.8273V29H77.9507V0.0414898H88.9484C91.2151 0.0414898 93.146 0.442539 94.7411 1.24464C96.3362 2.01908 97.5255 3.08393 98.309 4.4392C99.1206 5.76681 99.5263 7.26037 99.5263 8.91989C99.5263 10.8283 98.9667 12.557 97.8473 14.1059C96.7279 15.6271 95.0629 16.6781 92.8522 17.2589L99.8621 29H93.062ZM83.8273 13.3591H88.7385C90.3336 13.3591 91.5229 12.9857 92.3065 12.2389C93.09 11.4645 93.4818 10.3996 93.4818 9.04435C93.4818 7.71674 93.09 6.69337 92.3065 5.97425C91.5229 5.22747 90.3336 4.85408 88.7385 4.85408H83.8273V13.3591Z" fill="white"/>
<path d="M132 29H126.123L112.817 9.12733V29H106.94V0H112.817L126.123 19.9142V0H132V29Z" fill="white"/>
</svg>
