<svg width="564" height="138" viewBox="0 0 564 138" fill="none" xmlns="http://www.w3.org/2000/svg">
<path d="M54.8087 138C39.1491 138 26.2903 134.31 16.2325 126.929C6.17473 119.422 0.763884 108.733 0 94.8631H39.9129C40.2949 99.5712 41.6953 103.007 44.1143 105.17C46.5333 107.333 49.6525 108.415 53.4719 108.415C56.9094 108.415 59.7103 107.588 61.8746 105.934C64.1663 104.152 65.3121 101.734 65.3121 98.6805C65.3121 94.7358 63.466 91.6819 59.7739 89.5187C56.0818 87.3555 50.0981 84.9378 41.8227 82.2656C33.038 79.3389 25.9084 76.5394 20.4339 73.8672C15.0867 71.0678 10.3761 67.0595 6.30204 61.8423C2.35531 56.4979 0.381942 49.5629 0.381942 41.0373C0.381942 32.3845 2.54628 25.0041 6.87496 18.8963C11.2036 12.6611 17.1874 7.95297 24.8262 4.77178C32.4651 1.59059 41.1224 0 50.7983 0C66.4579 0 78.9347 3.69018 88.2286 11.0705C97.6498 18.3237 102.679 28.5671 103.315 41.8008H62.6385C62.5112 37.7289 61.238 34.675 58.8191 32.639C56.5274 30.603 53.5355 29.5851 49.8434 29.5851C47.0425 29.5851 44.7509 30.4122 42.9685 32.0664C41.1861 33.7206 40.2949 36.0747 40.2949 39.1286C40.2949 41.6736 41.2497 43.9004 43.1595 45.8091C45.1965 47.5906 47.6791 49.1812 50.6073 50.5809C53.5355 51.8534 57.8642 53.5076 63.5933 55.5436C72.1234 58.4703 79.1257 61.397 84.6002 64.3236C90.202 67.1231 94.9762 71.1314 98.923 76.3485C102.997 81.4385 105.034 87.9281 105.034 95.8174C105.034 103.834 102.997 111.024 98.923 117.386C94.9762 123.748 89.1835 128.775 81.5446 132.465C74.0331 136.155 65.1211 138 54.8087 138Z" fill="black"/>
<path d="M242.937 2.09958V136.664H205.507V82.6473H159.865V136.664H122.435V2.09958H159.865V52.6805H205.507V2.09958H242.937Z" fill="black"/>
<path d="M301.024 2.09958V80.166C301.024 87.4191 302.679 93.018 305.989 96.9627C309.427 100.907 314.583 102.88 321.458 102.88C328.333 102.88 333.489 100.907 336.927 96.9627C340.491 92.8907 342.274 87.2918 342.274 80.166V2.09958H379.704V80.166C379.704 92.509 377.094 103.071 371.874 111.851C366.654 120.503 359.525 127.057 350.486 131.51C341.574 135.837 331.643 138 320.694 138C309.745 138 299.942 135.837 291.284 131.51C282.754 127.057 276.007 120.503 271.042 111.851C266.204 103.198 263.785 92.6362 263.785 80.166V2.09958H301.024Z" fill="black"/>
<path d="M468.489 136.664L441.753 87.0373H437.743V136.664H400.312V2.09958H459.323C470.144 2.09958 479.311 4.0083 486.822 7.82573C494.334 11.5159 499.999 16.6694 503.819 23.2863C507.638 29.7759 509.548 37.0927 509.548 45.2365C509.548 54.3983 507.002 62.4786 501.909 69.4772C496.944 76.3485 489.623 81.2476 479.947 84.1743L510.312 136.664H468.489ZM437.743 61.4606H456.267C461.36 61.4606 465.179 60.2517 467.725 57.834C470.272 55.4163 471.545 51.917 471.545 47.3361C471.545 43.0097 470.208 39.6376 467.534 37.2199C464.988 34.675 461.232 33.4025 456.267 33.4025H437.743V61.4606Z" fill="black"/>
<path d="M564 2.09958V136.664H526.57V2.09958H564Z" fill="black"/>
</svg>
