<svg width="574" height="125" viewBox="0 0 574 125" fill="none" xmlns="http://www.w3.org/2000/svg">
<path d="M98.2029 1.90179V28.8727H65.8132V123.79H32.0452V28.8727H0V1.90179H98.2029Z" fill="white"/>
<path d="M168.929 125C157.558 125 147.106 122.349 137.573 117.047C128.04 111.63 120.459 104.195 114.831 94.7441C109.318 85.1775 106.562 74.4006 106.562 62.4136C106.562 50.4265 109.318 39.7072 114.831 30.2559C120.459 20.6893 128.04 13.255 137.573 7.95297C147.106 2.65099 157.558 0 168.929 0C180.415 0 190.867 2.65099 200.285 7.95297C209.818 13.255 217.341 20.6893 222.854 30.2559C228.368 39.7072 231.124 50.4265 231.124 62.4136C231.124 74.4006 228.368 85.1775 222.854 94.7441C217.341 104.195 209.818 111.63 200.285 117.047C190.752 122.349 180.3 125 168.929 125ZM168.929 93.5339C177.543 93.5339 184.32 90.71 189.259 85.0622C194.312 79.4145 196.839 71.8649 196.839 62.4136C196.839 52.7317 194.312 45.1245 189.259 39.592C184.32 33.9442 177.543 31.1203 168.929 31.1203C160.2 31.1203 153.366 33.9442 148.427 39.592C143.488 45.1245 141.019 52.7317 141.019 62.4136C141.019 71.9802 143.488 79.5874 148.427 85.2351C153.366 90.7676 160.2 93.5339 168.929 93.5339Z" fill="white"/>
<path d="M279.383 1.90179V72.6141C279.383 79.184 280.876 84.2554 283.863 87.8285C286.964 91.4016 291.615 93.1881 297.818 93.1881C304.02 93.1881 308.672 91.4016 311.773 87.8285C314.989 84.1402 316.597 79.0687 316.597 72.6141V1.90179H350.365V72.6141C350.365 83.7944 348.01 93.361 343.301 101.314C338.592 109.152 332.16 115.088 324.005 119.122C315.965 123.041 307.006 125 297.129 125C287.251 125 278.407 123.041 270.596 119.122C262.901 115.088 256.814 109.152 252.334 101.314C247.97 93.4762 245.787 83.9096 245.787 72.6141V1.90179H279.383Z" fill="white"/>
<path d="M430.463 123.79L406.343 78.8382H402.725V123.79H368.957V1.90179H422.193C431.956 1.90179 440.226 3.6307 447.002 7.08852C453.779 10.4311 458.89 15.0991 462.336 21.0927C465.782 26.9709 467.504 33.5984 467.504 40.9751C467.504 49.2739 465.207 56.5929 460.613 62.9322C456.134 69.1563 449.529 73.5938 440.8 76.2448L468.194 123.79H430.463ZM402.725 55.6708H419.437C424.031 55.6708 427.477 54.5758 429.774 52.3859C432.071 50.1959 433.22 47.0263 433.22 42.8769C433.22 38.958 432.014 35.9036 429.602 33.7137C427.304 31.4085 423.916 30.2559 419.437 30.2559H402.725V55.6708Z" fill="white"/>
<path d="M528.689 125C514.561 125 502.961 121.657 493.887 114.972C484.813 108.172 479.932 98.4901 479.243 85.9267H515.251C515.595 90.1913 516.859 93.3034 519.041 95.2628C521.223 97.2222 524.037 98.2019 527.483 98.2019C530.584 98.2019 533.111 97.4527 535.063 95.9544C537.131 94.3407 538.165 92.1508 538.165 89.3845C538.165 85.8114 536.499 83.0452 533.168 81.0858C529.837 79.1263 524.439 76.9364 516.973 74.5159C509.048 71.8649 502.616 69.3292 497.677 66.9087C492.853 64.373 488.604 60.7423 484.928 56.0166C481.368 51.1757 479.587 44.894 479.587 37.1715C479.587 29.3338 481.54 22.6487 485.445 17.1162C489.35 11.4684 494.749 7.20378 501.64 4.32226C508.531 1.44075 516.342 0 525.071 0C539.198 0 550.454 3.34255 558.839 10.0277C567.338 16.5975 571.875 25.876 572.449 37.8631H535.753C535.638 34.1747 534.489 31.4085 532.307 29.5643C530.239 27.7201 527.54 26.7981 524.209 26.7981C521.683 26.7981 519.615 27.5473 518.007 29.0456C516.399 30.544 515.595 32.6763 515.595 35.4426C515.595 37.7478 516.457 39.7649 518.179 41.4938C520.017 43.1074 522.257 44.5482 524.899 45.816C527.54 46.9686 531.445 48.467 536.614 50.3112C544.309 52.9622 550.627 55.6132 555.565 58.2642C560.619 60.7999 564.926 64.4306 568.487 69.1563C572.162 73.7667 574 79.645 574 86.7911C574 94.0526 572.162 100.565 568.487 106.328C564.926 112.091 559.7 116.644 552.809 119.986C546.032 123.329 537.992 125 528.689 125Z" fill="white"/>
</svg>
