<svg width="110" height="30" viewBox="0 0 110 30" fill="none" xmlns="http://www.w3.org/2000/svg">
<path d="M28.7769 0.41958L17.975 29.7063H10.8019L0 0.41958H6.32923L14.4306 23.7063L22.4899 0.41958H28.7769Z" fill="white"/>
<path d="M40.3356 0.41958V29.7063H34.4284V0.41958H40.3356Z" fill="white"/>
<path d="M58.4507 30C56.3973 30 54.5407 29.6503 52.881 28.951C51.2495 28.2517 49.9555 27.2448 48.9991 25.9301C48.0427 24.6154 47.5504 23.0629 47.5223 21.2727H53.8515C53.9359 22.4755 54.3578 23.4266 55.1174 24.1259C55.905 24.8252 56.9739 25.1748 58.3242 25.1748C59.7025 25.1748 60.7855 24.8531 61.5732 24.2098C62.3608 23.5385 62.7546 22.6713 62.7546 21.6084C62.7546 20.7413 62.4874 20.028 61.9529 19.4685C61.4184 18.9091 60.7433 18.4755 59.9276 18.1678C59.1399 17.8322 58.0429 17.4685 56.6364 17.0769C54.7235 16.5175 53.1623 15.972 51.9527 15.4406C50.7713 14.8811 49.7445 14.0559 48.8725 12.965C48.0286 11.8462 47.6067 10.3636 47.6067 8.51748C47.6067 6.78322 48.0427 5.27273 48.9147 3.98601C49.7867 2.6993 51.0104 1.72028 52.5857 1.04895C54.1609 0.34965 55.9613 0 57.9866 0C61.0246 0 63.486 0.741258 65.3707 2.22377C67.2835 3.67832 68.3384 5.72028 68.5353 8.34965H62.0373C61.9811 7.34266 61.545 6.51748 60.7293 5.87413C59.9416 5.2028 58.8868 4.86713 57.5647 4.86713C56.4113 4.86713 55.483 5.16084 54.7798 5.74825C54.1047 6.33566 53.7671 7.18881 53.7671 8.30769C53.7671 9.09091 54.0203 9.74825 54.5266 10.2797C55.0611 10.7832 55.7081 11.2028 56.4676 11.5385C57.2552 11.8462 58.3523 12.2098 59.7588 12.6294C61.6716 13.1888 63.2328 13.7483 64.4424 14.3077C65.652 14.8671 66.6928 15.7063 67.5648 16.8252C68.4369 17.9441 68.8729 19.4126 68.8729 21.2308C68.8729 22.7972 68.465 24.2517 67.6492 25.5944C66.8335 26.9371 65.6379 28.014 64.0627 28.8252C62.4874 29.6084 60.6168 30 58.4507 30Z" fill="white"/>
<path d="M82.0113 0.41958V29.7063H76.104V0.41958H82.0113Z" fill="white"/>
<path d="M110 0.41958V5.16084H102.152V29.7063H96.2445V5.16084H88.3962V0.41958H110Z" fill="white"/>
</svg>
