<svg width="40" height="40" viewBox="0 0 40 40" fill="none" xmlns="http://www.w3.org/2000/svg">
<path d="M20.0003 0C11.8503 0 5.21973 6.63048 5.21973 14.7806C5.21973 22.6711 18.6944 38.9667 19.268 39.6565C19.4489 39.874 19.7173 40 20.0003 40C20.2832 40 20.5517 39.8742 20.7326 39.6565C21.3063 38.9666 34.7809 22.6711 34.7809 14.7806C34.7809 6.63048 28.1504 0 20.0003 0ZM20.0003 37.5363C18.8055 36.0443 16.3231 32.8657 13.8666 29.2319C9.45592 22.7076 7.12449 17.7104 7.12449 14.7806C7.12449 7.68076 12.9006 1.90476 20.0003 1.90476C27.1 1.90476 32.8761 7.68076 32.8761 14.7806C32.8761 17.7102 30.5448 22.7074 26.134 29.2319C23.6774 32.8657 21.1951 36.0443 20.0003 37.5363Z" fill="#98BE1D"/>
<path d="M24.8456 27.1691C24.4098 26.8747 23.8177 26.9895 23.5234 27.4253C22.2382 29.3277 20.7984 31.3216 19.2441 33.3516C18.9244 33.7693 19.0036 34.367 19.4213 34.6867C19.594 34.819 19.7975 34.883 19.9996 34.883C20.2858 34.883 20.5689 34.7544 20.7564 34.5096C22.3335 32.4499 23.7955 30.4251 25.1016 28.4916C25.3961 28.0557 25.2816 27.4636 24.8456 27.1691Z" fill="#98BE1D"/>
<path d="M20 7.30151C15.6938 7.30151 12.1904 10.8049 12.1904 15.111C12.1904 19.4172 15.6938 22.9206 20 22.9206C24.3061 22.9206 27.8095 19.4172 27.8095 15.111C27.8095 10.8049 24.3061 7.30151 20 7.30151ZM20 21.0158C16.7441 21.0158 14.0952 18.3669 14.0952 15.111C14.0952 11.8552 16.7441 9.20628 20 9.20628C23.256 9.20628 25.9047 11.8552 25.9047 15.111C25.9047 18.3669 23.256 21.0158 20 21.0158Z" fill="#98BE1D"/>
</svg>
