<svg width="49" height="49" viewBox="0 0 49 49" fill="none" xmlns="http://www.w3.org/2000/svg">
<g clip-path="url(#clip0_134_851)">
<path d="M31.1391 18.4131L33.2988 19.6629C33.4888 19.7729 33.7988 19.7729 33.9888 19.6629L35.2187 18.943C35.4086 18.833 35.4086 18.653 35.2187 18.5431L33.0589 17.2932C32.8689 17.1832 32.5589 17.1832 32.3689 17.2932L31.1391 18.0131C30.9491 18.1231 30.9491 18.3031 31.1391 18.4131Z" fill="#98BE1D"/>
<path d="M47.7874 22.5227L47.7974 16.7233C47.7974 16.7033 47.7974 16.6933 47.7974 16.6733V16.6633C47.7774 16.5333 47.6874 16.4033 47.5174 16.2933L19.5603 0.164983C19.1803 -0.0549944 18.5504 -0.0549944 18.1704 0.164983L1.50212 9.844C1.28214 9.97398 1.19215 10.144 1.23215 10.3139V15.8134L1.20215 15.8334L1.23215 15.8534V21.2428L1.20215 21.2628L1.23215 21.2828V26.6823L1.20215 26.7023L1.23215 26.7223V32.1317L28.1894 47.7401L29.7992 48.67L30.3592 49L47.7574 38.891L47.7674 33.4316V33.4216L47.7874 22.5227L47.7974 22.5127L47.7874 22.5227ZM8.62139 8.75411C8.46141 8.66412 8.30142 8.58412 8.12144 8.51413L15.8906 4.00459C16.0106 4.10458 16.1406 4.20457 16.3006 4.29456C17.7205 5.11448 20.0202 5.11448 21.4301 4.29456C21.5901 4.20457 21.7301 4.10458 21.85 3.99459L40.7481 14.8935C40.4981 14.9835 40.2582 15.0835 40.0482 15.2134C38.6383 16.0334 38.6483 17.3632 40.0682 18.1831C40.2882 18.3131 40.5281 18.4131 40.7881 18.5031L32.9489 23.0626C32.7989 22.9127 32.6089 22.7727 32.389 22.6527C30.9691 21.8328 28.6693 21.8328 27.2595 22.6527C27.1495 22.7127 27.0595 22.7827 26.9695 22.8527L8.12144 11.9738C8.30142 11.9038 8.47141 11.8238 8.64139 11.7238C10.0512 10.9039 10.0412 9.57402 8.62139 8.75411ZM45.6976 37.5712L30.3492 46.4803L3.29194 30.8319V27.9122L28.1594 42.2807L29.7692 43.2106L30.3392 43.5406L45.6976 34.6015V37.5712ZM45.6976 32.0917L30.3192 41.0208L3.29194 25.3924V22.4727L28.1894 36.8712L29.7992 37.8011L30.3592 38.1311L45.6976 29.212V32.0917ZM45.6976 26.5223L30.3492 35.6114L3.29194 19.973V17.0433L28.1594 31.4118L29.7692 32.3417L30.3392 32.6717L45.6976 23.7426V26.5223ZM45.6976 21.2128L30.3192 30.1419L3.29194 14.5435V11.6838L29.4593 26.7923C29.8492 27.0122 30.4692 27.0122 30.8491 26.7923L45.6976 18.1631V21.2128Z" fill="#98BE1D"/>
<path d="M13.8007 8.40417L15.9605 9.65404C16.1504 9.76403 16.4604 9.76403 16.6504 9.65404L17.8803 8.93412C18.0703 8.82413 18.0703 8.64415 17.8803 8.53416L15.7205 7.29428C15.5305 7.18429 15.2205 7.18429 15.0306 7.29428L13.8007 8.00421C13.6107 8.1142 13.6107 8.29418 13.8007 8.40417Z" fill="#98BE1D"/>
<path d="M30.0392 10.264C26.9695 8.49419 22 8.49419 18.9404 10.264C15.8907 12.0338 15.9107 14.9135 18.9803 16.6834C22.05 18.4532 27.0195 18.4532 30.0692 16.6834C33.1189 14.9135 33.0989 12.0338 30.0392 10.264ZM23.6399 14.4036H21.4801V13.1537V11.9438L23.6399 11.9538V13.1637L28.5794 13.1737V14.4236L23.6399 14.4036Z" fill="#98BE1D"/>
</g>
<defs>
<clipPath id="clip0_134_851">
<rect width="49" height="49" fill="white"/>
</clipPath>
</defs>
</svg>
