<svg width="194" height="239" viewBox="0 0 194 239" fill="none" xmlns="http://www.w3.org/2000/svg">
<path d="M272.621 105.623C281.948 150.121 253.385 193.766 208.822 203.106C164.259 212.446 120.575 183.943 111.248 139.445C101.922 94.9474 130.485 51.3023 175.048 41.9623C219.61 32.6223 263.295 61.1249 272.621 105.623Z" stroke="#6246E5" stroke-opacity="0.15"/>
<path d="M274.037 96.4184C284.474 146.218 252.508 195.063 202.637 205.516C152.765 215.968 103.876 184.07 93.4379 134.271C83.0003 84.471 114.967 35.626 164.838 25.1733C214.71 14.7206 263.599 46.6189 274.037 96.4184Z" stroke="#6246E5" stroke-opacity="0.15"/>
<path d="M275.788 88.814C287.214 143.326 252.223 196.793 197.632 208.235C143.041 219.677 89.5251 184.76 78.0998 130.248C66.6745 75.736 101.666 22.2689 156.257 10.8271C210.847 -0.614756 264.363 34.302 275.788 88.814Z" stroke="#6246E5" stroke-opacity="0.15"/>
<path d="M275.801 78.2333C288.09 136.869 250.452 194.38 191.732 206.687C133.012 218.995 75.4484 181.437 63.1588 122.801C50.8693 64.166 88.5073 6.65458 147.227 -5.65271C205.948 -17.96 263.511 19.5978 275.801 78.2333Z" stroke="#6246E5" stroke-opacity="0.15"/>
<path d="M275.869 67.9197C288.992 130.531 248.802 191.943 186.1 205.084C123.398 218.226 61.9304 178.122 48.8074 115.51C35.6845 52.8984 75.8748 -8.51287 138.577 -21.6547C201.279 -34.7966 262.746 5.30806 275.869 67.9197Z" stroke="#6246E5" stroke-opacity="0.15"/>
<path d="M276.192 56.1608C290.612 124.958 246.451 192.435 177.555 206.875C108.659 221.315 41.1199 177.249 26.7006 108.452C12.2813 39.6555 56.4419 -27.8222 125.338 -42.2623C194.234 -56.7023 261.773 -12.636 276.192 56.1608Z" stroke="#6246E5" stroke-opacity="0.15"/>
</svg>
