<svg width="1121" height="353" viewBox="0 0 1121 353" fill="none" xmlns="http://www.w3.org/2000/svg">
<g clip-path="url(#clip0_36_51)">
<path d="M0 154C0 68.9482 68.9481 0 154 0H1079C1102.2 0 1121 18.804 1121 42V311C1121 334.196 1102.2 353 1079 353H32C14.3269 353 0 338.673 0 321V154Z" fill="#F9F7FE"/>
<path d="M104.547 404.771C59.082 404.771 22.2243 367.862 22.2243 322.331C22.2243 276.801 59.082 239.892 104.547 239.892C150.012 239.892 186.869 276.801 186.869 322.331C186.869 367.862 150.012 404.771 104.547 404.771Z" stroke="#6246E5" stroke-opacity="0.15"/>
<path d="M113.265 408.045C62.3835 408.045 21.1346 366.739 21.1346 315.783C21.1346 264.828 62.3835 223.522 113.265 223.522C164.147 223.522 205.396 264.828 205.396 315.783C205.396 366.739 164.147 408.045 113.265 408.045Z" stroke="#6246E5" stroke-opacity="0.15"/>
<path d="M120.349 411.319C64.6522 411.319 19.5 366.104 19.5 310.327C19.5 254.55 64.6522 209.335 120.349 209.335C176.045 209.335 221.197 254.55 221.197 310.327C221.197 366.104 176.045 411.319 120.349 411.319Z" stroke="#6246E5" stroke-opacity="0.15"/>
<path d="M130.702 413.502C70.7922 413.502 22.2247 364.867 22.2247 304.87C22.2247 244.874 70.7922 196.239 130.702 196.239C190.611 196.239 239.179 244.874 239.179 304.87C239.179 364.867 190.611 413.502 130.702 413.502Z" stroke="#6246E5" stroke-opacity="0.15"/>
<path d="M140.782 415.684C76.8097 415.684 24.9488 363.751 24.9488 299.687C24.9489 235.622 76.8097 183.689 140.782 183.689C204.754 183.689 256.615 235.622 256.615 299.687C256.615 363.751 204.754 415.684 140.782 415.684Z" stroke="#6246E5" stroke-opacity="0.15"/>
<path d="M152.224 418.413C81.9328 418.413 24.9489 361.349 24.9489 290.956C24.9489 220.563 81.9328 163.5 152.224 163.5C222.516 163.5 279.5 220.563 279.5 290.956C279.5 361.349 222.516 418.413 152.224 418.413Z" stroke="#6246E5" stroke-opacity="0.15"/>
<path d="M1199.62 105.623C1208.95 150.121 1180.38 193.766 1135.82 203.106C1091.26 212.446 1047.57 183.943 1038.25 139.445C1028.92 94.9474 1057.48 51.3023 1102.05 41.9623C1146.61 32.6223 1190.29 61.1249 1199.62 105.623Z" stroke="#6246E5" stroke-opacity="0.15"/>
<path d="M1201.04 96.4184C1211.47 146.218 1179.51 195.063 1129.64 205.516C1079.76 215.968 1030.88 184.07 1020.44 134.271C1010 84.471 1041.97 35.626 1091.84 25.1733C1141.71 14.7206 1190.6 46.6189 1201.04 96.4184Z" stroke="#6246E5" stroke-opacity="0.15"/>
<path d="M1202.79 88.814C1214.21 143.326 1179.22 196.793 1124.63 208.235C1070.04 219.677 1016.53 184.76 1005.1 130.248C993.675 75.736 1028.67 22.2689 1083.26 10.8271C1137.85 -0.614756 1191.36 34.302 1202.79 88.814Z" stroke="#6246E5" stroke-opacity="0.15"/>
<path d="M1202.8 78.2333C1215.09 136.869 1177.45 194.38 1118.73 206.687C1060.01 218.995 1002.45 181.437 990.159 122.801C977.869 64.166 1015.51 6.65458 1074.23 -5.65271C1132.95 -17.96 1190.51 19.5978 1202.8 78.2333Z" stroke="#6246E5" stroke-opacity="0.15"/>
<path d="M1202.87 67.9197C1215.99 130.531 1175.8 191.943 1113.1 205.084C1050.4 218.226 988.931 178.122 975.808 115.51C962.685 52.8984 1002.88 -8.51287 1065.58 -21.6547C1128.28 -34.7966 1189.75 5.30806 1202.87 67.9197Z" stroke="#6246E5" stroke-opacity="0.15"/>
<path d="M1203.19 56.1608C1217.61 124.958 1173.45 192.435 1104.56 206.875C1035.66 221.315 968.12 177.249 953.701 108.452C939.281 39.6555 983.442 -27.8222 1052.34 -42.2623C1121.23 -56.7023 1188.77 -12.636 1203.19 56.1608Z" stroke="#6246E5" stroke-opacity="0.15"/>
<rect x="280" y="209" width="421" height="72" rx="10" fill="white"/>
<path d="M329.542 253.771H317.458C313.833 253.771 311.417 251.958 311.417 247.729V239.271C311.417 235.042 313.833 233.229 317.458 233.229H329.542C333.167 233.229 335.583 235.042 335.583 239.271V247.729C335.583 251.958 333.167 253.771 329.542 253.771Z" stroke="#292D32" stroke-width="1.5" stroke-miterlimit="10" stroke-linecap="round" stroke-linejoin="round"/>
<path d="M329.542 239.875L325.759 242.896C324.515 243.887 322.473 243.887 321.228 242.896L317.458 239.875" stroke="#292D32" stroke-width="1.5" stroke-miterlimit="10" stroke-linecap="round" stroke-linejoin="round"/>
<path d="M369.26 239.27L366.04 245.472V249H364.444V245.472L361.21 239.27H362.988L365.242 244.044L367.496 239.27H369.26ZM373.873 249.126C373.145 249.126 372.487 248.963 371.899 248.636C371.311 248.3 370.849 247.833 370.513 247.236C370.177 246.629 370.009 245.929 370.009 245.136C370.009 244.352 370.181 243.657 370.527 243.05C370.872 242.443 371.343 241.977 371.941 241.65C372.538 241.323 373.205 241.16 373.943 241.16C374.68 241.16 375.347 241.323 375.945 241.65C376.542 241.977 377.013 242.443 377.359 243.05C377.704 243.657 377.877 244.352 377.877 245.136C377.877 245.92 377.699 246.615 377.345 247.222C376.99 247.829 376.505 248.3 375.889 248.636C375.282 248.963 374.61 249.126 373.873 249.126ZM373.873 247.74C374.283 247.74 374.666 247.642 375.021 247.446C375.385 247.25 375.679 246.956 375.903 246.564C376.127 246.172 376.239 245.696 376.239 245.136C376.239 244.576 376.131 244.105 375.917 243.722C375.702 243.33 375.417 243.036 375.063 242.84C374.708 242.644 374.325 242.546 373.915 242.546C373.504 242.546 373.121 242.644 372.767 242.84C372.421 243.036 372.146 243.33 371.941 243.722C371.735 244.105 371.633 244.576 371.633 245.136C371.633 245.967 371.843 246.611 372.263 247.068C372.692 247.516 373.229 247.74 373.873 247.74ZM386.44 241.286V249H384.844V248.09C384.592 248.407 384.261 248.659 383.85 248.846C383.449 249.023 383.02 249.112 382.562 249.112C381.956 249.112 381.41 248.986 380.924 248.734C380.448 248.482 380.07 248.109 379.79 247.614C379.52 247.119 379.384 246.522 379.384 245.822V241.286H380.966V245.584C380.966 246.275 381.139 246.807 381.484 247.18C381.83 247.544 382.301 247.726 382.898 247.726C383.496 247.726 383.967 247.544 384.312 247.18C384.667 246.807 384.844 246.275 384.844 245.584V241.286H386.44ZM390.142 242.406C390.375 242.014 390.683 241.711 391.066 241.496C391.458 241.272 391.92 241.16 392.452 241.16V242.812H392.046C391.421 242.812 390.945 242.971 390.618 243.288C390.301 243.605 390.142 244.156 390.142 244.94V249H388.546V241.286H390.142V242.406ZM399.152 240.558V243.414H402.512V244.716H399.152V247.698H402.932V249H397.556V239.256H402.932V240.558H399.152ZM414.236 241.16C414.842 241.16 415.384 241.286 415.86 241.538C416.345 241.79 416.723 242.163 416.994 242.658C417.274 243.153 417.414 243.75 417.414 244.45V249H415.832V244.688C415.832 243.997 415.659 243.47 415.314 243.106C414.968 242.733 414.497 242.546 413.9 242.546C413.302 242.546 412.826 242.733 412.472 243.106C412.126 243.47 411.954 243.997 411.954 244.688V249H410.372V244.688C410.372 243.997 410.199 243.47 409.854 243.106C409.508 242.733 409.037 242.546 408.44 242.546C407.842 242.546 407.366 242.733 407.012 243.106C406.666 243.47 406.494 243.997 406.494 244.688V249H404.898V241.286H406.494V242.168C406.755 241.851 407.086 241.603 407.488 241.426C407.889 241.249 408.318 241.16 408.776 241.16C409.392 241.16 409.942 241.291 410.428 241.552C410.913 241.813 411.286 242.191 411.548 242.686C411.781 242.219 412.145 241.851 412.64 241.58C413.134 241.3 413.666 241.16 414.236 241.16ZM418.913 245.108C418.913 244.333 419.071 243.647 419.389 243.05C419.715 242.453 420.154 241.991 420.705 241.664C421.265 241.328 421.881 241.16 422.553 241.16C423.159 241.16 423.687 241.281 424.135 241.524C424.592 241.757 424.956 242.051 425.227 242.406V241.286H426.837V249H425.227V247.852C424.956 248.216 424.587 248.519 424.121 248.762C423.654 249.005 423.122 249.126 422.525 249.126C421.862 249.126 421.255 248.958 420.705 248.622C420.154 248.277 419.715 247.801 419.389 247.194C419.071 246.578 418.913 245.883 418.913 245.108ZM425.227 245.136C425.227 244.604 425.115 244.142 424.891 243.75C424.676 243.358 424.391 243.059 424.037 242.854C423.682 242.649 423.299 242.546 422.889 242.546C422.478 242.546 422.095 242.649 421.741 242.854C421.386 243.05 421.097 243.344 420.873 243.736C420.658 244.119 420.551 244.576 420.551 245.108C420.551 245.64 420.658 246.107 420.873 246.508C421.097 246.909 421.386 247.217 421.741 247.432C422.105 247.637 422.487 247.74 422.889 247.74C423.299 247.74 423.682 247.637 424.037 247.432C424.391 247.227 424.676 246.928 424.891 246.536C425.115 246.135 425.227 245.668 425.227 245.136ZM429.745 240.264C429.455 240.264 429.213 240.166 429.017 239.97C428.821 239.774 428.723 239.531 428.723 239.242C428.723 238.953 428.821 238.71 429.017 238.514C429.213 238.318 429.455 238.22 429.745 238.22C430.025 238.22 430.263 238.318 430.459 238.514C430.655 238.71 430.753 238.953 430.753 239.242C430.753 239.531 430.655 239.774 430.459 239.97C430.263 240.166 430.025 240.264 429.745 240.264ZM430.529 241.286V249H428.933V241.286H430.529ZM434.22 238.64V249H432.624V238.64H434.22Z" fill="#303030"/>
<rect x="721" y="209" width="192" height="72" rx="12" fill="#98BE1D"/>
<path d="M786.96 250.112C786.181 250.112 785.477 249.979 784.848 249.712C784.229 249.445 783.739 249.061 783.376 248.56C783.013 248.059 782.827 247.467 782.816 246.784H785.216C785.248 247.243 785.408 247.605 785.696 247.872C785.995 248.139 786.4 248.272 786.912 248.272C787.435 248.272 787.845 248.149 788.144 247.904C788.443 247.648 788.592 247.317 788.592 246.912C788.592 246.581 788.491 246.309 788.288 246.096C788.085 245.883 787.829 245.717 787.52 245.6C787.221 245.472 786.805 245.333 786.272 245.184C785.547 244.971 784.955 244.763 784.496 244.56C784.048 244.347 783.659 244.032 783.328 243.616C783.008 243.189 782.848 242.624 782.848 241.92C782.848 241.259 783.013 240.683 783.344 240.192C783.675 239.701 784.139 239.328 784.736 239.072C785.333 238.805 786.016 238.672 786.784 238.672C787.936 238.672 788.869 238.955 789.584 239.52C790.309 240.075 790.709 240.853 790.784 241.856H788.32C788.299 241.472 788.133 241.157 787.824 240.912C787.525 240.656 787.125 240.528 786.624 240.528C786.187 240.528 785.835 240.64 785.568 240.864C785.312 241.088 785.184 241.413 785.184 241.84C785.184 242.139 785.28 242.389 785.472 242.592C785.675 242.784 785.92 242.944 786.208 243.072C786.507 243.189 786.923 243.328 787.456 243.488C788.181 243.701 788.773 243.915 789.232 244.128C789.691 244.341 790.085 244.661 790.416 245.088C790.747 245.515 790.912 246.075 790.912 246.768C790.912 247.365 790.757 247.92 790.448 248.432C790.139 248.944 789.685 249.355 789.088 249.664C788.491 249.963 787.781 250.112 786.96 250.112ZM801.222 241.136V250H798.966V248.88C798.678 249.264 798.299 249.568 797.83 249.792C797.371 250.005 796.87 250.112 796.326 250.112C795.633 250.112 795.019 249.968 794.486 249.68C793.953 249.381 793.531 248.949 793.222 248.384C792.923 247.808 792.774 247.125 792.774 246.336V241.136H795.014V246.016C795.014 246.72 795.19 247.264 795.542 247.648C795.894 248.021 796.374 248.208 796.982 248.208C797.601 248.208 798.086 248.021 798.438 247.648C798.79 247.264 798.966 246.72 798.966 246.016V241.136H801.222ZM805.672 242.432C805.96 242.005 806.355 241.659 806.856 241.392C807.368 241.125 807.949 240.992 808.6 240.992C809.357 240.992 810.04 241.179 810.648 241.552C811.267 241.925 811.752 242.459 812.104 243.152C812.467 243.835 812.648 244.629 812.648 245.536C812.648 246.443 812.467 247.248 812.104 247.952C811.752 248.645 811.267 249.184 810.648 249.568C810.04 249.952 809.357 250.144 808.6 250.144C807.939 250.144 807.357 250.016 806.856 249.76C806.365 249.493 805.971 249.152 805.672 248.736V250H803.432V238.16H805.672V242.432ZM810.36 245.536C810.36 245.003 810.248 244.544 810.024 244.16C809.811 243.765 809.523 243.467 809.16 243.264C808.808 243.061 808.424 242.96 808.008 242.96C807.603 242.96 807.219 243.067 806.856 243.28C806.504 243.483 806.216 243.781 805.992 244.176C805.779 244.571 805.672 245.035 805.672 245.568C805.672 246.101 805.779 246.565 805.992 246.96C806.216 247.355 806.504 247.659 806.856 247.872C807.219 248.075 807.603 248.176 808.008 248.176C808.424 248.176 808.808 248.069 809.16 247.856C809.523 247.643 809.811 247.339 810.024 246.944C810.248 246.549 810.36 246.08 810.36 245.536ZM817.668 250.144C816.943 250.144 816.292 250.016 815.716 249.76C815.14 249.493 814.681 249.136 814.34 248.688C814.009 248.24 813.828 247.744 813.796 247.2H816.052C816.095 247.541 816.26 247.824 816.548 248.048C816.847 248.272 817.215 248.384 817.652 248.384C818.079 248.384 818.409 248.299 818.644 248.128C818.889 247.957 819.012 247.739 819.012 247.472C819.012 247.184 818.863 246.971 818.564 246.832C818.276 246.683 817.812 246.523 817.172 246.352C816.511 246.192 815.967 246.027 815.54 245.856C815.124 245.685 814.761 245.424 814.452 245.072C814.153 244.72 814.004 244.245 814.004 243.648C814.004 243.157 814.143 242.709 814.42 242.304C814.708 241.899 815.113 241.579 815.636 241.344C816.169 241.109 816.793 240.992 817.508 240.992C818.564 240.992 819.407 241.259 820.036 241.792C820.665 242.315 821.012 243.024 821.076 243.92H818.932C818.9 243.568 818.751 243.291 818.484 243.088C818.228 242.875 817.881 242.768 817.444 242.768C817.039 242.768 816.724 242.843 816.5 242.992C816.287 243.141 816.18 243.349 816.18 243.616C816.18 243.915 816.329 244.144 816.628 244.304C816.927 244.453 817.391 244.608 818.02 244.768C818.66 244.928 819.188 245.093 819.604 245.264C820.02 245.435 820.377 245.701 820.676 246.064C820.985 246.416 821.145 246.885 821.156 247.472C821.156 247.984 821.012 248.443 820.724 248.848C820.447 249.253 820.041 249.573 819.508 249.808C818.985 250.032 818.372 250.144 817.668 250.144ZM822.419 245.568C822.419 244.651 822.605 243.851 822.979 243.168C823.352 242.475 823.869 241.941 824.531 241.568C825.192 241.184 825.949 240.992 826.803 240.992C827.901 240.992 828.808 241.269 829.523 241.824C830.248 242.368 830.733 243.136 830.979 244.128H828.563C828.435 243.744 828.216 243.445 827.907 243.232C827.608 243.008 827.235 242.896 826.787 242.896C826.147 242.896 825.64 243.131 825.267 243.6C824.893 244.059 824.707 244.715 824.707 245.568C824.707 246.411 824.893 247.067 825.267 247.536C825.64 247.995 826.147 248.224 826.787 248.224C827.693 248.224 828.285 247.819 828.563 247.008H830.979C830.733 247.968 830.248 248.731 829.523 249.296C828.797 249.861 827.891 250.144 826.803 250.144C825.949 250.144 825.192 249.957 824.531 249.584C823.869 249.2 823.352 248.667 822.979 247.984C822.605 247.291 822.419 246.485 822.419 245.568ZM834.86 242.512C835.148 242.043 835.521 241.675 835.98 241.408C836.449 241.141 836.982 241.008 837.58 241.008V243.36H836.988C836.284 243.36 835.75 243.525 835.388 243.856C835.036 244.187 834.86 244.763 834.86 245.584V250H832.62V241.136H834.86V242.512ZM840.224 240.08C839.83 240.08 839.499 239.957 839.232 239.712C838.976 239.456 838.848 239.141 838.848 238.768C838.848 238.395 838.976 238.085 839.232 237.84C839.499 237.584 839.83 237.456 840.224 237.456C840.619 237.456 840.944 237.584 841.2 237.84C841.467 238.085 841.6 238.395 841.6 238.768C841.6 239.141 841.467 239.456 841.2 239.712C840.944 239.957 840.619 240.08 840.224 240.08ZM841.328 241.136V250H839.088V241.136H841.328ZM845.782 242.432C846.07 242.005 846.464 241.659 846.966 241.392C847.478 241.125 848.059 240.992 848.71 240.992C849.467 240.992 850.15 241.179 850.758 241.552C851.376 241.925 851.862 242.459 852.214 243.152C852.576 243.835 852.758 244.629 852.758 245.536C852.758 246.443 852.576 247.248 852.214 247.952C851.862 248.645 851.376 249.184 850.758 249.568C850.15 249.952 849.467 250.144 848.71 250.144C848.048 250.144 847.467 250.016 846.966 249.76C846.475 249.493 846.08 249.152 845.782 248.736V250H843.542V238.16H845.782V242.432ZM850.47 245.536C850.47 245.003 850.358 244.544 850.134 244.16C849.92 243.765 849.632 243.467 849.27 243.264C848.918 243.061 848.534 242.96 848.118 242.96C847.712 242.96 847.328 243.067 846.966 243.28C846.614 243.483 846.326 243.781 846.102 244.176C845.888 244.571 845.782 245.035 845.782 245.568C845.782 246.101 845.888 246.565 846.102 246.96C846.326 247.355 846.614 247.659 846.966 247.872C847.328 248.075 847.712 248.176 848.118 248.176C848.534 248.176 848.918 248.069 849.27 247.856C849.632 247.643 849.92 247.339 850.134 246.944C850.358 246.549 850.47 246.08 850.47 245.536ZM862.625 245.376C862.625 245.696 862.604 245.984 862.561 246.24H856.081C856.135 246.88 856.359 247.381 856.753 247.744C857.148 248.107 857.633 248.288 858.209 248.288C859.041 248.288 859.633 247.931 859.985 247.216H862.401C862.145 248.069 861.655 248.773 860.929 249.328C860.204 249.872 859.313 250.144 858.257 250.144C857.404 250.144 856.636 249.957 855.953 249.584C855.281 249.2 854.753 248.661 854.369 247.968C853.996 247.275 853.809 246.475 853.809 245.568C853.809 244.651 853.996 243.845 854.369 243.152C854.743 242.459 855.265 241.925 855.937 241.552C856.609 241.179 857.383 240.992 858.257 240.992C859.1 240.992 859.852 241.173 860.513 241.536C861.185 241.899 861.703 242.416 862.065 243.088C862.439 243.749 862.625 244.512 862.625 245.376ZM860.305 244.736C860.295 244.16 860.087 243.701 859.681 243.36C859.276 243.008 858.78 242.832 858.193 242.832C857.639 242.832 857.169 243.003 856.785 243.344C856.412 243.675 856.183 244.139 856.097 244.736H860.305Z" fill="white"/>
<path d="M268.893 108.168C267.725 108.168 266.669 107.968 265.725 107.568C264.797 107.168 264.061 106.592 263.517 105.84C262.973 105.088 262.693 104.2 262.677 103.176H266.277C266.325 103.864 266.565 104.408 266.997 104.808C267.445 105.208 268.053 105.408 268.821 105.408C269.605 105.408 270.221 105.224 270.669 104.856C271.117 104.472 271.341 103.976 271.341 103.368C271.341 102.872 271.189 102.464 270.885 102.144C270.581 101.824 270.197 101.576 269.733 101.4C269.285 101.208 268.661 101 267.861 100.776C266.773 100.456 265.885 100.144 265.197 99.84C264.525 99.52 263.941 99.048 263.445 98.424C262.965 97.784 262.725 96.936 262.725 95.88C262.725 94.888 262.973 94.024 263.469 93.288C263.965 92.552 264.661 91.992 265.557 91.608C266.453 91.208 267.477 91.008 268.629 91.008C270.357 91.008 271.757 91.432 272.829 92.28C273.917 93.112 274.517 94.28 274.629 95.784H270.933C270.901 95.208 270.653 94.736 270.189 94.368C269.741 93.984 269.141 93.792 268.389 93.792C267.733 93.792 267.205 93.96 266.805 94.296C266.421 94.632 266.229 95.12 266.229 95.76C266.229 96.208 266.373 96.584 266.661 96.888C266.965 97.176 267.333 97.416 267.765 97.608C268.213 97.784 268.837 97.992 269.637 98.232C270.725 98.552 271.613 98.872 272.301 99.192C272.989 99.512 273.581 99.992 274.077 100.632C274.573 101.272 274.821 102.112 274.821 103.152C274.821 104.048 274.589 104.88 274.125 105.648C273.661 106.416 272.981 107.032 272.085 107.496C271.189 107.944 270.125 108.168 268.893 108.168ZM290.286 94.704V108H286.902V106.32C286.47 106.896 285.902 107.352 285.198 107.688C284.51 108.008 283.758 108.168 282.942 108.168C281.902 108.168 280.982 107.952 280.182 107.52C279.382 107.072 278.75 106.424 278.286 105.576C277.838 104.712 277.614 103.688 277.614 102.504V94.704H280.974V102.024C280.974 103.08 281.238 103.896 281.766 104.472C282.294 105.032 283.014 105.312 283.926 105.312C284.854 105.312 285.582 105.032 286.11 104.472C286.638 103.896 286.902 103.08 286.902 102.024V94.704H290.286ZM296.961 96.648C297.393 96.008 297.985 95.488 298.737 95.088C299.505 94.688 300.377 94.488 301.353 94.488C302.489 94.488 303.513 94.768 304.425 95.328C305.353 95.888 306.081 96.688 306.609 97.728C307.153 98.752 307.425 99.944 307.425 101.304C307.425 102.664 307.153 103.872 306.609 104.928C306.081 105.968 305.353 106.776 304.425 107.352C303.513 107.928 302.489 108.216 301.353 108.216C300.361 108.216 299.489 108.024 298.737 107.64C298.001 107.24 297.409 106.728 296.961 106.104V108H293.601V90.24H296.961V96.648ZM303.993 101.304C303.993 100.504 303.825 99.816 303.489 99.24C303.169 98.648 302.737 98.2 302.193 97.896C301.665 97.592 301.089 97.44 300.465 97.44C299.857 97.44 299.281 97.6 298.737 97.92C298.209 98.224 297.777 98.672 297.441 99.264C297.121 99.856 296.961 100.552 296.961 101.352C296.961 102.152 297.121 102.848 297.441 103.44C297.777 104.032 298.209 104.488 298.737 104.808C299.281 105.112 299.857 105.264 300.465 105.264C301.089 105.264 301.665 105.104 302.193 104.784C302.737 104.464 303.169 104.008 303.489 103.416C303.825 102.824 303.993 102.12 303.993 101.304ZM314.955 108.216C313.867 108.216 312.891 108.024 312.027 107.64C311.163 107.24 310.475 106.704 309.963 106.032C309.467 105.36 309.195 104.616 309.147 103.8H312.531C312.595 104.312 312.843 104.736 313.275 105.072C313.723 105.408 314.275 105.576 314.931 105.576C315.571 105.576 316.067 105.448 316.419 105.192C316.787 104.936 316.971 104.608 316.971 104.208C316.971 103.776 316.747 103.456 316.299 103.248C315.867 103.024 315.171 102.784 314.211 102.528C313.219 102.288 312.403 102.04 311.763 101.784C311.139 101.528 310.595 101.136 310.131 100.608C309.683 100.08 309.459 99.368 309.459 98.472C309.459 97.736 309.667 97.064 310.083 96.456C310.515 95.848 311.123 95.368 311.907 95.016C312.707 94.664 313.643 94.488 314.715 94.488C316.299 94.488 317.563 94.888 318.507 95.688C319.451 96.472 319.971 97.536 320.067 98.88H316.851C316.803 98.352 316.579 97.936 316.179 97.632C315.795 97.312 315.275 97.152 314.619 97.152C314.011 97.152 313.539 97.264 313.203 97.488C312.883 97.712 312.723 98.024 312.723 98.424C312.723 98.872 312.947 99.216 313.395 99.456C313.843 99.68 314.539 99.912 315.483 100.152C316.443 100.392 317.235 100.64 317.859 100.896C318.483 101.152 319.019 101.552 319.467 102.096C319.931 102.624 320.171 103.328 320.187 104.208C320.187 104.976 319.971 105.664 319.539 106.272C319.123 106.88 318.515 107.36 317.715 107.712C316.931 108.048 316.011 108.216 314.955 108.216ZM322.081 101.352C322.081 99.976 322.361 98.776 322.921 97.752C323.481 96.712 324.257 95.912 325.249 95.352C326.241 94.776 327.377 94.488 328.657 94.488C330.305 94.488 331.665 94.904 332.737 95.736C333.825 96.552 334.553 97.704 334.921 99.192H331.297C331.105 98.616 330.777 98.168 330.313 97.848C329.865 97.512 329.305 97.344 328.633 97.344C327.673 97.344 326.913 97.696 326.353 98.4C325.793 99.088 325.513 100.072 325.513 101.352C325.513 102.616 325.793 103.6 326.353 104.304C326.913 104.992 327.673 105.336 328.633 105.336C329.993 105.336 330.881 104.728 331.297 103.512H334.921C334.553 104.952 333.825 106.096 332.737 106.944C331.649 107.792 330.289 108.216 328.657 108.216C327.377 108.216 326.241 107.936 325.249 107.376C324.257 106.8 323.481 106 322.921 104.976C322.361 103.936 322.081 102.728 322.081 101.352ZM340.743 96.768C341.175 96.064 341.735 95.512 342.423 95.112C343.127 94.712 343.927 94.512 344.823 94.512V98.04H343.935C342.879 98.04 342.079 98.288 341.535 98.784C341.007 99.28 340.743 100.144 340.743 101.376V108H337.383V94.704H340.743V96.768ZM348.79 93.12C348.198 93.12 347.702 92.936 347.302 92.568C346.918 92.184 346.726 91.712 346.726 91.152C346.726 90.592 346.918 90.128 347.302 89.76C347.702 89.376 348.198 89.184 348.79 89.184C349.382 89.184 349.87 89.376 350.254 89.76C350.654 90.128 350.854 90.592 350.854 91.152C350.854 91.712 350.654 92.184 350.254 92.568C349.87 92.936 349.382 93.12 348.79 93.12ZM350.446 94.704V108H347.086V94.704H350.446ZM357.125 96.648C357.557 96.008 358.149 95.488 358.901 95.088C359.669 94.688 360.541 94.488 361.517 94.488C362.653 94.488 363.677 94.768 364.589 95.328C365.517 95.888 366.245 96.688 366.773 97.728C367.317 98.752 367.589 99.944 367.589 101.304C367.589 102.664 367.317 103.872 366.773 104.928C366.245 105.968 365.517 106.776 364.589 107.352C363.677 107.928 362.653 108.216 361.517 108.216C360.525 108.216 359.653 108.024 358.901 107.64C358.165 107.24 357.573 106.728 357.125 106.104V108H353.765V90.24H357.125V96.648ZM364.157 101.304C364.157 100.504 363.989 99.816 363.653 99.24C363.333 98.648 362.901 98.2 362.357 97.896C361.829 97.592 361.253 97.44 360.629 97.44C360.021 97.44 359.445 97.6 358.901 97.92C358.373 98.224 357.941 98.672 357.605 99.264C357.285 99.856 357.125 100.552 357.125 101.352C357.125 102.152 357.285 102.848 357.605 103.44C357.941 104.032 358.373 104.488 358.901 104.808C359.445 105.112 360.021 105.264 360.629 105.264C361.253 105.264 361.829 105.104 362.357 104.784C362.901 104.464 363.333 104.008 363.653 103.416C363.989 102.824 364.157 102.12 364.157 101.304ZM382.391 101.064C382.391 101.544 382.359 101.976 382.295 102.36H372.575C372.655 103.32 372.991 104.072 373.583 104.616C374.175 105.16 374.903 105.432 375.767 105.432C377.015 105.432 377.903 104.896 378.431 103.824H382.055C381.671 105.104 380.935 106.16 379.847 106.992C378.759 107.808 377.423 108.216 375.839 108.216C374.559 108.216 373.407 107.936 372.383 107.376C371.375 106.8 370.583 105.992 370.007 104.952C369.447 103.912 369.167 102.712 369.167 101.352C369.167 99.976 369.447 98.768 370.007 97.728C370.567 96.688 371.351 95.888 372.359 95.328C373.367 94.768 374.527 94.488 375.839 94.488C377.103 94.488 378.231 94.76 379.223 95.304C380.231 95.848 381.007 96.624 381.551 97.632C382.111 98.624 382.391 99.768 382.391 101.064ZM378.911 100.104C378.895 99.24 378.583 98.552 377.975 98.04C377.367 97.512 376.623 97.248 375.743 97.248C374.911 97.248 374.207 97.504 373.631 98.016C373.071 98.512 372.727 99.208 372.599 100.104H378.911ZM394.474 97.464V103.896C394.474 104.344 394.578 104.672 394.786 104.88C395.01 105.072 395.378 105.168 395.89 105.168H397.45V108H395.338C392.506 108 391.09 106.624 391.09 103.872V97.464H389.506V94.704H391.09V91.416H394.474V94.704H397.45V97.464H394.474ZM405.771 108.216C404.491 108.216 403.339 107.936 402.315 107.376C401.291 106.8 400.483 105.992 399.891 104.952C399.315 103.912 399.027 102.712 399.027 101.352C399.027 99.992 399.323 98.792 399.915 97.752C400.523 96.712 401.347 95.912 402.387 95.352C403.427 94.776 404.587 94.488 405.867 94.488C407.147 94.488 408.307 94.776 409.347 95.352C410.387 95.912 411.203 96.712 411.795 97.752C412.403 98.792 412.707 99.992 412.707 101.352C412.707 102.712 412.395 103.912 411.771 104.952C411.163 105.992 410.331 106.8 409.275 107.376C408.235 107.936 407.067 108.216 405.771 108.216ZM405.771 105.288C406.379 105.288 406.947 105.144 407.475 104.856C408.019 104.552 408.451 104.104 408.771 103.512C409.091 102.92 409.251 102.2 409.251 101.352C409.251 100.088 408.915 99.12 408.243 98.448C407.587 97.76 406.779 97.416 405.819 97.416C404.859 97.416 404.051 97.76 403.395 98.448C402.755 99.12 402.435 100.088 402.435 101.352C402.435 102.616 402.747 103.592 403.371 104.28C404.011 104.952 404.811 105.288 405.771 105.288ZM426.098 94.488C427.09 94.488 427.962 94.688 428.714 95.088C429.466 95.472 430.058 95.976 430.49 96.6V94.704H433.874V108.096C433.874 109.328 433.626 110.424 433.13 111.384C432.634 112.36 431.89 113.128 430.898 113.688C429.906 114.264 428.706 114.552 427.298 114.552C425.41 114.552 423.858 114.112 422.642 113.232C421.442 112.352 420.762 111.152 420.602 109.632H423.938C424.114 110.24 424.49 110.72 425.066 111.072C425.658 111.44 426.37 111.624 427.202 111.624C428.178 111.624 428.97 111.328 429.578 110.736C430.186 110.16 430.49 109.28 430.49 108.096V106.032C430.058 106.656 429.458 107.176 428.69 107.592C427.938 108.008 427.074 108.216 426.098 108.216C424.978 108.216 423.954 107.928 423.026 107.352C422.098 106.776 421.362 105.968 420.818 104.928C420.29 103.872 420.026 102.664 420.026 101.304C420.026 99.96 420.29 98.768 420.818 97.728C421.362 96.688 422.09 95.888 423.002 95.328C423.93 94.768 424.962 94.488 426.098 94.488ZM430.49 101.352C430.49 100.536 430.33 99.84 430.01 99.264C429.69 98.672 429.258 98.224 428.714 97.92C428.17 97.6 427.586 97.44 426.962 97.44C426.338 97.44 425.762 97.592 425.234 97.896C424.706 98.2 424.274 98.648 423.938 99.24C423.618 99.816 423.458 100.504 423.458 101.304C423.458 102.104 423.618 102.808 423.938 103.416C424.274 104.008 424.706 104.464 425.234 104.784C425.778 105.104 426.354 105.264 426.962 105.264C427.586 105.264 428.17 105.112 428.714 104.808C429.258 104.488 429.69 104.04 430.01 103.464C430.33 102.872 430.49 102.168 430.49 101.352ZM449.516 101.064C449.516 101.544 449.484 101.976 449.42 102.36H439.7C439.78 103.32 440.116 104.072 440.708 104.616C441.3 105.16 442.028 105.432 442.892 105.432C444.14 105.432 445.028 104.896 445.556 103.824H449.18C448.796 105.104 448.06 106.16 446.972 106.992C445.884 107.808 444.548 108.216 442.964 108.216C441.684 108.216 440.532 107.936 439.508 107.376C438.5 106.8 437.708 105.992 437.132 104.952C436.572 103.912 436.292 102.712 436.292 101.352C436.292 99.976 436.572 98.768 437.132 97.728C437.692 96.688 438.476 95.888 439.484 95.328C440.492 94.768 441.652 94.488 442.964 94.488C444.228 94.488 445.356 94.76 446.348 95.304C447.356 95.848 448.132 96.624 448.676 97.632C449.236 98.624 449.516 99.768 449.516 101.064ZM446.036 100.104C446.02 99.24 445.708 98.552 445.1 98.04C444.492 97.512 443.748 97.248 442.868 97.248C442.036 97.248 441.332 97.504 440.756 98.016C440.196 98.512 439.852 99.208 439.724 100.104H446.036ZM455.881 97.464V103.896C455.881 104.344 455.985 104.672 456.193 104.88C456.417 105.072 456.785 105.168 457.297 105.168H458.857V108H456.745C453.913 108 452.497 106.624 452.497 103.872V97.464H450.913V94.704H452.497V91.416H455.881V94.704H458.857V97.464H455.881ZM468.696 93.12C468.104 93.12 467.608 92.936 467.208 92.568C466.824 92.184 466.632 91.712 466.632 91.152C466.632 90.592 466.824 90.128 467.208 89.76C467.608 89.376 468.104 89.184 468.696 89.184C469.288 89.184 469.776 89.376 470.16 89.76C470.56 90.128 470.76 90.592 470.76 91.152C470.76 91.712 470.56 92.184 470.16 92.568C469.776 92.936 469.288 93.12 468.696 93.12ZM470.352 94.704V108H466.992V94.704H470.352ZM481.04 94.512C482.624 94.512 483.904 95.016 484.88 96.024C485.856 97.016 486.344 98.408 486.344 100.2V108H482.984V100.656C482.984 99.6 482.72 98.792 482.192 98.232C481.664 97.656 480.944 97.368 480.032 97.368C479.104 97.368 478.368 97.656 477.824 98.232C477.296 98.792 477.032 99.6 477.032 100.656V108H473.672V94.704H477.032V96.36C477.48 95.784 478.048 95.336 478.736 95.016C479.44 94.68 480.208 94.512 481.04 94.512ZM495.635 97.464H493.307V108H489.899V97.464H488.387V94.704H489.899V94.032C489.899 92.4 490.363 91.2 491.291 90.432C492.219 89.664 493.619 89.304 495.491 89.352V92.184C494.675 92.168 494.107 92.304 493.787 92.592C493.467 92.88 493.307 93.4 493.307 94.152V94.704H495.635V97.464ZM503.716 108.216C502.436 108.216 501.284 107.936 500.26 107.376C499.236 106.8 498.428 105.992 497.836 104.952C497.26 103.912 496.972 102.712 496.972 101.352C496.972 99.992 497.268 98.792 497.86 97.752C498.468 96.712 499.292 95.912 500.332 95.352C501.372 94.776 502.532 94.488 503.812 94.488C505.092 94.488 506.252 94.776 507.292 95.352C508.332 95.912 509.148 96.712 509.74 97.752C510.348 98.792 510.652 99.992 510.652 101.352C510.652 102.712 510.34 103.912 509.716 104.952C509.108 105.992 508.276 106.8 507.22 107.376C506.18 107.936 505.012 108.216 503.716 108.216ZM503.716 105.288C504.324 105.288 504.892 105.144 505.42 104.856C505.964 104.552 506.396 104.104 506.716 103.512C507.036 102.92 507.196 102.2 507.196 101.352C507.196 100.088 506.86 99.12 506.188 98.448C505.532 97.76 504.724 97.416 503.764 97.416C502.804 97.416 501.996 97.76 501.34 98.448C500.7 99.12 500.38 100.088 500.38 101.352C500.38 102.616 500.692 103.592 501.316 104.28C501.956 104.952 502.756 105.288 503.716 105.288ZM516.477 96.768C516.909 96.064 517.469 95.512 518.157 95.112C518.861 94.712 519.661 94.512 520.557 94.512V98.04H519.669C518.613 98.04 517.813 98.288 517.269 98.784C516.741 99.28 516.477 100.144 516.477 101.376V108H513.117V94.704H516.477V96.768ZM539.332 94.512C540.964 94.512 542.276 95.016 543.268 96.024C544.276 97.016 544.78 98.408 544.78 100.2V108H541.42V100.656C541.42 99.616 541.156 98.824 540.628 98.28C540.1 97.72 539.38 97.44 538.468 97.44C537.556 97.44 536.828 97.72 536.284 98.28C535.756 98.824 535.492 99.616 535.492 100.656V108H532.132V100.656C532.132 99.616 531.868 98.824 531.34 98.28C530.812 97.72 530.092 97.44 529.18 97.44C528.252 97.44 527.516 97.72 526.972 98.28C526.444 98.824 526.18 99.616 526.18 100.656V108H522.82V94.704H526.18V96.312C526.612 95.752 527.164 95.312 527.836 94.992C528.524 94.672 529.276 94.512 530.092 94.512C531.132 94.512 532.06 94.736 532.876 95.184C533.692 95.616 534.324 96.24 534.772 97.056C535.204 96.288 535.828 95.672 536.644 95.208C537.476 94.744 538.372 94.512 539.332 94.512ZM547.104 101.304C547.104 99.96 547.368 98.768 547.896 97.728C548.441 96.688 549.169 95.888 550.081 95.328C551.009 94.768 552.041 94.488 553.177 94.488C554.169 94.488 555.033 94.688 555.769 95.088C556.521 95.488 557.121 95.992 557.569 96.6V94.704H560.953V108H557.569V106.056C557.137 106.68 556.537 107.2 555.769 107.616C555.017 108.016 554.145 108.216 553.153 108.216C552.033 108.216 551.009 107.928 550.081 107.352C549.169 106.776 548.441 105.968 547.896 104.928C547.368 103.872 547.104 102.664 547.104 101.304ZM557.569 101.352C557.569 100.536 557.409 99.84 557.089 99.264C556.769 98.672 556.337 98.224 555.793 97.92C555.249 97.6 554.665 97.44 554.041 97.44C553.417 97.44 552.841 97.592 552.312 97.896C551.785 98.2 551.353 98.648 551.017 99.24C550.697 99.816 550.537 100.504 550.537 101.304C550.537 102.104 550.697 102.808 551.017 103.416C551.353 104.008 551.785 104.464 552.312 104.784C552.857 105.104 553.433 105.264 554.041 105.264C554.665 105.264 555.249 105.112 555.793 104.808C556.337 104.488 556.769 104.04 557.089 103.464C557.409 102.872 557.569 102.168 557.569 101.352ZM568.146 97.464V103.896C568.146 104.344 568.25 104.672 568.458 104.88C568.682 105.072 569.05 105.168 569.562 105.168H571.122V108H569.01C566.178 108 564.762 106.624 564.762 103.872V97.464H563.178V94.704H564.762V91.416H568.146V94.704H571.122V97.464H568.146ZM575.243 93.12C574.651 93.12 574.155 92.936 573.755 92.568C573.371 92.184 573.179 91.712 573.179 91.152C573.179 90.592 573.371 90.128 573.755 89.76C574.155 89.376 574.651 89.184 575.243 89.184C575.835 89.184 576.323 89.376 576.707 89.76C577.107 90.128 577.307 90.592 577.307 91.152C577.307 91.712 577.107 92.184 576.707 92.568C576.323 92.936 575.835 93.12 575.243 93.12ZM576.899 94.704V108H573.539V94.704H576.899ZM586.123 108.216C584.843 108.216 583.691 107.936 582.667 107.376C581.643 106.8 580.835 105.992 580.243 104.952C579.667 103.912 579.379 102.712 579.379 101.352C579.379 99.992 579.675 98.792 580.267 97.752C580.875 96.712 581.699 95.912 582.739 95.352C583.779 94.776 584.939 94.488 586.219 94.488C587.499 94.488 588.659 94.776 589.699 95.352C590.739 95.912 591.555 96.712 592.147 97.752C592.755 98.792 593.059 99.992 593.059 101.352C593.059 102.712 592.747 103.912 592.122 104.952C591.515 105.992 590.683 106.8 589.627 107.376C588.587 107.936 587.419 108.216 586.123 108.216ZM586.123 105.288C586.731 105.288 587.299 105.144 587.827 104.856C588.371 104.552 588.803 104.104 589.123 103.512C589.443 102.92 589.603 102.2 589.603 101.352C589.603 100.088 589.267 99.12 588.595 98.448C587.939 97.76 587.131 97.416 586.171 97.416C585.211 97.416 584.403 97.76 583.747 98.448C583.107 99.12 582.787 100.088 582.787 101.352C582.787 102.616 583.099 103.592 583.723 104.28C584.363 104.952 585.163 105.288 586.123 105.288ZM602.891 94.512C604.475 94.512 605.755 95.016 606.731 96.024C607.707 97.016 608.195 98.408 608.195 100.2V108H604.835V100.656C604.835 99.6 604.571 98.792 604.043 98.232C603.515 97.656 602.795 97.368 601.883 97.368C600.955 97.368 600.219 97.656 599.675 98.232C599.147 98.792 598.883 99.6 598.883 100.656V108H595.523V94.704H598.883V96.36C599.331 95.784 599.899 95.336 600.587 95.016C601.291 94.68 602.059 94.512 602.891 94.512ZM615.062 104.472L612.254 111.216H610.094L611.654 104.472H615.062ZM626.563 90.24V108H623.203V90.24H626.563ZM629.019 101.304C629.019 99.96 629.283 98.768 629.811 97.728C630.355 96.688 631.083 95.888 631.995 95.328C632.923 94.768 633.955 94.488 635.091 94.488C636.083 94.488 636.947 94.688 637.683 95.088C638.435 95.488 639.035 95.992 639.483 96.6V94.704H642.867V108H639.483V106.056C639.051 106.68 638.451 107.2 637.683 107.616C636.931 108.016 636.059 108.216 635.067 108.216C633.947 108.216 632.923 107.928 631.995 107.352C631.083 106.776 630.355 105.968 629.811 104.928C629.283 103.872 629.019 102.664 629.019 101.304ZM639.483 101.352C639.483 100.536 639.323 99.84 639.003 99.264C638.683 98.672 638.251 98.224 637.707 97.92C637.163 97.6 636.579 97.44 635.955 97.44C635.331 97.44 634.755 97.592 634.227 97.896C633.699 98.2 633.267 98.648 632.931 99.24C632.611 99.816 632.451 100.504 632.451 101.304C632.451 102.104 632.611 102.808 632.931 103.416C633.267 104.008 633.699 104.464 634.227 104.784C634.771 105.104 635.347 105.264 635.955 105.264C636.579 105.264 637.163 105.112 637.707 104.808C638.251 104.488 638.683 104.04 639.003 103.464C639.323 102.872 639.483 102.168 639.483 101.352ZM650.06 97.464V103.896C650.06 104.344 650.164 104.672 650.372 104.88C650.596 105.072 650.964 105.168 651.476 105.168H653.036V108H650.924C648.092 108 646.676 106.624 646.676 103.872V97.464H645.092V94.704H646.676V91.416H650.06V94.704H653.036V97.464H650.06ZM667.813 101.064C667.813 101.544 667.781 101.976 667.717 102.36H657.997C658.077 103.32 658.413 104.072 659.005 104.616C659.597 105.16 660.325 105.432 661.189 105.432C662.437 105.432 663.325 104.896 663.853 103.824H667.477C667.093 105.104 666.357 106.16 665.269 106.992C664.181 107.808 662.845 108.216 661.261 108.216C659.981 108.216 658.829 107.936 657.805 107.376C656.797 106.8 656.005 105.992 655.429 104.952C654.869 103.912 654.589 102.712 654.589 101.352C654.589 99.976 654.869 98.768 655.429 97.728C655.989 96.688 656.773 95.888 657.781 95.328C658.789 94.768 659.949 94.488 661.261 94.488C662.525 94.488 663.653 94.76 664.645 95.304C665.653 95.848 666.429 96.624 666.973 97.632C667.533 98.624 667.813 99.768 667.813 101.064ZM664.333 100.104C664.317 99.24 664.005 98.552 663.397 98.04C662.789 97.512 662.045 97.248 661.165 97.248C660.333 97.248 659.629 97.504 659.053 98.016C658.493 98.512 658.149 99.208 658.021 100.104H664.333ZM675.353 108.216C674.265 108.216 673.289 108.024 672.425 107.64C671.561 107.24 670.873 106.704 670.361 106.032C669.865 105.36 669.593 104.616 669.545 103.8H672.929C672.993 104.312 673.241 104.736 673.673 105.072C674.121 105.408 674.673 105.576 675.329 105.576C675.969 105.576 676.465 105.448 676.817 105.192C677.185 104.936 677.369 104.608 677.369 104.208C677.369 103.776 677.145 103.456 676.697 103.248C676.265 103.024 675.569 102.784 674.609 102.528C673.617 102.288 672.801 102.04 672.161 101.784C671.537 101.528 670.993 101.136 670.529 100.608C670.081 100.08 669.857 99.368 669.857 98.472C669.857 97.736 670.065 97.064 670.481 96.456C670.913 95.848 671.521 95.368 672.305 95.016C673.105 94.664 674.041 94.488 675.113 94.488C676.697 94.488 677.961 94.888 678.905 95.688C679.849 96.472 680.369 97.536 680.465 98.88H677.249C677.201 98.352 676.977 97.936 676.577 97.632C676.193 97.312 675.673 97.152 675.017 97.152C674.409 97.152 673.937 97.264 673.601 97.488C673.281 97.712 673.121 98.024 673.121 98.424C673.121 98.872 673.345 99.216 673.793 99.456C674.241 99.68 674.937 99.912 675.881 100.152C676.841 100.392 677.633 100.64 678.257 100.896C678.881 101.152 679.417 101.552 679.865 102.096C680.329 102.624 680.569 103.328 680.585 104.208C680.585 104.976 680.369 105.664 679.937 106.272C679.521 106.88 678.913 107.36 678.113 107.712C677.329 108.048 676.409 108.216 675.353 108.216ZM687.256 97.464V103.896C687.256 104.344 687.36 104.672 687.568 104.88C687.792 105.072 688.16 105.168 688.672 105.168H690.232V108H688.12C685.288 108 683.872 106.624 683.872 103.872V97.464H682.288V94.704H683.872V91.416H687.256V94.704H690.232V97.464H687.256ZM705.735 94.512C707.319 94.512 708.599 95.016 709.575 96.024C710.551 97.016 711.039 98.408 711.039 100.2V108H707.679V100.656C707.679 99.6 707.415 98.792 706.887 98.232C706.359 97.656 705.639 97.368 704.727 97.368C703.799 97.368 703.063 97.656 702.519 98.232C701.991 98.792 701.727 99.6 701.727 100.656V108H698.367V94.704H701.727V96.36C702.175 95.784 702.743 95.336 703.431 95.016C704.135 94.68 704.903 94.512 705.735 94.512ZM726.594 101.064C726.594 101.544 726.562 101.976 726.498 102.36H716.778C716.858 103.32 717.194 104.072 717.786 104.616C718.378 105.16 719.106 105.432 719.97 105.432C721.218 105.432 722.106 104.896 722.634 103.824H726.258C725.874 105.104 725.138 106.16 724.05 106.992C722.962 107.808 721.626 108.216 720.042 108.216C718.762 108.216 717.61 107.936 716.586 107.376C715.578 106.8 714.786 105.992 714.21 104.952C713.65 103.912 713.37 102.712 713.37 101.352C713.37 99.976 713.65 98.768 714.21 97.728C714.77 96.688 715.554 95.888 716.562 95.328C717.57 94.768 718.73 94.488 720.042 94.488C721.306 94.488 722.434 94.76 723.426 95.304C724.434 95.848 725.21 96.624 725.754 97.632C726.314 98.624 726.594 99.768 726.594 101.064ZM723.114 100.104C723.098 99.24 722.786 98.552 722.178 98.04C721.57 97.512 720.826 97.248 719.946 97.248C719.114 97.248 718.41 97.504 717.834 98.016C717.274 98.512 716.93 99.208 716.802 100.104H723.114ZM747.479 94.704L743.591 108H739.967L737.543 98.712L735.119 108H731.471L727.559 94.704H730.967L733.319 104.832L735.863 94.704H739.415L741.911 104.808L744.263 94.704H747.479ZM754.385 108.216C753.297 108.216 752.321 108.024 751.457 107.64C750.593 107.24 749.905 106.704 749.393 106.032C748.897 105.36 748.625 104.616 748.577 103.8H751.961C752.025 104.312 752.273 104.736 752.705 105.072C753.153 105.408 753.705 105.576 754.361 105.576C755.001 105.576 755.497 105.448 755.849 105.192C756.217 104.936 756.401 104.608 756.401 104.208C756.401 103.776 756.177 103.456 755.729 103.248C755.297 103.024 754.601 102.784 753.641 102.528C752.649 102.288 751.833 102.04 751.193 101.784C750.569 101.528 750.025 101.136 749.561 100.608C749.113 100.08 748.889 99.368 748.889 98.472C748.889 97.736 749.097 97.064 749.513 96.456C749.945 95.848 750.553 95.368 751.337 95.016C752.137 94.664 753.073 94.488 754.145 94.488C755.729 94.488 756.993 94.888 757.937 95.688C758.881 96.472 759.401 97.536 759.497 98.88H756.281C756.233 98.352 756.009 97.936 755.609 97.632C755.225 97.312 754.705 97.152 754.049 97.152C753.441 97.152 752.969 97.264 752.633 97.488C752.313 97.712 752.153 98.024 752.153 98.424C752.153 98.872 752.377 99.216 752.825 99.456C753.273 99.68 753.969 99.912 754.913 100.152C755.873 100.392 756.665 100.64 757.289 100.896C757.913 101.152 758.449 101.552 758.897 102.096C759.361 102.624 759.601 103.328 759.617 104.208C759.617 104.976 759.401 105.664 758.969 106.272C758.553 106.88 757.945 107.36 757.145 107.712C756.361 108.048 755.441 108.216 754.385 108.216ZM767.229 101.304C767.229 99.96 767.493 98.768 768.021 97.728C768.566 96.688 769.294 95.888 770.206 95.328C771.134 94.768 772.166 94.488 773.302 94.488C774.294 94.488 775.158 94.688 775.894 95.088C776.646 95.488 777.246 95.992 777.694 96.6V94.704H781.078V108H777.694V106.056C777.262 106.68 776.662 107.2 775.894 107.616C775.142 108.016 774.27 108.216 773.278 108.216C772.158 108.216 771.134 107.928 770.206 107.352C769.294 106.776 768.566 105.968 768.021 104.928C767.493 103.872 767.229 102.664 767.229 101.304ZM777.694 101.352C777.694 100.536 777.534 99.84 777.214 99.264C776.894 98.672 776.462 98.224 775.918 97.92C775.374 97.6 774.79 97.44 774.166 97.44C773.542 97.44 772.966 97.592 772.438 97.896C771.91 98.2 771.478 98.648 771.142 99.24C770.822 99.816 770.662 100.504 770.662 101.304C770.662 102.104 770.822 102.808 771.142 103.416C771.478 104.008 771.91 104.464 772.438 104.784C772.982 105.104 773.558 105.264 774.166 105.264C774.79 105.264 775.374 105.112 775.918 104.808C776.462 104.488 776.894 104.04 777.214 103.464C777.534 102.872 777.694 102.168 777.694 101.352ZM791.727 94.512C793.311 94.512 794.591 95.016 795.567 96.024C796.543 97.016 797.031 98.408 797.031 100.2V108H793.671V100.656C793.671 99.6 793.407 98.792 792.879 98.232C792.351 97.656 791.631 97.368 790.719 97.368C789.791 97.368 789.055 97.656 788.511 98.232C787.983 98.792 787.719 99.6 787.719 100.656V108H784.359V94.704H787.719V96.36C788.167 95.784 788.735 95.336 789.423 95.016C790.127 94.68 790.895 94.512 791.727 94.512ZM799.362 101.304C799.362 99.96 799.626 98.768 800.154 97.728C800.698 96.688 801.434 95.888 802.362 95.328C803.29 94.768 804.322 94.488 805.458 94.488C806.322 94.488 807.146 94.68 807.93 95.064C808.714 95.432 809.338 95.928 809.802 96.552V90.24H813.21V108H809.802V106.032C809.386 106.688 808.802 107.216 808.05 107.616C807.298 108.016 806.426 108.216 805.434 108.216C804.314 108.216 803.29 107.928 802.362 107.352C801.434 106.776 800.698 105.968 800.154 104.928C799.626 103.872 799.362 102.664 799.362 101.304ZM809.826 101.352C809.826 100.536 809.666 99.84 809.346 99.264C809.026 98.672 808.594 98.224 808.05 97.92C807.506 97.6 806.922 97.44 806.298 97.44C805.674 97.44 805.098 97.592 804.57 97.896C804.042 98.2 803.61 98.648 803.274 99.24C802.954 99.816 802.794 100.504 802.794 101.304C802.794 102.104 802.954 102.808 803.274 103.416C803.61 104.008 804.042 104.464 804.57 104.784C805.114 105.104 805.69 105.264 806.298 105.264C806.922 105.264 807.506 105.112 808.05 104.808C808.594 104.488 809.026 104.04 809.346 103.464C809.666 102.872 809.826 102.168 809.826 101.352ZM828.115 108.216C826.835 108.216 825.683 107.936 824.659 107.376C823.635 106.8 822.827 105.992 822.235 104.952C821.659 103.912 821.371 102.712 821.371 101.352C821.371 99.992 821.667 98.792 822.259 97.752C822.867 96.712 823.691 95.912 824.731 95.352C825.771 94.776 826.931 94.488 828.211 94.488C829.491 94.488 830.651 94.776 831.691 95.352C832.731 95.912 833.547 96.712 834.139 97.752C834.747 98.792 835.051 99.992 835.051 101.352C835.051 102.712 834.739 103.912 834.115 104.952C833.507 105.992 832.675 106.8 831.619 107.376C830.579 107.936 829.411 108.216 828.115 108.216ZM828.115 105.288C828.723 105.288 829.291 105.144 829.819 104.856C830.363 104.552 830.795 104.104 831.115 103.512C831.435 102.92 831.595 102.2 831.595 101.352C831.595 100.088 831.259 99.12 830.587 98.448C829.931 97.76 829.123 97.416 828.163 97.416C827.203 97.416 826.395 97.76 825.739 98.448C825.099 99.12 824.779 100.088 824.779 101.352C824.779 102.616 825.091 103.592 825.715 104.28C826.355 104.952 827.155 105.288 828.115 105.288ZM841.427 97.464V103.896C841.427 104.344 841.531 104.672 841.739 104.88C841.963 105.072 842.331 105.168 842.843 105.168H844.403V108H842.291C839.459 108 838.043 106.624 838.043 103.872V97.464H836.459V94.704H838.043V91.416H841.427V94.704H844.403V97.464H841.427ZM854.308 94.512C855.316 94.512 856.212 94.736 856.996 95.184C857.78 95.616 858.388 96.264 858.82 97.128C859.268 97.976 859.492 99 859.492 100.2V108H856.132V100.656C856.132 99.6 855.868 98.792 855.34 98.232C854.812 97.656 854.092 97.368 853.18 97.368C852.252 97.368 851.516 97.656 850.972 98.232C850.444 98.792 850.18 99.6 850.18 100.656V108H846.82V90.24H850.18V96.36C850.612 95.784 851.188 95.336 851.908 95.016C852.628 94.68 853.428 94.512 854.308 94.512ZM875.047 101.064C875.047 101.544 875.015 101.976 874.951 102.36H865.231C865.311 103.32 865.647 104.072 866.239 104.616C866.831 105.16 867.559 105.432 868.423 105.432C869.671 105.432 870.559 104.896 871.087 103.824H874.711C874.327 105.104 873.591 106.16 872.503 106.992C871.415 107.808 870.079 108.216 868.495 108.216C867.215 108.216 866.063 107.936 865.039 107.376C864.031 106.8 863.239 105.992 862.663 104.952C862.103 103.912 861.823 102.712 861.823 101.352C861.823 99.976 862.103 98.768 862.663 97.728C863.223 96.688 864.007 95.888 865.015 95.328C866.023 94.768 867.183 94.488 868.495 94.488C869.759 94.488 870.887 94.76 871.879 95.304C872.887 95.848 873.663 96.624 874.207 97.632C874.767 98.624 875.047 99.768 875.047 101.064ZM871.567 100.104C871.551 99.24 871.239 98.552 870.631 98.04C870.023 97.512 869.279 97.248 868.399 97.248C867.567 97.248 866.863 97.504 866.287 98.016C865.727 98.512 865.383 99.208 865.255 100.104H871.567ZM880.86 96.768C881.292 96.064 881.852 95.512 882.54 95.112C883.244 94.712 884.044 94.512 884.94 94.512V98.04H884.052C882.996 98.04 882.196 98.288 881.652 98.784C881.124 99.28 880.86 100.144 880.86 101.376V108H877.5V94.704H880.86V96.768ZM365.594 129.12C365.002 129.12 364.506 128.936 364.106 128.568C363.722 128.184 363.53 127.712 363.53 127.152C363.53 126.592 363.722 126.128 364.106 125.76C364.506 125.376 365.002 125.184 365.594 125.184C366.186 125.184 366.674 125.376 367.058 125.76C367.458 126.128 367.658 126.592 367.658 127.152C367.658 127.712 367.458 128.184 367.058 128.568C366.674 128.936 366.186 129.12 365.594 129.12ZM367.25 130.704V144H363.89V130.704H367.25ZM377.938 130.512C379.522 130.512 380.802 131.016 381.778 132.024C382.754 133.016 383.242 134.408 383.242 136.2V144H379.882V136.656C379.882 135.6 379.618 134.792 379.09 134.232C378.562 133.656 377.842 133.368 376.93 133.368C376.002 133.368 375.266 133.656 374.722 134.232C374.194 134.792 373.93 135.6 373.93 136.656V144H370.57V130.704H373.93V132.36C374.378 131.784 374.946 131.336 375.634 131.016C376.338 130.68 377.106 130.512 377.938 130.512ZM390.349 133.464V139.896C390.349 140.344 390.453 140.672 390.661 140.88C390.885 141.072 391.253 141.168 391.765 141.168H393.325V144H391.213C388.381 144 386.965 142.624 386.965 139.872V133.464H385.381V130.704H386.965V127.416H390.349V130.704H393.325V133.464H390.349ZM408.102 137.064C408.102 137.544 408.07 137.976 408.006 138.36H398.286C398.366 139.32 398.702 140.072 399.294 140.616C399.886 141.16 400.614 141.432 401.478 141.432C402.726 141.432 403.614 140.896 404.142 139.824H407.766C407.382 141.104 406.646 142.16 405.558 142.992C404.47 143.808 403.134 144.216 401.55 144.216C400.27 144.216 399.118 143.936 398.094 143.376C397.086 142.8 396.294 141.992 395.718 140.952C395.158 139.912 394.878 138.712 394.878 137.352C394.878 135.976 395.158 134.768 395.718 133.728C396.278 132.688 397.062 131.888 398.07 131.328C399.078 130.768 400.238 130.488 401.55 130.488C402.814 130.488 403.942 130.76 404.934 131.304C405.942 131.848 406.718 132.624 407.262 133.632C407.822 134.624 408.102 135.768 408.102 137.064ZM404.622 136.104C404.606 135.24 404.294 134.552 403.686 134.04C403.078 133.512 402.334 133.248 401.454 133.248C400.622 133.248 399.918 133.504 399.342 134.016C398.782 134.512 398.438 135.208 398.31 136.104H404.622ZM413.914 132.768C414.346 132.064 414.906 131.512 415.594 131.112C416.298 130.712 417.098 130.512 417.994 130.512V134.04H417.106C416.05 134.04 415.25 134.288 414.706 134.784C414.178 135.28 413.914 136.144 413.914 137.376V144H410.554V130.704H413.914V132.768ZM432.618 137.064C432.618 137.544 432.586 137.976 432.522 138.36H422.802C422.882 139.32 423.218 140.072 423.81 140.616C424.402 141.16 425.13 141.432 425.994 141.432C427.242 141.432 428.13 140.896 428.658 139.824H432.282C431.898 141.104 431.162 142.16 430.074 142.992C428.986 143.808 427.65 144.216 426.066 144.216C424.786 144.216 423.634 143.936 422.61 143.376C421.602 142.8 420.81 141.992 420.234 140.952C419.674 139.912 419.394 138.712 419.394 137.352C419.394 135.976 419.674 134.768 420.234 133.728C420.794 132.688 421.578 131.888 422.586 131.328C423.594 130.768 424.754 130.488 426.066 130.488C427.33 130.488 428.458 130.76 429.45 131.304C430.458 131.848 431.234 132.624 431.778 133.632C432.338 134.624 432.618 135.768 432.618 137.064ZM429.138 136.104C429.122 135.24 428.81 134.552 428.202 134.04C427.594 133.512 426.85 133.248 425.97 133.248C425.138 133.248 424.434 133.504 423.858 134.016C423.298 134.512 422.954 135.208 422.826 136.104H429.138ZM440.158 144.216C439.07 144.216 438.094 144.024 437.23 143.64C436.366 143.24 435.678 142.704 435.166 142.032C434.67 141.36 434.398 140.616 434.35 139.8H437.734C437.798 140.312 438.046 140.736 438.478 141.072C438.926 141.408 439.478 141.576 440.134 141.576C440.774 141.576 441.27 141.448 441.622 141.192C441.99 140.936 442.174 140.608 442.174 140.208C442.174 139.776 441.95 139.456 441.502 139.248C441.07 139.024 440.374 138.784 439.414 138.528C438.422 138.288 437.606 138.04 436.966 137.784C436.342 137.528 435.798 137.136 435.334 136.608C434.886 136.08 434.662 135.368 434.662 134.472C434.662 133.736 434.87 133.064 435.286 132.456C435.718 131.848 436.326 131.368 437.11 131.016C437.91 130.664 438.846 130.488 439.918 130.488C441.502 130.488 442.766 130.888 443.71 131.688C444.654 132.472 445.174 133.536 445.27 134.88H442.054C442.006 134.352 441.782 133.936 441.382 133.632C440.998 133.312 440.478 133.152 439.822 133.152C439.214 133.152 438.742 133.264 438.406 133.488C438.086 133.712 437.926 134.024 437.926 134.424C437.926 134.872 438.15 135.216 438.598 135.456C439.046 135.68 439.742 135.912 440.686 136.152C441.646 136.392 442.438 136.64 443.062 136.896C443.686 137.152 444.222 137.552 444.67 138.096C445.134 138.624 445.374 139.328 445.39 140.208C445.39 140.976 445.174 141.664 444.742 142.272C444.326 142.88 443.718 143.36 442.918 143.712C442.134 144.048 441.214 144.216 440.158 144.216ZM452.06 133.464V139.896C452.06 140.344 452.164 140.672 452.372 140.88C452.596 141.072 452.964 141.168 453.476 141.168H455.036V144H452.924C450.092 144 448.676 142.624 448.676 139.872V133.464H447.092V130.704H448.676V127.416H452.06V130.704H455.036V133.464H452.06ZM459.157 129.12C458.565 129.12 458.069 128.936 457.669 128.568C457.285 128.184 457.093 127.712 457.093 127.152C457.093 126.592 457.285 126.128 457.669 125.76C458.069 125.376 458.565 125.184 459.157 125.184C459.749 125.184 460.237 125.376 460.621 125.76C461.021 126.128 461.221 126.592 461.221 127.152C461.221 127.712 461.021 128.184 460.621 128.568C460.237 128.936 459.749 129.12 459.157 129.12ZM460.813 130.704V144H457.453V130.704H460.813ZM471.501 130.512C473.085 130.512 474.365 131.016 475.341 132.024C476.317 133.016 476.805 134.408 476.805 136.2V144H473.445V136.656C473.445 135.6 473.181 134.792 472.653 134.232C472.125 133.656 471.405 133.368 470.493 133.368C469.565 133.368 468.829 133.656 468.285 134.232C467.757 134.792 467.493 135.6 467.493 136.656V144H464.133V130.704H467.493V132.36C467.941 131.784 468.509 131.336 469.197 131.016C469.901 130.68 470.669 130.512 471.501 130.512ZM485.208 130.488C486.2 130.488 487.072 130.688 487.824 131.088C488.576 131.472 489.168 131.976 489.6 132.6V130.704H492.984V144.096C492.984 145.328 492.736 146.424 492.24 147.384C491.744 148.36 491 149.128 490.008 149.688C489.016 150.264 487.816 150.552 486.408 150.552C484.52 150.552 482.968 150.112 481.752 149.232C480.552 148.352 479.872 147.152 479.712 145.632H483.048C483.224 146.24 483.6 146.72 484.176 147.072C484.768 147.44 485.48 147.624 486.312 147.624C487.288 147.624 488.08 147.328 488.688 146.736C489.296 146.16 489.6 145.28 489.6 144.096V142.032C489.168 142.656 488.568 143.176 487.8 143.592C487.048 144.008 486.184 144.216 485.208 144.216C484.088 144.216 483.064 143.928 482.136 143.352C481.208 142.776 480.472 141.968 479.928 140.928C479.4 139.872 479.136 138.664 479.136 137.304C479.136 135.96 479.4 134.768 479.928 133.728C480.472 132.688 481.2 131.888 482.112 131.328C483.04 130.768 484.072 130.488 485.208 130.488ZM489.6 137.352C489.6 136.536 489.44 135.84 489.12 135.264C488.8 134.672 488.368 134.224 487.824 133.92C487.28 133.6 486.696 133.44 486.072 133.44C485.448 133.44 484.872 133.592 484.344 133.896C483.816 134.2 483.384 134.648 483.048 135.24C482.728 135.816 482.568 136.504 482.568 137.304C482.568 138.104 482.728 138.808 483.048 139.416C483.384 140.008 483.816 140.464 484.344 140.784C484.888 141.104 485.464 141.264 486.072 141.264C486.696 141.264 487.28 141.112 487.824 140.808C488.368 140.488 488.8 140.04 489.12 139.464C489.44 138.872 489.6 138.168 489.6 137.352ZM507.888 144.216C506.608 144.216 505.456 143.936 504.432 143.376C503.408 142.8 502.6 141.992 502.008 140.952C501.432 139.912 501.144 138.712 501.144 137.352C501.144 135.992 501.44 134.792 502.032 133.752C502.64 132.712 503.464 131.912 504.504 131.352C505.544 130.776 506.704 130.488 507.984 130.488C509.264 130.488 510.424 130.776 511.464 131.352C512.504 131.912 513.32 132.712 513.912 133.752C514.52 134.792 514.824 135.992 514.824 137.352C514.824 138.712 514.512 139.912 513.888 140.952C513.28 141.992 512.448 142.8 511.392 143.376C510.352 143.936 509.184 144.216 507.888 144.216ZM507.888 141.288C508.496 141.288 509.064 141.144 509.592 140.856C510.136 140.552 510.568 140.104 510.888 139.512C511.208 138.92 511.368 138.2 511.368 137.352C511.368 136.088 511.032 135.12 510.36 134.448C509.704 133.76 508.896 133.416 507.936 133.416C506.976 133.416 506.168 133.76 505.512 134.448C504.872 135.12 504.552 136.088 504.552 137.352C504.552 138.616 504.864 139.592 505.488 140.28C506.128 140.952 506.928 141.288 507.888 141.288ZM523.385 133.464H521.057V144H517.649V133.464H516.137V130.704H517.649V130.032C517.649 128.4 518.113 127.2 519.041 126.432C519.969 125.664 521.369 125.304 523.241 125.352V128.184C522.425 128.168 521.857 128.304 521.537 128.592C521.217 128.88 521.057 129.4 521.057 130.152V130.704H523.385V133.464ZM531.658 133.464H529.33V144H525.922V133.464H524.41V130.704H525.922V130.032C525.922 128.4 526.386 127.2 527.314 126.432C528.242 125.664 529.642 125.304 531.514 125.352V128.184C530.698 128.168 530.13 128.304 529.81 128.592C529.49 128.88 529.33 129.4 529.33 130.152V130.704H531.658V133.464ZM546.196 137.064C546.196 137.544 546.164 137.976 546.1 138.36H536.38C536.46 139.32 536.796 140.072 537.388 140.616C537.98 141.16 538.708 141.432 539.572 141.432C540.82 141.432 541.708 140.896 542.236 139.824H545.86C545.476 141.104 544.74 142.16 543.652 142.992C542.564 143.808 541.228 144.216 539.644 144.216C538.364 144.216 537.212 143.936 536.188 143.376C535.18 142.8 534.388 141.992 533.812 140.952C533.252 139.912 532.972 138.712 532.972 137.352C532.972 135.976 533.252 134.768 533.812 133.728C534.372 132.688 535.156 131.888 536.164 131.328C537.172 130.768 538.332 130.488 539.644 130.488C540.908 130.488 542.036 130.76 543.028 131.304C544.036 131.848 544.812 132.624 545.356 133.632C545.916 134.624 546.196 135.768 546.196 137.064ZM542.716 136.104C542.7 135.24 542.388 134.552 541.78 134.04C541.172 133.512 540.428 133.248 539.548 133.248C538.716 133.248 538.012 133.504 537.436 134.016C536.876 134.512 536.532 135.208 536.404 136.104H542.716ZM552.008 132.768C552.44 132.064 553 131.512 553.688 131.112C554.392 130.712 555.192 130.512 556.088 130.512V134.04H555.2C554.144 134.04 553.344 134.288 552.8 134.784C552.272 135.28 552.008 136.144 552.008 137.376V144H548.648V130.704H552.008V132.768ZM563.439 144.216C562.351 144.216 561.375 144.024 560.511 143.64C559.647 143.24 558.959 142.704 558.447 142.032C557.951 141.36 557.679 140.616 557.631 139.8H561.015C561.079 140.312 561.327 140.736 561.759 141.072C562.207 141.408 562.759 141.576 563.415 141.576C564.055 141.576 564.551 141.448 564.903 141.192C565.271 140.936 565.455 140.608 565.455 140.208C565.455 139.776 565.231 139.456 564.783 139.248C564.351 139.024 563.655 138.784 562.695 138.528C561.703 138.288 560.887 138.04 560.247 137.784C559.623 137.528 559.079 137.136 558.615 136.608C558.167 136.08 557.943 135.368 557.943 134.472C557.943 133.736 558.151 133.064 558.567 132.456C558.999 131.848 559.607 131.368 560.391 131.016C561.191 130.664 562.127 130.488 563.199 130.488C564.783 130.488 566.047 130.888 566.991 131.688C567.935 132.472 568.455 133.536 568.551 134.88H565.335C565.287 134.352 565.063 133.936 564.663 133.632C564.279 133.312 563.759 133.152 563.103 133.152C562.495 133.152 562.023 133.264 561.687 133.488C561.367 133.712 561.207 134.024 561.207 134.424C561.207 134.872 561.431 135.216 561.879 135.456C562.327 135.68 563.023 135.912 563.967 136.152C564.927 136.392 565.719 136.64 566.343 136.896C566.967 137.152 567.503 137.552 567.951 138.096C568.415 138.624 568.655 139.328 568.671 140.208C568.671 140.976 568.455 141.664 568.023 142.272C567.607 142.88 566.999 143.36 566.199 143.712C565.415 144.048 564.495 144.216 563.439 144.216ZM576.284 137.304C576.284 135.96 576.548 134.768 577.076 133.728C577.62 132.688 578.348 131.888 579.26 131.328C580.188 130.768 581.22 130.488 582.356 130.488C583.348 130.488 584.212 130.688 584.948 131.088C585.7 131.488 586.3 131.992 586.748 132.6V130.704H590.132V144H586.748V142.056C586.316 142.68 585.716 143.2 584.948 143.616C584.196 144.016 583.324 144.216 582.332 144.216C581.212 144.216 580.188 143.928 579.26 143.352C578.348 142.776 577.62 141.968 577.076 140.928C576.548 139.872 576.284 138.664 576.284 137.304ZM586.748 137.352C586.748 136.536 586.588 135.84 586.268 135.264C585.948 134.672 585.516 134.224 584.972 133.92C584.428 133.6 583.844 133.44 583.22 133.44C582.596 133.44 582.02 133.592 581.492 133.896C580.964 134.2 580.532 134.648 580.196 135.24C579.876 135.816 579.716 136.504 579.716 137.304C579.716 138.104 579.876 138.808 580.196 139.416C580.532 140.008 580.964 140.464 581.492 140.784C582.036 141.104 582.612 141.264 583.22 141.264C583.844 141.264 584.428 141.112 584.972 140.808C585.516 140.488 585.948 140.04 586.268 139.464C586.588 138.872 586.748 138.168 586.748 137.352ZM596.774 132.648C597.206 132.008 597.798 131.488 598.55 131.088C599.318 130.688 600.19 130.488 601.166 130.488C602.302 130.488 603.326 130.768 604.238 131.328C605.166 131.888 605.894 132.688 606.422 133.728C606.966 134.752 607.238 135.944 607.238 137.304C607.238 138.664 606.966 139.872 606.422 140.928C605.894 141.968 605.166 142.776 604.238 143.352C603.326 143.928 602.302 144.216 601.166 144.216C600.174 144.216 599.302 144.024 598.55 143.64C597.814 143.24 597.222 142.728 596.774 142.104V144H593.414V126.24H596.774V132.648ZM603.806 137.304C603.806 136.504 603.638 135.816 603.302 135.24C602.982 134.648 602.55 134.2 602.006 133.896C601.478 133.592 600.902 133.44 600.278 133.44C599.67 133.44 599.094 133.6 598.55 133.92C598.022 134.224 597.59 134.672 597.254 135.264C596.934 135.856 596.774 136.552 596.774 137.352C596.774 138.152 596.934 138.848 597.254 139.44C597.59 140.032 598.022 140.488 598.55 140.808C599.094 141.112 599.67 141.264 600.278 141.264C600.902 141.264 601.478 141.104 602.006 140.784C602.55 140.464 602.982 140.008 603.302 139.416C603.638 138.824 603.806 138.12 603.806 137.304ZM615.583 144.216C614.303 144.216 613.151 143.936 612.127 143.376C611.103 142.8 610.295 141.992 609.703 140.952C609.127 139.912 608.839 138.712 608.839 137.352C608.839 135.992 609.135 134.792 609.727 133.752C610.335 132.712 611.159 131.912 612.199 131.352C613.239 130.776 614.399 130.488 615.679 130.488C616.959 130.488 618.119 130.776 619.159 131.352C620.199 131.912 621.015 132.712 621.607 133.752C622.215 134.792 622.519 135.992 622.519 137.352C622.519 138.712 622.207 139.912 621.583 140.952C620.975 141.992 620.143 142.8 619.087 143.376C618.047 143.936 616.879 144.216 615.583 144.216ZM615.583 141.288C616.191 141.288 616.759 141.144 617.287 140.856C617.831 140.552 618.263 140.104 618.583 139.512C618.903 138.92 619.063 138.2 619.063 137.352C619.063 136.088 618.727 135.12 618.055 134.448C617.399 133.76 616.591 133.416 615.631 133.416C614.671 133.416 613.863 133.76 613.207 134.448C612.567 135.12 612.247 136.088 612.247 137.352C612.247 138.616 612.559 139.592 613.183 140.28C613.823 140.952 614.623 141.288 615.583 141.288ZM637.536 130.704V144H634.152V142.32C633.72 142.896 633.152 143.352 632.448 143.688C631.76 144.008 631.008 144.168 630.192 144.168C629.152 144.168 628.232 143.952 627.432 143.52C626.632 143.072 626 142.424 625.536 141.576C625.088 140.712 624.864 139.688 624.864 138.504V130.704H628.224V138.024C628.224 139.08 628.488 139.896 629.016 140.472C629.544 141.032 630.264 141.312 631.176 141.312C632.104 141.312 632.832 141.032 633.36 140.472C633.888 139.896 634.152 139.08 634.152 138.024V130.704H637.536ZM644.763 133.464V139.896C644.763 140.344 644.867 140.672 645.075 140.88C645.299 141.072 645.667 141.168 646.179 141.168H647.739V144H645.627C642.795 144 641.379 142.624 641.379 139.872V133.464H639.795V130.704H641.379V127.416H644.763V130.704H647.739V133.464H644.763ZM661.659 144.168C660.491 144.168 659.435 143.968 658.491 143.568C657.563 143.168 656.827 142.592 656.283 141.84C655.739 141.088 655.459 140.2 655.443 139.176H659.043C659.091 139.864 659.331 140.408 659.763 140.808C660.211 141.208 660.819 141.408 661.587 141.408C662.371 141.408 662.987 141.224 663.435 140.856C663.883 140.472 664.107 139.976 664.107 139.368C664.107 138.872 663.955 138.464 663.651 138.144C663.347 137.824 662.963 137.576 662.499 137.4C662.051 137.208 661.427 137 660.627 136.776C659.539 136.456 658.651 136.144 657.963 135.84C657.291 135.52 656.707 135.048 656.211 134.424C655.731 133.784 655.491 132.936 655.491 131.88C655.491 130.888 655.739 130.024 656.235 129.288C656.731 128.552 657.427 127.992 658.323 127.608C659.219 127.208 660.243 127.008 661.395 127.008C663.123 127.008 664.523 127.432 665.595 128.28C666.683 129.112 667.283 130.28 667.395 131.784H663.699C663.667 131.208 663.419 130.736 662.955 130.368C662.507 129.984 661.907 129.792 661.155 129.792C660.499 129.792 659.971 129.96 659.571 130.296C659.187 130.632 658.995 131.12 658.995 131.76C658.995 132.208 659.139 132.584 659.427 132.888C659.731 133.176 660.099 133.416 660.531 133.608C660.979 133.784 661.603 133.992 662.403 134.232C663.491 134.552 664.379 134.872 665.067 135.192C665.755 135.512 666.347 135.992 666.843 136.632C667.339 137.272 667.587 138.112 667.587 139.152C667.587 140.048 667.355 140.88 666.891 141.648C666.427 142.416 665.747 143.032 664.851 143.496C663.955 143.944 662.891 144.168 661.659 144.168ZM677.988 130.512C678.996 130.512 679.892 130.736 680.676 131.184C681.46 131.616 682.068 132.264 682.5 133.128C682.948 133.976 683.172 135 683.172 136.2V144H679.812V136.656C679.812 135.6 679.548 134.792 679.02 134.232C678.492 133.656 677.772 133.368 676.86 133.368C675.932 133.368 675.196 133.656 674.652 134.232C674.124 134.792 673.86 135.6 673.86 136.656V144H670.5V126.24H673.86V132.36C674.292 131.784 674.868 131.336 675.588 131.016C676.308 130.68 677.108 130.512 677.988 130.512ZM698.919 130.704V144H695.535V142.32C695.103 142.896 694.535 143.352 693.831 143.688C693.143 144.008 692.391 144.168 691.575 144.168C690.535 144.168 689.615 143.952 688.815 143.52C688.015 143.072 687.383 142.424 686.919 141.576C686.471 140.712 686.247 139.688 686.247 138.504V130.704H689.607V138.024C689.607 139.08 689.871 139.896 690.399 140.472C690.927 141.032 691.647 141.312 692.559 141.312C693.487 141.312 694.215 141.032 694.743 140.472C695.271 139.896 695.535 139.08 695.535 138.024V130.704H698.919ZM705.594 132.768C706.026 132.064 706.586 131.512 707.274 131.112C707.978 130.712 708.778 130.512 709.674 130.512V134.04H708.786C707.73 134.04 706.93 134.288 706.386 134.784C705.858 135.28 705.594 136.144 705.594 137.376V144H702.234V130.704H705.594V132.768ZM713.641 129.12C713.049 129.12 712.553 128.936 712.153 128.568C711.769 128.184 711.577 127.712 711.577 127.152C711.577 126.592 711.769 126.128 712.153 125.76C712.553 125.376 713.049 125.184 713.641 125.184C714.233 125.184 714.721 125.376 715.105 125.76C715.505 126.128 715.705 126.592 715.705 127.152C715.705 127.712 715.505 128.184 715.105 128.568C714.721 128.936 714.233 129.12 713.641 129.12ZM715.297 130.704V144H711.937V130.704H715.297ZM730.017 127.248V129.96H725.553V144H722.193V129.96H717.729V127.248H730.017ZM738.373 144.216C737.093 144.216 735.941 143.936 734.917 143.376C733.893 142.8 733.085 141.992 732.493 140.952C731.917 139.912 731.629 138.712 731.629 137.352C731.629 135.992 731.925 134.792 732.517 133.752C733.125 132.712 733.949 131.912 734.989 131.352C736.029 130.776 737.189 130.488 738.469 130.488C739.749 130.488 740.909 130.776 741.949 131.352C742.989 131.912 743.805 132.712 744.397 133.752C745.005 134.792 745.309 135.992 745.309 137.352C745.309 138.712 744.997 139.912 744.372 140.952C743.765 141.992 742.933 142.8 741.877 143.376C740.837 143.936 739.669 144.216 738.373 144.216ZM738.373 141.288C738.981 141.288 739.549 141.144 740.077 140.856C740.621 140.552 741.053 140.104 741.373 139.512C741.693 138.92 741.853 138.2 741.853 137.352C741.853 136.088 741.517 135.12 740.845 134.448C740.189 133.76 739.381 133.416 738.421 133.416C737.461 133.416 736.653 133.76 735.997 134.448C735.357 135.12 735.037 136.088 735.037 137.352C735.037 138.616 735.349 139.592 735.973 140.28C736.613 140.952 737.413 141.288 738.373 141.288ZM760.325 130.704V144H756.941V142.32C756.509 142.896 755.941 143.352 755.237 143.688C754.549 144.008 753.797 144.168 752.981 144.168C751.941 144.168 751.021 143.952 750.221 143.52C749.421 143.072 748.789 142.424 748.325 141.576C747.877 140.712 747.653 139.688 747.653 138.504V130.704H751.013V138.024C751.013 139.08 751.277 139.896 751.805 140.472C752.333 141.032 753.053 141.312 753.965 141.312C754.893 141.312 755.621 141.032 756.149 140.472C756.677 139.896 756.941 139.08 756.941 138.024V130.704H760.325ZM767 132.768C767.432 132.064 767.992 131.512 768.68 131.112C769.384 130.712 770.184 130.512 771.08 130.512V134.04H770.192C769.136 134.04 768.336 134.288 767.792 134.784C767.264 135.28 767 136.144 767 137.376V144H763.64V130.704H767V132.768ZM778.432 144.216C777.344 144.216 776.368 144.024 775.504 143.64C774.64 143.24 773.952 142.704 773.44 142.032C772.944 141.36 772.672 140.616 772.624 139.8H776.008C776.072 140.312 776.32 140.736 776.752 141.072C777.2 141.408 777.752 141.576 778.408 141.576C779.048 141.576 779.544 141.448 779.896 141.192C780.264 140.936 780.448 140.608 780.448 140.208C780.448 139.776 780.224 139.456 779.776 139.248C779.344 139.024 778.648 138.784 777.688 138.528C776.696 138.288 775.88 138.04 775.24 137.784C774.616 137.528 774.072 137.136 773.608 136.608C773.16 136.08 772.936 135.368 772.936 134.472C772.936 133.736 773.144 133.064 773.56 132.456C773.992 131.848 774.6 131.368 775.384 131.016C776.184 130.664 777.12 130.488 778.192 130.488C779.776 130.488 781.04 130.888 781.984 131.688C782.928 132.472 783.448 133.536 783.544 134.88H780.328C780.28 134.352 780.056 133.936 779.656 133.632C779.272 133.312 778.752 133.152 778.096 133.152C777.488 133.152 777.016 133.264 776.68 133.488C776.36 133.712 776.2 134.024 776.2 134.424C776.2 134.872 776.424 135.216 776.872 135.456C777.32 135.68 778.016 135.912 778.96 136.152C779.92 136.392 780.712 136.64 781.336 136.896C781.96 137.152 782.496 137.552 782.944 138.096C783.408 138.624 783.648 139.328 783.664 140.208C783.664 140.976 783.448 141.664 783.016 142.272C782.6 142.88 781.992 143.36 781.192 143.712C780.408 144.048 779.488 144.216 778.432 144.216Z" fill="#595D7A"/>
</g>
<defs>
<clipPath id="clip0_36_51">
<rect width="1121" height="353" fill="white"/>
</clipPath>
</defs>
</svg>
