<svg width="347" height="349" viewBox="0 0 347 349" fill="none" xmlns="http://www.w3.org/2000/svg">
<path d="M254.243 266.146C233.587 306.647 183.961 322.712 143.401 302.025C102.841 281.338 86.708 231.735 107.365 191.233C128.022 150.732 177.647 134.668 218.207 155.355C258.767 176.042 274.9 225.645 254.243 266.146Z" stroke="#6246E5" stroke-opacity="0.15"/>
<path d="M261.121 259.867C238.003 305.194 182.465 323.172 137.073 300.02C91.6809 276.869 73.6257 221.356 96.7436 176.029C119.862 130.703 175.4 112.725 220.792 135.876C266.184 159.028 284.239 214.541 261.121 259.867Z" stroke="#6246E5" stroke-opacity="0.15"/>
<path d="M267.256 255.045C241.951 304.661 181.157 324.34 131.47 298.998C81.7822 273.655 62.0184 212.889 87.3241 163.274C112.63 113.658 173.423 93.9786 223.111 119.321C272.798 144.663 292.562 205.429 267.256 255.045Z" stroke="#6246E5" stroke-opacity="0.15"/>
<path d="M273.905 246.814C246.685 300.183 181.293 321.35 127.847 294.091C74.401 266.832 53.1422 201.47 80.362 148.101C107.582 94.7319 172.974 73.5642 226.42 100.823C279.866 128.082 301.124 193.445 273.905 246.814Z" stroke="#6246E5" stroke-opacity="0.15"/>
<path d="M280.428 238.826C251.363 295.813 181.536 318.417 124.466 289.309C67.3963 260.201 44.6959 190.407 73.7616 133.419C102.827 76.431 172.653 53.8279 229.724 82.9355C286.794 112.043 309.494 181.838 280.428 238.826Z" stroke="#6246E5" stroke-opacity="0.15"/>
<path d="M288.058 229.872C256.121 292.489 179.397 317.325 116.689 285.342C53.9818 253.359 29.0388 176.67 60.9757 114.053C92.9126 51.4352 169.637 26.5993 232.344 58.5822C295.052 90.5652 319.995 167.254 288.058 229.872Z" stroke="#6246E5" stroke-opacity="0.15"/>
</svg>
