<svg width="36" height="36" viewBox="0 0 36 36" fill="none" xmlns="http://www.w3.org/2000/svg">
<path d="M21.6597 28.575L23.9397 30.855L28.4997 26.295" stroke="#98BE1D" stroke-width="2" stroke-linecap="round" stroke-linejoin="round"/>
<path d="M18.2404 16.305C18.0904 16.29 17.9104 16.29 17.7454 16.305C14.1754 16.185 11.3404 13.26 11.3404 9.66C11.3254 5.985 14.3104 3 17.9854 3C21.6604 3 24.6454 5.985 24.6454 9.66C24.6454 13.26 21.7954 16.185 18.2404 16.305Z" stroke="#98BE1D" stroke-width="2" stroke-linecap="round" stroke-linejoin="round"/>
<path d="M17.985 32.7151C15.255 32.7151 12.5401 32.0251 10.4701 30.6451C6.84006 28.2151 6.84006 24.2551 10.4701 21.8401C14.5951 19.0801 21.36 19.0801 25.485 21.8401" stroke="#98BE1D" stroke-width="2" stroke-linecap="round" stroke-linejoin="round"/>
</svg>
