<svg width="26" height="30" viewBox="0 0 26 30" fill="none" xmlns="http://www.w3.org/2000/svg">
<path d="M13 15.8824C17.5848 15.8824 21.3571 12.3529 21.3571 7.94118C21.3571 3.58456 17.5848 0 13 0C8.35714 0 4.64286 3.58456 4.64286 7.94118C4.64286 12.3529 8.35714 15.8824 13 15.8824ZM13 2.64706C16.0179 2.64706 18.5714 5.07353 18.5714 7.94118C18.5714 10.864 16.0179 13.2353 13 13.2353C9.92411 13.2353 7.42857 10.864 7.42857 7.94118C7.42857 5.07353 9.92411 2.64706 13 2.64706ZM18.1652 16.7647C17.5268 16.7647 16.8884 16.9301 16.308 17.1507C15.2634 17.4816 14.1607 17.6471 13 17.6471C11.7812 17.6471 10.6786 17.4816 9.63393 17.1507C9.05357 16.9301 8.41518 16.7647 7.77679 16.7647C3.48214 16.7647 0 20.1286 0 24.2096V26.9118C0 27.6838 0.580357 28.2353 1.39286 28.2353C2.14732 28.2353 2.78571 27.6838 2.78571 26.9118V24.2096C2.78571 21.6727 4.81696 19.6324 7.42857 19.4668V22.2244C6.03571 22.6103 5.10714 23.7685 5.10714 25.1471C5.10714 26.8567 6.55804 28.2353 8.35714 28.2353C10.0982 28.2353 11.6071 26.8567 11.6071 25.1471C11.6071 23.7685 10.6205 22.6103 9.28572 22.2244V19.7426C10.4464 20.1286 11.7232 20.2941 13 20.2941C14.2188 20.2941 15.4955 20.1286 16.7143 19.7426V21.7832C15.0313 22.1691 13.9286 23.658 13.9286 25.3126V26.9118C13.9286 27.1874 13.9866 27.408 14.1607 27.5735L14.7991 28.125C14.9732 28.2904 15.2634 28.2904 15.4375 28.125L16.0759 27.5185C16.25 27.3529 16.25 27.0773 16.0759 26.8567L15.7277 26.5809V25.1471C15.7277 24.0992 16.7723 23.2721 17.933 23.4374C18.8615 23.5479 19.4421 24.375 19.4421 25.2574V26.5809L19.1518 26.8567C18.9778 27.0773 18.9778 27.3529 19.1518 27.5185L19.7901 28.125C19.9643 28.2904 20.2544 28.2904 20.4286 28.125L21.0671 27.5735C21.2411 27.408 21.2992 27.1874 21.2992 26.9118V25.1471C21.2992 23.5479 20.1385 22.1691 18.5134 21.7832V19.4668C21.125 19.6324 23.1563 21.6727 23.1563 24.2096V26.9118C23.1563 27.6838 23.7946 28.2353 24.5492 28.2353C25.3615 28.2353 25.9421 27.6838 25.9421 26.9118V24.2096C26 20.1286 22.4599 16.7647 18.1652 16.7647ZM9.75 25.1471C9.75 25.9191 9.11161 26.4706 8.35714 26.4706C7.54464 26.4706 6.96429 25.9191 6.96429 25.1471C6.96429 24.4302 7.54464 23.8235 8.35714 23.8235C9.11161 23.8235 9.75 24.4302 9.75 25.1471Z" fill="#8B8EA2"/>
</svg>
