<svg width="37" height="43" viewBox="0 0 37 43" fill="none" xmlns="http://www.w3.org/2000/svg">
<path d="M35.7761 9.13781C35.2815 8.51098 34.5722 8.1143 33.779 8.02087C32.1416 7.82772 30.6531 9.00302 30.46 10.6402L29.3541 20.0258C28.7885 19.8657 28.1883 19.8764 27.6171 20.0631C26.8763 20.305 26.2707 20.8143 25.906 21.5006L20.0413 30.0841C19.6894 30.5514 18.8494 31.6796 18.2097 32.6374C17.5699 31.6796 16.7299 30.5515 16.378 30.0841L10.5134 21.5005C10.1487 20.8142 9.54312 20.305 8.80231 20.063C8.23101 19.8764 7.63081 19.8654 7.06526 20.0257L5.95942 10.64C5.76626 9.00294 4.27807 7.82755 2.64035 8.02079C1.84732 8.1143 1.13807 8.51089 0.643279 9.13773C0.148564 9.76456 -0.0725231 10.5467 0.0209797 11.3397C0.0213844 11.3427 0.0217082 11.3456 0.022113 11.3485L1.17475 20.2948C1.46578 22.5539 2.19769 24.6955 3.34984 26.66C3.36142 26.6796 3.37364 26.6987 3.38676 26.7173L9.58271 35.5253C9.87892 35.9863 10.1044 36.4864 10.2536 37.0131V40.3108C10.2536 40.3818 10.2627 40.4525 10.2809 40.5212C10.6409 41.8874 11.9343 42.7029 13.741 42.7029H22.6784C24.4852 42.7029 25.7786 41.8873 26.1385 40.5213C26.1566 40.4526 26.1658 40.3819 26.1658 40.3109V37.0132C26.315 36.4864 26.5404 35.9864 26.8367 35.5254L33.0326 26.7174C33.0457 26.6988 33.0581 26.6797 33.0695 26.6601C34.2217 24.6955 34.9534 22.554 35.2446 20.2948L36.3973 11.3486C36.3977 11.3456 36.398 11.3427 36.3984 11.3398C36.4919 10.5467 36.2709 9.76464 35.7761 9.13781ZM17.3842 41.0516H13.7411C13.161 41.0516 12.1717 40.9368 11.9051 40.1887V36.9025C11.9051 36.8316 11.8961 36.761 11.8779 36.6923C11.6836 35.9547 11.3753 35.2561 10.9612 34.6158C10.9555 34.6067 10.9493 34.5978 10.9432 34.5891L4.75748 25.7956C3.72822 24.0318 3.07386 22.1102 2.81279 20.0839L1.6608 11.1424C1.62016 10.7887 1.71917 10.4403 1.93977 10.1607C2.16126 9.88008 2.47869 9.70247 2.83375 9.66061C3.56769 9.57472 4.23322 10.1004 4.31952 10.8332L5.52688 21.0809C4.893 21.9207 4.72469 23.0669 5.17707 24.0902C5.1986 24.139 5.2216 24.1874 5.24596 24.2355C5.26151 24.2661 5.27891 24.2959 5.29826 24.3244L7.66384 27.8295C7.8234 28.0658 8.08375 28.1933 8.34896 28.1933C8.50787 28.1933 8.66849 28.1475 8.81008 28.052C9.18806 27.7968 9.28771 27.2837 9.03262 26.9057L6.69902 23.4481C6.69505 23.4395 6.69109 23.4309 6.68728 23.4224C6.40604 22.7858 6.66235 22.0434 7.26959 21.7107C7.58831 21.5495 7.9505 21.5216 8.28978 21.6324C8.62963 21.7434 8.90585 21.9801 9.06768 22.2989C9.08379 22.3308 9.102 22.3615 9.12216 22.3911L15.0255 31.0312C15.0327 31.0417 15.0402 31.0521 15.0478 31.0622C16.0042 32.3315 17.1054 33.8925 17.3842 34.4264V41.0516H17.3842ZM34.7589 11.1424L33.6069 20.0838C33.3458 22.1102 32.6915 24.0316 31.6622 25.7955L25.4766 34.589C25.4703 34.5978 25.4643 34.6067 25.4585 34.6157C25.0444 35.256 24.7361 35.9547 24.5419 36.6922C24.5237 36.7609 24.5146 36.8315 24.5146 36.9025V40.1887C24.248 40.9368 23.2587 41.0515 22.6786 41.0515H19.0356V34.4265C19.3144 33.8926 20.4156 32.3318 21.372 31.0623C21.3797 31.0522 21.3872 31.0417 21.3943 31.0313L27.2976 22.3912C27.3178 22.3617 27.336 22.3308 27.3521 22.299C27.5139 21.9802 27.7902 21.7435 28.13 21.6325C28.4694 21.5217 28.8317 21.5495 29.1501 21.7108C29.7572 22.0435 30.0136 22.7859 29.7325 23.4222C29.7286 23.4309 29.7247 23.4395 29.7206 23.4482L27.387 26.9058C27.1318 27.2837 27.2315 27.7969 27.6096 28.0521C27.7511 28.1477 27.9118 28.1934 28.0707 28.1934C28.3358 28.1934 28.5963 28.0659 28.7558 27.8295L31.1214 24.3244C31.1406 24.2959 31.158 24.2662 31.1737 24.2355C31.198 24.1875 31.2209 24.1391 31.2427 24.09C31.6949 23.0668 31.5266 21.9207 30.8928 21.081L32.1001 10.8333C32.1866 10.1004 32.8516 9.57448 33.5859 9.66061C33.9409 9.70247 34.2584 9.88008 34.4799 10.1607C34.7005 10.4404 34.7996 10.7888 34.7589 11.1424Z" fill="#98BE1D"/>
<g clip-path="url(#clip0_63_201)">
<path d="M14.8518 13.6136H14.1703C13.701 13.6136 13.3174 13.9972 13.3174 14.4664C13.3174 14.9357 13.701 15.3193 14.1703 15.3193H14.8518C15.3211 15.3193 15.7047 14.9357 15.7047 14.4664C15.7006 13.9972 15.317 13.6136 14.8518 13.6136Z" fill="#98BE1D"/>
<path d="M21.8259 13.6136H21.1444C20.6751 13.6136 20.2915 13.9972 20.2915 14.4664C20.2915 14.9357 20.6751 15.3193 21.1444 15.3193H21.8259C22.2952 15.3193 22.6788 14.9357 22.6788 14.4664C22.6788 13.9972 22.2952 13.6136 21.8259 13.6136Z" fill="#98BE1D"/>
<path d="M27.143 2.97898H25.7392V1.70169C25.7392 0.76719 24.9761 0 24.0375 0H11.9584C11.0198 0 10.2567 0.76719 10.2567 1.70169V3.01979H8.85289C8.3836 3.01979 8 3.40339 8 3.87268V5.87227C8 6.34156 8.3836 6.72516 8.85289 6.72516C9.27729 6.72516 9.66089 6.34156 9.66089 5.91716V4.72557H10.2567V16.4252C10.2567 17.3597 11.0239 18.1269 11.9584 18.1269H12.8929V19.1471C12.8929 19.6164 13.2765 20 13.7458 20C14.2151 20 14.5538 19.6164 14.5987 19.1471V18.1269H21.4054V19.1471C21.4054 19.6164 21.789 20 22.2583 20C22.7276 20 23.1112 19.6164 23.1112 19.1471V18.1269H24.0375C24.972 18.1269 25.7392 17.3597 25.7392 16.4252V4.68068H26.2942V5.87227C26.2942 6.34156 26.6778 6.72516 27.1471 6.72516C27.6164 6.72516 28 6.34156 28 5.87227V3.83187C27.9959 3.36258 27.6123 2.97898 27.143 2.97898ZM24.0824 1.66089V10.2551H11.9339L11.9584 1.66089H24.0824ZM24.0824 16.466H11.9135L11.9257 11.9567H24.0824V16.466Z" fill="#98BE1D"/>
</g>
<defs>
<clipPath id="clip0_63_201">
<rect width="20" height="20" fill="white" transform="translate(8)"/>
</clipPath>
</defs>
</svg>
