<svg width="122" height="120" viewBox="0 0 122 120" fill="none" xmlns="http://www.w3.org/2000/svg">
<path d="M115.416 108.441H113.547V119.162H115.416V108.441ZM119.981 112.803H108.595V114.79H119.981V112.803Z" fill="#615C7C"/>
<path d="M88.4229 108.441H86.5537V119.162H88.4229V108.441ZM92.9883 112.803H81.6016V114.79H92.9883V112.803Z" fill="#595D7A" fill-opacity="0.26"/>
<path d="M61.4287 108.441H59.5596V119.162H61.4287V108.441ZM65.9941 112.803H54.6074V114.79H65.9941V112.803Z" fill="#595D7A" fill-opacity="0.26"/>
<path d="M115.416 81.4479H113.547V92.1686H115.416V81.4479ZM119.981 85.8093H108.595V87.7966H119.981V85.8093Z" fill="#595D7A" fill-opacity="0.26"/>
<path d="M88.4229 81.4479H86.5537V92.1686H88.4229V81.4479ZM92.9883 85.8093H81.6016V87.7966H92.9883V85.8093Z" fill="#595D7A" fill-opacity="0.26"/>
<path d="M61.4287 81.4479H59.5596V92.1686H61.4287V81.4479ZM65.9941 85.8093H54.6074V87.7966H65.9941V85.8093Z" fill="#595D7A" fill-opacity="0.26"/>
<path d="M34.4355 81.4479H32.5664V92.1686H34.4355V81.4479ZM39.001 85.8093H27.6143V87.7966H39.001V85.8093Z" fill="#595D7A" fill-opacity="0.26"/>
<path d="M115.416 54.4545H113.547V65.1752H115.416V54.4545ZM119.981 58.8158H108.595V60.8031H119.981V58.8158Z" fill="#595D7A" fill-opacity="0.26"/>
<path d="M88.4229 54.4545H86.5537V65.1752H88.4229V54.4545ZM92.9883 58.8158H81.6016V60.8031H92.9883V58.8158Z" fill="#595D7A" fill-opacity="0.26"/>
<path d="M61.4287 54.4545H59.5596V65.1752H61.4287V54.4545ZM65.9941 58.8158H54.6074V60.8031H65.9941V58.8158Z" fill="#98BE1D"/>
<path d="M34.4355 54.4545H32.5664V65.1752H34.4355V54.4545ZM39.001 58.8158H27.6143V60.8031H39.001V58.8158Z" fill="#595D7A" fill-opacity="0.26"/>
<path d="M7.44238 54.4545H5.57324L5.57324 65.1752H7.44238L7.44238 54.4545ZM12.0078 58.8158H0.621094V60.8031H12.0078V58.8158Z" fill="#595D7A" fill-opacity="0.26"/>
<path d="M115.416 27.461H113.547V38.1817H115.416V27.461ZM119.981 31.8223L108.595 31.8223V33.8096H119.981V31.8223Z" fill="#595D7A" fill-opacity="0.26"/>
<path d="M88.4229 27.461H86.5537V38.1817H88.4229V27.461ZM92.9883 31.8223L81.6016 31.8223V33.8096H92.9883V31.8223Z" fill="#595D7A" fill-opacity="0.26"/>
<path d="M61.4287 27.461H59.5596V38.1817H61.4287V27.461ZM65.9941 31.8223L54.6074 31.8223V33.8096H65.9941V31.8223Z" fill="#595D7A" fill-opacity="0.26"/>
<path d="M34.4355 27.461H32.5664V38.1817H34.4355V27.461ZM39.001 31.8223L27.6143 31.8223V33.8096H39.001V31.8223Z" fill="#595D7A" fill-opacity="0.26"/>
<path d="M7.44238 27.461H5.57324L5.57324 38.1817H7.44238L7.44238 27.461ZM12.0078 31.8223L0.621094 31.8223V33.8096H12.0078V31.8223Z" fill="#595D7A" fill-opacity="0.26"/>
<path d="M115.416 0.467529H113.547V11.1882H115.416V0.467529ZM119.981 4.82886L108.595 4.82886V6.81616L119.981 6.81616V4.82886Z" fill="#595D7A" fill-opacity="0.26"/>
<path d="M88.4229 0.467529H86.5537V11.1882H88.4229V0.467529ZM92.9883 4.82886L81.6016 4.82886V6.81616L92.9883 6.81616V4.82886Z" fill="#595D7A" fill-opacity="0.26"/>
<path d="M61.4287 0.467529H59.5596V11.1882H61.4287V0.467529ZM65.9941 4.82886L54.6074 4.82886V6.81616L65.9941 6.81616V4.82886Z" fill="#595D7A" fill-opacity="0.26"/>
<path d="M34.4355 0.467529H32.5664V11.1882H34.4355V0.467529ZM39.001 4.82886L27.6143 4.82886V6.81616L39.001 6.81616V4.82886Z" fill="#595D7A" fill-opacity="0.26"/>
<path d="M7.44238 0.467529H5.57324L5.57324 11.1882H7.44238L7.44238 0.467529ZM12.0078 4.82886L0.621094 4.82886V6.81616L12.0078 6.81616V4.82886Z" fill="#595D7A" fill-opacity="0.26"/>
</svg>
