<svg width="107" height="119" viewBox="0 0 107 119" fill="none" xmlns="http://www.w3.org/2000/svg">
<path d="M11.6792 12.6104V14.4795H0.958496V12.6104H11.6792ZM7.31787 8.04492V19.4316H5.33057V8.04492H7.31787Z" fill="#615C7C"/>
<path d="M11.6792 37.4899V39.359H0.958496V37.4899H11.6792ZM7.31787 32.9244V44.3112H5.33057V32.9244H7.31787Z" fill="#595D7A" fill-opacity="0.26"/>
<path d="M11.6792 62.3694V64.2385H0.958496V62.3694H11.6792ZM7.31787 57.804V69.1907H5.33057V57.804H7.31787Z" fill="#595D7A" fill-opacity="0.26"/>
<path d="M36.5586 12.6104V14.4795H25.8379V12.6104H36.5586ZM32.1973 8.04492V19.4316H30.21V8.04492H32.1973Z" fill="#595D7A" fill-opacity="0.26"/>
<path d="M36.5586 37.4899V39.359H25.8379V37.4899H36.5586ZM32.1973 32.9244V44.3112H30.21V32.9244H32.1973Z" fill="#595D7A" fill-opacity="0.26"/>
<path d="M36.5586 62.3694V64.2385H25.8379V62.3694H36.5586ZM32.1973 57.804V69.1907H30.21V57.804H32.1973Z" fill="#595D7A" fill-opacity="0.26"/>
<path d="M36.5586 87.2489V89.118H25.8379V87.2489H36.5586ZM32.1973 82.6835V94.0702H30.21V82.6835H32.1973Z" fill="#595D7A" fill-opacity="0.26"/>
<path d="M61.4385 12.6104V14.4795H50.7178V12.6104H61.4385ZM57.0771 8.04492V19.4316H55.0898V8.04492H57.0771Z" fill="#595D7A" fill-opacity="0.26"/>
<path d="M61.4385 37.4899V39.359H50.7178V37.4899H61.4385ZM57.0771 32.9244V44.3112H55.0898V32.9244H57.0771Z" fill="#595D7A" fill-opacity="0.26"/>
<path d="M61.4385 62.3694V64.2385H50.7178V62.3694H61.4385ZM57.0771 57.804V69.1907H55.0898V57.804H57.0771Z" fill="#98BE1D"/>
<path d="M61.4385 87.2489V89.118H50.7178V87.2489H61.4385ZM57.0771 82.6835V94.0702H55.0898V82.6835H57.0771Z" fill="#595D7A" fill-opacity="0.26"/>
<path d="M61.4385 112.128V113.998H50.7178V112.128H61.4385ZM57.0771 107.563V118.95H55.0898V107.563H57.0771Z" fill="#595D7A" fill-opacity="0.26"/>
<path d="M86.3179 12.6104V14.4795H75.5972V12.6104H86.3179ZM81.9565 8.04492V19.4316H79.9692V8.04492H81.9565Z" fill="#595D7A" fill-opacity="0.26"/>
<path d="M86.3179 37.4899V39.359H75.5972V37.4899H86.3179ZM81.9565 32.9244V44.3112H79.9692V32.9244H81.9565Z" fill="#595D7A" fill-opacity="0.26"/>
<path d="M86.3179 62.3694V64.2385H75.5972V62.3694H86.3179ZM81.9565 57.804V69.1907H79.9692V57.804H81.9565Z" fill="#595D7A" fill-opacity="0.26"/>
<path d="M86.3179 87.2489V89.118H75.5972V87.2489H86.3179ZM81.9565 82.6835V94.0702H79.9692V82.6835H81.9565Z" fill="#595D7A" fill-opacity="0.26"/>
<path d="M86.3179 112.128V113.998H75.5972V112.128H86.3179ZM81.9565 107.563V118.95H79.9692V107.563H81.9565Z" fill="#595D7A" fill-opacity="0.26"/>
<path d="M111.197 12.6104V14.4795H100.477V12.6104H111.197ZM106.836 8.04492V19.4316H104.849V8.04492H106.836Z" fill="#595D7A" fill-opacity="0.26"/>
<path d="M111.197 37.4899V39.359H100.477V37.4899H111.197ZM106.836 32.9244V44.3112H104.849V32.9244H106.836Z" fill="#595D7A" fill-opacity="0.26"/>
<path d="M111.197 62.3694V64.2385H100.477V62.3694H111.197ZM106.836 57.804V69.1907H104.849V57.804H106.836Z" fill="#595D7A" fill-opacity="0.26"/>
<path d="M111.197 87.2489V89.118H100.477V87.2489H111.197ZM106.836 82.6835V94.0702H104.849V82.6835H106.836Z" fill="#595D7A" fill-opacity="0.26"/>
<path d="M111.197 112.128V113.998H100.477V112.128H111.197ZM106.836 107.563V118.95H104.849V107.563H106.836Z" fill="#595D7A" fill-opacity="0.26"/>
</svg>
