<svg width="44" height="35" viewBox="0 0 44 35" fill="none" xmlns="http://www.w3.org/2000/svg">
<path d="M23.1 23.5839C22.1375 23.5839 21.45 24.3359 21.45 25.2245C21.45 26.1133 22.1375 26.8651 23.1 26.8651C23.9936 26.8651 24.75 26.1133 24.75 25.2245C24.6814 24.3359 23.9936 23.5839 23.1 23.5839ZM34.3064 18.9355C33.9625 18.1152 33.2064 17.5684 32.2436 17.5684H27.0875C26.1936 17.5684 25.3686 18.1152 25.025 18.9355L23.7186 21.9433H35.6125L34.3064 18.9355ZM36.3 23.5839C35.3375 23.5839 34.65 24.3359 34.65 25.2245C34.65 26.1133 35.3375 26.8651 36.3 26.8651C37.1936 26.8651 37.95 26.1133 37.95 25.2245C37.8814 24.3359 37.1936 23.5839 36.3 23.5839ZM40.2875 19.0039L39.325 16.748C38.1564 14.0137 35.475 12.0996 32.2436 12.0996H27.0875C23.8564 12.0996 21.175 14.0137 20.0063 16.748L19.0438 19.0039C16.9125 19.7559 15.4 21.7383 15.4 24.1308V26.3183C15.4 28.0958 16.225 29.668 17.6 30.625V30.6933V32.8808C17.6 34.043 18.5625 35 19.8 35H20.9C22.0686 35 23.0314 34.043 23.1 32.8808V31.787H36.3V32.8808C36.3 34.043 37.2625 35 38.5 35H39.6C40.7686 35 41.7314 34.043 41.8 32.8808V30.6933L41.7314 30.625C43.1064 29.668 44 28.0958 44 26.3183V24.1308C43.9314 21.7383 42.4186 19.7559 40.2875 19.0039ZM40.7 26.3183C40.6314 27.4805 39.6686 28.5058 38.5 28.5058H20.9C19.6625 28.5058 18.7 27.4805 18.7 26.3183V24.1308C18.7 22.9005 19.6625 21.9433 20.9 21.9433H21.3125L23.0314 18.0469C23.7186 16.4746 25.2314 15.3809 27.0875 15.3809H32.2436C34.1 15.3809 35.6125 16.4746 36.3 18.0469L38.0186 21.9433H38.5C39.6686 21.9433 40.6314 22.9005 40.7 24.1308V26.3183ZM12.1 6.69922H6.6C5.98125 6.69922 5.5 7.17773 5.5 7.79297V15.3809C5.5 15.9961 5.98125 16.4746 6.6 16.4746H12.1V6.69922ZM3.3 22.4901V6.83594C3.3 4.85352 7.63125 3.28125 13.2 3.28125C18.7 3.28125 23.1 4.85352 23.1 6.83594V10.8008C24.0625 10.3906 25.2314 10.0488 26.4 9.98047V6.83594C26.4 1.77734 19.25 0 13.2 0C7.08125 0 0 1.77734 0 6.83594V22.4901C0 24.6094 1.71875 26.3183 3.85 26.3183H4.4V28.5058C4.4 29.668 5.3625 30.6933 6.6 30.6933H7.7C8.86875 30.6933 9.83125 29.668 9.9 28.5058V26.3183H13.2V24.1308C13.2 23.7208 13.2 23.3789 13.2688 23.037H3.85C3.50625 23.037 3.3 22.7636 3.3 22.4901ZM5.5 19.7559C5.5 20.6445 6.1875 21.3965 7.15 21.3965C8.04375 21.3965 8.8 20.6445 8.8 19.7559C8.8 18.8672 8.04375 18.1152 7.15 18.1152C6.1875 18.1152 5.5 18.8672 5.5 19.7559ZM17.9438 15.9277C18.6313 14.4238 19.5938 13.125 20.9 12.168V7.79297C20.8313 7.17773 20.35 6.69922 19.8 6.69922H14.3V16.4746H17.7375L17.9438 15.9277Z" fill="#98BE1D"/>
</svg>
