<svg width="17" height="17" viewBox="0 0 17 17" fill="none" xmlns="http://www.w3.org/2000/svg">
<path d="M12.7494 0.00353713L10.5449 0C8.06824 0 6.4677 1.64211 6.4677 4.18372V6.1127H4.25118C4.05964 6.1127 3.90454 6.26798 3.90454 6.45951V9.25438C3.90454 9.44592 4.05982 9.60102 4.25118 9.60102H6.4677V16.6534C6.4677 16.8449 6.6228 17 6.81433 17H9.70627C9.8978 17 10.0529 16.8447 10.0529 16.6534V9.60102H12.6445C12.8361 9.60102 12.9912 9.44592 12.9912 9.25438L12.9922 6.45951C12.9922 6.36755 12.9556 6.27948 12.8907 6.21439C12.8258 6.14931 12.7374 6.1127 12.6454 6.1127H10.0529V4.47748C10.0529 3.69153 10.2402 3.29254 11.264 3.29254L12.7491 3.29201C12.9404 3.29201 13.0955 3.13673 13.0955 2.94537V0.350176C13.0955 0.158994 12.9406 0.00389085 12.7494 0.00353713Z" fill="#595D7A" fill-opacity="0.7"/>
</svg>
