<svg width="234" height="177" viewBox="0 0 234 177" fill="none" xmlns="http://www.w3.org/2000/svg">
<path d="M58.5471 241.771C13.0823 241.771 -23.7754 204.862 -23.7754 159.331C-23.7754 113.801 13.0823 76.8917 58.5471 76.8917C104.012 76.8917 140.87 113.801 140.87 159.331C140.87 204.862 104.012 241.771 58.5471 241.771Z" stroke="#6246E5" stroke-opacity="0.15"/>
<path d="M67.2651 245.045C16.3835 245.045 -24.8654 203.739 -24.8654 152.783C-24.8654 101.828 16.3835 60.5218 67.2651 60.5218C118.147 60.5218 159.396 101.828 159.396 152.783C159.396 203.739 118.147 245.045 67.2651 245.045Z" stroke="#6246E5" stroke-opacity="0.15"/>
<path d="M74.3486 248.319C18.6522 248.319 -26.5 203.104 -26.5 147.327C-26.5 91.5501 18.6522 46.335 74.3487 46.335C130.045 46.3351 175.197 91.5501 175.197 147.327C175.197 203.104 130.045 248.319 74.3486 248.319Z" stroke="#6246E5" stroke-opacity="0.15"/>
<path d="M84.7017 250.502C24.7922 250.502 -23.7753 201.867 -23.7753 141.871C-23.7753 81.8745 24.7922 33.2393 84.7017 33.2393C144.611 33.2393 193.179 81.8745 193.179 141.871C193.179 201.867 144.611 250.502 84.7017 250.502Z" stroke="#6246E5" stroke-opacity="0.15"/>
<path d="M94.7818 252.684C30.8097 252.684 -21.0512 200.751 -21.0512 136.687C-21.0511 72.6223 30.8097 20.689 94.7818 20.6891C158.754 20.6891 210.615 72.6223 210.615 136.687C210.615 200.751 158.754 252.684 94.7818 252.684Z" stroke="#6246E5" stroke-opacity="0.15"/>
<path d="M106.224 255.413C35.9328 255.413 -21.0511 198.349 -21.0511 127.956C-21.0511 57.5635 35.9328 0.499991 106.224 0.499994C176.516 0.499997 233.5 57.5635 233.5 127.956C233.5 198.349 176.516 255.413 106.224 255.413Z" stroke="#6246E5" stroke-opacity="0.15"/>
</svg>
