<svg width="15" height="15" viewBox="0 0 15 15" fill="none" xmlns="http://www.w3.org/2000/svg">
<path d="M1.69368 10.6375L2.78118 8.46251C3.08118 7.85626 3.08118 7.15001 2.78118 6.54376L1.69368 4.36251C0.76243 2.50001 2.76868 0.531264 4.61243 1.50626L5.57493 2.01876C5.71243 2.08751 5.81868 2.20001 5.87493 2.33751L9.43118 10.2438C9.57493 10.5688 9.44368 10.95 9.13118 11.1125L4.60618 13.4938C2.76868 14.4688 0.76243 12.5 1.69368 10.6375Z" fill="#21232F"/>
<path d="M10.1938 9.75003L7.86252 4.57503C7.60002 3.99378 8.22502 3.40628 8.78752 3.70628L12.3938 5.60628C13.925 6.41253 13.925 8.60003 12.3938 9.40628L11.1188 10.075C10.775 10.25 10.3563 10.1063 10.1938 9.75003Z" fill="#21232F"/>
</svg>
