<svg width="158" height="166" viewBox="0 0 158 166" fill="none" xmlns="http://www.w3.org/2000/svg">
<path d="M146.441 153.39V151.521H157.162V153.39H146.441ZM150.803 157.955V146.568H152.79V157.955H150.803Z" fill="#615C7C"/>
<path d="M150.803 118.39H146.441V116.51H150.803V111.568H152.801V116.51H157.162V118.39H152.801V122.955H150.803V118.39Z" fill="#595D7A" fill-opacity="0.26"/>
<path d="M150.803 83.3896H146.441V81.5098H150.803V76.5684H152.801V81.5098H157.162V83.3896H152.801V87.9551H150.803V83.3896Z" fill="#595D7A" fill-opacity="0.26"/>
<path d="M115.803 153.39H111.441V151.51H115.803V146.568H117.801V151.51H122.162V153.39H117.801V157.955H115.803V153.39Z" fill="#595D7A" fill-opacity="0.26"/>
<path d="M111.441 118.39V116.521H122.162V118.39H111.441ZM115.803 122.955V111.568H117.79V122.955H115.803Z" fill="#595D7A" fill-opacity="0.26"/>
<path d="M115.803 83.3896H111.441V81.5098H115.803V76.5684H117.801V81.5098H122.162V83.3896H117.801V87.9551H115.803V83.3896Z" fill="#595D7A" fill-opacity="0.26"/>
<path d="M115.803 48.3896H111.441V46.5098H115.803V41.5684H117.801V46.5098H122.162V48.3896H117.801V52.9551H115.803V48.3896Z" fill="#595D7A" fill-opacity="0.26"/>
<path d="M75.8027 153.39H71.4414V151.51H75.8027V146.568H77.8008V151.51H82.1621V153.39H77.8008V157.955H75.8027V153.39Z" fill="#595D7A" fill-opacity="0.26"/>
<path d="M71.4414 118.39V116.521H82.1621V118.39H71.4414ZM75.8027 122.955V111.568H77.79V122.955H75.8027Z" fill="#595D7A" fill-opacity="0.26"/>
<path d="M71.4414 83.3896V81.5205H82.1621V83.3896H71.4414ZM75.8027 87.9551V76.5684H77.79V87.9551H75.8027Z" fill="#98BE1D"/>
<path d="M75.8027 48.3896H71.4414V46.5098H75.8027V41.5684H77.8008V46.5098H82.1621V48.3896H77.8008V52.9551H75.8027V48.3896Z" fill="#595D7A" fill-opacity="0.26"/>
<path d="M75.8027 13.3896L71.4414 13.3896V11.5098L75.8027 11.5098V6.56836H77.8008V11.5098H82.1621V13.3896H77.8008V17.9551H75.8027V13.3896Z" fill="#595D7A" fill-opacity="0.26"/>
<path d="M36.4414 153.39V151.521H47.1621V153.39H36.4414ZM40.8027 157.955V146.568H42.79V157.955H40.8027Z" fill="#595D7A" fill-opacity="0.26"/>
<path d="M40.8027 118.39H36.4414V116.51H40.8027V111.568H42.8008V116.51H47.1621V118.39H42.8008V122.955H40.8027V118.39Z" fill="#595D7A" fill-opacity="0.26"/>
<path d="M40.8027 83.3896H36.4414V81.5098H40.8027V76.5684H42.8008V81.5098H47.1621V83.3896H42.8008V87.9551H40.8027V83.3896Z" fill="#595D7A" fill-opacity="0.26"/>
<path d="M40.8027 48.3896H36.4414V46.5098H40.8027V41.5684H42.8008V46.5098H47.1621V48.3896H42.8008V52.9551H40.8027V48.3896Z" fill="#595D7A" fill-opacity="0.26"/>
<path d="M36.4414 13.3896V11.5205L47.1621 11.5205V13.3896L36.4414 13.3896ZM40.8027 17.9551V6.56836H42.79V17.9551H40.8027Z" fill="#595D7A" fill-opacity="0.26"/>
<path d="M5.80273 153.39H1.44141V151.51H5.80273L5.80273 146.568H7.80078L7.80078 151.51H12.1621V153.39H7.80078L7.80078 157.955H5.80273L5.80273 153.39Z" fill="#595D7A" fill-opacity="0.26"/>
<path d="M5.80273 118.39H1.44141V116.51H5.80273L5.80273 111.568H7.80078L7.80078 116.51H12.1621V118.39H7.80078L7.80078 122.955H5.80273L5.80273 118.39Z" fill="#595D7A" fill-opacity="0.26"/>
<path d="M5.80273 83.3896H1.44141V81.5098H5.80273L5.80273 76.5684H7.80078L7.80078 81.5098H12.1621V83.3896H7.80078L7.80078 87.9551H5.80273L5.80273 83.3896Z" fill="#595D7A" fill-opacity="0.26"/>
<path d="M5.80273 48.3896H1.44141V46.5098H5.80273L5.80273 41.5684H7.80078L7.80078 46.5098H12.1621V48.3896H7.80078L7.80078 52.9551H5.80273L5.80273 48.3896Z" fill="#595D7A" fill-opacity="0.26"/>
<path d="M5.80273 13.3896L1.44141 13.3896V11.5098L5.80273 11.5098L5.80273 6.56836H7.80078L7.80078 11.5098H12.1621V13.3896H7.80078L7.80078 17.9551H5.80273L5.80273 13.3896Z" fill="#595D7A" fill-opacity="0.26"/>
</svg>
