<svg width="117" height="117" viewBox="0 0 117 117" fill="none" xmlns="http://www.w3.org/2000/svg">
<path d="M18.4106 64.0896C11.0242 51.2371 15.4696 34.8207 28.3418 27.423C41.2139 20.0253 57.6362 24.4489 65.0226 37.3013C72.409 50.1538 67.9636 66.5702 55.0914 73.9679C42.2193 81.3656 25.797 76.942 18.4106 64.0896Z" stroke="white" stroke-opacity="0.15"/>
<path d="M18.9076 67.1231C10.6302 52.7203 15.6119 34.3236 30.0367 26.0336C44.4614 17.7436 62.8647 22.7008 71.1421 37.1036C79.4196 51.5065 74.4378 69.9031 60.0131 78.1931C45.5883 86.4831 27.185 81.526 18.9076 67.1231Z" stroke="white" stroke-opacity="0.15"/>
<path d="M19.1354 69.6892C10.0659 53.9082 15.5244 33.7513 31.3292 24.6682C47.1341 15.585 67.2983 21.0164 76.3677 36.7974C85.4372 52.5784 79.9787 72.7353 64.1738 81.8184C48.369 90.9016 28.2048 85.4702 19.1354 69.6892Z" stroke="white" stroke-opacity="0.15"/>
<path d="M20.214 73.0117C10.4515 56.0248 16.3271 34.3278 33.3396 24.5506C50.352 14.7735 72.0569 20.6198 81.8194 37.6067C91.5819 54.5936 85.7063 76.2906 68.6939 86.0678C51.6814 95.8449 29.9765 89.9986 20.214 73.0117Z" stroke="white" stroke-opacity="0.15"/>
<path d="M21.2471 76.2559C10.8163 58.1062 17.0942 34.924 35.2711 24.4777C53.448 14.0313 76.6386 20.2777 87.0694 38.4274C97.5001 56.5772 91.2223 79.7593 73.0454 90.2057C54.8685 100.652 31.6778 94.4056 21.2471 76.2559Z" stroke="white" stroke-opacity="0.15"/>
<path d="M22.3487 79.98C10.8784 60.0214 17.7819 34.529 37.7702 23.0416C57.7585 11.5542 83.2603 18.4231 94.7306 38.3816C106.201 58.3402 99.2973 83.8326 79.309 95.32C59.3207 106.807 33.8189 99.9385 22.3487 79.98Z" stroke="white" stroke-opacity="0.15"/>
</svg>
