<svg width="17" height="17" viewBox="0 0 17 17" fill="none" xmlns="http://www.w3.org/2000/svg">
<g clip-path="url(#clip0_36_209)">
<path d="M11.9356 0H5.06439C2.27187 0 0 2.27187 0 5.06439V11.9356C0 14.7281 2.27187 17 5.06439 17H11.9356C14.7281 17 17 14.7281 17 11.9356V5.06439C17 2.27187 14.7281 0 11.9356 0ZM15.2898 11.9356C15.2898 13.7881 13.7881 15.2898 11.9356 15.2898H5.06439C3.21194 15.2898 1.7102 13.7881 1.7102 11.9356V5.06439C1.7102 3.21191 3.21194 1.7102 5.06439 1.7102H11.9356C13.7881 1.7102 15.2898 3.21191 15.2898 5.06439V11.9356Z" fill="#5E6282"/>
<path d="M8.50008 4.10315C6.07567 4.10315 4.10327 6.07555 4.10327 8.49992C4.10327 10.9243 6.07567 12.8967 8.50008 12.8967C10.9245 12.8967 12.8969 10.9243 12.8969 8.49992C12.8969 6.07552 10.9245 4.10315 8.50008 4.10315ZM8.50008 11.1866C7.01629 11.1866 5.81347 9.98374 5.81347 8.49995C5.81347 7.01617 7.01632 5.81335 8.50008 5.81335C9.98386 5.81335 11.1867 7.01617 11.1867 8.49995C11.1867 9.98371 9.98383 11.1866 8.50008 11.1866Z" fill="#5E6282"/>
<path d="M12.9051 5.18983C13.4869 5.18983 13.9586 4.71815 13.9586 4.1363C13.9586 3.55445 13.4869 3.08276 12.9051 3.08276C12.3232 3.08276 11.8516 3.55445 11.8516 4.1363C11.8516 4.71815 12.3232 5.18983 12.9051 5.18983Z" fill="#5E6282"/>
</g>
<defs>
<clipPath id="clip0_36_209">
<rect width="17" height="17" fill="white"/>
</clipPath>
</defs>
</svg>
