<svg width="99" height="99" viewBox="0 0 99 99" fill="none" xmlns="http://www.w3.org/2000/svg">
<g clip-path="url(#clip0_22_28)">
<path d="M49.5 99C76.8381 99 99 76.8381 99 49.5C99 22.1619 76.8381 0 49.5 0C22.1619 0 0 22.1619 0 49.5C0 76.8381 22.1619 99 49.5 99Z" fill="#90DFAA"/>
<path d="M22.1387 18.9425V80.2133C22.1387 83.1755 24.5552 85.5921 27.5174 85.5921H71.4048C74.367 85.5921 76.7836 83.1755 76.7836 80.2133V18.9425C76.7836 15.9803 74.367 13.5637 71.4048 13.5637H27.5174C24.5552 13.4858 22.1387 15.9023 22.1387 18.9425Z" fill="#324A5E"/>
<path d="M26.3481 20.4236V74.6008C26.3481 75.848 27.3615 76.7835 28.5308 76.7835H62.5962V69.0662C62.5962 67.8189 63.6096 66.8835 64.7789 66.8835H72.4962V20.4236C72.4962 19.1764 71.4828 18.241 70.3135 18.241H28.6088C27.3615 18.241 26.3481 19.1764 26.3481 20.4236Z" fill="white"/>
<path d="M62.6741 76.7834H70.3914C71.6386 76.7834 72.5741 75.77 72.5741 74.6007V66.8834H64.8567C63.6095 66.8834 62.6741 67.8968 62.6741 69.0661V76.7834Z" fill="#E6E9EE"/>
<path d="M62.6741 76.7834H70.3914C71.6386 76.7834 72.5741 75.77 72.5741 74.6007V66.8834L62.6741 76.7834Z" fill="#CED5E0"/>
<path d="M68.0528 54.8788H30.9473V56.5158H68.0528V54.8788Z" fill="#E6E9EE"/>
<path d="M68.0528 49.8118H30.9473V51.4488H68.0528V49.8118Z" fill="#E6E9EE"/>
<path d="M68.0528 44.667H30.9473V46.304H68.0528V44.667Z" fill="#E6E9EE"/>
<path d="M68.0528 39.5221H30.9473V41.1591H68.0528V39.5221Z" fill="#E6E9EE"/>
<path d="M68.0528 34.3772H30.9473V36.0142H68.0528V34.3772Z" fill="#E6E9EE"/>
<path d="M68.0528 29.2323H30.9473V30.8693H68.0528V29.2323Z" fill="#E6E9EE"/>
<path d="M68.0528 60.0237H30.9473V61.6607H68.0528V60.0237Z" fill="#E6E9EE"/>
<path d="M51.0591 65.1685H30.9473V66.8055H51.0591V65.1685Z" fill="#E6E9EE"/>
<path d="M55.3466 12.2385C55.3466 8.96453 52.6962 6.39209 49.5001 6.39209C46.3041 6.39209 43.6537 9.04248 43.6537 12.2385H35.0789V19.9559H63.9993V12.2385H55.3466Z" fill="#FF7058"/>
<path d="M49.5 15.1229C51.0929 15.1229 52.3842 13.8316 52.3842 12.2386C52.3842 10.6457 51.0929 9.35437 49.5 9.35437C47.907 9.35437 46.6157 10.6457 46.6157 12.2386C46.6157 13.8316 47.907 15.1229 49.5 15.1229Z" fill="white"/>
</g>
<defs>
<clipPath id="clip0_22_28">
<rect width="99" height="99" fill="white"/>
</clipPath>
</defs>
</svg>
