<svg width="17" height="17" viewBox="0 0 17 17" fill="none" xmlns="http://www.w3.org/2000/svg">
<g clip-path="url(#clip0_36_237)">
<path d="M16.9038 3.01819L16.9039 3.01829C17.0622 3.12584 17.1347 3.32218 17.0841 3.50672L17.084 3.50683C17.0617 3.58797 16.9883 3.75877 16.7463 4.07226C16.5072 4.38201 16.0999 4.83553 15.4052 5.48454C15.4095 6.13428 15.3321 8.13504 14.3395 10.2114C13.3209 12.3421 11.3401 14.548 7.512 15.4552L7.51007 15.4557L7.51006 15.4557C7.42809 15.4734 6.61379 15.6432 5.46654 15.6432C3.95119 15.6432 1.84248 15.347 0.0758412 13.9987C0.0758175 13.9987 0.0757937 13.9987 0.07577 13.9987L0.13644 13.9192C0.00903948 13.8221 -0.0350211 13.6503 0.0293598 13.5038L16.9038 3.01819ZM16.9038 3.01819C16.7452 2.91092 16.5358 2.91623 16.3831 3.03214L16.9038 3.01819ZM16.1991 3.13564C16.2734 3.10255 16.3358 3.06791 16.383 3.03224L16.1991 3.13564ZM16.1991 3.13564C16.6101 2.55991 16.6264 2.16845 16.6187 2.04705L16.6187 2.04702C16.6082 1.8844 16.51 1.74047 16.3628 1.6711L16.3624 1.67092C16.2148 1.60215 16.0416 1.61831 15.9099 1.71402L15.9098 1.71403C15.226 2.21089 14.5458 2.33113 14.1211 2.34957C13.4316 1.70819 12.544 1.35679 11.6014 1.35679C9.54373 1.35679 7.87205 3.05246 7.87205 5.13407C7.87205 5.26356 7.87862 5.39281 7.89159 5.52136C6.25862 5.45871 4.77557 4.65887 3.6843 3.85378C3.12703 3.44265 2.67458 3.03211 2.35976 2.72228C2.2024 2.56742 2.07957 2.43786 1.99536 2.34615C1.95326 2.30029 1.92083 2.26392 1.89857 2.23859L1.87291 2.2091L1.86597 2.20099L1.86403 2.19869L1.86348 2.19804C1.86334 2.19787 1.86329 2.19781 1.86331 2.19784L1.86321 2.19772C1.77033 2.08643 1.6285 2.02495 1.48087 2.03889C1.33572 2.05167 1.20565 2.13453 1.1328 2.2608L1.13279 2.26083C0.249725 3.7929 0.63825 5.16557 1.15918 6.08228C1.06783 6.06648 0.972052 6.07912 0.885769 6.12159L0.885727 6.12161C0.735198 6.19578 0.638958 6.34766 0.636136 6.51539L0.636135 6.51545C0.611103 8.05222 1.2845 8.99721 1.98524 9.56002C1.95607 9.5795 1.92895 9.60259 1.90459 9.6291M16.1991 3.13564L4.20942 12.5154C3.39041 12.2592 2.28319 11.6247 1.80581 10.0621L1.80581 10.0621C1.7595 9.91033 1.79729 9.74559 1.90459 9.6291M1.90459 9.6291C1.90461 9.62908 1.90463 9.62906 1.90464 9.62904L1.97818 9.69681L1.90454 9.62916C1.90456 9.62914 1.90457 9.62912 1.90459 9.6291ZM14.6507 4.96507L14.6507 4.96507C14.9392 4.69981 15.1759 4.47039 15.3702 4.27324C15.1092 4.31444 14.9103 4.33194 14.8565 4.33623C14.6618 4.35376 14.4758 4.23696 14.404 4.05367L14.404 4.05363C14.3322 3.87009 14.3892 3.66106 14.5441 3.53929L14.5442 3.53926C14.742 3.38389 14.9068 3.23857 15.0441 3.10454C14.588 3.22659 14.1946 3.24827 13.9343 3.24579L13.9334 3.24578C13.8153 3.24356 13.7027 3.19502 13.6203 3.10999C13.0822 2.55544 12.3656 2.2507 11.6013 2.2507C10.0394 2.2507 8.76589 3.54271 8.76589 5.1341C8.76589 5.37694 8.79586 5.61915 8.85485 5.85409C8.88739 5.98328 8.86049 6.12012 8.78169 6.22743L8.78166 6.22747C8.70282 6.33473 8.58021 6.40153 8.44719 6.40919L8.44716 6.40919C6.80398 6.50339 5.3092 5.93415 4.11144 5.22327C3.00161 4.56458 2.14125 3.78105 1.64609 3.27915C1.34267 4.17464 1.56031 4.96765 1.87651 5.55867C2.2107 6.18332 2.65155 6.57471 2.68677 6.60531L2.68686 6.60538C2.81831 6.71983 2.87166 6.90031 2.82293 7.06765L2.82291 7.06771C2.77414 7.23482 2.63303 7.35892 2.46036 7.38473C2.46035 7.38473 2.46034 7.38473 2.46032 7.38473L2.44555 7.28583L14.6507 4.96507ZM14.6507 4.96507C14.5509 5.05684 14.4984 5.1891 14.5075 5.32426L14.6073 5.31751L14.5075 5.32392C14.5083 5.33622 14.6238 7.19891 13.7941 9.27359L13.887 9.31072L13.7941 9.27359C12.6885 12.0383 10.5108 13.8257 7.31401 14.5836C7.24331 14.5982 4.58134 15.1368 2.10925 14.1324C3.19149 14.0274 4.54551 13.6501 5.53447 12.5399C5.65284 12.4071 5.67936 12.2069 5.60776 12.0475L5.60772 12.0474C5.53782 11.8922 5.38067 11.7723 5.19942 11.7723H5.19941H5.1994H5.19939H5.19939H5.19938H5.19937H5.19936H5.19936H5.19935H5.19934H5.19933H5.19932H5.19932H5.19931H5.1993H5.19929H5.19929H5.19928H5.19927H5.19926H5.19925H5.19925H5.19924H5.19923H5.19922H5.19921H5.19921H5.1992H5.19919H5.19918H5.19917H5.19917H5.19916H5.19915H5.19914H5.19914H5.19913H5.19912H5.19911H5.1991H5.1991H5.19909H5.19908H5.19907H5.19906H5.19906H5.19905H5.19904H5.19903H5.19902H5.19902H5.19901H5.199H5.19899H5.19898H5.19897H5.19897H5.19896H5.19895H5.19894H5.19893H5.19893H5.19892H5.19891H5.1989H5.19889H5.19888H5.19888H5.19887H5.19886H5.19885H5.19884H5.19884H5.19883H5.19882H5.19881H5.1988H5.19879H5.19879H5.19878H5.19877H5.19876H5.19875H5.19874H5.19874H5.19873H5.19872H5.19871H5.1987H5.19869H5.19869H5.19868H5.19867H5.19866H5.19865H5.19864H5.19863H5.19863H5.19862H5.19861H5.1986H5.19859H5.19858H5.19857H5.19857H5.19856H5.19855H5.19854H5.19853H5.19852H5.19851H5.1985H5.1985H5.19849H5.19848H5.19847H5.19846H5.19845H5.19844H5.19843H5.19843H5.19842H5.19841H5.1984H5.19839H5.19838H5.19837H5.19836H5.19835H5.19835H5.19834H5.19833H5.19832H5.19831H5.1983H5.19829H5.19828H5.19827H5.19826H5.19826H5.19825H5.19824H5.19823H5.19822H5.19821H5.1982H5.19819H5.19818H5.19817H5.19816H5.19815H5.19814H5.19813H5.19813H5.19812H5.19811H5.1981H5.19809H5.19808H5.19807H5.19806H5.19805H5.19804H5.19803H5.19802H5.19801H5.198H5.19799H5.19798H5.19797H5.19796H5.19795H5.19794H5.19793H5.19792H5.19792H5.19791H5.1979H5.19789H5.19788H5.19787H5.19786H5.19785H5.19784H5.19783H5.19782H5.19781H5.1978H5.19779H5.19778H5.19777H5.19776H5.19775H5.19774H5.19773H5.19772H5.1977H5.19769H5.19768H5.19767H5.19766H5.19765H5.19764H5.19763H5.19762H5.19761H5.1976H5.19759H5.19758H5.19757H5.19756H5.19755H5.19754H5.19753H5.19752H5.19751H5.1975H5.19749H5.19747H5.19746H5.19745H5.19744H5.19743H5.19742H5.19741H5.1974H5.19739H5.19738H5.19737H5.19736H5.19734H5.19733H5.19732H5.19731H5.1973H5.19729H5.19728H5.19727H5.19726H5.19724H5.19723H5.19722H5.19721H5.1972H5.19719H5.19718H5.19716H5.19715H5.19714H5.19713H5.19712H5.19711H5.1971H5.19708H5.19707H5.19706C5.11301 11.7723 3.69158 11.7607 2.93722 10.4384C3.21026 10.4379 3.51703 10.405 3.7776 10.2849L3.77765 10.2849C3.95195 10.2045 4.0562 10.0239 4.03451 9.83178C4.01285 9.63982 3.87054 9.48572 3.68259 9.44607C3.60355 9.42935 1.94168 9.05724 1.59332 7.28551L14.6507 4.96507Z" fill="#5E6282" stroke="#5E6282" style="fill:#5E6282;fill:color(display-p3 0.3686 0.3843 0.5098);fill-opacity:1;stroke:#5E6282;stroke:color(display-p3 0.3686 0.3843 0.5098);stroke-opacity:1;" stroke-width="0.2"/>
</g>
<defs>
<clipPath id="clip0_36_237">
<rect width="17" height="17" fill="white" style="fill:white;fill-opacity:1;"/>
</clipPath>
</defs>
</svg>
