<svg width="54" height="54" viewBox="0 0 54 54" fill="none" xmlns="http://www.w3.org/2000/svg">
<g clip-path="url(#clip0_134_847)">
<path d="M19.6263 26.2825C19.6263 26.7793 19.2289 27.1766 18.7322 27.1766H15.3765C14.8798 27.1766 14.4824 26.7793 14.4824 26.2825V22.9269C14.4824 22.4301 14.8798 22.0327 15.3765 22.0327H18.7322C19.2289 22.0327 19.6263 22.4301 19.6263 22.9269V26.2825ZM26.6357 22.9379C26.6357 22.4412 26.2383 22.0438 25.7416 22.0438H22.3859C21.8892 22.0438 21.4918 22.4412 21.4918 22.9379V26.2936C21.4918 26.7903 21.8892 27.1877 22.3859 27.1877H25.7416C26.2383 27.1877 26.6357 26.7903 26.6357 26.2936V22.9379ZM33.6451 22.9379C33.6451 22.4412 33.2478 22.0438 32.751 22.0438H29.3953C28.8986 22.0438 28.5012 22.4412 28.5012 22.9379V26.2936C28.5012 26.7903 28.8986 27.1877 29.3953 27.1877H32.751C33.2478 27.1877 33.6451 26.7903 33.6451 26.2936V22.9379ZM19.6263 29.7596C19.6263 29.2629 19.2289 28.8655 18.7322 28.8655H15.3765C14.8798 28.8655 14.4824 29.2629 14.4824 29.7596V33.1153C14.4824 33.6121 14.8798 34.0094 15.3765 34.0094H18.7322C19.2289 34.0094 19.6263 33.6121 19.6263 33.1153V29.7596ZM26.6357 29.7596C26.6357 29.2629 26.2383 28.8655 25.7416 28.8655H22.3859C21.8892 28.8655 21.4918 29.2629 21.4918 29.7596V33.1153C21.4918 33.6121 21.8892 34.0094 22.3859 34.0094H25.7416C26.2383 34.0094 26.6357 33.6121 26.6357 33.1153V29.7596ZM32.751 28.8655H29.3953C28.8986 28.8655 28.5012 29.2629 28.5012 29.7596V33.1153C28.5012 33.6121 28.8986 34.0094 29.3953 34.0094H32.751C33.2478 34.0094 33.6451 33.6121 33.6451 33.1153V29.7596C33.6451 29.2629 33.2478 28.8655 32.751 28.8655ZM11.7118 35.6873H8.36713C7.8704 35.6873 7.47302 36.0847 7.47302 36.5814V39.9371C7.47302 40.4338 7.8704 40.8312 8.36713 40.8312H11.7228C12.2195 40.8312 12.6169 40.4338 12.6169 39.9371V36.5814C12.6169 36.0847 12.2085 35.6873 11.7118 35.6873ZM12.6169 29.7596C12.6169 29.2629 12.2195 28.8655 11.7228 28.8655H8.36713C7.8704 28.8655 7.47302 29.2629 7.47302 29.7596V33.1153C7.47302 33.6121 7.8704 34.0094 8.36713 34.0094H11.7228C12.2195 34.0094 12.6169 33.6121 12.6169 33.1153V29.7596ZM25.7416 35.6873H22.3859C21.8892 35.6873 21.4918 36.0847 21.4918 36.5814V39.9371C21.4918 40.4338 21.8892 40.8312 22.3859 40.8312H25.7416C26.2383 40.8312 26.6357 40.4338 26.6357 39.9371V36.5814C26.6357 36.0847 26.2383 35.6873 25.7416 35.6873ZM18.7322 35.6873H15.3765C14.8798 35.6873 14.4824 36.0847 14.4824 36.5814V39.9371C14.4824 40.4338 14.8798 40.8312 15.3765 40.8312H18.7322C19.2289 40.8312 19.6263 40.4338 19.6263 39.9371V36.5814C19.6263 36.0847 19.2289 35.6873 18.7322 35.6873ZM39.7604 27.1877C40.2572 27.1877 40.6545 26.7903 40.6545 26.2936V22.9379C40.6545 22.4412 40.2572 22.0438 39.7604 22.0438H36.4047C35.908 22.0438 35.5106 22.4412 35.5106 22.9379V26.2936C35.5106 26.7903 35.908 27.1877 36.4047 27.1877H39.7604ZM5.26533 48.1166H30.731C30.3226 46.8361 30.0908 45.4673 30.0797 44.0544H5.26533C4.60303 44.0544 4.07318 43.5135 4.07318 42.8623V18.8757H43.9992V30.0356C45.4121 30.0466 46.7809 30.2564 48.0613 30.6648V10.4755C48.0613 7.5724 45.6991 5.21017 42.796 5.21017H36.9015V1.96488C36.9015 0.905187 36.0405 0.0441895 34.9808 0.0441895H31.9894C30.9297 0.0441895 30.0687 0.905187 30.0687 1.96488V5.22121H17.9926V1.96488C17.9926 0.905187 17.1316 0.0441895 16.072 0.0441895H13.0805C12.0209 0.0441895 11.1599 0.905187 11.1599 1.96488V5.22121H5.26533C2.36222 5.22121 0 7.58344 0 10.4865V42.8623C0 45.7543 2.36222 48.1166 5.26533 48.1166ZM54 43.8999C54 49.4522 49.4963 53.9559 43.944 53.9559C38.3917 53.9559 33.888 49.4522 33.888 43.8999C33.888 38.3475 38.3917 33.8439 43.944 33.8439C49.4963 33.8439 54 38.3475 54 43.8999ZM49.0217 41.2948C49.0217 40.9747 48.9002 40.6656 48.6684 40.4448C48.1938 39.9702 47.4321 39.9702 46.9575 40.4448L42.5863 44.8161L40.9084 43.1382C40.4338 42.6636 39.6721 42.6636 39.1975 43.1382C38.9657 43.37 38.8442 43.6681 38.8442 43.9882C38.8442 44.3083 38.9657 44.6174 39.1975 44.8381L41.7253 47.3659C42.1999 47.8406 42.9616 47.8406 43.4362 47.3659L48.6574 42.1448C48.9002 41.924 49.0217 41.6149 49.0217 41.2948Z" fill="#96BB1E"/>
</g>
<defs>
<clipPath id="clip0_134_847">
<rect width="54" height="54" fill="white"/>
</clipPath>
</defs>
</svg>
