<svg width="34" height="34" viewBox="0 0 34 34" fill="none" xmlns="http://www.w3.org/2000/svg">
<path d="M20.6124 2.83333H13.3874C10.8374 2.83333 10.2707 4.10834 9.94488 5.68084L8.7832 11.2342H25.2165L24.0549 5.68084C23.729 4.10834 23.1624 2.83333 20.6124 2.83333Z" stroke="white" stroke-width="1.5" stroke-linecap="round" stroke-linejoin="round"/>
<path d="M27.2565 20.2867C27.3699 21.4908 26.4065 22.525 25.174 22.525H23.2474C22.1424 22.525 21.9865 22.0575 21.7882 21.4625L21.5757 20.8533C21.2924 20.0175 21.1082 19.4508 19.6207 19.4508H14.3649C12.8915 19.4508 12.6649 20.0883 12.4099 20.8533L12.1974 21.4625C11.999 22.0434 11.8432 22.525 10.7382 22.525H8.81154C7.57904 22.525 6.61571 21.4908 6.72904 20.2867L7.30988 14.025C7.45154 12.4809 7.74903 11.22 10.4407 11.22H23.5449C26.2365 11.22 26.534 12.4809 26.6757 14.025L27.2565 20.2867Z" stroke="white" stroke-width="1.5" stroke-linecap="round" stroke-linejoin="round"/>
<path d="M8.78318 8.14583H7.74902" stroke="white" stroke-width="1.5" stroke-linecap="round" stroke-linejoin="round"/>
<path d="M26.2507 8.14583H25.2166" stroke="white" stroke-width="1.5" stroke-linecap="round" stroke-linejoin="round"/>
<path d="M10.8374 15.3425H13.9116" stroke="white" stroke-width="1.5" stroke-linecap="round" stroke-linejoin="round"/>
<path d="M20.0881 15.3425H23.1623" stroke="white" stroke-width="1.5" stroke-linecap="round" stroke-linejoin="round"/>
<path d="M17 24.0833V25.5" stroke="white" stroke-width="1.5" stroke-linecap="round" stroke-linejoin="round"/>
<path d="M17 29.75V31.1667" stroke="white" stroke-width="1.5" stroke-linecap="round" stroke-linejoin="round"/>
<path d="M4.24992 25.5L2.83325 31.1667" stroke="white" stroke-width="1.5" stroke-linecap="round" stroke-linejoin="round"/>
<path d="M29.75 25.5L31.1667 31.1667" stroke="white" stroke-width="1.5" stroke-linecap="round" stroke-linejoin="round"/>
</svg>
