<svg width="66" height="67" viewBox="0 0 66 67" fill="none" xmlns="http://www.w3.org/2000/svg">
<path d="M39.2139 65.2963C39.2139 66.2373 38.4626 67 37.5356 67H28.4633C27.5363 67 26.785 66.2373 26.785 65.2963C26.785 64.3552 27.5363 63.5925 28.4633 63.5925H37.5356C38.4626 63.5925 39.2139 64.3552 39.2139 65.2963ZM54.0187 49.0221V53.9304C54.0187 57.5762 51.0966 60.5424 47.5048 60.5424H18.4943C14.9029 60.5424 11.981 57.5764 11.981 53.9304V49.0221C11.981 48.081 12.7323 47.3183 13.6593 47.3183H14.1057C14.1018 47.2695 14.0996 47.2199 14.0996 47.1699V42.6043C14.0971 42.503 14.1038 42.4025 14.1191 42.3036C14.1572 42.052 14.2495 41.8188 14.3836 41.6163C14.515 41.4166 14.6892 41.2435 14.8996 41.1129C14.9848 41.0597 15.0748 41.0141 15.1692 40.9768C15.8338 40.6961 16.4945 40.4058 17.1468 40.1086V19.2919C17.1468 15.9077 19.268 12.9348 22.2935 11.7911C22.2899 11.6979 22.2882 11.6048 22.2882 11.5109V7.30301C22.2881 3.27611 25.5153 0 29.4819 0H36.5168C40.4836 0 43.7107 3.27611 43.7107 7.30301V11.5111C43.7107 11.6048 43.7088 11.6981 43.7054 11.7909C44.898 12.241 45.9673 12.9797 46.82 13.9397C46.8499 13.8829 46.8793 13.8263 46.9092 13.7695C47.3414 12.9373 48.3564 12.6183 49.1768 13.0577C49.9965 13.4967 50.3104 14.5275 49.8779 15.3596C46.7367 21.4034 42.175 27.0034 36.3195 32.0039C31.6458 35.995 26.3406 39.4425 20.5036 42.2857V47.3185H45.4956V26.8132C45.4956 25.8721 46.247 25.1094 47.174 25.1094C48.1009 25.1094 48.8523 25.8721 48.8523 26.8132V47.3183H52.3406C53.2672 47.3183 54.0187 48.081 54.0187 49.0221ZM25.6447 11.5111C25.6447 11.8598 25.69 12.1981 25.775 12.5201C25.7887 12.5617 25.8008 12.6041 25.811 12.6473C26.291 14.2427 27.7549 15.4066 29.4817 15.4066H36.5166C38.2433 15.4066 39.7071 14.2431 40.1875 12.6479C40.1981 12.6041 40.2102 12.5612 40.2239 12.5191C40.3087 12.1975 40.354 11.8596 40.354 11.5111V7.30301C40.354 5.15497 38.6326 3.40749 36.5166 3.40749H29.4817C27.3659 3.40749 25.6447 5.15497 25.6447 7.30301V11.5111ZM20.5034 38.4804C30.9806 33.0813 39.5868 25.5793 44.9625 17.1384C44.4754 16.2163 43.7038 15.4994 42.787 15.0882C41.5522 17.3102 39.2042 18.8139 36.5166 18.8139H29.4817C26.7943 18.8139 24.4464 17.3101 23.2115 15.088C21.607 15.8074 20.5034 17.4426 20.5034 19.2919V38.4804ZM50.6621 50.7258H47.1991C47.1906 50.7258 47.1822 50.726 47.1738 50.726H18.8251C18.8167 50.726 18.8084 50.726 18.7998 50.7258H15.3376V53.9304C15.3376 55.6973 16.7537 57.1349 18.4943 57.1349H47.5048C49.2457 57.1349 50.6621 55.6973 50.6621 53.9304V50.7258Z" fill="#98BE1D"/>
</svg>
