<svg width="109" height="108" viewBox="0 0 109 108" fill="none" xmlns="http://www.w3.org/2000/svg">
<path d="M83.4772 30.9107C95.3994 37.7727 99.4945 53.0148 92.6219 64.9553C85.7493 76.8958 70.5127 81.011 58.5906 74.149C46.6684 67.287 42.5733 52.045 49.4459 40.1045C56.3185 28.164 71.5551 24.0487 83.4772 30.9107Z" stroke="white" stroke-opacity="0.15"/>
<path d="M81.6605 28.7063C95.0229 36.3973 99.6126 53.4805 91.9099 66.8633C84.2071 80.2461 67.1301 84.8585 53.7677 77.1675C40.4053 69.4766 35.8156 52.3933 43.5184 39.0106C51.2211 25.6278 68.2982 21.0153 81.6605 28.7063Z" stroke="white" stroke-opacity="0.15"/>
<path d="M80.2782 26.7518C94.9208 35.1796 99.9501 53.8994 91.5095 68.5642C83.0688 83.229 64.3558 88.2835 49.7132 79.8556C35.0706 71.4278 30.0412 52.7079 38.4819 38.0431C46.9225 23.3783 65.6356 18.3239 80.2782 26.7518Z" stroke="white" stroke-opacity="0.15"/>
<path d="M77.8589 24.5869C93.6217 33.6594 99.0357 53.8113 89.9495 69.5979C80.8632 85.3845 60.7186 90.8256 44.9558 81.753C29.193 72.6804 23.779 52.5285 32.8653 36.742C41.9516 20.9554 62.0962 15.5143 77.8589 24.5869Z" stroke="white" stroke-opacity="0.15"/>
<path d="M75.5128 22.4639C92.3557 32.1582 98.1407 53.691 88.4318 70.5593C78.7229 87.4276 57.198 93.2416 40.355 83.5473C23.512 73.853 17.7271 52.3202 27.436 35.4519C37.1449 18.5836 58.6698 12.7696 75.5128 22.4639Z" stroke="white" stroke-opacity="0.15"/>
<path d="M72.8881 19.9874C91.4113 30.6488 97.7733 54.3297 87.0959 72.8806C76.4186 91.4316 52.7463 97.8257 34.2231 87.1642C15.6999 76.5028 9.33789 52.8219 20.0153 34.271C30.6926 15.72 54.3649 9.32596 72.8881 19.9874Z" stroke="white" stroke-opacity="0.15"/>
</svg>
