<svg width="1121" height="298" viewBox="0 0 1121 298" fill="none" xmlns="http://www.w3.org/2000/svg">
<g clip-path="url(#clip0_85_246)">
<rect width="1121" height="298" rx="51" fill="#F9F7FE"/>
<path d="M32.409 335.588C3.59348 335.588 -19.7674 312.195 -19.7674 283.337C-19.7674 254.479 3.59348 231.086 32.409 231.086C61.2246 231.086 84.5854 254.479 84.5854 283.337C84.5854 312.195 61.2246 335.588 32.409 335.588Z" stroke="#6246E5" stroke-opacity="0.15"/>
<path d="M37.9538 337.67C5.69305 337.67 -20.4606 311.481 -20.4606 279.173C-20.4606 246.864 5.69305 220.675 37.9538 220.675C70.2145 220.675 96.3682 246.864 96.3682 279.173C96.3682 311.481 70.2145 337.67 37.9538 337.67Z" stroke="#6246E5" stroke-opacity="0.15"/>
<path d="M42.4592 339.753C7.1361 339.753 -21.5001 311.077 -21.5001 275.702C-21.5001 240.328 7.13611 211.652 42.4592 211.652C77.7822 211.652 106.418 240.328 106.418 275.702C106.418 311.077 77.7822 339.753 42.4592 339.753Z" stroke="#6246E5" stroke-opacity="0.15"/>
<path d="M49.0439 341.141C11.0413 341.141 -19.7671 310.29 -19.7671 272.232C-19.7671 234.174 11.0413 203.323 49.0439 203.323C87.0466 203.323 117.855 234.174 117.855 272.232C117.855 310.29 87.0465 341.141 49.0439 341.141Z" stroke="#6246E5" stroke-opacity="0.15"/>
<path d="M55.4553 342.529C14.8688 342.529 -18.0343 309.58 -18.0343 268.935C-18.0343 228.289 14.8688 195.341 55.4553 195.341C96.0418 195.341 128.945 228.289 128.945 268.935C128.945 309.581 96.0418 342.529 55.4553 342.529Z" stroke="#6246E5" stroke-opacity="0.15"/>
<path d="M62.7328 344.264C18.1269 344.264 -18.0344 308.053 -18.0344 263.382C-18.0344 218.712 18.127 182.5 62.7328 182.5C107.339 182.5 143.5 218.712 143.5 263.382C143.5 308.053 107.339 344.264 62.7328 344.264Z" stroke="#6246E5" stroke-opacity="0.15"/>
<path d="M1101.28 -38.4593C1131.32 -38.4593 1155.67 -14.0738 1155.67 16.0086C1155.67 46.0911 1131.32 70.4766 1101.28 70.4766C1071.24 70.4766 1046.89 46.0911 1046.89 16.0086C1046.89 -14.0738 1071.24 -38.4593 1101.28 -38.4593Z" stroke="#6246E5" stroke-opacity="0.15"/>
<path d="M1095.5 -40.6289C1129.13 -40.6289 1156.39 -13.3291 1156.39 20.3484C1156.39 54.0259 1129.13 81.3257 1095.5 81.3257C1061.87 81.3257 1034.61 54.0259 1034.61 20.3484C1034.61 -13.3291 1061.87 -40.6289 1095.5 -40.6289Z" stroke="#6246E5" stroke-opacity="0.15"/>
<path d="M1090.81 -42.799C1127.63 -42.799 1157.48 -12.9087 1157.48 23.9644C1157.48 60.8375 1127.63 90.7278 1090.81 90.7278C1053.99 90.7278 1024.14 60.8375 1024.14 23.9644C1024.14 -12.9087 1053.99 -42.799 1090.81 -42.799Z" stroke="#6246E5" stroke-opacity="0.15"/>
<path d="M1083.95 -44.2455C1123.56 -44.2455 1155.67 -12.0884 1155.67 27.5808C1155.67 67.25 1123.56 99.407 1083.95 99.407C1044.34 99.407 1012.22 67.25 1012.22 27.5808C1012.22 -12.0884 1044.34 -44.2455 1083.95 -44.2455Z" stroke="#6246E5" stroke-opacity="0.15"/>
<path d="M1077.27 -45.6916C1119.57 -45.6916 1153.87 -11.3488 1153.87 31.0166C1153.87 73.3821 1119.57 107.725 1077.27 107.725C1034.96 107.725 1000.67 73.3821 1000.67 31.0166C1000.67 -11.3488 1034.96 -45.6916 1077.27 -45.6916Z" stroke="#6246E5" stroke-opacity="0.15"/>
<path d="M1069.68 -47.5C1116.17 -47.5 1153.87 -9.75715 1153.87 36.8025C1153.87 83.3621 1116.17 121.105 1069.68 121.105C1023.19 121.105 985.5 83.3621 985.5 36.8025C985.5 -9.75714 1023.19 -47.5 1069.68 -47.5Z" stroke="#6246E5" stroke-opacity="0.15"/>
<rect x="187" y="148" width="784" height="98" rx="10" fill="white"/>
<path d="M349.227 85.872V89.94H338.751V96.384H346.779V100.38H338.751V111H333.711V85.872H349.227ZM361.656 111.324C359.736 111.324 358.008 110.904 356.472 110.064C354.936 109.2 353.724 107.988 352.836 106.428C351.972 104.868 351.54 103.068 351.54 101.028C351.54 98.988 351.984 97.188 352.872 95.628C353.784 94.068 355.02 92.868 356.58 92.028C358.14 91.164 359.88 90.732 361.8 90.732C363.72 90.732 365.46 91.164 367.02 92.028C368.58 92.868 369.804 94.068 370.692 95.628C371.604 97.188 372.06 98.988 372.06 101.028C372.06 103.068 371.592 104.868 370.656 106.428C369.744 107.988 368.496 109.2 366.912 110.064C365.352 110.904 363.6 111.324 361.656 111.324ZM361.656 106.932C362.568 106.932 363.42 106.716 364.212 106.284C365.028 105.828 365.676 105.156 366.156 104.268C366.636 103.38 366.876 102.3 366.876 101.028C366.876 99.132 366.372 97.68 365.364 96.672C364.38 95.64 363.168 95.124 361.728 95.124C360.288 95.124 359.076 95.64 358.092 96.672C357.132 97.68 356.652 99.132 356.652 101.028C356.652 102.924 357.12 104.388 358.056 105.42C359.016 106.428 360.216 106.932 361.656 106.932ZM380.797 94.152C381.445 93.096 382.285 92.268 383.317 91.668C384.373 91.068 385.573 90.768 386.917 90.768V96.06H385.585C384.001 96.06 382.801 96.432 381.985 97.176C381.193 97.92 380.797 99.216 380.797 101.064V111H375.757V91.056H380.797V94.152ZM422.876 106.212H412.868L411.212 111H405.92L414.956 85.836H420.824L429.86 111H424.532L422.876 106.212ZM421.508 102.18L417.872 91.668L414.236 102.18H421.508ZM444.29 90.768C446.666 90.768 448.586 91.524 450.05 93.036C451.514 94.524 452.246 96.612 452.246 99.3V111H447.206V99.984C447.206 98.4 446.81 97.188 446.018 96.348C445.226 95.484 444.146 95.052 442.778 95.052C441.386 95.052 440.282 95.484 439.466 96.348C438.674 97.188 438.278 98.4 438.278 99.984V111H433.238V91.056H438.278V93.54C438.95 92.676 439.802 92.004 440.834 91.524C441.89 91.02 443.042 90.768 444.29 90.768ZM476.119 91.056L463.771 120.432H458.407L462.727 110.496L454.735 91.056H460.387L465.535 104.988L470.755 91.056H476.119ZM492.454 85.872V111H487.414V85.872H492.454ZM508.485 90.768C510.861 90.768 512.781 91.524 514.245 93.036C515.709 94.524 516.441 96.612 516.441 99.3V111H511.401V99.984C511.401 98.4 511.005 97.188 510.213 96.348C509.421 95.484 508.341 95.052 506.973 95.052C505.581 95.052 504.477 95.484 503.661 96.348C502.869 97.188 502.473 98.4 502.473 99.984V111H497.433V91.056H502.473V93.54C503.145 92.676 503.997 92.004 505.029 91.524C506.085 91.02 507.237 90.768 508.485 90.768ZM519.938 100.992C519.938 99 520.346 97.236 521.162 95.7C522.002 94.14 523.13 92.928 524.546 92.064C525.962 91.2 527.522 90.768 529.226 90.768C530.642 90.768 531.89 91.044 532.97 91.596C534.074 92.124 534.962 92.808 535.634 93.648V91.056H540.71V120.504H535.634V108.264C534.962 109.128 534.062 109.848 532.934 110.424C531.806 111 530.534 111.288 529.118 111.288C527.438 111.288 525.89 110.856 524.474 109.992C523.082 109.104 521.978 107.88 521.162 106.32C520.346 104.76 519.938 102.984 519.938 100.992ZM535.634 101.028C535.634 99.804 535.382 98.748 534.878 97.86C534.374 96.972 533.714 96.3 532.898 95.844C532.106 95.388 531.254 95.16 530.342 95.16C529.454 95.16 528.602 95.388 527.786 95.844C526.994 96.3 526.346 96.972 525.842 97.86C525.338 98.724 525.086 99.768 525.086 100.992C525.086 102.216 525.338 103.284 525.842 104.196C526.346 105.084 526.994 105.756 527.786 106.212C528.602 106.668 529.454 106.896 530.342 106.896C531.254 106.896 532.106 106.668 532.898 106.212C533.714 105.756 534.374 105.084 534.878 104.196C535.382 103.308 535.634 102.252 535.634 101.028ZM564.46 91.056V111H559.384V108.48C558.736 109.344 557.884 110.028 556.828 110.532C555.796 111.012 554.668 111.252 553.444 111.252C551.884 111.252 550.504 110.928 549.304 110.28C548.104 109.608 547.156 108.636 546.46 107.364C545.788 106.068 545.452 104.532 545.452 102.756V91.056H550.492V102.036C550.492 103.62 550.888 104.844 551.68 105.708C552.472 106.548 553.552 106.968 554.92 106.968C556.312 106.968 557.404 106.548 558.196 105.708C558.988 104.844 559.384 103.62 559.384 102.036V91.056H564.46ZM571.989 88.68C571.101 88.68 570.357 88.404 569.757 87.852C569.181 87.276 568.893 86.568 568.893 85.728C568.893 84.888 569.181 84.192 569.757 83.64C570.357 83.064 571.101 82.776 571.989 82.776C572.877 82.776 573.609 83.064 574.185 83.64C574.785 84.192 575.085 84.888 575.085 85.728C575.085 86.568 574.785 87.276 574.185 87.852C573.609 88.404 572.877 88.68 571.989 88.68ZM574.473 91.056V111H569.433V91.056H574.473ZM584.493 94.152C585.141 93.096 585.981 92.268 587.013 91.668C588.069 91.068 589.269 90.768 590.613 90.768V96.06H589.281C587.697 96.06 586.497 96.432 585.681 97.176C584.889 97.92 584.493 99.216 584.493 101.064V111H579.453V91.056H584.493V94.152ZM596.563 88.68C595.675 88.68 594.931 88.404 594.331 87.852C593.755 87.276 593.467 86.568 593.467 85.728C593.467 84.888 593.755 84.192 594.331 83.64C594.931 83.064 595.675 82.776 596.563 82.776C597.451 82.776 598.183 83.064 598.759 83.64C599.359 84.192 599.659 84.888 599.659 85.728C599.659 86.568 599.359 87.276 598.759 87.852C598.183 88.404 597.451 88.68 596.563 88.68ZM599.047 91.056V111H594.007V91.056H599.047ZM622.567 100.596C622.567 101.316 622.519 101.964 622.423 102.54H607.843C607.963 103.98 608.467 105.108 609.355 105.924C610.243 106.74 611.335 107.148 612.631 107.148C614.503 107.148 615.835 106.344 616.627 104.736H622.063C621.487 106.656 620.383 108.24 618.751 109.488C617.119 110.712 615.115 111.324 612.739 111.324C610.819 111.324 609.091 110.904 607.555 110.064C606.043 109.2 604.855 107.988 603.991 106.428C603.151 104.868 602.731 103.068 602.731 101.028C602.731 98.964 603.151 97.152 603.991 95.592C604.831 94.032 606.007 92.832 607.519 91.992C609.031 91.152 610.771 90.732 612.739 90.732C614.635 90.732 616.327 91.14 617.815 91.956C619.327 92.772 620.491 93.936 621.307 95.448C622.147 96.936 622.567 98.652 622.567 100.596ZM617.347 99.156C617.323 97.86 616.855 96.828 615.943 96.06C615.031 95.268 613.915 94.872 612.595 94.872C611.347 94.872 610.291 95.256 609.427 96.024C608.587 96.768 608.071 97.812 607.879 99.156H617.347ZM633.878 111.324C632.246 111.324 630.782 111.036 629.486 110.46C628.19 109.86 627.158 109.056 626.39 108.048C625.646 107.04 625.238 105.924 625.166 104.7H630.242C630.338 105.468 630.71 106.104 631.358 106.608C632.03 107.112 632.858 107.364 633.842 107.364C634.802 107.364 635.546 107.172 636.074 106.788C636.626 106.404 636.902 105.912 636.902 105.312C636.902 104.664 636.566 104.184 635.894 103.872C635.246 103.536 634.202 103.176 632.762 102.792C631.274 102.432 630.05 102.06 629.09 101.676C628.154 101.292 627.338 100.704 626.642 99.912C625.97 99.12 625.634 98.052 625.634 96.708C625.634 95.604 625.946 94.596 626.57 93.684C627.218 92.772 628.13 92.052 629.306 91.524C630.506 90.996 631.91 90.732 633.518 90.732C635.894 90.732 637.79 91.332 639.206 92.532C640.622 93.708 641.402 95.304 641.546 97.32H636.722C636.65 96.528 636.314 95.904 635.714 95.448C635.138 94.968 634.358 94.728 633.374 94.728C632.462 94.728 631.754 94.896 631.25 95.232C630.77 95.568 630.53 96.036 630.53 96.636C630.53 97.308 630.866 97.824 631.538 98.184C632.21 98.52 633.254 98.868 634.67 99.228C636.11 99.588 637.298 99.96 638.234 100.344C639.17 100.728 639.974 101.328 640.646 102.144C641.342 102.936 641.702 103.992 641.726 105.312C641.726 106.464 641.402 107.496 640.754 108.408C640.13 109.32 639.218 110.04 638.018 110.568C636.842 111.072 635.462 111.324 633.878 111.324ZM669.957 85.872V89.94H659.481V96.384H667.509V100.38H659.481V111H654.441V85.872H669.957ZM676.087 88.68C675.199 88.68 674.455 88.404 673.855 87.852C673.279 87.276 672.991 86.568 672.991 85.728C672.991 84.888 673.279 84.192 673.855 83.64C674.455 83.064 675.199 82.776 676.087 82.776C676.975 82.776 677.707 83.064 678.283 83.64C678.883 84.192 679.183 84.888 679.183 85.728C679.183 86.568 678.883 87.276 678.283 87.852C677.707 88.404 676.975 88.68 676.087 88.68ZM678.571 91.056V111H673.531V91.056H678.571ZM694.602 90.768C696.978 90.768 698.898 91.524 700.362 93.036C701.826 94.524 702.558 96.612 702.558 99.3V111H697.518V99.984C697.518 98.4 697.122 97.188 696.33 96.348C695.538 95.484 694.458 95.052 693.09 95.052C691.698 95.052 690.594 95.484 689.778 96.348C688.986 97.188 688.59 98.4 688.59 99.984V111H683.55V91.056H688.59V93.54C689.262 92.676 690.114 92.004 691.146 91.524C692.202 91.02 693.354 90.768 694.602 90.768ZM706.055 100.956C706.055 98.94 706.451 97.152 707.243 95.592C708.059 94.032 709.163 92.832 710.555 91.992C711.947 91.152 713.495 90.732 715.199 90.732C716.495 90.732 717.731 91.02 718.907 91.596C720.083 92.148 721.019 92.892 721.715 93.828V84.36H726.827V111H721.715V108.048C721.091 109.032 720.215 109.824 719.087 110.424C717.959 111.024 716.651 111.324 715.163 111.324C713.483 111.324 711.947 110.892 710.555 110.028C709.163 109.164 708.059 107.952 707.243 106.392C706.451 104.808 706.055 102.996 706.055 100.956ZM721.751 101.028C721.751 99.804 721.511 98.76 721.031 97.896C720.551 97.008 719.903 96.336 719.087 95.88C718.271 95.4 717.395 95.16 716.459 95.16C715.523 95.16 714.659 95.388 713.867 95.844C713.075 96.3 712.427 96.972 711.923 97.86C711.443 98.724 711.203 99.756 711.203 100.956C711.203 102.156 711.443 103.212 711.923 104.124C712.427 105.012 713.075 105.696 713.867 106.176C714.683 106.656 715.547 106.896 716.459 106.896C717.395 106.896 718.271 106.668 719.087 106.212C719.903 105.732 720.551 105.06 721.031 104.196C721.511 103.308 721.751 102.252 721.751 101.028ZM767.734 91.056V111H762.658V108.48C762.01 109.344 761.158 110.028 760.102 110.532C759.07 111.012 757.942 111.252 756.718 111.252C755.158 111.252 753.778 110.928 752.578 110.28C751.378 109.608 750.43 108.636 749.734 107.364C749.062 106.068 748.726 104.532 748.726 102.756V91.056H753.766V102.036C753.766 103.62 754.162 104.844 754.954 105.708C755.746 106.548 756.826 106.968 758.194 106.968C759.586 106.968 760.678 106.548 761.47 105.708C762.262 104.844 762.658 103.62 762.658 102.036V91.056H767.734ZM780.339 111.324C778.707 111.324 777.243 111.036 775.947 110.46C774.651 109.86 773.619 109.056 772.851 108.048C772.107 107.04 771.699 105.924 771.627 104.7H776.703C776.799 105.468 777.171 106.104 777.819 106.608C778.491 107.112 779.319 107.364 780.303 107.364C781.263 107.364 782.007 107.172 782.535 106.788C783.087 106.404 783.363 105.912 783.363 105.312C783.363 104.664 783.027 104.184 782.355 103.872C781.707 103.536 780.663 103.176 779.223 102.792C777.735 102.432 776.511 102.06 775.551 101.676C774.615 101.292 773.799 100.704 773.103 99.912C772.431 99.12 772.095 98.052 772.095 96.708C772.095 95.604 772.407 94.596 773.031 93.684C773.679 92.772 774.591 92.052 775.767 91.524C776.967 90.996 778.371 90.732 779.979 90.732C782.355 90.732 784.251 91.332 785.667 92.532C787.083 93.708 787.863 95.304 788.007 97.32H783.183C783.111 96.528 782.775 95.904 782.175 95.448C781.599 94.968 780.819 94.728 779.835 94.728C778.923 94.728 778.215 94.896 777.711 95.232C777.231 95.568 776.991 96.036 776.991 96.636C776.991 97.308 777.327 97.824 777.999 98.184C778.671 98.52 779.715 98.868 781.131 99.228C782.571 99.588 783.759 99.96 784.695 100.344C785.631 100.728 786.435 101.328 787.107 102.144C787.803 102.936 788.163 103.992 788.187 105.312C788.187 106.464 787.863 107.496 787.215 108.408C786.591 109.32 785.679 110.04 784.479 110.568C783.303 111.072 781.923 111.324 780.339 111.324ZM799.606 100.956C799.606 98.94 800.002 97.152 800.794 95.592C801.61 94.032 802.702 92.832 804.07 91.992C805.462 91.152 807.01 90.732 808.714 90.732C810.202 90.732 811.498 91.032 812.602 91.632C813.73 92.232 814.63 92.988 815.302 93.9V91.056H820.378V111H815.302V108.084C814.654 109.02 813.754 109.8 812.602 110.424C811.474 111.024 810.166 111.324 808.678 111.324C806.998 111.324 805.462 110.892 804.07 110.028C802.702 109.164 801.61 107.952 800.794 106.392C800.002 104.808 799.606 102.996 799.606 100.956ZM815.302 101.028C815.302 99.804 815.062 98.76 814.582 97.896C814.102 97.008 813.454 96.336 812.638 95.88C811.822 95.4 810.946 95.16 810.01 95.16C809.074 95.16 808.21 95.388 807.418 95.844C806.626 96.3 805.978 96.972 805.474 97.86C804.994 98.724 804.754 99.756 804.754 100.956C804.754 102.156 804.994 103.212 805.474 104.124C805.978 105.012 806.626 105.696 807.418 106.176C808.234 106.656 809.098 106.896 810.01 106.896C810.946 106.896 811.822 106.668 812.638 106.212C813.454 105.732 814.102 105.06 814.582 104.196C815.062 103.308 815.302 102.252 815.302 101.028ZM831.168 95.196V104.844C831.168 105.516 831.324 106.008 831.636 106.32C831.972 106.608 832.524 106.752 833.292 106.752H835.632V111H832.464C828.216 111 826.092 108.936 826.092 104.808V95.196H823.716V91.056H826.092V86.124H831.168V91.056H835.632V95.196H831.168Z" fill="#595D7A"/>
<path d="M296.16 203L290.78 196.78V203H288.5V189.1H290.78V195.44L296.18 189.1H299.04L293 196.06L299.14 203H296.16ZM311.216 193.1C310.856 192.407 310.356 191.887 309.716 191.54C309.076 191.18 308.336 191 307.496 191C306.576 191 305.756 191.207 305.036 191.62C304.316 192.033 303.75 192.62 303.336 193.38C302.936 194.14 302.736 195.02 302.736 196.02C302.736 197.02 302.936 197.907 303.336 198.68C303.75 199.44 304.316 200.027 305.036 200.44C305.756 200.853 306.576 201.06 307.496 201.06C308.736 201.06 309.743 200.713 310.516 200.02C311.29 199.327 311.763 198.387 311.936 197.2H306.716V195.38H314.376V197.16C314.23 198.24 313.843 199.233 313.216 200.14C312.603 201.047 311.796 201.773 310.796 202.32C309.81 202.853 308.71 203.12 307.496 203.12C306.19 203.12 304.996 202.82 303.916 202.22C302.836 201.607 301.976 200.76 301.336 199.68C300.71 198.6 300.396 197.38 300.396 196.02C300.396 194.66 300.71 193.44 301.336 192.36C301.976 191.28 302.836 190.44 303.916 189.84C305.01 189.227 306.203 188.92 307.496 188.92C308.976 188.92 310.29 189.287 311.436 190.02C312.596 190.74 313.436 191.767 313.956 193.1H311.216ZM329.36 191.8C329.214 191.187 328.947 190.727 328.56 190.42C328.174 190.113 327.634 189.96 326.94 189.96C325.887 189.96 325.1 190.367 324.58 191.18C324.06 191.98 323.787 193.313 323.76 195.18C324.107 194.593 324.614 194.14 325.28 193.82C325.947 193.5 326.667 193.34 327.44 193.34C328.32 193.34 329.094 193.533 329.76 193.92C330.44 194.293 330.967 194.84 331.34 195.56C331.727 196.28 331.92 197.14 331.92 198.14C331.92 199.073 331.734 199.907 331.36 200.64C331 201.373 330.46 201.953 329.74 202.38C329.02 202.793 328.154 203 327.14 203C325.767 203 324.687 202.7 323.9 202.1C323.127 201.487 322.58 200.627 322.26 199.52C321.954 198.413 321.8 197.033 321.8 195.38C321.8 190.5 323.52 188.06 326.96 188.06C328.294 188.06 329.34 188.42 330.1 189.14C330.874 189.86 331.327 190.747 331.46 191.8H329.36ZM326.94 195.26C326.127 195.26 325.434 195.507 324.86 196C324.3 196.48 324.02 197.18 324.02 198.1C324.02 199.02 324.28 199.753 324.8 200.3C325.334 200.833 326.074 201.1 327.02 201.1C327.86 201.1 328.52 200.84 329 200.32C329.494 199.8 329.74 199.107 329.74 198.24C329.74 197.333 329.5 196.613 329.02 196.08C328.554 195.533 327.86 195.26 326.94 195.26ZM335.612 199.9C336.892 198.793 337.899 197.887 338.632 197.18C339.379 196.46 339.999 195.713 340.492 194.94C340.986 194.167 341.232 193.393 341.232 192.62C341.232 191.82 341.039 191.193 340.652 190.74C340.279 190.287 339.686 190.06 338.872 190.06C338.086 190.06 337.472 190.313 337.032 190.82C336.606 191.313 336.379 191.98 336.352 192.82H334.152C334.192 191.3 334.646 190.14 335.512 189.34C336.392 188.527 337.506 188.12 338.852 188.12C340.306 188.12 341.439 188.52 342.252 189.32C343.079 190.12 343.492 191.187 343.492 192.52C343.492 193.48 343.246 194.407 342.752 195.3C342.272 196.18 341.692 196.973 341.012 197.68C340.346 198.373 339.492 199.18 338.452 200.1L337.552 200.9H343.892V202.8H334.172V201.14L335.612 199.9ZM347.155 199.9C348.435 198.793 349.442 197.887 350.175 197.18C350.922 196.46 351.542 195.713 352.035 194.94C352.529 194.167 352.775 193.393 352.775 192.62C352.775 191.82 352.582 191.193 352.195 190.74C351.822 190.287 351.229 190.06 350.415 190.06C349.629 190.06 349.015 190.313 348.575 190.82C348.149 191.313 347.922 191.98 347.895 192.82H345.695C345.735 191.3 346.189 190.14 347.055 189.34C347.935 188.527 349.049 188.12 350.395 188.12C351.849 188.12 352.982 188.52 353.795 189.32C354.622 190.12 355.035 191.187 355.035 192.52C355.035 193.48 354.789 194.407 354.295 195.3C353.815 196.18 353.235 196.973 352.555 197.68C351.889 198.373 351.035 199.18 349.995 200.1L349.095 200.9H355.435V202.8H345.715V201.14L347.155 199.9ZM367.514 203.14C366.58 203.14 365.74 202.98 364.994 202.66C364.247 202.327 363.66 201.86 363.234 201.26C362.807 200.66 362.594 199.96 362.594 199.16H365.034C365.087 199.76 365.32 200.253 365.734 200.64C366.16 201.027 366.754 201.22 367.514 201.22C368.3 201.22 368.914 201.033 369.354 200.66C369.794 200.273 370.014 199.78 370.014 199.18C370.014 198.713 369.874 198.333 369.594 198.04C369.327 197.747 368.987 197.52 368.574 197.36C368.174 197.2 367.614 197.027 366.894 196.84C365.987 196.6 365.247 196.36 364.674 196.12C364.114 195.867 363.634 195.48 363.234 194.96C362.834 194.44 362.634 193.747 362.634 192.88C362.634 192.08 362.834 191.38 363.234 190.78C363.634 190.18 364.194 189.72 364.914 189.4C365.634 189.08 366.467 188.92 367.414 188.92C368.76 188.92 369.86 189.26 370.714 189.94C371.58 190.607 372.06 191.527 372.154 192.7H369.634C369.594 192.193 369.354 191.76 368.914 191.4C368.474 191.04 367.894 190.86 367.174 190.86C366.52 190.86 365.987 191.027 365.574 191.36C365.16 191.693 364.954 192.173 364.954 192.8C364.954 193.227 365.08 193.58 365.334 193.86C365.6 194.127 365.934 194.34 366.334 194.5C366.734 194.66 367.28 194.833 367.974 195.02C368.894 195.273 369.64 195.527 370.214 195.78C370.8 196.033 371.294 196.427 371.694 196.96C372.107 197.48 372.314 198.18 372.314 199.06C372.314 199.767 372.12 200.433 371.734 201.06C371.36 201.687 370.807 202.193 370.074 202.58C369.354 202.953 368.5 203.14 367.514 203.14ZM377.664 193.84V199.94C377.664 200.353 377.757 200.653 377.944 200.84C378.144 201.013 378.477 201.1 378.944 201.1H380.344V203H378.544C377.517 203 376.731 202.76 376.184 202.28C375.637 201.8 375.364 201.02 375.364 199.94V193.84H374.064V191.98H375.364V189.24H377.664V191.98H380.344V193.84H377.664ZM384.725 193.58C385.059 193.02 385.499 192.587 386.045 192.28C386.605 191.96 387.265 191.8 388.025 191.8V194.16H387.445C386.552 194.16 385.872 194.387 385.405 194.84C384.952 195.293 384.725 196.08 384.725 197.2V203H382.445V191.98H384.725V193.58ZM400.221 197.22C400.221 197.633 400.194 198.007 400.141 198.34H391.721C391.788 199.22 392.114 199.927 392.701 200.46C393.288 200.993 394.008 201.26 394.861 201.26C396.088 201.26 396.954 200.747 397.461 199.72H399.921C399.588 200.733 398.981 201.567 398.101 202.22C397.234 202.86 396.154 203.18 394.861 203.18C393.808 203.18 392.861 202.947 392.021 202.48C391.194 202 390.541 201.333 390.061 200.48C389.594 199.613 389.361 198.613 389.361 197.48C389.361 196.347 389.588 195.353 390.041 194.5C390.508 193.633 391.154 192.967 391.981 192.5C392.821 192.033 393.781 191.8 394.861 191.8C395.901 191.8 396.828 192.027 397.641 192.48C398.454 192.933 399.088 193.573 399.541 194.4C399.994 195.213 400.221 196.153 400.221 197.22ZM397.841 196.5C397.828 195.66 397.528 194.987 396.941 194.48C396.354 193.973 395.628 193.72 394.761 193.72C393.974 193.72 393.301 193.973 392.741 194.48C392.181 194.973 391.848 195.647 391.741 196.5H397.841ZM412.565 197.22C412.565 197.633 412.538 198.007 412.485 198.34H404.065C404.132 199.22 404.458 199.927 405.045 200.46C405.632 200.993 406.352 201.26 407.205 201.26C408.432 201.26 409.298 200.747 409.805 199.72H412.265C411.932 200.733 411.325 201.567 410.445 202.22C409.578 202.86 408.498 203.18 407.205 203.18C406.152 203.18 405.205 202.947 404.365 202.48C403.538 202 402.885 201.333 402.405 200.48C401.938 199.613 401.705 198.613 401.705 197.48C401.705 196.347 401.932 195.353 402.385 194.5C402.852 193.633 403.498 192.967 404.325 192.5C405.165 192.033 406.125 191.8 407.205 191.8C408.245 191.8 409.172 192.027 409.985 192.48C410.798 192.933 411.432 193.573 411.885 194.4C412.338 195.213 412.565 196.153 412.565 197.22ZM410.185 196.5C410.172 195.66 409.872 194.987 409.285 194.48C408.698 193.973 407.972 193.72 407.105 193.72C406.318 193.72 405.645 193.973 405.085 194.48C404.525 194.973 404.192 195.647 404.085 196.5H410.185ZM417.469 193.84V199.94C417.469 200.353 417.562 200.653 417.749 200.84C417.949 201.013 418.282 201.1 418.749 201.1H420.149V203H418.349C417.322 203 416.535 202.76 415.989 202.28C415.442 201.8 415.169 201.02 415.169 199.94V193.84H413.869V191.98H415.169V189.24H417.469V191.98H420.149V193.84H417.469ZM424.75 200.26L422.33 205.78H420.85L422.27 200.26H424.75ZM439.158 203L435.958 197.44H434.218V203H431.938V189.1H436.738C437.804 189.1 438.704 189.287 439.438 189.66C440.184 190.033 440.738 190.533 441.098 191.16C441.471 191.787 441.658 192.487 441.658 193.26C441.658 194.167 441.391 194.993 440.858 195.74C440.338 196.473 439.531 196.973 438.438 197.24L441.878 203H439.158ZM434.218 195.62H436.738C437.591 195.62 438.231 195.407 438.658 194.98C439.098 194.553 439.318 193.98 439.318 193.26C439.318 192.54 439.104 191.98 438.678 191.58C438.251 191.167 437.604 190.96 436.738 190.96H434.218V195.62ZM454.554 191.98V203H452.274V201.7C451.914 202.153 451.441 202.513 450.854 202.78C450.281 203.033 449.668 203.16 449.014 203.16C448.148 203.16 447.368 202.98 446.674 202.62C445.994 202.26 445.454 201.727 445.054 201.02C444.668 200.313 444.474 199.46 444.474 198.46V191.98H446.734V198.12C446.734 199.107 446.981 199.867 447.474 200.4C447.968 200.92 448.641 201.18 449.494 201.18C450.348 201.18 451.021 200.92 451.514 200.4C452.021 199.867 452.274 199.107 452.274 198.12V191.98H454.554ZM462.003 191.8C462.856 191.8 463.609 191.973 464.263 192.32C464.929 192.653 465.449 193.073 465.823 193.58V191.98H468.123V203.18C468.123 204.193 467.909 205.093 467.483 205.88C467.056 206.68 466.436 207.307 465.623 207.76C464.823 208.213 463.863 208.44 462.743 208.44C461.249 208.44 460.009 208.087 459.023 207.38C458.036 206.687 457.476 205.74 457.343 204.54H459.603C459.776 205.113 460.143 205.573 460.703 205.92C461.276 206.28 461.956 206.46 462.743 206.46C463.663 206.46 464.403 206.18 464.963 205.62C465.536 205.06 465.823 204.247 465.823 203.18V201.34C465.436 201.86 464.909 202.3 464.243 202.66C463.589 203.007 462.843 203.18 462.003 203.18C461.043 203.18 460.163 202.94 459.363 202.46C458.576 201.967 457.949 201.287 457.483 200.42C457.029 199.54 456.803 198.547 456.803 197.44C456.803 196.333 457.029 195.353 457.483 194.5C457.949 193.647 458.576 192.987 459.363 192.52C460.163 192.04 461.043 191.8 462.003 191.8ZM465.823 197.48C465.823 196.72 465.663 196.06 465.343 195.5C465.036 194.94 464.629 194.513 464.123 194.22C463.616 193.927 463.069 193.78 462.483 193.78C461.896 193.78 461.349 193.927 460.843 194.22C460.336 194.5 459.923 194.92 459.603 195.48C459.296 196.027 459.143 196.68 459.143 197.44C459.143 198.2 459.296 198.867 459.603 199.44C459.923 200.013 460.336 200.453 460.843 200.76C461.363 201.053 461.909 201.2 462.483 201.2C463.069 201.2 463.616 201.053 464.123 200.76C464.629 200.467 465.036 200.04 465.343 199.48C465.663 198.907 465.823 198.24 465.823 197.48ZM470.357 197.44C470.357 196.333 470.584 195.353 471.037 194.5C471.504 193.647 472.131 192.987 472.917 192.52C473.717 192.04 474.597 191.8 475.557 191.8C476.424 191.8 477.177 191.973 477.817 192.32C478.471 192.653 478.991 193.073 479.377 193.58V191.98H481.677V203H479.377V201.36C478.991 201.88 478.464 202.313 477.797 202.66C477.131 203.007 476.371 203.18 475.517 203.18C474.571 203.18 473.704 202.94 472.917 202.46C472.131 201.967 471.504 201.287 471.037 200.42C470.584 199.54 470.357 198.547 470.357 197.44ZM479.377 197.48C479.377 196.72 479.217 196.06 478.897 195.5C478.591 194.94 478.184 194.513 477.677 194.22C477.171 193.927 476.624 193.78 476.037 193.78C475.451 193.78 474.904 193.927 474.397 194.22C473.891 194.5 473.477 194.92 473.157 195.48C472.851 196.027 472.697 196.68 472.697 197.44C472.697 198.2 472.851 198.867 473.157 199.44C473.477 200.013 473.891 200.453 474.397 200.76C474.917 201.053 475.464 201.2 476.037 201.2C476.624 201.2 477.171 201.053 477.677 200.76C478.184 200.467 478.591 200.04 478.897 199.48C479.217 198.907 479.377 198.24 479.377 197.48ZM490.232 191.8C491.099 191.8 491.872 191.98 492.552 192.34C493.245 192.7 493.785 193.233 494.172 193.94C494.559 194.647 494.752 195.5 494.752 196.5V203H492.492V196.84C492.492 195.853 492.245 195.1 491.752 194.58C491.259 194.047 490.585 193.78 489.732 193.78C488.879 193.78 488.199 194.047 487.692 194.58C487.199 195.1 486.952 195.853 486.952 196.84V203H484.672V191.98H486.952V193.24C487.325 192.787 487.799 192.433 488.372 192.18C488.959 191.927 489.579 191.8 490.232 191.8ZM496.9 197.44C496.9 196.333 497.127 195.353 497.58 194.5C498.047 193.647 498.673 192.987 499.46 192.52C500.26 192.04 501.147 191.8 502.12 191.8C502.84 191.8 503.547 191.96 504.24 192.28C504.947 192.587 505.507 193 505.92 193.52V188.2H508.22V203H505.92V201.34C505.547 201.873 505.027 202.313 504.36 202.66C503.707 203.007 502.953 203.18 502.1 203.18C501.14 203.18 500.26 202.94 499.46 202.46C498.673 201.967 498.047 201.287 497.58 200.42C497.127 199.54 496.9 198.547 496.9 197.44ZM505.92 197.48C505.92 196.72 505.76 196.06 505.44 195.5C505.133 194.94 504.727 194.513 504.22 194.22C503.713 193.927 503.167 193.78 502.58 193.78C501.993 193.78 501.447 193.927 500.94 194.22C500.433 194.5 500.02 194.92 499.7 195.48C499.393 196.027 499.24 196.68 499.24 197.44C499.24 198.2 499.393 198.867 499.7 199.44C500.02 200.013 500.433 200.453 500.94 200.76C501.46 201.053 502.007 201.2 502.58 201.2C503.167 201.2 503.713 201.053 504.22 200.76C504.727 200.467 505.133 200.04 505.44 199.48C505.76 198.907 505.92 198.24 505.92 197.48ZM515.995 203.18C514.955 203.18 514.015 202.947 513.175 202.48C512.335 202 511.675 201.333 511.195 200.48C510.715 199.613 510.475 198.613 510.475 197.48C510.475 196.36 510.722 195.367 511.215 194.5C511.708 193.633 512.382 192.967 513.235 192.5C514.088 192.033 515.042 191.8 516.095 191.8C517.148 191.8 518.102 192.033 518.955 192.5C519.808 192.967 520.482 193.633 520.975 194.5C521.468 195.367 521.715 196.36 521.715 197.48C521.715 198.6 521.462 199.593 520.955 200.46C520.448 201.327 519.755 202 518.875 202.48C518.008 202.947 517.048 203.18 515.995 203.18ZM515.995 201.2C516.582 201.2 517.128 201.06 517.635 200.78C518.155 200.5 518.575 200.08 518.895 199.52C519.215 198.96 519.375 198.28 519.375 197.48C519.375 196.68 519.222 196.007 518.915 195.46C518.608 194.9 518.202 194.48 517.695 194.2C517.188 193.92 516.642 193.78 516.055 193.78C515.468 193.78 514.922 193.92 514.415 194.2C513.922 194.48 513.528 194.9 513.235 195.46C512.942 196.007 512.795 196.68 512.795 197.48C512.795 198.667 513.095 199.587 513.695 200.24C514.308 200.88 515.075 201.2 515.995 201.2ZM526.469 200.26L524.049 205.78H522.569L523.989 200.26H526.469ZM541.316 203L535.936 196.78V203H533.656V189.1H535.936V195.44L541.336 189.1H544.196L538.156 196.06L544.296 203H541.316ZM547.473 190.52C547.059 190.52 546.713 190.38 546.433 190.1C546.153 189.82 546.013 189.473 546.013 189.06C546.013 188.647 546.153 188.3 546.433 188.02C546.713 187.74 547.059 187.6 547.473 187.6C547.873 187.6 548.213 187.74 548.493 188.02C548.773 188.3 548.913 188.647 548.913 189.06C548.913 189.473 548.773 189.82 548.493 190.1C548.213 190.38 547.873 190.52 547.473 190.52ZM548.593 191.98V203H546.313V191.98H548.593ZM556.026 191.8C556.879 191.8 557.633 191.973 558.286 192.32C558.953 192.653 559.473 193.073 559.846 193.58V191.98H562.146V203.18C562.146 204.193 561.933 205.093 561.506 205.88C561.079 206.68 560.459 207.307 559.646 207.76C558.846 208.213 557.886 208.44 556.766 208.44C555.273 208.44 554.033 208.087 553.046 207.38C552.059 206.687 551.499 205.74 551.366 204.54H553.626C553.799 205.113 554.166 205.573 554.726 205.92C555.299 206.28 555.979 206.46 556.766 206.46C557.686 206.46 558.426 206.18 558.986 205.62C559.559 205.06 559.846 204.247 559.846 203.18V201.34C559.459 201.86 558.933 202.3 558.266 202.66C557.613 203.007 556.866 203.18 556.026 203.18C555.066 203.18 554.186 202.94 553.386 202.46C552.599 201.967 551.973 201.287 551.506 200.42C551.053 199.54 550.826 198.547 550.826 197.44C550.826 196.333 551.053 195.353 551.506 194.5C551.973 193.647 552.599 192.987 553.386 192.52C554.186 192.04 555.066 191.8 556.026 191.8ZM559.846 197.48C559.846 196.72 559.686 196.06 559.366 195.5C559.059 194.94 558.653 194.513 558.146 194.22C557.639 193.927 557.093 193.78 556.506 193.78C555.919 193.78 555.373 193.927 554.866 194.22C554.359 194.5 553.946 194.92 553.626 195.48C553.319 196.027 553.166 196.68 553.166 197.44C553.166 198.2 553.319 198.867 553.626 199.44C553.946 200.013 554.359 200.453 554.866 200.76C555.386 201.053 555.933 201.2 556.506 201.2C557.093 201.2 557.639 201.053 558.146 200.76C558.653 200.467 559.059 200.04 559.366 199.48C559.686 198.907 559.846 198.24 559.846 197.48ZM564.381 197.44C564.381 196.333 564.607 195.353 565.061 194.5C565.527 193.647 566.154 192.987 566.941 192.52C567.741 192.04 568.621 191.8 569.581 191.8C570.447 191.8 571.201 191.973 571.841 192.32C572.494 192.653 573.014 193.073 573.401 193.58V191.98H575.701V203H573.401V201.36C573.014 201.88 572.487 202.313 571.821 202.66C571.154 203.007 570.394 203.18 569.541 203.18C568.594 203.18 567.727 202.94 566.941 202.46C566.154 201.967 565.527 201.287 565.061 200.42C564.607 199.54 564.381 198.547 564.381 197.44ZM573.401 197.48C573.401 196.72 573.241 196.06 572.921 195.5C572.614 194.94 572.207 194.513 571.701 194.22C571.194 193.927 570.647 193.78 570.061 193.78C569.474 193.78 568.927 193.927 568.421 194.22C567.914 194.5 567.501 194.92 567.181 195.48C566.874 196.027 566.721 196.68 566.721 197.44C566.721 198.2 566.874 198.867 567.181 199.44C567.501 200.013 567.914 200.453 568.421 200.76C568.941 201.053 569.487 201.2 570.061 201.2C570.647 201.2 571.194 201.053 571.701 200.76C572.207 200.467 572.614 200.04 572.921 199.48C573.241 198.907 573.401 198.24 573.401 197.48ZM580.975 188.2V203H578.695V188.2H580.975ZM585.129 190.52C584.715 190.52 584.369 190.38 584.089 190.1C583.809 189.82 583.669 189.473 583.669 189.06C583.669 188.647 583.809 188.3 584.089 188.02C584.369 187.74 584.715 187.6 585.129 187.6C585.529 187.6 585.869 187.74 586.149 188.02C586.429 188.3 586.569 188.647 586.569 189.06C586.569 189.473 586.429 189.82 586.149 190.1C585.869 190.38 585.529 190.52 585.129 190.52ZM586.249 191.98V203H583.969V191.98H586.249ZM612.538 189.1L608.418 203H605.838L602.918 192.48L599.818 203L597.258 203.02L593.318 189.1H595.738L598.618 200.42L601.738 189.1H604.298L607.198 200.36L610.098 189.1H612.538ZM624.518 197.22C624.518 197.633 624.491 198.007 624.438 198.34H616.018C616.085 199.22 616.411 199.927 616.998 200.46C617.585 200.993 618.305 201.26 619.158 201.26C620.385 201.26 621.251 200.747 621.758 199.72H624.218C623.885 200.733 623.278 201.567 622.398 202.22C621.531 202.86 620.451 203.18 619.158 203.18C618.105 203.18 617.158 202.947 616.318 202.48C615.491 202 614.838 201.333 614.358 200.48C613.891 199.613 613.658 198.613 613.658 197.48C613.658 196.347 613.885 195.353 614.338 194.5C614.805 193.633 615.451 192.967 616.278 192.5C617.118 192.033 618.078 191.8 619.158 191.8C620.198 191.8 621.125 192.027 621.938 192.48C622.751 192.933 623.385 193.573 623.838 194.4C624.291 195.213 624.518 196.153 624.518 197.22ZM622.138 196.5C622.125 195.66 621.825 194.987 621.238 194.48C620.651 193.973 619.925 193.72 619.058 193.72C618.271 193.72 617.598 193.973 617.038 194.48C616.478 194.973 616.145 195.647 616.038 196.5H622.138ZM630.762 203.18C629.895 203.18 629.115 203.027 628.422 202.72C627.742 202.4 627.202 201.973 626.802 201.44C626.402 200.893 626.188 200.287 626.162 199.62H628.522C628.562 200.087 628.782 200.48 629.182 200.8C629.595 201.107 630.108 201.26 630.722 201.26C631.362 201.26 631.855 201.14 632.202 200.9C632.562 200.647 632.742 200.327 632.742 199.94C632.742 199.527 632.542 199.22 632.142 199.02C631.755 198.82 631.135 198.6 630.282 198.36C629.455 198.133 628.782 197.913 628.262 197.7C627.742 197.487 627.288 197.16 626.902 196.72C626.528 196.28 626.342 195.7 626.342 194.98C626.342 194.393 626.515 193.86 626.862 193.38C627.208 192.887 627.702 192.5 628.342 192.22C628.995 191.94 629.742 191.8 630.582 191.8C631.835 191.8 632.842 192.12 633.602 192.76C634.375 193.387 634.788 194.247 634.842 195.34H632.562C632.522 194.847 632.322 194.453 631.962 194.16C631.602 193.867 631.115 193.72 630.502 193.72C629.902 193.72 629.442 193.833 629.122 194.06C628.802 194.287 628.642 194.587 628.642 194.96C628.642 195.253 628.748 195.5 628.962 195.7C629.175 195.9 629.435 196.06 629.742 196.18C630.048 196.287 630.502 196.427 631.102 196.6C631.902 196.813 632.555 197.033 633.062 197.26C633.582 197.473 634.028 197.793 634.402 198.22C634.775 198.647 634.968 199.213 634.982 199.92C634.982 200.547 634.808 201.107 634.462 201.6C634.115 202.093 633.622 202.48 632.982 202.76C632.355 203.04 631.615 203.18 630.762 203.18ZM640.105 193.84V199.94C640.105 200.353 640.199 200.653 640.385 200.84C640.585 201.013 640.919 201.1 641.385 201.1H642.785V203H640.985C639.959 203 639.172 202.76 638.625 202.28C638.079 201.8 637.805 201.02 637.805 199.94V193.84H636.505V191.98H637.805V189.24H640.105V191.98H642.785V193.84H640.105ZM654.987 197.22C654.987 197.633 654.96 198.007 654.907 198.34H646.487C646.553 199.22 646.88 199.927 647.467 200.46C648.053 200.993 648.773 201.26 649.627 201.26C650.853 201.26 651.72 200.747 652.227 199.72H654.687C654.353 200.733 653.747 201.567 652.867 202.22C652 202.86 650.92 203.18 649.627 203.18C648.573 203.18 647.627 202.947 646.787 202.48C645.96 202 645.307 201.333 644.827 200.48C644.36 199.613 644.127 198.613 644.127 197.48C644.127 196.347 644.353 195.353 644.807 194.5C645.273 193.633 645.92 192.967 646.747 192.5C647.587 192.033 648.547 191.8 649.627 191.8C650.667 191.8 651.593 192.027 652.407 192.48C653.22 192.933 653.853 193.573 654.307 194.4C654.76 195.213 654.987 196.153 654.987 197.22ZM652.607 196.5C652.593 195.66 652.293 194.987 651.707 194.48C651.12 193.973 650.393 193.72 649.527 193.72C648.74 193.72 648.067 193.973 647.507 194.48C646.947 194.973 646.613 195.647 646.507 196.5H652.607ZM659.51 193.58C659.844 193.02 660.284 192.587 660.83 192.28C661.39 191.96 662.05 191.8 662.81 191.8V194.16H662.23C661.337 194.16 660.657 194.387 660.19 194.84C659.737 195.293 659.51 196.08 659.51 197.2V203H657.23V191.98H659.51V193.58ZM679.706 191.98L676.286 203H673.886L671.666 194.86L669.446 203H667.046L663.606 191.98H665.926L668.226 200.84L670.566 191.98H672.946L675.186 200.8L677.466 191.98H679.706ZM691.51 197.22C691.51 197.633 691.483 198.007 691.43 198.34H683.01C683.077 199.22 683.403 199.927 683.99 200.46C684.577 200.993 685.297 201.26 686.15 201.26C687.377 201.26 688.243 200.747 688.75 199.72H691.21C690.877 200.733 690.27 201.567 689.39 202.22C688.523 202.86 687.443 203.18 686.15 203.18C685.097 203.18 684.15 202.947 683.31 202.48C682.483 202 681.83 201.333 681.35 200.48C680.883 199.613 680.65 198.613 680.65 197.48C680.65 196.347 680.877 195.353 681.33 194.5C681.797 193.633 682.443 192.967 683.27 192.5C684.11 192.033 685.07 191.8 686.15 191.8C687.19 191.8 688.117 192.027 688.93 192.48C689.743 192.933 690.377 193.573 690.83 194.4C691.283 195.213 691.51 196.153 691.51 197.22ZM689.13 196.5C689.117 195.66 688.817 194.987 688.23 194.48C687.643 193.973 686.917 193.72 686.05 193.72C685.263 193.72 684.59 193.973 684.03 194.48C683.47 194.973 683.137 195.647 683.03 196.5H689.13ZM696.034 188.2V203H693.754V188.2H696.034ZM701.307 188.2V203H699.027V188.2H701.307ZM714.401 197.22C714.401 197.633 714.374 198.007 714.321 198.34H705.901C705.967 199.22 706.294 199.927 706.881 200.46C707.467 200.993 708.187 201.26 709.041 201.26C710.267 201.26 711.134 200.747 711.641 199.72H714.101C713.767 200.733 713.161 201.567 712.281 202.22C711.414 202.86 710.334 203.18 709.041 203.18C707.987 203.18 707.041 202.947 706.201 202.48C705.374 202 704.721 201.333 704.241 200.48C703.774 199.613 703.541 198.613 703.541 197.48C703.541 196.347 703.767 195.353 704.221 194.5C704.687 193.633 705.334 192.967 706.161 192.5C707.001 192.033 707.961 191.8 709.041 191.8C710.081 191.8 711.007 192.027 711.821 192.48C712.634 192.933 713.267 193.573 713.721 194.4C714.174 195.213 714.401 196.153 714.401 197.22ZM712.021 196.5C712.007 195.66 711.707 194.987 711.121 194.48C710.534 193.973 709.807 193.72 708.941 193.72C708.154 193.72 707.481 193.973 706.921 194.48C706.361 194.973 706.027 195.647 705.921 196.5H712.021ZM726.42 203.14C725.487 203.14 724.647 202.98 723.9 202.66C723.153 202.327 722.567 201.86 722.14 201.26C721.713 200.66 721.5 199.96 721.5 199.16H723.94C723.993 199.76 724.227 200.253 724.64 200.64C725.067 201.027 725.66 201.22 726.42 201.22C727.207 201.22 727.82 201.033 728.26 200.66C728.7 200.273 728.92 199.78 728.92 199.18C728.92 198.713 728.78 198.333 728.5 198.04C728.233 197.747 727.893 197.52 727.48 197.36C727.08 197.2 726.52 197.027 725.8 196.84C724.893 196.6 724.153 196.36 723.58 196.12C723.02 195.867 722.54 195.48 722.14 194.96C721.74 194.44 721.54 193.747 721.54 192.88C721.54 192.08 721.74 191.38 722.14 190.78C722.54 190.18 723.1 189.72 723.82 189.4C724.54 189.08 725.373 188.92 726.32 188.92C727.667 188.92 728.767 189.26 729.62 189.94C730.487 190.607 730.967 191.527 731.06 192.7H728.54C728.5 192.193 728.26 191.76 727.82 191.4C727.38 191.04 726.8 190.86 726.08 190.86C725.427 190.86 724.893 191.027 724.48 191.36C724.067 191.693 723.86 192.173 723.86 192.8C723.86 193.227 723.987 193.58 724.24 193.86C724.507 194.127 724.84 194.34 725.24 194.5C725.64 194.66 726.187 194.833 726.88 195.02C727.8 195.273 728.547 195.527 729.12 195.78C729.707 196.033 730.2 196.427 730.6 196.96C731.013 197.48 731.22 198.18 731.22 199.06C731.22 199.767 731.027 200.433 730.64 201.06C730.267 201.687 729.713 202.193 728.98 202.58C728.26 202.953 727.407 203.14 726.42 203.14ZM736.57 193.84V199.94C736.57 200.353 736.663 200.653 736.85 200.84C737.05 201.013 737.383 201.1 737.85 201.1H739.25V203H737.45C736.423 203 735.637 202.76 735.09 202.28C734.543 201.8 734.27 201.02 734.27 199.94V193.84H732.97V191.98H734.27V189.24H736.57V191.98H739.25V193.84H736.57ZM740.592 197.44C740.592 196.333 740.818 195.353 741.272 194.5C741.738 193.647 742.365 192.987 743.152 192.52C743.952 192.04 744.832 191.8 745.792 191.8C746.658 191.8 747.412 191.973 748.052 192.32C748.705 192.653 749.225 193.073 749.612 193.58V191.98H751.912V203H749.612V201.36C749.225 201.88 748.698 202.313 748.032 202.66C747.365 203.007 746.605 203.18 745.752 203.18C744.805 203.18 743.938 202.94 743.152 202.46C742.365 201.967 741.738 201.287 741.272 200.42C740.818 199.54 740.592 198.547 740.592 197.44ZM749.612 197.48C749.612 196.72 749.452 196.06 749.132 195.5C748.825 194.94 748.418 194.513 747.912 194.22C747.405 193.927 746.858 193.78 746.272 193.78C745.685 193.78 745.138 193.927 744.632 194.22C744.125 194.5 743.712 194.92 743.392 195.48C743.085 196.027 742.932 196.68 742.932 197.44C742.932 198.2 743.085 198.867 743.392 199.44C743.712 200.013 744.125 200.453 744.632 200.76C745.152 201.053 745.698 201.2 746.272 201.2C746.858 201.2 747.405 201.053 747.912 200.76C748.418 200.467 748.825 200.04 749.132 199.48C749.452 198.907 749.612 198.24 749.612 197.48ZM757.186 193.58C757.52 193.02 757.96 192.587 758.506 192.28C759.066 191.96 759.726 191.8 760.486 191.8V194.16H759.906C759.013 194.16 758.333 194.387 757.866 194.84C757.413 195.293 757.186 196.08 757.186 197.2V203H754.906V191.98H757.186V193.58ZM765.242 193.84V199.94C765.242 200.353 765.335 200.653 765.522 200.84C765.722 201.013 766.055 201.1 766.522 201.1H767.922V203H766.122C765.095 203 764.309 202.76 763.762 202.28C763.215 201.8 762.942 201.02 762.942 199.94V193.84H761.642V191.98H762.942V189.24H765.242V191.98H767.922V193.84H765.242ZM785.199 191.98V203H782.919V201.7C782.559 202.153 782.085 202.513 781.499 202.78C780.925 203.033 780.312 203.16 779.659 203.16C778.792 203.16 778.012 202.98 777.319 202.62C776.639 202.26 776.099 201.727 775.699 201.02C775.312 200.313 775.119 199.46 775.119 198.46V191.98H777.379V198.12C777.379 199.107 777.625 199.867 778.119 200.4C778.612 200.92 779.285 201.18 780.139 201.18C780.992 201.18 781.665 200.92 782.159 200.4C782.665 199.867 782.919 199.107 782.919 198.12V191.98H785.199ZM790.487 193.6C790.874 193.093 791.4 192.667 792.067 192.32C792.734 191.973 793.487 191.8 794.327 191.8C795.287 191.8 796.16 192.04 796.947 192.52C797.747 192.987 798.374 193.647 798.827 194.5C799.28 195.353 799.507 196.333 799.507 197.44C799.507 198.547 799.28 199.54 798.827 200.42C798.374 201.287 797.747 201.967 796.947 202.46C796.16 202.94 795.287 203.18 794.327 203.18C793.487 203.18 792.74 203.013 792.087 202.68C791.434 202.333 790.9 201.907 790.487 201.4V208.24H788.207V191.98H790.487V193.6ZM797.187 197.44C797.187 196.68 797.027 196.027 796.707 195.48C796.4 194.92 795.987 194.5 795.467 194.22C794.96 193.927 794.414 193.78 793.827 193.78C793.254 193.78 792.707 193.927 792.187 194.22C791.68 194.513 791.267 194.94 790.947 195.5C790.64 196.06 790.487 196.72 790.487 197.48C790.487 198.24 790.64 198.907 790.947 199.48C791.267 200.04 791.68 200.467 792.187 200.76C792.707 201.053 793.254 201.2 793.827 201.2C794.414 201.2 794.96 201.053 795.467 200.76C795.987 200.453 796.4 200.013 796.707 199.44C797.027 198.867 797.187 198.2 797.187 197.44ZM818.057 189.1V203H815.777V196.92H809.237V203H806.957V189.1H809.237V195.06H815.777V189.1H818.057ZM820.299 197.44C820.299 196.333 820.525 195.353 820.979 194.5C821.445 193.647 822.072 192.987 822.859 192.52C823.659 192.04 824.539 191.8 825.499 191.8C826.365 191.8 827.119 191.973 827.759 192.32C828.412 192.653 828.932 193.073 829.319 193.58V191.98H831.619V203H829.319V201.36C828.932 201.88 828.405 202.313 827.739 202.66C827.072 203.007 826.312 203.18 825.459 203.18C824.512 203.18 823.645 202.94 822.859 202.46C822.072 201.967 821.445 201.287 820.979 200.42C820.525 199.54 820.299 198.547 820.299 197.44ZM829.319 197.48C829.319 196.72 829.159 196.06 828.839 195.5C828.532 194.94 828.125 194.513 827.619 194.22C827.112 193.927 826.565 193.78 825.979 193.78C825.392 193.78 824.845 193.927 824.339 194.22C823.832 194.5 823.419 194.92 823.099 195.48C822.792 196.027 822.639 196.68 822.639 197.44C822.639 198.2 822.792 198.867 823.099 199.44C823.419 200.013 823.832 200.453 824.339 200.76C824.859 201.053 825.405 201.2 825.979 201.2C826.565 201.2 827.112 201.053 827.619 200.76C828.125 200.467 828.532 200.04 828.839 199.48C829.159 198.907 829.319 198.24 829.319 197.48ZM844.593 191.98V203H842.313V201.7C841.953 202.153 841.48 202.513 840.893 202.78C840.32 203.033 839.707 203.16 839.053 203.16C838.187 203.16 837.407 202.98 836.713 202.62C836.033 202.26 835.493 201.727 835.093 201.02C834.707 200.313 834.513 199.46 834.513 198.46V191.98H836.773V198.12C836.773 199.107 837.02 199.867 837.513 200.4C838.007 200.92 838.68 201.18 839.533 201.18C840.387 201.18 841.06 200.92 841.553 200.4C842.06 199.867 842.313 199.107 842.313 198.12V191.98H844.593ZM851.602 203.18C850.735 203.18 849.955 203.027 849.262 202.72C848.582 202.4 848.042 201.973 847.642 201.44C847.242 200.893 847.028 200.287 847.002 199.62H849.362C849.402 200.087 849.622 200.48 850.022 200.8C850.435 201.107 850.948 201.26 851.562 201.26C852.202 201.26 852.695 201.14 853.042 200.9C853.402 200.647 853.582 200.327 853.582 199.94C853.582 199.527 853.382 199.22 852.982 199.02C852.595 198.82 851.975 198.6 851.122 198.36C850.295 198.133 849.622 197.913 849.102 197.7C848.582 197.487 848.128 197.16 847.742 196.72C847.368 196.28 847.182 195.7 847.182 194.98C847.182 194.393 847.355 193.86 847.702 193.38C848.048 192.887 848.542 192.5 849.182 192.22C849.835 191.94 850.582 191.8 851.422 191.8C852.675 191.8 853.682 192.12 854.442 192.76C855.215 193.387 855.628 194.247 855.682 195.34H853.402C853.362 194.847 853.162 194.453 852.802 194.16C852.442 193.867 851.955 193.72 851.342 193.72C850.742 193.72 850.282 193.833 849.962 194.06C849.642 194.287 849.482 194.587 849.482 194.96C849.482 195.253 849.588 195.5 849.802 195.7C850.015 195.9 850.275 196.06 850.582 196.18C850.888 196.287 851.342 196.427 851.942 196.6C852.742 196.813 853.395 197.033 853.902 197.26C854.422 197.473 854.868 197.793 855.242 198.22C855.615 198.647 855.808 199.213 855.822 199.92C855.822 200.547 855.648 201.107 855.302 201.6C854.955 202.093 854.462 202.48 853.822 202.76C853.195 203.04 852.455 203.18 851.602 203.18ZM871.14 203L865.76 196.78V203H863.48V189.1H865.76V195.44L871.16 189.1H874.02L867.98 196.06L874.12 203H871.14ZM877.297 190.52C876.883 190.52 876.537 190.38 876.257 190.1C875.977 189.82 875.837 189.473 875.837 189.06C875.837 188.647 875.977 188.3 876.257 188.02C876.537 187.74 876.883 187.6 877.297 187.6C877.697 187.6 878.037 187.74 878.317 188.02C878.597 188.3 878.737 188.647 878.737 189.06C878.737 189.473 878.597 189.82 878.317 190.1C878.037 190.38 877.697 190.52 877.297 190.52ZM878.417 191.98V203H876.137V191.98H878.417ZM885.85 191.8C886.703 191.8 887.457 191.973 888.11 192.32C888.777 192.653 889.297 193.073 889.67 193.58V191.98H891.97V203.18C891.97 204.193 891.757 205.093 891.33 205.88C890.903 206.68 890.283 207.307 889.47 207.76C888.67 208.213 887.71 208.44 886.59 208.44C885.097 208.44 883.857 208.087 882.87 207.38C881.883 206.687 881.323 205.74 881.19 204.54H883.45C883.623 205.113 883.99 205.573 884.55 205.92C885.123 206.28 885.803 206.46 886.59 206.46C887.51 206.46 888.25 206.18 888.81 205.62C889.383 205.06 889.67 204.247 889.67 203.18V201.34C889.283 201.86 888.757 202.3 888.09 202.66C887.437 203.007 886.69 203.18 885.85 203.18C884.89 203.18 884.01 202.94 883.21 202.46C882.423 201.967 881.797 201.287 881.33 200.42C880.877 199.54 880.65 198.547 880.65 197.44C880.65 196.333 880.877 195.353 881.33 194.5C881.797 193.647 882.423 192.987 883.21 192.52C884.01 192.04 884.89 191.8 885.85 191.8ZM889.67 197.48C889.67 196.72 889.51 196.06 889.19 195.5C888.883 194.94 888.477 194.513 887.97 194.22C887.463 193.927 886.917 193.78 886.33 193.78C885.743 193.78 885.197 193.927 884.69 194.22C884.183 194.5 883.77 194.92 883.45 195.48C883.143 196.027 882.99 196.68 882.99 197.44C882.99 198.2 883.143 198.867 883.45 199.44C883.77 200.013 884.183 200.453 884.69 200.76C885.21 201.053 885.757 201.2 886.33 201.2C886.917 201.2 887.463 201.053 887.97 200.76C888.477 200.467 888.883 200.04 889.19 199.48C889.51 198.907 889.67 198.24 889.67 197.48ZM894.205 197.44C894.205 196.333 894.432 195.353 894.885 194.5C895.352 193.647 895.978 192.987 896.765 192.52C897.565 192.04 898.445 191.8 899.405 191.8C900.272 191.8 901.025 191.973 901.665 192.32C902.318 192.653 902.838 193.073 903.225 193.58V191.98H905.525V203H903.225V201.36C902.838 201.88 902.312 202.313 901.645 202.66C900.978 203.007 900.218 203.18 899.365 203.18C898.418 203.18 897.552 202.94 896.765 202.46C895.978 201.967 895.352 201.287 894.885 200.42C894.432 199.54 894.205 198.547 894.205 197.44ZM903.225 197.48C903.225 196.72 903.065 196.06 902.745 195.5C902.438 194.94 902.032 194.513 901.525 194.22C901.018 193.927 900.472 193.78 899.885 193.78C899.298 193.78 898.752 193.927 898.245 194.22C897.738 194.5 897.325 194.92 897.005 195.48C896.698 196.027 896.545 196.68 896.545 197.44C896.545 198.2 896.698 198.867 897.005 199.44C897.325 200.013 897.738 200.453 898.245 200.76C898.765 201.053 899.312 201.2 899.885 201.2C900.472 201.2 901.018 201.053 901.525 200.76C902.032 200.467 902.438 200.04 902.745 199.48C903.065 198.907 903.225 198.24 903.225 197.48ZM910.8 188.2V203H908.52V188.2H910.8ZM914.953 190.52C914.54 190.52 914.193 190.38 913.913 190.1C913.633 189.82 913.493 189.473 913.493 189.06C913.493 188.647 913.633 188.3 913.913 188.02C914.193 187.74 914.54 187.6 914.953 187.6C915.353 187.6 915.693 187.74 915.973 188.02C916.253 188.3 916.393 188.647 916.393 189.06C916.393 189.473 916.253 189.82 915.973 190.1C915.693 190.38 915.353 190.52 914.953 190.52ZM916.073 191.98V203H913.793V191.98H916.073Z" fill="#595D7A"/>
<path d="M252 176C243.85 176 237.219 182.63 237.219 190.781C237.219 198.671 250.694 214.967 251.267 215.657C251.448 215.874 251.717 216 252 216C252.283 216 252.551 215.874 252.732 215.657C253.306 214.967 266.78 198.671 266.78 190.781C266.78 182.63 260.15 176 252 176ZM252 213.536C250.805 212.044 248.323 208.866 245.866 205.232C241.455 198.708 239.124 193.71 239.124 190.781C239.124 183.681 244.9 177.905 252 177.905C259.099 177.905 264.876 183.681 264.876 190.781C264.876 193.71 262.544 198.707 258.134 205.232C255.677 208.866 253.195 212.044 252 213.536Z" fill="#98BE1D"/>
<path d="M256.845 203.169C256.409 202.875 255.817 202.989 255.523 203.425C254.238 205.328 252.798 207.322 251.244 209.352C250.924 209.769 251.003 210.367 251.421 210.687C251.593 210.819 251.797 210.883 251.999 210.883C252.285 210.883 252.568 210.754 252.756 210.51C254.333 208.45 255.795 206.425 257.101 204.492C257.396 204.056 257.281 203.464 256.845 203.169Z" fill="#98BE1D"/>
<path d="M252 183.302C247.694 183.302 244.19 186.805 244.19 191.111C244.19 195.417 247.694 198.921 252 198.921C256.306 198.921 259.809 195.417 259.809 191.111C259.809 186.805 256.306 183.302 252 183.302ZM252 197.016C248.744 197.016 246.095 194.367 246.095 191.111C246.095 187.855 248.744 185.206 252 185.206C255.256 185.206 257.905 187.855 257.905 191.111C257.905 194.367 255.256 197.016 252 197.016Z" fill="#98BE1D"/>
</g>
<defs>
<clipPath id="clip0_85_246">
<rect width="1121" height="298" rx="51" fill="white"/>
</clipPath>
</defs>
</svg>
