<svg width="67" height="67" viewBox="0 0 67 67" fill="none" xmlns="http://www.w3.org/2000/svg">
<g clip-path="url(#clip0_79_266)">
<path d="M38.2318 60.4676H27.428V59.1712H38.2318V60.4676ZM40.0324 56.8664H25.6274V55.5699H40.0324V56.8664ZM40.0324 53.2651H25.6274V51.9687H40.0324V53.2651ZM40.0324 49.6639H25.6274C25.2691 49.6639 24.9792 49.374 24.9792 49.0156V46.3993C24.9792 43.4787 24.9792 39.0654 21.3041 35.2444C17.8685 31.6684 15.9761 27.1362 15.9761 22.4834C15.9761 12.7654 23.3784 5.15421 32.8299 5.15421C42.2814 5.15421 49.6838 12.7654 49.6838 22.4834C49.6838 27.1362 47.7913 31.6702 44.3557 35.2426C40.6806 39.0654 40.6807 43.4787 40.6807 46.3993V49.0156C40.6807 49.374 40.3907 49.6639 40.0324 49.6639ZM26.2756 48.3674H39.3842V46.3993C39.3842 43.4607 39.3842 38.5432 43.4212 34.3441C46.6227 31.0112 48.3873 26.7995 48.3873 22.4816C48.3873 13.4911 41.554 6.44885 32.8299 6.44885C24.1059 6.44885 17.2725 13.4911 17.2725 22.4816C17.2725 26.7995 19.0353 31.0112 22.2386 34.3441C26.2756 38.5432 26.2756 43.4607 26.2756 46.3993V48.3674ZM34.9601 34.3585H30.7016C30.3433 34.3585 30.0534 34.0686 30.0534 33.7103V31.3533L28.8271 30.8401L27.1562 32.5111C27.0355 32.6335 26.8699 32.7002 26.6988 32.7002C26.5259 32.7002 26.3621 32.6317 26.2414 32.5111L23.2308 29.4987C22.9769 29.2448 22.9769 28.836 23.2308 28.5821L24.8964 26.9148L24.3922 25.6849H22.0262C21.6679 25.6849 21.378 25.395 21.378 25.0367V20.7764C21.378 20.4181 21.6679 20.1282 22.0262 20.1282H24.3832L24.8964 18.902L23.2272 17.231C22.9733 16.9771 22.9733 16.5684 23.2272 16.3145L26.2378 13.302C26.4809 13.0571 26.9113 13.0571 27.1544 13.302L28.8217 14.9694L30.0534 14.4652V12.1028C30.0534 11.7445 30.3433 11.4546 30.7016 11.4546H34.9601C35.3184 11.4546 35.6083 11.7445 35.6083 12.1028V14.4598L36.8345 14.973L38.5055 13.302C38.7594 13.0481 39.1699 13.0481 39.4238 13.302L42.4363 16.3145C42.6901 16.5684 42.6901 16.9771 42.4363 17.231L40.7689 18.8984L41.2731 20.1282H43.6337C43.992 20.1282 44.2819 20.4181 44.2819 20.7764V25.0367C44.2819 25.395 43.992 25.6849 43.6337 25.6849H41.2749L40.7635 26.9112L42.4345 28.5821C42.6883 28.836 42.6883 29.2448 42.4345 29.4987L39.422 32.5111C39.3014 32.6335 39.1357 32.7002 38.9629 32.7002C38.79 32.7002 38.6243 32.6317 38.5037 32.5111L36.8381 30.8437L35.6065 31.3479V33.7103C35.6083 34.0686 35.3184 34.3585 34.9601 34.3585ZM31.348 33.0621H34.3118V30.9121C34.3118 30.6493 34.4703 30.4116 34.7134 30.3125L36.7463 29.4806C36.9876 29.3816 37.2667 29.4374 37.4521 29.6229L38.9647 31.1354L41.0606 29.0395L39.5391 27.5198C39.3536 27.3343 39.2978 27.0534 39.4004 26.8103L40.2485 24.7846C40.3493 24.5433 40.5852 24.3867 40.8463 24.3867H42.9854V21.4247H40.8391C40.5762 21.4247 40.3403 21.2662 40.2395 21.0231L39.4058 18.992C39.3068 18.7507 39.3626 18.4716 39.5463 18.288L41.0606 16.7736L38.9629 14.6777L37.4431 16.1974C37.2559 16.3847 36.975 16.4387 36.7337 16.3379L34.708 15.4898C34.4667 15.389 34.31 15.1531 34.31 14.892V12.751H31.3462V14.8992C31.3462 15.1621 31.1878 15.3998 30.9447 15.4988L28.9136 16.3325C28.6687 16.4315 28.3932 16.3739 28.2095 16.1902L26.6952 14.6777L24.6011 16.7736L26.1208 18.2934C26.3081 18.4788 26.3621 18.7597 26.2612 19.0028L25.4131 21.0285C25.3123 21.2698 25.0764 21.4265 24.8153 21.4265H22.6744V24.3903H24.8243C25.0872 24.3903 25.3249 24.5487 25.424 24.7918L26.2558 26.8229C26.3549 27.0642 26.2991 27.3433 26.1136 27.527L24.6011 29.0413L26.697 31.1372L28.2167 29.6175C28.4022 29.4302 28.6813 29.3726 28.9262 29.477L30.9519 30.3251C31.1932 30.426 31.3498 30.6619 31.3498 30.923L31.348 33.0621ZM32.8299 28.0564C29.9903 28.0564 27.6801 25.7462 27.6801 22.9066C27.6801 20.067 29.9903 17.7568 32.8299 17.7568C35.6695 17.7568 37.9797 20.067 37.9797 22.9066C37.9797 25.7462 35.6695 28.0564 32.8299 28.0564ZM32.8299 19.0532C30.7052 19.0532 28.9766 20.7818 28.9766 22.9066C28.9766 25.0313 30.7052 26.7599 32.8299 26.7599C34.9547 26.7599 36.6833 25.0313 36.6833 22.9066C36.6833 20.7818 34.9547 19.0532 32.8299 19.0532Z" fill="#98BE1D"/>
</g>
<defs>
<clipPath id="clip0_79_266">
<rect width="57.62" height="57.62" fill="white" transform="translate(4.02002 4)"/>
</clipPath>
</defs>
</svg>
