<svg width="136" height="122" viewBox="0 0 136 122" fill="none" xmlns="http://www.w3.org/2000/svg">
<path d="M116.281 -38.4593C146.319 -38.4593 170.671 -14.0738 170.671 16.0086C170.671 46.0911 146.319 70.4766 116.281 70.4766C86.2426 70.4766 61.8906 46.0911 61.8906 16.0086C61.8906 -14.0738 86.2426 -38.4593 116.281 -38.4593Z" stroke="#6246E5" stroke-opacity="0.15"/>
<path d="M110.503 -40.6289C144.131 -40.6289 171.393 -13.3291 171.393 20.3484C171.393 54.0259 144.131 81.3257 110.503 81.3257C76.8745 81.3257 49.6123 54.0259 49.6123 20.3484C49.6123 -13.3291 76.8745 -40.6289 110.503 -40.6289Z" stroke="#6246E5" stroke-opacity="0.15"/>
<path d="M105.808 -42.799C142.627 -42.799 172.476 -12.9087 172.476 23.9644C172.476 60.8375 142.627 90.7278 105.808 90.7278C68.9887 90.7278 39.1396 60.8375 39.1396 23.9644C39.1396 -12.9087 68.9887 -42.799 105.808 -42.799Z" stroke="#6246E5" stroke-opacity="0.15"/>
<path d="M98.9466 -44.2455C138.558 -44.2455 170.671 -12.0884 170.671 27.5808C170.671 67.25 138.558 99.407 98.9467 99.407C59.3353 99.407 27.2227 67.25 27.2227 27.5808C27.2227 -12.0884 59.3352 -44.2455 98.9466 -44.2455Z" stroke="#6246E5" stroke-opacity="0.15"/>
<path d="M92.2661 -45.6916C134.57 -45.6916 168.865 -11.3488 168.865 31.0166C168.865 73.3821 134.57 107.725 92.2661 107.725C49.9622 107.725 15.667 73.3821 15.667 31.0166C15.667 -11.3488 49.9622 -45.6916 92.2661 -45.6916Z" stroke="#6246E5" stroke-opacity="0.15"/>
<path d="M84.6826 -47.5C131.175 -47.5 168.865 -9.75715 168.865 36.8025C168.865 83.3621 131.175 121.105 84.6826 121.105C38.1905 121.105 0.499998 83.3621 0.499996 36.8025C0.499994 -9.75714 38.1905 -47.5 84.6826 -47.5Z" stroke="#6246E5" stroke-opacity="0.15"/>
</svg>
