<svg width="467" height="467" viewBox="0 0 467 467" fill="none" xmlns="http://www.w3.org/2000/svg">
<path d="M355.202 123.893C409.854 151.683 431.599 218.578 403.769 273.309C375.94 328.039 309.075 349.878 254.423 322.088C199.771 294.299 178.026 227.403 205.856 172.673C233.686 117.942 300.551 96.1037 355.202 123.893Z" stroke="#6246E5" stroke-opacity="0.15"/>
<path d="M346.737 114.644C407.889 145.739 432.221 220.592 401.081 281.833C369.941 343.074 295.122 367.51 233.969 336.415C172.816 305.319 148.485 230.466 179.625 169.225C210.765 107.984 285.584 83.5483 346.737 114.644Z" stroke="#6246E5" stroke-opacity="0.15"/>
<path d="M340.234 106.391C407.166 140.425 433.797 222.351 399.714 289.379C365.631 356.407 283.742 383.152 216.811 349.119C149.879 315.085 123.248 233.159 157.331 166.131C191.413 99.1028 273.302 72.3574 340.234 106.391Z" stroke="#6246E5" stroke-opacity="0.15"/>
<path d="M329.14 97.4533C401.128 134.058 429.771 222.174 393.113 294.265C356.456 366.357 268.381 395.123 196.392 358.518C124.404 321.913 95.7616 233.797 132.419 161.706C169.077 89.6144 257.152 60.8484 329.14 97.4533Z" stroke="#6246E5" stroke-opacity="0.15"/>
<path d="M318.374 88.6822C395.238 127.766 425.821 221.85 386.68 298.824C347.54 375.798 253.499 406.513 176.635 367.428C99.7715 328.344 69.1888 234.261 108.329 157.287C147.469 80.3123 241.51 49.598 318.374 88.6822Z" stroke="#6246E5" stroke-opacity="0.15"/>
<path d="M306.306 78.4242C390.754 121.365 424.355 224.732 381.352 309.302C338.35 393.872 235.03 427.617 150.581 384.676C66.1325 341.735 32.5321 238.368 75.5346 153.798C118.537 69.2285 221.857 35.4834 306.306 78.4242Z" stroke="#6246E5" stroke-opacity="0.15"/>
</svg>
