<svg width="155" height="153" viewBox="0 0 155 153" fill="none" xmlns="http://www.w3.org/2000/svg">
<path d="M1.61035 11.5586H3.47949L3.47949 0.837891L1.61035 0.837891L1.61035 11.5586ZM-2.95508 7.19727L8.43164 7.19727V5.20996L-2.95508 5.20996V7.19727Z" fill="#615C7C"/>
<path d="M36.6104 11.5586H38.4795V0.837891L36.6104 0.837891V11.5586ZM32.0449 7.19727L43.4316 7.19727V5.20996L32.0449 5.20996V7.19727Z" fill="#595D7A" fill-opacity="0.26"/>
<path d="M71.6104 11.5586H73.4795V0.837891L71.6104 0.837891V11.5586ZM67.0449 7.19727L78.4316 7.19727V5.20996L67.0449 5.20996V7.19727Z" fill="#595D7A" fill-opacity="0.26"/>
<path d="M1.61035 46.5586H3.47949L3.47949 35.8379H1.61035L1.61035 46.5586ZM-2.95508 42.1973H8.43164V40.21H-2.95508V42.1973Z" fill="#595D7A" fill-opacity="0.26"/>
<path d="M36.6104 46.5586H38.4795V35.8379H36.6104V46.5586ZM32.0449 42.1973H43.4316V40.21H32.0449V42.1973Z" fill="#595D7A" fill-opacity="0.26"/>
<path d="M71.6104 46.5586H73.4795V35.8379H71.6104V46.5586ZM67.0449 42.1973H78.4316V40.21H67.0449V42.1973Z" fill="#595D7A" fill-opacity="0.26"/>
<path d="M106.61 46.5586H108.479V35.8379H106.61V46.5586ZM102.045 42.1973H113.432V40.21H102.045V42.1973Z" fill="#595D7A" fill-opacity="0.26"/>
<path d="M1.61035 81.5586H3.47949L3.47949 70.8379H1.61035L1.61035 81.5586ZM-2.95508 77.1973H8.43164V75.21H-2.95508V77.1973Z" fill="#595D7A" fill-opacity="0.26"/>
<path d="M36.6104 81.5586H38.4795V70.8379H36.6104V81.5586ZM32.0449 77.1973H43.4316V75.21H32.0449V77.1973Z" fill="#595D7A" fill-opacity="0.26"/>
<path d="M71.6104 81.5586H73.4795V70.8379H71.6104V81.5586ZM67.0449 77.1973H78.4316V75.21H67.0449V77.1973Z" fill="#98BE1D"/>
<path d="M106.61 81.5586H108.479V70.8379H106.61V81.5586ZM102.045 77.1973H113.432V75.21H102.045V77.1973Z" fill="#595D7A" fill-opacity="0.26"/>
<path d="M141.61 81.5586H143.479V70.8379H141.61V81.5586ZM137.045 77.1973H148.432V75.21H137.045V77.1973Z" fill="#595D7A" fill-opacity="0.26"/>
<path d="M1.61035 116.559H3.47949L3.47949 105.838H1.61035L1.61035 116.559ZM-2.95508 112.197H8.43164V110.21H-2.95508V112.197Z" fill="#595D7A" fill-opacity="0.26"/>
<path d="M36.6104 116.559H38.4795V105.838H36.6104V116.559ZM32.0449 112.197H43.4316V110.21H32.0449V112.197Z" fill="#595D7A" fill-opacity="0.26"/>
<path d="M71.6104 116.559H73.4795V105.838H71.6104V116.559ZM67.0449 112.197H78.4316V110.21H67.0449V112.197Z" fill="#595D7A" fill-opacity="0.26"/>
<path d="M106.61 116.559H108.479V105.838H106.61V116.559ZM102.045 112.197H113.432V110.21H102.045V112.197Z" fill="#595D7A" fill-opacity="0.26"/>
<path d="M141.61 116.559H143.479V105.838H141.61V116.559ZM137.045 112.197H148.432V110.21H137.045V112.197Z" fill="#595D7A" fill-opacity="0.26"/>
<path d="M1.61035 151.559H3.47949L3.47949 140.838H1.61035L1.61035 151.559ZM-2.95508 147.197H8.43164V145.21H-2.95508V147.197Z" fill="#595D7A" fill-opacity="0.26"/>
<path d="M36.6104 151.559H38.4795V140.838H36.6104V151.559ZM32.0449 147.197H43.4316V145.21H32.0449V147.197Z" fill="#595D7A" fill-opacity="0.26"/>
<path d="M71.6104 151.559H73.4795V140.838H71.6104V151.559ZM67.0449 147.197H78.4316V145.21H67.0449V147.197Z" fill="#595D7A" fill-opacity="0.26"/>
<path d="M106.61 151.559H108.479V140.838H106.61V151.559ZM102.045 147.197H113.432V145.21H102.045V147.197Z" fill="#595D7A" fill-opacity="0.26"/>
<path d="M141.61 151.559H143.479V140.838H141.61V151.559ZM137.045 147.197H148.432V145.21H137.045V147.197Z" fill="#595D7A" fill-opacity="0.26"/>
</svg>
