<svg width="153" height="166" viewBox="0 0 153 166" fill="none" xmlns="http://www.w3.org/2000/svg">
<path d="M141.441 153.39V151.521H152.162V153.39H141.441ZM145.803 157.955V146.568H147.79V157.955H145.803Z" fill="#615C7C"/>
<path d="M145.803 118.39H141.441V116.51H145.803V111.568H147.801V116.51H152.162V118.39H147.801V122.955H145.803V118.39Z" fill="#595D7A" fill-opacity="0.26"/>
<path d="M145.803 83.3896H141.441V81.5098H145.803V76.5684H147.801V81.5098H152.162V83.3896H147.801V87.9551H145.803V83.3896Z" fill="#595D7A" fill-opacity="0.26"/>
<path d="M106.441 153.39V151.521H117.162V153.39H106.441ZM110.803 157.955V146.568H112.79V157.955H110.803Z" fill="#595D7A" fill-opacity="0.26"/>
<path d="M110.803 118.39H106.441V116.51H110.803V111.568H112.801V116.51H117.162V118.39H112.801V122.955H110.803V118.39Z" fill="#595D7A" fill-opacity="0.26"/>
<path d="M110.803 83.3896H106.441V81.5098H110.803V76.5684H112.801V81.5098H117.162V83.3896H112.801V87.9551H110.803V83.3896Z" fill="#595D7A" fill-opacity="0.26"/>
<path d="M110.803 48.3896H106.441V46.5098H110.803V41.5684H112.801V46.5098H117.162V48.3896H112.801V52.9551H110.803V48.3896Z" fill="#595D7A" fill-opacity="0.26"/>
<path d="M71.4414 153.39V151.521H82.1621V153.39H71.4414ZM75.8027 157.955V146.568H77.79V157.955H75.8027Z" fill="#595D7A" fill-opacity="0.26"/>
<path d="M75.8027 118.39H71.4414V116.51H75.8027V111.568H77.8008V116.51H82.1621V118.39H77.8008V122.955H75.8027V118.39Z" fill="#595D7A" fill-opacity="0.26"/>
<path d="M71.4414 83.3896V81.5205H82.1621V83.3896H71.4414ZM75.8027 87.9551V76.5684H77.79V87.9551H75.8027Z" fill="#98BE1D"/>
<path d="M75.8027 48.3896H71.4414V46.5098H75.8027V41.5684H77.8008V46.5098H82.1621V48.3896H77.8008V52.9551H75.8027V48.3896Z" fill="#595D7A" fill-opacity="0.26"/>
<path d="M75.8027 13.3896L71.4414 13.3896V11.5098L75.8027 11.5098V6.56836H77.8008V11.5098H82.1621V13.3896H77.8008V17.9551H75.8027V13.3896Z" fill="#595D7A" fill-opacity="0.26"/>
<path d="M40.8027 153.39H36.4414V151.51H40.8027V146.568H42.8008V151.51H47.1621V153.39H42.8008V157.955H40.8027V153.39Z" fill="#595D7A" fill-opacity="0.26"/>
<path d="M40.8027 118.39H36.4414V116.51H40.8027V111.568H42.8008V116.51H47.1621V118.39H42.8008V122.955H40.8027V118.39Z" fill="#595D7A" fill-opacity="0.26"/>
<path d="M40.8027 83.3896H36.4414V81.5098H40.8027V76.5684H42.8008V81.5098H47.1621V83.3896H42.8008V87.9551H40.8027V83.3896Z" fill="#595D7A" fill-opacity="0.26"/>
<path d="M40.8027 48.3896H36.4414V46.5098H40.8027V41.5684H42.8008V46.5098H47.1621V48.3896H42.8008V52.9551H40.8027V48.3896Z" fill="#595D7A" fill-opacity="0.26"/>
<path d="M36.4414 13.3896V11.5205L47.1621 11.5205V13.3896L36.4414 13.3896ZM40.8027 17.9551V6.56836H42.79V17.9551H40.8027Z" fill="#595D7A" fill-opacity="0.26"/>
<path d="M5.80273 153.39H1.44141V151.51H5.80273L5.80273 146.568H7.80078L7.80078 151.51H12.1621V153.39H7.80078L7.80078 157.955H5.80273L5.80273 153.39Z" fill="#595D7A" fill-opacity="0.26"/>
<path d="M1.44141 118.39V116.521H12.1621V118.39H1.44141ZM5.80273 122.955L5.80273 111.568H7.79004L7.79004 122.955H5.80273Z" fill="#595D7A" fill-opacity="0.26"/>
<path d="M1.44141 83.3896V81.5205H12.1621V83.3896H1.44141ZM5.80273 87.9551L5.80273 76.5684H7.79004L7.79004 87.9551H5.80273Z" fill="#595D7A" fill-opacity="0.26"/>
<path d="M1.44141 48.3896V46.5205H12.1621V48.3896H1.44141ZM5.80273 52.9551L5.80273 41.5684H7.79004L7.79004 52.9551H5.80273Z" fill="#595D7A" fill-opacity="0.26"/>
<path d="M1.44141 13.3896V11.5205L12.1621 11.5205V13.3896L1.44141 13.3896ZM5.80273 17.9551L5.80273 6.56836H7.79004L7.79004 17.9551H5.80273Z" fill="#595D7A" fill-opacity="0.26"/>
</svg>
