<svg width="123" height="123" viewBox="0 0 123 123" fill="none" xmlns="http://www.w3.org/2000/svg">
<path d="M9.7055 22.4379C6.1212 25.1765 4.2762 32.8256 3.89182 43.6458C3.50745 54.4659 5.54464 60.3469 6.25573 62.1246C6.96682 63.9023 12.3096 66.5545 18.3251 71.2054C22.7358 74.6168 57.368 98.7267 61.4712 100.601C67.996 103.57 72.1472 97.564 72.1472 97.564C72.1472 97.564 75.6066 99.5435 78.9507 97.564C83.0346 95.1424 82.5542 92.1347 82.5542 92.1347C82.5542 92.1347 86.7631 93.1052 88.906 91.2122C91.0489 89.3191 92.0002 84.7739 92.0002 84.7739C92.0002 84.7739 94.8349 86.0615 97.2373 83.9186C99.6396 81.7758 101.465 78.8737 98.9189 74.9147C96.3725 70.9556 86.0135 58.4826 83.3229 54.9848C80.6323 51.487 73.7135 31.5379 67.0542 29.5488C60.3949 27.5597 53.8221 28.069 46.865 30.1254C39.9078 32.1818 33.4022 31.9896 25.6763 29.7986C17.9503 27.6077 9.7055 22.4379 9.7055 22.4379Z" fill="#A56C43"/>
<path d="M118.493 39.3985C117.071 29.9333 115.197 23.495 113.804 21.9383C112.209 20.1701 109.47 23.6872 103.676 25.7436C97.8811 27.8 87.4453 28.5783 87.4453 28.5783C87.4453 28.5783 70.6577 28.0883 64.3732 30.2023C62.0093 30.9903 38.6873 40.8207 37.9858 44.9431C37.6879 46.692 39.629 50.603 44.4529 50.997C52.2846 51.6408 62.0765 44.8182 62.0765 44.8182C62.1919 44.626 63.3546 44.2993 68.707 44.2993C74.0594 44.2993 80.2767 47.8067 80.6707 48.4601C84.6682 55.0426 88.4639 59.6551 92.1251 64.1138C94.8061 67.3714 101.11 75.991 101.11 75.991C101.11 75.991 108.192 67.6212 109.998 65.6897C111.805 63.7583 118.503 58.8671 118.503 58.8671C118.503 58.8671 119.983 49.2962 118.493 39.3985Z" fill="#A56C43"/>
<path d="M25.5512 82.4773C25.5512 82.4773 22.9951 83.3806 20.66 80.0269C18.325 76.6732 20.2757 74.367 22.6588 72.4931C25.0419 70.6193 28.1938 69.716 30.0676 71.1382C31.9318 72.5508 32.7102 75.0012 32.7102 75.0012C32.7102 75.0012 36.5732 71.8493 40.0518 73.7808C43.5303 75.7123 43.3093 79.2293 43.3093 79.2293C43.3093 79.2293 46.6822 77.1825 50.2281 79.2293C53.7739 81.2761 52.0346 87.1763 52.0346 87.1763C52.0346 87.1763 56.1571 87.3012 56.9258 91.3659C57.6946 95.4211 56.7336 99.7357 52.0923 100.514C47.4606 101.283 44.7507 96.9394 44.7507 96.9394C44.7507 96.9394 40.119 99.7357 36.6981 97.4295C33.2771 95.1232 33.6711 90.2801 33.6711 90.2801C33.6711 90.2801 29.4911 90.972 27.1368 88.781C24.7825 86.5901 25.5512 82.4773 25.5512 82.4773Z" fill="#A56C43"/>
<path d="M75.2893 99.6299C74.3668 99.6299 73.4636 99.4858 72.6179 99.1879C70.4462 98.4288 62.038 92.0289 60.5966 89.8092C60.1834 89.1653 60.366 88.3101 61.0002 87.8969C61.644 87.4837 62.4993 87.6663 62.9125 88.3005C63.9118 89.838 71.7531 95.9495 73.5308 96.5742C75.126 97.1315 77.1728 96.8432 78.7295 95.8438C79.7193 95.2 80.9493 93.9892 81.1318 91.8656C81.1991 91.1064 81.8718 90.5395 82.6309 90.6067C83.39 90.674 83.957 91.3467 83.8897 92.1058C83.6687 94.6331 82.3714 96.7856 80.2382 98.1693C78.7622 99.1195 77.0447 99.6264 75.2893 99.6299Z" fill="#663D29"/>
<path d="M85.3696 93.3647C83.4766 93.3647 81.4394 92.7689 78.9794 91.5101C75.9524 89.9726 71.9645 86.0231 69.0529 83.1499C68.4667 82.5733 67.9382 82.0448 67.4866 81.6124C66.9388 81.0839 66.9196 80.2094 67.4481 79.6521C67.9767 79.0947 68.8511 79.0851 69.4085 79.6136C69.8697 80.0557 70.4078 80.5842 71.0036 81.18C73.627 83.7745 77.5956 87.6951 80.2382 89.0404C83.5727 90.7413 85.2831 90.7221 86.5324 90.4818C88.8194 90.0302 90.2416 87.8873 90.232 84.87C90.232 84.503 90.3778 84.151 90.6373 83.8915C90.8968 83.632 91.2487 83.4862 91.6157 83.4862C91.9827 83.4862 92.3347 83.632 92.5942 83.8915C92.8537 84.151 92.9995 84.503 92.9995 84.87C93.0091 89.223 90.674 92.4998 87.0609 93.2109C86.5035 93.3166 85.9366 93.3647 85.3696 93.3647Z" fill="#663D29"/>
<path d="M93.3167 86.5708C92.5767 86.5708 91.8272 86.4459 91.1065 86.1672C87.2147 84.6489 82.0256 79.8635 75.2414 71.5321C75.0248 71.2453 74.928 70.8855 74.9713 70.5287C75.0146 70.1718 75.1948 69.8457 75.4738 69.619C75.7528 69.3924 76.1088 69.2828 76.467 69.3134C76.8252 69.344 77.1575 69.5125 77.3939 69.7832C83.7745 77.6245 88.7234 82.2658 92.1155 83.5823C93.8163 84.2453 96.3436 83.2844 97.8619 81.401C98.573 80.5169 99.5916 78.7584 98.3616 76.8846C95.6421 72.7429 92.8938 69.3989 89.9822 65.8626C86.2538 61.327 82.4004 56.6376 78.2972 49.8918C77.9032 49.2384 78.105 48.3831 78.7584 47.9892C79.4119 47.5952 80.2671 47.797 80.6611 48.4504C84.6586 55.0328 88.4543 59.6453 92.1155 64.1041C95.0752 67.698 97.8619 71.0997 100.668 75.3663C102.253 77.7686 102.004 80.6803 100.005 83.1499C98.4673 85.0429 95.9016 86.5708 93.3167 86.5708Z" fill="#663D29"/>
<path d="M100.543 75.1837L99.1304 73.1081C100.207 73.6847 102.657 73.2426 105.761 68.8704C107.731 66.0933 111.411 60.491 118.407 57.5793C118.407 57.5793 118.935 60.2315 117.359 61.3078C112.612 64.575 109.624 68.2073 108.019 70.4751C105.386 74.194 102.965 76.4233 101.581 77.538C101.581 77.538 101.408 76.4233 100.543 75.1837Z" fill="#663D29"/>
<path d="M65.5552 102.513C62.1055 102.513 58.771 100.706 57.0894 99.7933C56.8107 99.6396 56.5704 99.5146 56.3687 99.4089L58.4155 94.7388C58.4155 94.7388 58.9151 97.5255 61.0292 98.621C64.5078 100.437 67.6308 100.697 70.1677 97.3333L72.3779 99.0053C70.3887 101.648 67.9383 102.513 65.5552 102.513Z" fill="#663D29"/>
<path d="M19.8625 74.5304C16.6914 71.1863 12.7996 68.0152 8.51381 65.2477C8.3024 65.1132 7.13967 64.3637 6.57271 63.3547C5.68865 61.7883 5.90006 60.4526 5.90006 60.4526C11.9828 63.8351 17.5562 68.0729 21.8708 72.6277L19.8625 74.5304Z" fill="#663D29"/>
<path d="M38.0436 33.0082C26.6469 33.0082 16.1246 28.6456 8.56201 23.5718C8.56201 23.5718 8.956 22.7743 9.70553 22.4379C10.7529 21.9671 11.5601 22.2265 11.6754 22.2938C18.6999 26.6564 28.0114 30.2311 38.034 30.2311H38.1012C40.9744 30.2311 44.8374 29.078 47.1437 28.3957C47.5761 28.2708 47.9604 28.1555 48.2968 28.0594C53.9663 26.4546 60.0683 26.4739 68.6975 28.1075L68.1786 30.8269C60.001 29.2798 54.2738 29.251 49.0463 30.7212C48.7292 30.8077 48.3544 30.923 47.9316 31.0479C45.4812 31.7782 41.378 32.9986 38.1108 32.9986C38.0916 33.0082 38.0628 33.0082 38.0436 33.0082Z" fill="#663D29"/>
<path d="M89.05 60.3373C89.05 60.3373 88.2812 58.3097 89.5689 57.1662C91.0775 55.8209 92.7688 56.3014 93.9411 56.3206C93.9411 56.3206 91.6637 55.7248 88.7617 54.5621C85.1582 53.111 82.679 51.3141 82.679 51.3141C82.679 51.3141 83.3228 52.6017 85.3215 55.6287C87.3107 58.6556 89.05 60.3373 89.05 60.3373Z" fill="#663D29"/>
<path d="M57.9348 97.3046C59.1072 95.1328 59.3954 92.6344 58.6267 90.578C58.0694 89.0789 56.7336 87.1955 53.6202 86.2826C53.649 86.225 53.6779 86.1769 53.7067 86.1289L53.6202 86.0808C54.0334 84.822 54.1295 83.6208 53.9373 82.1794C53.6298 79.9116 52.3229 78.2107 50.2569 77.4132C48.508 76.7309 46.394 76.7885 44.7027 77.4804C44.5201 75.5105 43.5784 74.1075 41.7622 73.0025C38.1299 70.7923 35.4201 72.2337 33.7576 73.1946C33.0177 71.071 31.1823 70.0235 30.0196 69.5527C28.6358 68.9953 25.2533 68.2746 21.227 71.8685L23.2834 73.752C26.0605 71.3881 28.1361 71.7725 28.9914 72.1184C31.2015 73.0025 31.1247 74.6457 31.1151 75.4048C31.1054 76.1543 30.9901 76.9519 29.1547 78.6528C26.8869 80.7572 25.2822 80.7668 25.2822 80.7668C23.6582 80.959 22.2072 79.729 21.5441 78.5086C21.3135 78.0762 20.6312 76.5964 21.5345 75.5297C21.7459 75.2895 22.1783 74.6168 23.6486 73.4637L21.621 71.5418C20.7369 72.2721 19.6318 73.5021 19.4204 73.7424C18.0655 75.3375 17.9502 77.6726 19.1129 79.8251C20.0739 81.6221 22.015 83.3133 24.3885 83.5439C24.2155 85.8502 25.0323 87.9835 26.7716 89.6651C28.6358 91.4717 30.9517 91.6639 32.5661 91.5197C32.5853 93.1341 32.9408 95.4019 34.5168 97.0259C37.6494 100.245 41.5604 99.4282 44.0973 98.0733C45.0102 99.9279 46.6534 101.254 48.7386 101.744C49.3248 101.879 49.9206 101.946 50.5068 101.946C52.6977 101.946 55.5325 101.946 58.3192 96.4974C57.4543 95.9592 56.6279 95.5364 55.8976 95.104C53.774 99.3129 50.9584 99.4186 49.3633 99.0439C47.9122 98.6979 46.8456 97.7178 46.3555 96.3052C48.6714 93.7107 50.305 91.6639 52.1212 88.7714C54.1776 89.2039 55.494 90.136 56.0226 91.5582C56.4838 92.7978 56.3012 94.3929 55.5901 95.8151L57.9348 97.3046ZM33.6039 88.4832C33.5751 88.4928 30.6154 89.5114 28.6935 87.6567C27.4154 86.4171 26.9158 84.9181 27.2136 83.2076C30.6922 80.738 33.7 76.875 34.3246 76.039C34.5456 75.9237 37.4957 73.5886 40.3208 75.3567C41.6277 76.1735 42.1562 78.057 41.8872 79.3831C41.6181 80.7092 41.0031 82.3139 38.4662 85.0238C35.987 87.6664 33.6039 88.4832 33.6039 88.4832ZM50.6797 86.0135C50.0359 87.282 48.0372 91.4909 43.8859 94.9118C43.4151 95.2962 39.4464 98.0829 36.5059 95.0656C35.4489 93.9797 35.2855 92.1155 35.3432 90.9047C37.3131 89.3576 41.2337 85.8982 44.2703 80.9494C45.4522 79.6137 47.7489 79.3927 49.2576 79.9789C50.3722 80.4113 51.0257 81.2665 51.189 82.535C51.3524 83.7073 51.3236 84.7451 50.6797 86.0135Z" fill="#663D29"/>
<path d="M95.7286 56.5511C95.671 56.5511 95.6229 56.5511 95.5652 56.5415C85.3985 55.3596 80.296 51.4197 76.9231 48.8156C75.2606 47.5375 73.9538 46.519 72.7045 46.3364C69.1683 45.7983 65.6705 45.4139 61.9036 46.5093C61.5481 46.6151 60.491 47.1147 59.3571 47.6529C55.8881 49.2961 50.651 51.7849 46.7977 52.1885C43.7995 52.5056 41.1185 51.7465 39.2447 50.0648C37.7264 48.7003 36.8616 46.8168 36.8616 44.895C36.8616 41.5221 41.1281 39.5329 43.9437 38.2261C45.4908 37.5054 47.5952 36.3234 49.815 35.0742C53.6972 32.8929 58.0983 30.4136 61.327 29.395C66.6314 27.723 80.6131 27.2233 85.091 27.1753C95.1328 27.0792 103.387 24.2636 109.662 21.0349C109.922 20.9004 111.065 20.3046 112.065 20.5544C113.458 20.9004 113.804 21.9478 113.804 21.9478C106.952 26.0318 97.5928 29.8371 85.1295 29.962C79.6329 30.01 66.7948 30.5962 62.1823 32.0472C59.2226 32.9793 54.956 35.3817 51.1892 37.5054C48.9213 38.7834 46.7784 39.9942 45.1256 40.7533C43.4824 41.5125 39.6387 43.2998 39.6387 44.9142C39.6387 46.0481 40.1768 47.182 41.0993 48.0276C42.3774 49.1808 44.3088 49.6901 46.5094 49.4594C49.8919 49.1039 55.0713 46.6439 58.1752 45.1736C59.7415 44.4241 60.5871 44.0301 61.1349 43.8764C65.7954 42.5118 70.2061 43.1749 73.1177 43.6169C75.0684 43.9148 76.7117 45.1833 78.6143 46.6439C81.9392 49.2096 86.4844 52.717 95.892 53.8125C96.6511 53.899 97.1988 54.5908 97.1124 55.35C97.0259 56.0322 96.4301 56.5511 95.7286 56.5511Z" fill="#663D29"/>
</svg>
