<svg width="14" height="14" viewBox="0 0 14 14" fill="none" xmlns="http://www.w3.org/2000/svg">
<g clip-path="url(#clip0_34_438)">
<path d="M4.95081 9.802H4.44499C4.11635 9.802 3.85059 10.0706 3.85059 10.3964C3.85059 10.725 4.11921 10.9908 4.44499 10.9908H4.95081C5.27945 10.9908 5.54522 10.7222 5.54522 10.3964C5.54522 10.0706 5.27659 9.802 4.95081 9.802Z" fill="#84829A"/>
<path d="M9.56897 9.802H9.06316C8.73452 9.802 8.46875 10.0706 8.46875 10.3964C8.46875 10.725 8.73738 10.9908 9.06316 10.9908H9.56897C9.89761 10.9908 10.1634 10.7222 10.1634 10.3964C10.1634 10.0706 9.89476 9.802 9.56897 9.802Z" fill="#84829A"/>
<path d="M13.4097 1.43172H12.4267V1.25168C12.4267 0.56583 11.8609 0 11.175 0H2.83616C2.1503 0 1.58447 0.56583 1.58447 1.25168V1.4603H0.601415C0.272777 1.4603 0.00415039 1.72892 0.00415039 2.05756V4.6781C0.00415039 5.00674 0.272777 5.2725 0.598557 5.2725C0.895761 5.2725 1.16439 5.00388 1.16439 4.70667V2.65197H1.58162V11.7081C1.58162 12.1539 1.82166 12.5483 2.17602 12.7712V13.4056C2.17602 13.7342 2.44465 14 2.77043 14C3.09907 14 3.36484 13.7314 3.36484 13.4056V12.9598H10.6349V13.4056C10.6349 13.7342 10.9035 14 11.2293 14C11.5579 14 11.7951 13.7314 11.8237 13.4056V12.7712C12.1809 12.5483 12.4181 12.1539 12.4181 11.7081V2.62339H12.8068V4.6781C12.8068 5.00674 13.0754 5.2725 13.4012 5.2725C13.727 5.2725 13.9956 5.00388 13.9956 4.6781V2.02613C14.007 1.69749 13.7384 1.43172 13.4097 1.43172ZM2.83616 11.7967C2.77614 11.7967 2.74757 11.7681 2.74757 11.7081V9.20474H11.2664V11.7081C11.2664 11.7681 11.2379 11.7967 11.1779 11.7967H2.83616ZM2.83616 1.16309H11.1779C11.2379 1.16309 11.2664 1.19167 11.2664 1.25168V8.01306H2.74471V1.25168C2.74471 1.19167 2.77614 1.16309 2.83616 1.16309Z" fill="#84829A"/>
</g>
<defs>
<clipPath id="clip0_34_438">
<rect width="14" height="14" fill="white"/>
</clipPath>
</defs>
</svg>
