<svg width="24" height="24" viewBox="0 0 24 24" fill="none" xmlns="http://www.w3.org/2000/svg">
<path d="M0.220947 16.268C0.761195 16.9519 1.35977 17.5876 2.00995 18.168C2.00795 18.111 1.99995 18.057 1.99995 18C2.00386 16.9851 2.31476 15.9951 2.89178 15.1602C3.46881 14.3253 4.28495 13.6845 5.23295 13.322C5.4073 13.256 5.55975 13.1426 5.67308 12.9946C5.78641 12.8466 5.8561 12.6699 5.8743 12.4843C5.8925 12.2988 5.85848 12.1119 5.77607 11.9447C5.69367 11.7774 5.56616 11.6366 5.40795 11.538C4.9756 11.2709 4.61909 10.8972 4.37255 10.4528C4.12602 10.0085 3.99772 9.5082 3.99995 9C3.99777 8.4174 4.16595 7.84688 4.48381 7.35862C4.80166 6.87037 5.25532 6.48569 5.78896 6.25191C6.32261 6.01814 6.91295 5.94547 7.48736 6.04285C8.06176 6.14023 8.59517 6.40341 9.02195 6.8C9.64709 6.44118 10.3322 6.19891 11.0439 6.085C10.6538 5.53999 10.158 5.07908 9.58602 4.72974C9.01402 4.38039 8.37756 4.14976 7.71455 4.05159C7.05154 3.95341 6.37555 3.9897 5.72686 4.15829C5.07817 4.32688 4.47005 4.62432 3.93874 5.03289C3.40743 5.44146 2.9638 5.9528 2.63428 6.53645C2.30476 7.12009 2.0961 7.76409 2.02072 8.43007C1.94534 9.09606 2.00479 9.77041 2.19553 10.4129C2.38627 11.0555 2.70439 11.653 3.13095 12.17C1.69175 13.1335 0.656267 14.5917 0.220947 16.268ZM23.7789 16.268C23.3441 14.5909 22.3085 13.132 20.8689 12.168C21.2941 11.6509 21.611 11.0535 21.8006 10.4115C21.9903 9.76945 22.049 9.09583 21.9732 8.43067C21.8973 7.76551 21.6885 7.12239 21.3591 6.53955C21.0298 5.9567 20.5866 5.44602 20.0559 5.03788C19.5252 4.62973 18.9179 4.33245 18.2701 4.16371C17.6222 3.99496 16.947 3.9582 16.2847 4.05561C15.6224 4.15301 14.9864 4.38259 14.4145 4.73071C13.8427 5.07882 13.3466 5.53836 12.9559 6.082C13.6677 6.19587 14.3528 6.43814 14.9779 6.797C15.2843 6.51521 15.6461 6.30043 16.0402 6.16638C16.4343 6.03234 16.8521 5.98197 17.2667 6.01851C17.6814 6.05505 18.0839 6.17769 18.4485 6.37859C18.8131 6.57948 19.1317 6.85423 19.3841 7.18526C19.6365 7.51629 19.8171 7.89633 19.9143 8.30109C20.0115 8.70586 20.0232 9.12645 19.9486 9.536C19.8741 9.94554 19.7149 10.335 19.4813 10.6796C19.2477 11.0241 18.9448 11.3161 18.5919 11.537C18.4337 11.6356 18.3062 11.7764 18.2238 11.9437C18.1414 12.1109 18.1074 12.2978 18.1256 12.4833C18.1438 12.6689 18.2135 12.8456 18.3268 12.9936C18.4401 13.1416 18.5926 13.255 18.7669 13.321C19.7151 13.6835 20.5314 14.3245 21.1084 15.1596C21.6854 15.9947 21.9962 16.9849 21.9999 18C21.9999 18.057 21.9919 18.111 21.9899 18.167C22.6401 17.5869 23.2386 16.9515 23.7789 16.268Z" fill="#84829A"/>
<path d="M18.9539 20.284C18.8453 19.2578 18.5127 18.2679 17.9796 17.3842C17.4465 16.5006 16.726 15.7447 15.8689 15.17C16.6041 14.2776 17.0042 13.1562 16.9999 12C16.9994 11.1989 16.8065 10.4096 16.4373 9.69863C16.0681 8.98766 15.5335 8.3758 14.8785 7.91459C14.2234 7.45338 13.4672 7.15631 12.6734 7.04841C11.8795 6.94051 11.0714 7.02493 10.317 7.29456C9.56266 7.56419 8.88412 8.01114 8.33855 8.59778C7.79298 9.18441 7.39636 9.89355 7.18208 10.6655C6.9678 11.4374 6.94214 12.2495 7.10726 13.0334C7.27238 13.8173 7.62345 14.5501 8.1309 15.17C7.27377 15.7447 6.55325 16.5006 6.02019 17.3842C5.48714 18.2679 5.15455 19.2578 5.0459 20.284C5.6807 20.6138 6.3384 20.8975 7.0139 21.133C7.0119 21.088 6.9999 21.046 6.9999 21C7.00409 19.9852 7.31509 18.9953 7.89208 18.1604C8.46907 17.3255 9.28506 16.6847 10.2329 16.322C10.4075 16.2562 10.5602 16.1428 10.6737 15.9946C10.7872 15.8465 10.8571 15.6696 10.8753 15.4839C10.8935 15.2982 10.8593 15.1111 10.7768 14.9437C10.6942 14.7764 10.5664 14.6355 10.4079 14.537C9.97543 14.2703 9.6188 13.8968 9.37224 13.4526C9.12567 13.0083 8.99746 12.5081 8.9999 12C8.9999 11.2043 9.31597 10.4413 9.87858 9.87868C10.4412 9.31607 11.2042 9 11.9999 9C12.7955 9 13.5586 9.31607 14.1212 9.87868C14.6838 10.4413 14.9999 11.2043 14.9999 12C15.0023 12.5081 14.8741 13.0083 14.6276 13.4526C14.381 13.8968 14.0244 14.2703 13.5919 14.537C13.4334 14.6355 13.3056 14.7764 13.223 14.9437C13.1405 15.1111 13.1063 15.2982 13.1245 15.4839C13.1427 15.6696 13.2126 15.8465 13.3261 15.9946C13.4396 16.1428 13.5923 16.2562 13.7669 16.322C14.7147 16.6847 15.5307 17.3255 16.1077 18.1604C16.6847 18.9953 16.9957 19.9852 16.9999 21C16.9999 21.046 16.9879 21.088 16.9869 21.133C17.6621 20.8975 18.3194 20.6138 18.9539 20.284Z" fill="#84829A"/>
</svg>
