<svg width="98" height="98" viewBox="0 0 98 98" fill="none" xmlns="http://www.w3.org/2000/svg">
<g clip-path="url(#clip0_23_100)">
<path d="M49 98C76.062 98 98 76.062 98 49C98 21.938 76.062 0 49 0C21.938 0 0 21.938 0 49C0 76.062 21.938 98 49 98Z" fill="#D35933"/>
<path d="M26.159 31.6639L37.9633 43.2567L32.0892 52.8428L21.2759 42.0294L26.159 31.6639Z" fill="#B54324"/>
<path d="M52.8129 97.8532C77.5578 95.9487 97.1514 75.6636 97.9701 50.6294L70.1597 22.8188L59.6965 30.714L64.0244 35.0419L31.5002 75.8229L52.8129 97.8532Z" fill="#B54324"/>
<path d="M70.7778 25.985H27.2222V54.4446H70.7778V25.985Z" fill="white"/>
<path d="M70.7778 25.985H48.8911V54.4446H70.7778V25.985Z" fill="#D0D1D3"/>
<path d="M68.1382 49.8249H66.1585C66.1585 46.3679 63.3462 43.5556 59.8892 43.5556C56.4322 43.5556 53.6198 46.3679 53.6198 49.8249H51.6401C51.6401 45.2763 55.3408 41.5757 59.8894 41.5757C64.4379 41.5757 68.1382 45.2763 68.1382 49.8249Z" fill="#59595B"/>
<path d="M38.221 76.2222H32.639C31.6293 76.2222 30.8103 75.4035 30.8103 74.3935V67.1616C30.8103 66.1519 31.6289 65.3329 32.639 65.3329H38.221C39.2306 65.3329 40.0493 66.1515 40.0493 67.1616V74.3935C40.0497 75.4035 39.231 76.2222 38.221 76.2222Z" fill="#272525"/>
<path d="M65.3606 76.2222H59.7786C58.769 76.2222 57.95 75.4035 57.95 74.3935V67.1616C57.95 66.1519 58.7686 65.3329 59.7786 65.3329H65.3606C66.3703 65.3329 67.1893 66.1515 67.1893 67.1616V74.3935C67.1893 75.4035 66.3707 76.2222 65.3606 76.2222Z" fill="#272525"/>
<path d="M31.4844 70.7778H66.5156C68.8695 70.7778 70.7778 68.8697 70.7778 66.5156V49H27.2222V66.5156C27.2222 68.8695 29.1305 70.7778 31.4844 70.7778Z" fill="#FFC61B"/>
<path d="M48.8901 49V70.7778H66.5156C68.8695 70.7778 70.7778 68.8697 70.7778 66.5156V49H48.8901Z" fill="#EAA22F"/>
<path d="M27.2222 27.2221H70.7778V24.5685C70.7778 23.0273 69.5283 21.7776 67.9869 21.7776H30.0131C28.4719 21.7776 27.2222 23.0271 27.2222 24.5685V27.2221Z" fill="#FFC61B"/>
<path d="M70.7778 24.5687C70.7778 23.0275 69.5283 21.7778 67.9869 21.7778H48.8901V27.2222H70.7778V24.5687Z" fill="#EAA22F"/>
<path d="M21.8671 42.3182H25.5655C26.0476 42.3182 26.4385 41.9271 26.4385 41.4452V32.3024C26.4385 31.8203 26.0475 31.4294 25.5655 31.4294H21.8671C21.385 31.4294 20.9941 31.8205 20.9941 32.3024V41.4452C20.9941 41.9271 21.385 42.3182 21.8671 42.3182Z" fill="#FFC61B"/>
<path d="M72.4345 42.3182H76.1329C76.615 42.3182 77.0059 41.9271 77.0059 41.4452V32.3024C77.0059 31.8203 76.6148 31.4294 76.1329 31.4294H72.4345C71.9524 31.4294 71.5615 31.8205 71.5615 32.3024V41.4452C71.5613 41.9271 71.9524 42.3182 72.4345 42.3182Z" fill="#EAA22F"/>
<path d="M70.7777 54.4443H57.5791V59.8887H70.7777V54.4443Z" fill="#FF5419"/>
<path d="M40.4208 54.4443H27.2222V59.8887H40.4208V54.4443Z" fill="#FF5419"/>
<path d="M67.3131 62.5286H30.6868V63.5185H67.3131V62.5286Z" fill="#FFEDB5"/>
<path d="M67.3131 65.0033H30.6868V65.9932H67.3131V65.0033Z" fill="#FFEDB5"/>
<path d="M67.3131 67.4781H30.6868V68.4681H67.3131V67.4781Z" fill="#FFEDB5"/>
<path d="M67.3142 62.5286H48.8911V63.5185H67.3142V62.5286Z" fill="#FEE187"/>
<path d="M67.3142 65.0033H48.8911V65.9932H67.3142V65.0033Z" fill="#FEE187"/>
<path d="M67.3142 67.4781H48.8911V68.4681H67.3142V67.4781Z" fill="#FEE187"/>
</g>
<defs>
<clipPath id="clip0_23_100">
<rect width="98" height="98" fill="white"/>
</clipPath>
</defs>
</svg>
