<svg width="27" height="28" viewBox="0 0 27 28" fill="none" xmlns="http://www.w3.org/2000/svg">
<path d="M17.4488 3.30167H9.55125C6.75 3.30167 6.13125 4.74833 5.77125 6.52167L4.5 12.8333H22.5L21.2288 6.52167C20.8688 4.74833 20.25 3.30167 17.4488 3.30167Z" stroke="white" stroke-width="1.5" stroke-linecap="round" stroke-linejoin="round"/>
<path d="M24.7388 23.1233C24.8626 24.4883 23.8051 25.6667 22.4551 25.6667H20.3401C19.1251 25.6667 18.9563 25.13 18.7426 24.465L18.5176 23.765C18.2026 22.8083 18.0001 22.1667 16.3801 22.1667H10.6201C9.00007 22.1667 8.76382 22.89 8.48257 23.765L8.25757 24.465C8.04382 25.13 7.87507 25.6667 6.66007 25.6667H4.54507C3.19507 25.6667 2.13757 24.4883 2.26132 23.1233L2.89132 16.0183C3.04882 14.2683 3.37507 12.8333 6.32257 12.8333H20.6776C23.6251 12.8333 23.9513 14.2683 24.1088 16.0183L24.7388 23.1233Z" stroke="white" stroke-width="1.5" stroke-linecap="round" stroke-linejoin="round"/>
<path d="M4.5 9.33333H3.375" stroke="white" stroke-width="1.5" stroke-linecap="round" stroke-linejoin="round"/>
<path d="M23.625 9.33333H22.5" stroke="white" stroke-width="1.5" stroke-linecap="round" stroke-linejoin="round"/>
<path d="M13.5 3.5V5.83333" stroke="white" stroke-width="1.5" stroke-linecap="round" stroke-linejoin="round"/>
<path d="M11.8125 5.83333H15.1875" stroke="white" stroke-width="1.5" stroke-linecap="round" stroke-linejoin="round"/>
<path d="M6.75 17.5H10.125" stroke="white" stroke-width="1.5" stroke-linecap="round" stroke-linejoin="round"/>
<path d="M16.875 17.5H20.25" stroke="white" stroke-width="1.5" stroke-linecap="round" stroke-linejoin="round"/>
</svg>
