<svg width="167" height="154" viewBox="0 0 167 154" fill="none" xmlns="http://www.w3.org/2000/svg">
<path d="M13.2158 142.097L15.0849 142.089L15.1308 152.809L13.2617 152.817L13.2158 142.097ZM8.66907 146.478L20.0557 146.429L20.0642 148.416L8.67758 148.465L8.66907 146.478Z" fill="#615C7C"/>
<path d="M48.2342 146.308L48.2155 141.947L50.0954 141.939L50.1141 146.3L55.0554 146.279L55.064 148.277L50.1226 148.298L50.1413 152.659L48.2614 152.668L48.2428 148.306L43.6774 148.326L43.6688 146.328L48.2342 146.308Z" fill="#595D7A" fill-opacity="0.26"/>
<path d="M83.2337 146.158L83.2151 141.797L85.0949 141.789L85.1136 146.15L90.055 146.129L90.0635 148.127L85.1221 148.148L85.1408 152.51L83.2609 152.518L83.2423 148.156L78.6769 148.176L78.6683 146.178L83.2337 146.158Z" fill="#595D7A" fill-opacity="0.26"/>
<path d="M13.0846 111.458L13.0659 107.097L14.9458 107.089L14.9644 111.45L19.9058 111.429L19.9143 113.427L14.973 113.448L14.9916 117.81L13.1118 117.818L13.0931 113.456L8.52772 113.476L8.51917 111.478L13.0846 111.458Z" fill="#595D7A" fill-opacity="0.26"/>
<path d="M48.0843 111.309L48.0656 106.947L49.9455 106.939L49.9642 111.301L54.9055 111.279L54.9141 113.277L49.9727 113.299L49.9914 117.66L48.1115 117.668L48.0929 113.307L43.5275 113.326L43.5189 111.328L48.0843 111.309Z" fill="#595D7A" fill-opacity="0.26"/>
<path d="M83.0841 111.159L83.0654 106.797L84.9453 106.789L84.9639 111.151L89.9053 111.13L89.9138 113.128L84.9725 113.149L84.9912 117.51L83.1113 117.518L83.0926 113.157L78.5272 113.176L78.5187 111.178L83.0841 111.159Z" fill="#595D7A" fill-opacity="0.26"/>
<path d="M118.065 106.648L119.934 106.64L119.98 117.36L118.111 117.368L118.065 106.648ZM113.518 111.028L124.905 110.98L124.913 112.967L113.527 113.016L113.518 111.028Z" fill="#595D7A" fill-opacity="0.26"/>
<path d="M12.9349 76.4587L12.9162 72.0974L14.7961 72.0893L14.8148 76.4506L19.7561 76.4295L19.7647 78.4275L14.8233 78.4486L14.842 82.8099L12.9621 82.818L12.9434 78.4567L8.37806 78.4762L8.36951 76.4782L12.9349 76.4587Z" fill="#595D7A" fill-opacity="0.26"/>
<path d="M47.9344 76.3089L47.9157 71.9476L49.7956 71.9395L49.8143 76.3008L54.7556 76.2797L54.7642 78.2777L49.8228 78.2989L49.8415 82.6601L47.9616 82.6682L47.943 78.3069L43.3776 78.3265L43.369 76.3284L47.9344 76.3089Z" fill="#595D7A" fill-opacity="0.26"/>
<path d="M82.9155 71.7977L84.7846 71.7897L84.8305 82.5104L82.9614 82.5184L82.9155 71.7977ZM78.3688 76.1786L89.7554 76.1298L89.7639 78.1171L78.3773 78.1659L78.3688 76.1786Z" fill="#98BE1D"/>
<path d="M117.934 76.0092L117.915 71.6479L119.795 71.6399L119.814 76.0011L124.755 75.98L124.764 77.978L119.822 77.9992L119.841 82.3605L117.961 82.3685L117.942 78.0072L113.377 78.0268L113.369 76.0287L117.934 76.0092Z" fill="#595D7A" fill-opacity="0.26"/>
<path d="M152.933 75.8594L152.915 71.4981L154.795 71.4901L154.813 75.8514L159.755 75.8302L159.763 77.8282L154.822 77.8494L154.841 82.2107L152.961 82.2187L152.942 77.8574L148.377 77.877L148.368 75.879L152.933 75.8594Z" fill="#595D7A" fill-opacity="0.26"/>
<path d="M12.785 41.459L12.7663 37.0977L14.6462 37.0897L14.6649 41.451L19.6062 41.4298L19.6148 43.4279L14.6734 43.449L14.6921 47.8103L12.8122 47.8183L12.7935 43.4571L8.22816 43.4766L8.21961 41.4786L12.785 41.459Z" fill="#595D7A" fill-opacity="0.26"/>
<path d="M47.7848 41.3092L47.7661 36.9479L49.6459 36.9398L49.6646 41.3011L54.606 41.28L54.6145 43.278L49.6732 43.2992L49.6918 47.6605L47.812 47.6685L47.7933 43.3072L43.2279 43.3268L43.2194 41.3287L47.7848 41.3092Z" fill="#595D7A" fill-opacity="0.26"/>
<path d="M82.7656 36.7981L84.6347 36.7901L84.6806 47.5107L82.8115 47.5187L82.7656 36.7981ZM78.2189 41.1789L89.6055 41.1301L89.614 43.1174L78.2274 43.1662L78.2189 41.1789Z" fill="#595D7A" fill-opacity="0.26"/>
<path d="M117.765 36.6483L119.634 36.6403L119.68 47.3609L117.811 47.3689L117.765 36.6483ZM113.219 41.0291L124.605 40.9804L124.614 42.9677L113.227 43.0164L113.219 41.0291Z" fill="#595D7A" fill-opacity="0.26"/>
<path d="M152.784 40.8597L152.765 36.4984L154.645 36.4904L154.664 40.8517L159.605 40.8305L159.614 42.8286L154.672 42.8497L154.691 47.211L152.811 47.219L152.792 42.8577L148.227 42.8773L148.218 40.8793L152.784 40.8597Z" fill="#595D7A" fill-opacity="0.26"/>
<path d="M12.6351 6.45933L12.6164 2.09804L14.4963 2.09L14.515 6.45128L19.4563 6.43013L19.4649 8.42816L14.5235 8.44931L14.5422 12.8106L12.6623 12.8186L12.6436 8.45736L8.07826 8.4769L8.0697 6.47887L12.6351 6.45933Z" fill="#595D7A" fill-opacity="0.26"/>
<path d="M47.6348 6.30952L47.6162 1.94823L49.496 1.94018L49.5147 6.30147L54.4561 6.28032L54.4646 8.27835L49.5233 8.2995L49.5419 12.6608L47.6621 12.6688L47.6434 8.30755L43.078 8.32709L43.0695 6.32906L47.6348 6.30952Z" fill="#595D7A" fill-opacity="0.26"/>
<path d="M82.6346 6.15968L82.6159 1.79839L84.4958 1.79034L84.5145 6.15163L89.4558 6.13048L89.4644 8.12851L84.523 8.14966L84.5417 12.5109L82.6618 12.519L82.6432 8.15771L78.0778 8.17725L78.0692 6.17922L82.6346 6.15968Z" fill="#595D7A" fill-opacity="0.26"/>
<path d="M117.634 6.00987L117.615 1.64858L119.495 1.64053L119.514 6.00182L124.455 5.98067L124.464 7.9787L119.523 7.99985L119.541 12.3611L117.661 12.3692L117.643 8.0079L113.077 8.02744L113.069 6.02941L117.634 6.00987Z" fill="#595D7A" fill-opacity="0.26"/>
<path d="M152.634 5.86006L152.615 1.49877L154.495 1.49072L154.514 5.85201L159.455 5.83086L159.464 7.82889L154.522 7.85004L154.541 12.2113L152.661 12.2194L152.642 7.85809L148.077 7.87763L148.068 5.8796L152.634 5.86006Z" fill="#595D7A" fill-opacity="0.26"/>
</svg>
