<svg width="134" height="146" viewBox="0 0 134 146" fill="none" xmlns="http://www.w3.org/2000/svg">
<path d="M11.5586 132.79V130.92H0.837891V132.79H11.5586ZM7.19727 137.355V125.968H5.20996V137.355H7.19727Z" fill="#615C7C"/>
<path d="M11.5586 102.133V100.264H0.837891V102.133H11.5586ZM7.19727 106.698V95.3116H5.20996V106.698H7.19727Z" fill="#595D7A" fill-opacity="0.26"/>
<path d="M11.5586 71.4763V69.6072H0.837891V71.4763H11.5586ZM7.19727 76.0417V64.655H5.20996V76.0417H7.19727Z" fill="#595D7A" fill-opacity="0.26"/>
<path d="M42.2153 132.79V130.92H31.4946V132.79H42.2153ZM37.854 137.355V125.968H35.8667V137.355H37.854Z" fill="#595D7A" fill-opacity="0.26"/>
<path d="M42.2153 102.133V100.264H31.4946V102.133H42.2153ZM37.854 106.698V95.3116H35.8667V106.698H37.854Z" fill="#595D7A" fill-opacity="0.26"/>
<path d="M42.2153 71.4763V69.6072H31.4946V71.4763H42.2153ZM37.854 76.0417V64.655H35.8667V76.0417H37.854Z" fill="#595D7A" fill-opacity="0.26"/>
<path d="M42.2153 40.8197V38.9506H31.4946V40.8197H42.2153ZM37.854 45.3851V33.9984H35.8667V45.3851H37.854Z" fill="#595D7A" fill-opacity="0.26"/>
<path d="M72.8716 132.79V130.92H62.1509V132.79H72.8716ZM68.5103 137.355V125.968H66.5229V137.355H68.5103Z" fill="#595D7A" fill-opacity="0.26"/>
<path d="M72.8716 102.133V100.264H62.1509V102.133H72.8716ZM68.5103 106.698V95.3116H66.5229V106.698H68.5103Z" fill="#595D7A" fill-opacity="0.26"/>
<path d="M72.8716 71.4763V69.6072H62.1509V71.4763H72.8716ZM68.5103 76.0417V64.655H66.5229V76.0417H68.5103Z" fill="#98BE1D"/>
<path d="M72.8716 40.8197V38.9506H62.1509V40.8197H72.8716ZM68.5103 45.3851V33.9984H66.5229V45.3851H68.5103Z" fill="#595D7A" fill-opacity="0.26"/>
<path d="M72.8716 10.1631V8.29397H62.1509V10.1631H72.8716ZM68.5103 14.7285V3.34182H66.5229V14.7285H68.5103Z" fill="#595D7A" fill-opacity="0.26"/>
<path d="M103.528 132.79V130.92H92.8076V132.79H103.528ZM99.167 137.355V125.968H97.1797V137.355H99.167Z" fill="#595D7A" fill-opacity="0.26"/>
<path d="M103.528 102.133V100.264H92.8076V102.133H103.528ZM99.167 106.698V95.3116H97.1797V106.698H99.167Z" fill="#595D7A" fill-opacity="0.26"/>
<path d="M103.528 71.4763V69.6072H92.8076V71.4763H103.528ZM99.167 76.0417V64.655H97.1797V76.0417H99.167Z" fill="#595D7A" fill-opacity="0.26"/>
<path d="M103.528 40.8197V38.9506H92.8076V40.8197H103.528ZM99.167 45.3851V33.9984H97.1797V45.3851H99.167Z" fill="#595D7A" fill-opacity="0.26"/>
<path d="M103.528 10.1631V8.29397H92.8076V10.1631H103.528ZM99.167 14.7285V3.34182H97.1797V14.7285H99.167Z" fill="#595D7A" fill-opacity="0.26"/>
<path d="M134.185 132.79V130.92H123.464V132.79H134.185ZM129.823 137.355V125.968H127.836V137.355H129.823Z" fill="#595D7A" fill-opacity="0.26"/>
<path d="M134.185 102.133V100.264H123.464V102.133H134.185ZM129.823 106.698V95.3116H127.836V106.698H129.823Z" fill="#595D7A" fill-opacity="0.26"/>
<path d="M134.185 71.4763V69.6072H123.464V71.4763H134.185ZM129.823 76.0417V64.655H127.836V76.0417H129.823Z" fill="#595D7A" fill-opacity="0.26"/>
<path d="M134.185 40.8197V38.9506H123.464V40.8197H134.185ZM129.823 45.3851V33.9984H127.836V45.3851H129.823Z" fill="#595D7A" fill-opacity="0.26"/>
<path d="M134.185 10.1631V8.29397H123.464V10.1631H134.185ZM129.823 14.7285V3.34182H127.836V14.7285H129.823Z" fill="#595D7A" fill-opacity="0.26"/>
</svg>
