<svg width="89" height="80" viewBox="0 0 89 80" fill="none" xmlns="http://www.w3.org/2000/svg">
<path d="M8.74126 42.2155C6.40377 42.2155 4.48437 41.6644 2.98306 40.5621C1.48175 39.4409 0.674082 37.8446 0.560059 35.7731H6.51779C6.57481 36.4763 6.78385 36.9894 7.14492 37.3125C7.506 37.6355 7.9716 37.7971 8.54171 37.7971C9.05482 37.7971 9.47291 37.6735 9.79597 37.4265C10.138 37.1604 10.3091 36.7994 10.3091 36.3433C10.3091 35.7541 10.0335 35.2981 9.48241 34.975C8.93129 34.6519 8.03811 34.2908 6.80285 33.8918C5.49158 33.4547 4.42736 33.0366 3.61019 32.6375C2.81203 32.2194 2.10888 31.6208 1.50075 30.8416C0.911631 30.0435 0.61707 29.0077 0.61707 27.7345C0.61707 26.4422 0.940137 25.34 1.58627 24.4278C2.23241 23.4966 3.12559 22.7935 4.26583 22.3184C5.40606 21.8433 6.69833 21.6057 8.14263 21.6057C10.4801 21.6057 12.3425 22.1568 13.7298 23.2591C15.1361 24.3423 15.8867 25.8721 15.9818 27.8485H9.91C9.89099 27.2404 9.70095 26.7843 9.33988 26.4802C8.99781 26.1762 8.55122 26.0241 8.0001 26.0241C7.58201 26.0241 7.23994 26.1477 6.97389 26.3947C6.70783 26.6418 6.57481 26.9933 6.57481 27.4494C6.57481 27.8295 6.71734 28.1621 7.00239 28.4471C7.30646 28.7132 7.67703 28.9507 8.11412 29.1598C8.55122 29.3498 9.19735 29.5969 10.0525 29.9009C11.3258 30.338 12.371 30.7751 13.1882 31.2122C14.0244 31.6303 14.737 32.2289 15.3261 33.0081C15.9342 33.7682 16.2383 34.7374 16.2383 35.9157C16.2383 37.1129 15.9342 38.1867 15.3261 39.1368C14.737 40.087 13.8723 40.8377 12.7321 41.3888C11.6109 41.9399 10.2806 42.2155 8.74126 42.2155Z" fill="#303030"/>
<path d="M36.8229 21.9193V42.0159H31.2358V33.9488H24.4228V42.0159H18.8357V21.9193H24.4228V29.4733H31.2358V21.9193H36.8229Z" fill="#303030"/>
<path d="M45.4934 21.9193V33.5782C45.4934 34.6614 45.7404 35.4976 46.2345 36.0867C46.7477 36.6758 47.5173 36.9704 48.5435 36.9704C49.5697 36.9704 50.3394 36.6758 50.8525 36.0867C51.3846 35.4786 51.6507 34.6424 51.6507 33.5782V21.9193H57.2378V33.5782C57.2378 35.4216 56.8482 36.9989 56.0691 38.3102C55.2899 39.6024 54.2257 40.5811 52.8764 41.2463C51.5461 41.8924 50.0638 42.2155 48.4295 42.2155C46.7952 42.2155 45.3319 41.8924 44.0396 41.2463C42.7663 40.5811 41.7591 39.6024 41.018 38.3102C40.2958 37.0179 39.9347 35.4406 39.9347 33.5782V21.9193H45.4934Z" fill="#303030"/>
<path d="M70.4906 42.0159L66.4998 34.6044H65.9012V42.0159H60.314V21.9193H69.1223C70.7377 21.9193 72.106 22.2043 73.2272 22.7745C74.3484 23.3256 75.1941 24.0952 75.7642 25.0834C76.3343 26.0526 76.6194 27.1454 76.6194 28.3616C76.6194 29.7299 76.2393 30.9366 75.4792 31.9819C74.738 33.0081 73.6453 33.7397 72.201 34.1768L76.7334 42.0159H70.4906ZM65.9012 30.7846H68.6662C69.4264 30.7846 69.9965 30.6041 70.3766 30.243C70.7567 29.8819 70.9467 29.3593 70.9467 28.6752C70.9467 28.029 70.7472 27.5254 70.3481 27.1644C69.968 26.7843 69.4074 26.5942 68.6662 26.5942H65.9012V30.7846Z" fill="#303030"/>
<path d="M84.7474 21.9193V42.0159H79.1602V21.9193H84.7474Z" fill="#303030"/>
<path d="M9.71232 75.534L8.09065 79.9556H7.01376L5.39209 75.534H6.34229L7.55854 79.0498L8.76846 75.534H9.71232Z" fill="#303030"/>
<path d="M11.4476 75.534V79.9556H10.5608V75.534H11.4476Z" fill="#303030"/>
<path d="M14.1672 80C13.8589 80 13.5802 79.9472 13.331 79.8416C13.0861 79.736 12.8918 79.584 12.7482 79.3855C12.6047 79.187 12.5308 78.9526 12.5265 78.6824H13.4767C13.4894 78.864 13.5527 79.0075 13.6668 79.1131C13.785 79.2187 13.9455 79.2715 14.1482 79.2715C14.3551 79.2715 14.5177 79.2229 14.636 79.1258C14.7542 79.0244 14.8133 78.8935 14.8133 78.733C14.8133 78.6021 14.7732 78.4944 14.693 78.41C14.6127 78.3255 14.5114 78.2601 14.3889 78.2136C14.2707 78.1629 14.106 78.108 13.8948 78.0489C13.6076 77.9644 13.3733 77.8821 13.1917 77.8019C13.0143 77.7174 12.8602 77.5928 12.7292 77.4281C12.6026 77.2592 12.5392 77.0354 12.5392 76.7566C12.5392 76.4948 12.6047 76.2668 12.7356 76.0725C12.8665 75.8782 13.0502 75.7304 13.2867 75.6291C13.5232 75.5235 13.7935 75.4707 14.0975 75.4707C14.5536 75.4707 14.9231 75.5826 15.2061 75.8064C15.4933 76.026 15.6516 76.3343 15.6812 76.7313H14.7057C14.6972 76.5793 14.6318 76.4547 14.5093 76.3576C14.391 76.2562 14.2327 76.2055 14.0342 76.2055C13.861 76.2055 13.7217 76.2499 13.6161 76.3385C13.5147 76.4272 13.4641 76.556 13.4641 76.725C13.4641 76.8432 13.5021 76.9425 13.5781 77.0227C13.6583 77.0987 13.7555 77.1621 13.8695 77.2127C13.9877 77.2592 14.1524 77.3141 14.3636 77.3774C14.6508 77.4619 14.8851 77.5464 15.0667 77.6308C15.2483 77.7153 15.4046 77.842 15.5355 78.0109C15.6664 78.1798 15.7319 78.4015 15.7319 78.676C15.7319 78.9125 15.6706 79.1321 15.5482 79.3348C15.4257 79.5375 15.2462 79.7001 15.0097 79.8226C14.7732 79.9409 14.4924 80 14.1672 80Z" fill="#303030"/>
<path d="M17.7043 75.534V79.9556H16.8175V75.534H17.7043Z" fill="#303030"/>
<path d="M21.9062 75.534V76.2499H20.728V79.9556H19.8411V76.2499H18.6629V75.534H21.9062Z" fill="#303030"/>
<path d="M31.9657 79.2526H33.4227V79.9557H31.0789V75.5342H31.9657V79.2526Z" fill="#303030"/>
<path d="M35.1899 76.25V77.3585H36.6786V78.0617H35.1899V79.2336H36.8686V79.9557H34.3031V75.5278H36.8686V76.25H35.1899Z" fill="#303030"/>
<path d="M40.7025 79.1132H38.9415L38.6501 79.9557H37.7189L39.3089 75.5278H40.3414L41.9314 79.9557H40.9939L40.7025 79.1132ZM40.4618 78.4038L39.822 76.554L39.1822 78.4038H40.4618Z" fill="#303030"/>
<path d="M45.123 79.9557L44.1474 78.2327H43.7293V79.9557H42.8425V75.5342H44.5022C44.8442 75.5342 45.1356 75.5954 45.3764 75.7179C45.6171 75.8361 45.7966 75.9987 45.9148 76.2056C46.0373 76.4083 46.0985 76.6364 46.0985 76.8898C46.0985 77.1812 46.014 77.4451 45.8451 77.6816C45.6762 77.9139 45.4249 78.0744 45.0913 78.163L46.1492 79.9557H45.123ZM43.7293 77.5676H44.4705C44.7112 77.5676 44.8907 77.5106 45.0089 77.3966C45.1272 77.2783 45.1863 77.1157 45.1863 76.9088C45.1863 76.7061 45.1272 76.5498 45.0089 76.44C44.8907 76.326 44.7112 76.269 44.4705 76.269H43.7293V77.5676Z" fill="#303030"/>
<path d="M50.9991 79.9557H50.1123L48.1042 76.9215V79.9557H47.2174V75.5278H48.1042L50.1123 78.5685V75.5278H50.9991V79.9557Z" fill="#303030"/>
<path d="M61.2636 76.2499V77.3584H62.7522V78.0616H61.2636V79.2335H62.9422V79.9556H60.3767V75.5277H62.9422V76.2499H61.2636Z" fill="#303030"/>
<path d="M67.8467 79.9556H66.9598L64.9518 76.9213V79.9556H64.0649V75.5277H64.9518L66.9598 78.5683V75.5277H67.8467V79.9556Z" fill="#303030"/>
<path d="M71.618 75.534V78.638C71.618 79.0688 71.4935 79.4045 71.2443 79.6452C70.9951 79.8817 70.6615 80 70.2434 80C69.8211 80 69.479 79.8775 69.2172 79.6326C68.9596 79.3876 68.8308 79.0456 68.8308 78.6064H69.7176C69.7219 78.7964 69.7662 78.9442 69.8507 79.0498C69.9394 79.1554 70.066 79.2081 70.2307 79.2081C70.3912 79.2081 70.5137 79.1575 70.5982 79.0561C70.6826 78.9548 70.7249 78.8154 70.7249 78.638V75.534H71.618Z" fill="#303030"/>
<path d="M75.0217 80C74.6079 80 74.2278 79.9028 73.8815 79.7086C73.5352 79.5143 73.2607 79.2462 73.058 78.9041C72.8553 78.5578 72.7539 78.1672 72.7539 77.7322C72.7539 77.3014 72.8553 76.915 73.058 76.5729C73.2607 76.2266 73.5352 75.9564 73.8815 75.7621C74.2278 75.5678 74.6079 75.4707 75.0217 75.4707C75.4398 75.4707 75.8199 75.5678 76.162 75.7621C76.5083 75.9564 76.7806 76.2266 76.9791 76.5729C77.1818 76.915 77.2832 77.3014 77.2832 77.7322C77.2832 78.1672 77.1818 78.5578 76.9791 78.9041C76.7806 79.2462 76.5083 79.5143 76.162 79.7086C75.8157 79.9028 75.4356 80 75.0217 80ZM75.0217 79.2081C75.2878 79.2081 75.5222 79.149 75.7249 79.0308C75.9276 78.9083 76.0859 78.7352 76.2 78.5113C76.314 78.2875 76.371 78.0278 76.371 77.7322C76.371 77.4366 76.314 77.1789 76.2 76.9593C76.0859 76.7355 75.9276 76.5645 75.7249 76.4462C75.5222 76.328 75.2878 76.2689 75.0217 76.2689C74.7557 76.2689 74.5192 76.328 74.3122 76.4462C74.1095 76.5645 73.9512 76.7355 73.8371 76.9593C73.7231 77.1789 73.6661 77.4366 73.6661 77.7322C73.6661 78.0278 73.7231 78.2875 73.8371 78.5113C73.9512 78.7352 74.1095 78.9083 74.3122 79.0308C74.5192 79.149 74.7557 79.2081 75.0217 79.2081Z" fill="#303030"/>
<path d="M81.7754 75.534L80.2805 78.4163V79.9556H79.3936V78.4163L77.8923 75.534H78.8932L79.8434 77.5548L80.7872 75.534H81.7754Z" fill="#303030"/>
<path d="M82 0C78.13 0 75 2.9735 75 6.65C75 11.6375 82 19 82 19C82 19 89 11.6375 89 6.65C89 2.9735 85.87 0 82 0ZM82 9.025C80.62 9.025 79.5 7.961 79.5 6.65C79.5 5.339 80.62 4.275 82 4.275C83.38 4.275 84.5 5.339 84.5 6.65C84.5 7.961 83.38 9.025 82 9.025Z" fill="#98BE1D"/>
<circle cx="26.1876" cy="77.8771" r="1.08877" fill="#98BE1D"/>
<circle cx="55.6835" cy="77.8771" r="1.08877" fill="#98BE1D"/>
<path fill-rule="evenodd" clip-rule="evenodd" d="M25.2331 68.1441C23.5346 68.1441 21.9734 67.7495 20.5494 66.9603C19.1254 66.154 17.9931 65.0474 17.1524 63.6406C16.3289 62.2166 15.9172 60.6125 15.9172 58.8282C15.9172 57.044 16.3289 55.4484 17.1524 54.0416C17.9931 52.6176 19.1254 51.5111 20.5494 50.7219C21.9734 49.9327 23.5346 49.5381 25.2331 49.5381C26.9487 49.5381 28.5099 49.9327 29.9168 50.7219C31.3407 51.5111 32.4645 52.6176 33.288 54.0416C34.1115 55.4484 34.5232 57.044 34.5232 58.8282C34.5232 60.6125 34.1115 62.2166 33.288 63.6406C32.4645 65.0474 31.3407 66.154 29.9168 66.9603C28.4928 67.7495 26.9316 68.1441 25.2331 68.1441ZM25.2331 63.4605C26.5198 63.4605 27.532 63.0401 28.2698 62.1995C29.0246 61.3588 29.4021 60.2351 29.4021 58.8282C29.4021 57.3871 29.0246 56.2548 28.2698 55.4313C27.532 54.5906 26.5198 54.1703 25.2331 54.1703C23.9292 54.1703 22.9084 54.5906 22.1707 55.4313C21.433 56.2548 21.0641 57.3871 21.0641 58.8282C21.0641 60.2522 21.433 61.3845 22.1707 62.2252C22.9084 63.0487 23.9292 63.4605 25.2331 63.4605ZM14.6687 49.8212V53.8357H9.83058V67.964H4.78662V64.0042C5.05171 64.0048 5.27021 64.0051 5.4305 64.0051C6.36779 64.0051 6.53745 63.5658 6.70929 63.1209L6.70932 63.1208C6.7333 63.0587 6.75733 62.9965 6.78349 62.9354C6.78349 62.9354 7.28196 60.6533 6.99712 58.3C6.99712 58.3 6.41609 54.4692 4.73496 53.0454H6.85887C7.61893 53.0454 7.85588 53.6738 7.89366 54.1149C7.90457 54.2423 7.79711 54.3411 7.66926 54.3411C7.53406 54.3411 7.42446 54.4507 7.42446 54.5859V55.8605C7.42446 56.0948 7.61438 56.2847 7.84866 56.2847C8.08293 56.2847 8.27285 56.0949 8.27285 55.8606V54.0982C8.27285 53.0616 7.3302 52.7485 6.85887 52.7215H4.24886C4.01919 52.6076 3.77249 52.5379 3.50782 52.5235H1.58515H0V49.8212H14.6687ZM41.7317 60.3466V49.8212H36.7135V60.3466C36.7135 62.0279 37.0395 63.4519 37.6914 64.6185C38.3605 65.7851 39.2698 66.6687 40.4193 67.2692C41.5859 67.8525 42.9069 68.1441 44.3824 68.1441C45.8578 68.1441 47.196 67.8525 48.3969 67.2692C49.615 66.6687 50.5758 65.7851 51.2792 64.6185C51.9826 63.4347 52.3343 62.0107 52.3343 60.3466V49.8212H47.2904V60.3466C47.2904 61.3073 47.0502 62.0622 46.5698 62.6112C46.1066 63.1431 45.4117 63.409 44.4853 63.409C43.5589 63.409 42.864 63.1431 42.4008 62.6112C41.9547 62.0794 41.7317 61.3245 41.7317 60.3466ZM60.6958 61.273H60.1554V67.964H55.1114V49.8212H63.0634C64.5217 49.8212 65.7569 50.0785 66.7692 50.5932C67.7814 51.0907 68.5449 51.7856 69.0595 52.6777C69.5742 53.5527 69.8316 54.5392 69.8316 55.6372C69.8316 56.8724 69.4884 57.9618 68.8022 58.9054C68.1331 59.8319 67.1466 60.4924 65.8427 60.887L69.9345 67.964H64.2987L60.6958 61.273ZM60.1554 57.8246H62.6517C63.3379 57.8246 63.8526 57.6616 64.1957 57.3356C64.5388 57.0097 64.7104 56.5379 64.7104 55.9202C64.7104 55.3369 64.5303 54.8823 64.17 54.5563C63.8269 54.2132 63.3207 54.0416 62.6517 54.0416H60.1554V57.8246ZM73.7724 66.6515C75.1277 67.6466 76.8605 68.1441 78.9707 68.1441C80.3604 68.1441 81.5613 67.8954 82.5736 67.3978C83.603 66.9003 84.3836 66.2226 84.9154 65.3648C85.4644 64.507 85.7389 63.5377 85.7389 62.4568C85.7389 61.3931 85.4644 60.5181 84.9154 59.8319C84.3836 59.1285 83.7402 58.5881 82.9853 58.2106C82.2476 57.816 81.304 57.4214 80.1545 57.0268C79.3825 56.7523 78.7992 56.5293 78.4046 56.3577C78.01 56.169 77.6754 55.9546 77.4009 55.7144C77.1436 55.457 77.0149 55.1568 77.0149 54.8137C77.0149 54.4019 77.135 54.0845 77.3752 53.8615C77.6154 53.6384 77.9242 53.5269 78.3016 53.5269C78.7992 53.5269 79.2024 53.6642 79.5112 53.9387C79.8371 54.2132 80.0087 54.6249 80.0259 55.1739H85.5073C85.4215 53.3897 84.7439 52.0086 83.4743 51.0307C82.2219 50.0356 80.5406 49.5381 78.4303 49.5381C77.1264 49.5381 75.9598 49.7525 74.9304 50.1814C73.901 50.6104 73.0947 51.2451 72.5114 52.0858C71.9281 52.9093 71.6364 53.9044 71.6364 55.071C71.6364 56.2205 71.9023 57.1555 72.4342 57.8761C72.9832 58.5795 73.618 59.1199 74.3385 59.4973C75.0763 59.8576 76.037 60.2351 77.2208 60.6297C78.336 60.9899 79.1423 61.3159 79.6398 61.6076C80.1374 61.8992 80.3861 62.311 80.3861 62.8428C80.3861 63.2546 80.2317 63.5805 79.9229 63.8207C79.6313 64.0438 79.2538 64.1553 78.7906 64.1553C78.2759 64.1553 77.8556 64.0095 77.5296 63.7178C77.2036 63.4261 77.0149 62.9629 76.9635 62.3281H71.5849C71.6879 64.1982 72.417 65.6393 73.7724 66.6515Z" fill="#98BE1D"/>
</svg>
