<svg width="22" height="22" viewBox="0 0 22 22" fill="none" xmlns="http://www.w3.org/2000/svg">
<path d="M1.8335 20.1666H20.1668" stroke="#98BE1D" stroke-width="1.5" stroke-miterlimit="10" stroke-linecap="round" stroke-linejoin="round"/>
<path d="M2.7041 20.1667L2.74993 9.13918C2.74993 8.58001 3.01577 8.04839 3.45577 7.70006L9.87244 2.70421C10.5324 2.19088 11.4583 2.19088 12.1274 2.70421L18.5441 7.69088C18.9933 8.03922 19.2499 8.57084 19.2499 9.13918V20.1667" stroke="#98BE1D" stroke-width="1.5" stroke-miterlimit="10" stroke-linejoin="round"/>
<path d="M11.9168 15.5834H10.0835C9.32266 15.5834 8.7085 16.1975 8.7085 16.9584V20.1667H13.2918V16.9584C13.2918 16.1975 12.6777 15.5834 11.9168 15.5834Z" stroke="#98BE1D" stroke-width="1.5" stroke-miterlimit="10" stroke-linejoin="round"/>
<path d="M8.7085 12.6042H6.87516C6.371 12.6042 5.9585 12.1917 5.9585 11.6875V10.3125C5.9585 9.80837 6.371 9.39587 6.87516 9.39587H8.7085C9.21266 9.39587 9.62516 9.80837 9.62516 10.3125V11.6875C9.62516 12.1917 9.21266 12.6042 8.7085 12.6042Z" stroke="#98BE1D" stroke-width="1.5" stroke-miterlimit="10" stroke-linejoin="round"/>
<path d="M15.125 12.6042H13.2917C12.7875 12.6042 12.375 12.1917 12.375 11.6875V10.3125C12.375 9.80837 12.7875 9.39587 13.2917 9.39587H15.125C15.6292 9.39587 16.0417 9.80837 16.0417 10.3125V11.6875C16.0417 12.1917 15.6292 12.6042 15.125 12.6042Z" stroke="#98BE1D" stroke-width="1.5" stroke-miterlimit="10" stroke-linejoin="round"/>
<path d="M17.4168 6.41663L17.3893 3.66663H13.356" stroke="#98BE1D" stroke-width="1.5" stroke-miterlimit="10" stroke-linecap="round" stroke-linejoin="round"/>
</svg>
