<svg width="17" height="15" viewBox="0 0 17 15" fill="none" xmlns="http://www.w3.org/2000/svg">
<path d="M16.9038 2.01819L16.9039 2.01829C17.0622 2.12584 17.1347 2.32218 17.0841 2.50672L17.084 2.50683C17.0617 2.58797 16.9883 2.75877 16.7463 3.07226C16.5072 3.38201 16.0999 3.83553 15.4052 4.48454C15.4095 5.13428 15.3321 7.13504 14.3395 9.21145C13.3209 11.3421 11.3401 13.548 7.512 14.4552L7.51007 14.4557L7.51006 14.4557C7.42809 14.4734 6.61379 14.6432 5.46654 14.6432C3.95119 14.6432 1.84248 14.347 0.0758412 12.9987C0.0758175 12.9987 0.0757937 12.9987 0.07577 12.9987L0.13644 12.9192C0.00903948 12.8221 -0.0350211 12.6503 0.0293598 12.5038L16.9038 2.01819ZM16.9038 2.01819C16.7452 1.91092 16.5358 1.91623 16.3831 2.03214L16.9038 2.01819ZM16.1991 2.13564C16.2734 2.10255 16.3358 2.06791 16.383 2.03224L16.1991 2.13564ZM16.1991 2.13564C16.6101 1.55991 16.6264 1.16845 16.6187 1.04705L16.6187 1.04702C16.6082 0.884399 16.51 0.74047 16.3628 0.671099L16.3624 0.670918C16.2148 0.602148 16.0416 0.618311 15.9099 0.714019L15.9098 0.714029C15.226 1.21089 14.5458 1.33113 14.1211 1.34957C13.4316 0.70819 12.544 0.356787 11.6014 0.356787C9.54373 0.356787 7.87205 2.05246 7.87205 4.13407C7.87205 4.26356 7.87862 4.39281 7.89159 4.52136C6.25862 4.45871 4.77557 3.65887 3.6843 2.85378C3.12703 2.44265 2.67458 2.03211 2.35976 1.72228C2.2024 1.56742 2.07957 1.43786 1.99536 1.34615C1.95326 1.30029 1.92083 1.26392 1.89857 1.23859L1.87291 1.2091L1.86597 1.20099L1.86403 1.19869L1.86348 1.19804C1.86334 1.19787 1.86329 1.19781 1.86331 1.19784L1.86321 1.19772C1.77033 1.08643 1.6285 1.02495 1.48087 1.03889C1.33572 1.05167 1.20565 1.13453 1.1328 1.2608L1.13279 1.26083C0.249725 2.7929 0.63825 4.16557 1.15918 5.08228C1.06783 5.06648 0.972052 5.07912 0.885769 5.12159L0.885727 5.12161C0.735198 5.19578 0.638958 5.34766 0.636136 5.51539L0.636135 5.51545C0.611103 7.05222 1.2845 7.99721 1.98524 8.56002C1.95607 8.5795 1.92895 8.60259 1.90459 8.6291M16.1991 2.13564L4.20942 11.5154C3.39041 11.2592 2.28319 10.6247 1.80581 9.06211L1.80581 9.06207C1.7595 8.91033 1.79729 8.74559 1.90459 8.6291M1.90459 8.6291C1.90461 8.62908 1.90463 8.62906 1.90464 8.62904L1.97818 8.69681L1.90454 8.62916C1.90456 8.62914 1.90457 8.62912 1.90459 8.6291ZM14.6507 3.96507L14.6507 3.96507C14.9392 3.69981 15.1759 3.47039 15.3702 3.27324C15.1092 3.31444 14.9103 3.33194 14.8565 3.33623C14.6618 3.35376 14.4758 3.23696 14.404 3.05367L14.404 3.05363C14.3322 2.87009 14.3892 2.66106 14.5441 2.53929L14.5442 2.53926C14.742 2.38389 14.9068 2.23857 15.0441 2.10454C14.588 2.22659 14.1946 2.24827 13.9343 2.24579L13.9334 2.24578C13.8153 2.24356 13.7027 2.19502 13.6203 2.10999C13.0822 1.55544 12.3656 1.2507 11.6013 1.2507C10.0394 1.2507 8.76589 2.54271 8.76589 4.1341C8.76589 4.37694 8.79586 4.61915 8.85485 4.85409C8.88739 4.98328 8.86049 5.12012 8.78169 5.22743L8.78166 5.22747C8.70282 5.33473 8.58021 5.40153 8.44719 5.40919L8.44716 5.40919C6.80398 5.50339 5.3092 4.93415 4.11144 4.22327C3.00161 3.56458 2.14125 2.78105 1.64609 2.27915C1.34267 3.17464 1.56031 3.96765 1.87651 4.55867C2.2107 5.18332 2.65155 5.57471 2.68677 5.60531L2.68686 5.60538C2.81831 5.71983 2.87166 5.90031 2.82293 6.06765L2.82291 6.06771C2.77414 6.23482 2.63303 6.35892 2.46036 6.38473C2.46035 6.38473 2.46034 6.38473 2.46032 6.38473L2.44555 6.28583L14.6507 3.96507ZM14.6507 3.96507C14.5509 4.05684 14.4984 4.1891 14.5075 4.32426L14.6073 4.31751L14.5075 4.32392C14.5083 4.33622 14.6238 6.19891 13.7941 8.27359L13.887 8.31072L13.7941 8.27359C12.6885 11.0383 10.5108 12.8257 7.31401 13.5836C7.24331 13.5982 4.58134 14.1368 2.10925 13.1324C3.19149 13.0274 4.54551 12.6501 5.53447 11.5399C5.65284 11.4071 5.67936 11.2069 5.60776 11.0475L5.60772 11.0474C5.53782 10.8922 5.38067 10.7723 5.19942 10.7723H5.19941H5.1994H5.19939H5.19939H5.19938H5.19937H5.19936H5.19936H5.19935H5.19934H5.19933H5.19932H5.19932H5.19931H5.1993H5.19929H5.19929H5.19928H5.19927H5.19926H5.19925H5.19925H5.19924H5.19923H5.19922H5.19921H5.19921H5.1992H5.19919H5.19918H5.19917H5.19917H5.19916H5.19915H5.19914H5.19914H5.19913H5.19912H5.19911H5.1991H5.1991H5.19909H5.19908H5.19907H5.19906H5.19906H5.19905H5.19904H5.19903H5.19902H5.19902H5.19901H5.199H5.19899H5.19898H5.19897H5.19897H5.19896H5.19895H5.19894H5.19893H5.19893H5.19892H5.19891H5.1989H5.19889H5.19888H5.19888H5.19887H5.19886H5.19885H5.19884H5.19884H5.19883H5.19882H5.19881H5.1988H5.19879H5.19879H5.19878H5.19877H5.19876H5.19875H5.19874H5.19874H5.19873H5.19872H5.19871H5.1987H5.19869H5.19869H5.19868H5.19867H5.19866H5.19865H5.19864H5.19863H5.19863H5.19862H5.19861H5.1986H5.19859H5.19858H5.19857H5.19857H5.19856H5.19855H5.19854H5.19853H5.19852H5.19851H5.1985H5.1985H5.19849H5.19848H5.19847H5.19846H5.19845H5.19844H5.19843H5.19843H5.19842H5.19841H5.1984H5.19839H5.19838H5.19837H5.19836H5.19835H5.19835H5.19834H5.19833H5.19832H5.19831H5.1983H5.19829H5.19828H5.19827H5.19826H5.19826H5.19825H5.19824H5.19823H5.19822H5.19821H5.1982H5.19819H5.19818H5.19817H5.19816H5.19815H5.19814H5.19813H5.19813H5.19812H5.19811H5.1981H5.19809H5.19808H5.19807H5.19806H5.19805H5.19804H5.19803H5.19802H5.19801H5.198H5.19799H5.19798H5.19797H5.19796H5.19795H5.19794H5.19793H5.19792H5.19792H5.19791H5.1979H5.19789H5.19788H5.19787H5.19786H5.19785H5.19784H5.19783H5.19782H5.19781H5.1978H5.19779H5.19778H5.19777H5.19776H5.19775H5.19774H5.19773H5.19772H5.1977H5.19769H5.19768H5.19767H5.19766H5.19765H5.19764H5.19763H5.19762H5.19761H5.1976H5.19759H5.19758H5.19757H5.19756H5.19755H5.19754H5.19753H5.19752H5.19751H5.1975H5.19749H5.19747H5.19746H5.19745H5.19744H5.19743H5.19742H5.19741H5.1974H5.19739H5.19738H5.19737H5.19736H5.19734H5.19733H5.19732H5.19731H5.1973H5.19729H5.19728H5.19727H5.19726H5.19724H5.19723H5.19722H5.19721H5.1972H5.19719H5.19718H5.19716H5.19715H5.19714H5.19713H5.19712H5.19711H5.1971H5.19708H5.19707H5.19706C5.11301 10.7723 3.69158 10.7607 2.93722 9.43838C3.21026 9.43786 3.51703 9.40496 3.7776 9.28492L3.77765 9.28489C3.95195 9.20447 4.0562 9.02395 4.03451 8.83178C4.01285 8.63982 3.87054 8.48572 3.68259 8.44607C3.60355 8.42935 1.94168 8.05724 1.59332 6.28551L14.6507 3.96507Z" fill="#5E6282" stroke="#5E6282" stroke-width="0.2"/>
</svg>
