<svg width="172" height="155" viewBox="0 0 172 155" fill="none" xmlns="http://www.w3.org/2000/svg">
<path d="M13.2158 143.097L15.0849 143.089L15.1308 153.809L13.2617 153.817L13.2158 143.097ZM8.66907 147.478L20.0557 147.429L20.0642 149.416L8.67758 149.465L8.66907 147.478Z" fill="#615C7C"/>
<path d="M48.2342 147.308L48.2155 142.947L50.0954 142.939L50.1141 147.3L55.0554 147.279L55.064 149.277L50.1226 149.298L50.1413 153.659L48.2614 153.668L48.2428 149.306L43.6774 149.326L43.6688 147.328L48.2342 147.308Z" fill="#595D7A" fill-opacity="0.26"/>
<path d="M83.2337 147.158L83.2151 142.797L85.0949 142.789L85.1136 147.15L90.055 147.129L90.0635 149.127L85.1221 149.148L85.1408 153.51L83.2609 153.518L83.2423 149.156L78.6769 149.176L78.6683 147.178L83.2337 147.158Z" fill="#595D7A" fill-opacity="0.26"/>
<path d="M13.0846 112.458L13.0659 108.097L14.9458 108.089L14.9644 112.45L19.9058 112.429L19.9143 114.427L14.973 114.448L14.9916 118.81L13.1118 118.818L13.0931 114.456L8.52772 114.476L8.51917 112.478L13.0846 112.458Z" fill="#595D7A" fill-opacity="0.26"/>
<path d="M48.0843 112.309L48.0656 107.947L49.9455 107.939L49.9642 112.301L54.9055 112.279L54.9141 114.277L49.9727 114.299L49.9914 118.66L48.1115 118.668L48.0929 114.307L43.5275 114.326L43.5189 112.328L48.0843 112.309Z" fill="#595D7A" fill-opacity="0.26"/>
<path d="M83.0841 112.159L83.0654 107.797L84.9453 107.789L84.9639 112.151L89.9053 112.13L89.9138 114.128L84.9725 114.149L84.9912 118.51L83.1113 118.518L83.0926 114.157L78.5272 114.176L78.5187 112.178L83.0841 112.159Z" fill="#595D7A" fill-opacity="0.26"/>
<path d="M123.065 107.648L124.934 107.64L124.98 118.36L123.111 118.368L123.065 107.648ZM118.518 112.028L129.905 111.98L129.913 113.967L118.527 114.016L118.518 112.028Z" fill="#595D7A" fill-opacity="0.26"/>
<path d="M12.9349 77.4587L12.9162 73.0974L14.7961 73.0893L14.8148 77.4506L19.7561 77.4295L19.7647 79.4275L14.8233 79.4486L14.842 83.8099L12.9621 83.818L12.9434 79.4567L8.37806 79.4762L8.36951 77.4782L12.9349 77.4587Z" fill="#595D7A" fill-opacity="0.26"/>
<path d="M47.9344 77.3089L47.9157 72.9476L49.7956 72.9395L49.8143 77.3008L54.7556 77.2797L54.7642 79.2777L49.8228 79.2989L49.8415 83.6601L47.9616 83.6682L47.943 79.3069L43.3776 79.3265L43.369 77.3284L47.9344 77.3089Z" fill="#595D7A" fill-opacity="0.26"/>
<path d="M82.9155 72.7977L84.7846 72.7897L84.8305 83.5104L82.9614 83.5184L82.9155 72.7977ZM78.3688 77.1786L89.7554 77.1298L89.7639 79.1171L78.3773 79.1659L78.3688 77.1786Z" fill="#98BE1D"/>
<path d="M122.934 77.0093L122.915 72.648L124.795 72.6399L124.814 77.0012L129.755 76.9801L129.764 78.9781L124.822 78.9992L124.841 83.3605L122.961 83.3686L122.942 79.0073L118.377 79.0268L118.369 77.0288L122.934 77.0093Z" fill="#595D7A" fill-opacity="0.26"/>
<path d="M157.933 76.8594L157.915 72.4981L159.795 72.4901L159.813 76.8514L164.755 76.8302L164.763 78.8282L159.822 78.8494L159.841 83.2107L157.961 83.2187L157.942 78.8574L153.377 78.877L153.368 76.879L157.933 76.8594Z" fill="#595D7A" fill-opacity="0.26"/>
<path d="M12.785 42.459L12.7663 38.0977L14.6462 38.0897L14.6649 42.451L19.6062 42.4298L19.6148 44.4279L14.6734 44.449L14.6921 48.8103L12.8122 48.8183L12.7935 44.4571L8.22816 44.4766L8.21961 42.4786L12.785 42.459Z" fill="#595D7A" fill-opacity="0.26"/>
<path d="M47.7848 42.3092L47.7661 37.9479L49.6459 37.9398L49.6646 42.3011L54.606 42.28L54.6145 44.278L49.6732 44.2992L49.6918 48.6605L47.812 48.6685L47.7933 44.3072L43.2279 44.3268L43.2194 42.3287L47.7848 42.3092Z" fill="#595D7A" fill-opacity="0.26"/>
<path d="M82.7656 37.7981L84.6347 37.7901L84.6806 48.5107L82.8115 48.5187L82.7656 37.7981ZM78.2189 42.1789L89.6055 42.1301L89.614 44.1174L78.2274 44.1662L78.2189 42.1789Z" fill="#595D7A" fill-opacity="0.26"/>
<path d="M122.765 37.6483L124.634 37.6403L124.68 48.3609L122.811 48.3689L122.765 37.6483ZM118.219 42.0291L129.605 41.9804L129.614 43.9677L118.227 44.0164L118.219 42.0291Z" fill="#595D7A" fill-opacity="0.26"/>
<path d="M157.784 41.8597L157.765 37.4984L159.645 37.4904L159.664 41.8517L164.605 41.8305L164.614 43.8286L159.672 43.8497L159.691 48.211L157.811 48.219L157.792 43.8577L153.227 43.8773L153.218 41.8793L157.784 41.8597Z" fill="#595D7A" fill-opacity="0.26"/>
<path d="M12.6351 7.45933L12.6164 3.09804L14.4963 3.09L14.515 7.45128L19.4563 7.43013L19.4649 9.42816L14.5235 9.44931L14.5422 13.8106L12.6623 13.8186L12.6436 9.45736L8.07826 9.4769L8.0697 7.47887L12.6351 7.45933Z" fill="#595D7A" fill-opacity="0.26"/>
<path d="M47.6348 7.30952L47.6162 2.94823L49.496 2.94018L49.5147 7.30147L54.4561 7.28032L54.4646 9.27835L49.5233 9.2995L49.5419 13.6608L47.6621 13.6688L47.6434 9.30755L43.078 9.32709L43.0695 7.32906L47.6348 7.30952Z" fill="#595D7A" fill-opacity="0.26"/>
<path d="M82.6346 7.15968L82.6159 2.79839L84.4958 2.79034L84.5145 7.15163L89.4558 7.13048L89.4644 9.12851L84.523 9.14966L84.5417 13.5109L82.6618 13.519L82.6432 9.15771L78.0778 9.17725L78.0692 7.17922L82.6346 7.15968Z" fill="#595D7A" fill-opacity="0.26"/>
<path d="M122.634 7.00987L122.615 2.64858L124.495 2.64053L124.514 7.00182L129.455 6.98067L129.464 8.9787L124.523 8.99985L124.541 13.3611L122.661 13.3692L122.643 9.0079L118.077 9.02744L118.069 7.02941L122.634 7.00987Z" fill="#595D7A" fill-opacity="0.26"/>
<path d="M157.634 6.86006L157.615 2.49877L159.495 2.49072L159.514 6.85201L164.455 6.83086L164.464 8.82889L159.522 8.85004L159.541 13.2113L157.661 13.2194L157.642 8.85809L153.077 8.87763L153.068 6.8796L157.634 6.86006Z" fill="#595D7A" fill-opacity="0.26"/>
</svg>
