<svg width="157" height="166" viewBox="0 0 157 166" fill="none" xmlns="http://www.w3.org/2000/svg">
<path d="M11.5586 12.6104V14.4795H0.837891V12.6104H11.5586ZM7.19727 8.04492V19.4316H5.20996V8.04492H7.19727Z" fill="#615C7C"/>
<path d="M7.19727 47.6104H11.5586V49.4902H7.19727V54.4316H5.19922V49.4902H0.837891V47.6104H5.19922V43.0449H7.19727V47.6104Z" fill="#595D7A" fill-opacity="0.26"/>
<path d="M7.19727 82.6104H11.5586V84.4902H7.19727V89.4316H5.19922V84.4902H0.837891V82.6104H5.19922V78.0449H7.19727V82.6104Z" fill="#595D7A" fill-opacity="0.26"/>
<path d="M46.5586 12.6104V14.4795H35.8379V12.6104H46.5586ZM42.1973 8.04492V19.4316H40.21V8.04492H42.1973Z" fill="#595D7A" fill-opacity="0.26"/>
<path d="M46.5586 47.6104V49.4795H35.8379V47.6104H46.5586ZM42.1973 43.0449V54.4316H40.21V43.0449H42.1973Z" fill="#595D7A" fill-opacity="0.26"/>
<path d="M46.5586 82.6104V84.4795H35.8379V82.6104H46.5586ZM42.1973 78.0449V89.4316H40.21V78.0449H42.1973Z" fill="#595D7A" fill-opacity="0.26"/>
<path d="M42.1973 117.61H46.5586V119.49H42.1973V124.432H40.1992V119.49H35.8379V117.61H40.1992V113.045H42.1973V117.61Z" fill="#595D7A" fill-opacity="0.26"/>
<path d="M81.5586 12.6104V14.4795H70.8379V12.6104H81.5586ZM77.1973 8.04492V19.4316H75.21V8.04492H77.1973Z" fill="#595D7A" fill-opacity="0.26"/>
<path d="M77.1973 47.6104H81.5586V49.4902H77.1973V54.4316H75.1992V49.4902H70.8379V47.6104H75.1992V43.0449H77.1973V47.6104Z" fill="#595D7A" fill-opacity="0.26"/>
<path d="M81.5586 82.6104V84.4795H70.8379V82.6104H81.5586ZM77.1973 78.0449V89.4316H75.21V78.0449H77.1973Z" fill="#98BE1D"/>
<path d="M81.5586 117.61V119.479H70.8379V117.61H81.5586ZM77.1973 113.045V124.432H75.21V113.045H77.1973Z" fill="#595D7A" fill-opacity="0.26"/>
<path d="M77.1973 152.61H81.5586V154.49H77.1973V159.432H75.1992V154.49H70.8379V152.61H75.1992V148.045H77.1973V152.61Z" fill="#595D7A" fill-opacity="0.26"/>
<path d="M116.559 12.6104V14.4795H105.838V12.6104H116.559ZM112.197 8.04492V19.4316H110.21V8.04492H112.197Z" fill="#595D7A" fill-opacity="0.26"/>
<path d="M116.559 47.6104V49.4795H105.838V47.6104H116.559ZM112.197 43.0449V54.4316H110.21V43.0449H112.197Z" fill="#595D7A" fill-opacity="0.26"/>
<path d="M112.197 82.6104H116.559V84.4902H112.197V89.4316H110.199V84.4902H105.838V82.6104H110.199V78.0449H112.197V82.6104Z" fill="#595D7A" fill-opacity="0.26"/>
<path d="M112.197 117.61H116.559V119.49H112.197V124.432H110.199V119.49H105.838V117.61H110.199V113.045H112.197V117.61Z" fill="#595D7A" fill-opacity="0.26"/>
<path d="M112.197 152.61H116.559V154.49H112.197V159.432H110.199V154.49H105.838V152.61H110.199V148.045H112.197V152.61Z" fill="#595D7A" fill-opacity="0.26"/>
<path d="M155.559 12.6104V14.4795H144.838V12.6104H155.559ZM151.197 8.04492V19.4316H149.21V8.04492H151.197Z" fill="#595D7A" fill-opacity="0.26"/>
<path d="M155.559 47.6104V49.4795H144.838V47.6104H155.559ZM151.197 43.0449V54.4316H149.21V43.0449H151.197Z" fill="#595D7A" fill-opacity="0.26"/>
<path d="M151.197 82.6104H155.559V84.4902H151.197V89.4316H149.199V84.4902H144.838V82.6104H149.199V78.0449H151.197V82.6104Z" fill="#595D7A" fill-opacity="0.26"/>
<path d="M151.197 117.61H155.559V119.49H151.197V124.432H149.199V119.49H144.838V117.61H149.199V113.045H151.197V117.61Z" fill="#595D7A" fill-opacity="0.26"/>
<path d="M151.197 152.61H155.559V154.49H151.197V159.432H149.199V154.49H144.838V152.61H149.199V148.045H151.197V152.61Z" fill="#595D7A" fill-opacity="0.26"/>
</svg>
