<svg width="145" height="153" viewBox="0 0 145 153" fill="none" xmlns="http://www.w3.org/2000/svg">
<path d="M26.6104 7.19727V11.5586H28.4902V7.19727H33.4316V5.19922H28.4902V0.837891L26.6104 0.837891V5.19922L22.0449 5.19922V7.19727L26.6104 7.19727Z" fill="#595D7A" fill-opacity="0.26"/>
<path d="M61.6104 7.19727V11.5586H63.4902V7.19727H68.4316V5.19922H63.4902V0.837891L61.6104 0.837891V5.19922L57.0449 5.19922V7.19727L61.6104 7.19727Z" fill="#595D7A" fill-opacity="0.26"/>
<path d="M26.6104 42.1973V46.5586H28.4902V42.1973H33.4316V40.1992H28.4902V35.8379H26.6104V40.1992H22.0449V42.1973H26.6104Z" fill="#595D7A" fill-opacity="0.26"/>
<path d="M61.6104 46.5586H63.4795V35.8379H61.6104V46.5586ZM57.0449 42.1973H68.4316V40.21H57.0449V42.1973Z" fill="#595D7A" fill-opacity="0.26"/>
<path d="M96.6104 46.5586H98.4795V35.8379H96.6104V46.5586ZM92.0449 42.1973H103.432V40.21H92.0449V42.1973Z" fill="#595D7A" fill-opacity="0.26"/>
<path d="M26.6104 81.5586H28.4795V70.8379H26.6104V81.5586ZM22.0449 77.1973H33.4316V75.21H22.0449V77.1973Z" fill="#595D7A" fill-opacity="0.26"/>
<path d="M61.6104 81.5586H63.4795V70.8379H61.6104V81.5586ZM57.0449 77.1973H68.4316V75.21H57.0449V77.1973Z" fill="#98BE1D"/>
<path d="M96.6104 81.5586H98.4795V70.8379H96.6104V81.5586ZM92.0449 77.1973H103.432V75.21H92.0449V77.1973Z" fill="#595D7A" fill-opacity="0.26"/>
<path d="M131.61 77.1973V81.5586H133.49V77.1973H138.432V75.1992H133.49V70.8379H131.61V75.1992H127.045V77.1973H131.61Z" fill="#595D7A" fill-opacity="0.26"/>
<path d="M26.6104 116.559H28.4795V105.838H26.6104V116.559ZM22.0449 112.197H33.4316V110.21H22.0449V112.197Z" fill="#595D7A" fill-opacity="0.26"/>
<path d="M61.6104 112.197V116.559H63.4902V112.197H68.4316V110.199H63.4902V105.838H61.6104V110.199H57.0449V112.197H61.6104Z" fill="#595D7A" fill-opacity="0.26"/>
<path d="M96.6104 112.197V116.559H98.4902V112.197H103.432V110.199H98.4902V105.838H96.6104V110.199H92.0449V112.197H96.6104Z" fill="#595D7A" fill-opacity="0.26"/>
<path d="M131.61 112.197V116.559H133.49V112.197H138.432V110.199H133.49V105.838H131.61V110.199H127.045V112.197H131.61Z" fill="#595D7A" fill-opacity="0.26"/>
<path d="M26.6104 147.197V151.559H28.4902V147.197H33.4316V145.199H28.4902V140.838H26.6104V145.199H22.0449V147.197H26.6104Z" fill="#595D7A" fill-opacity="0.26"/>
<path d="M61.6104 147.197V151.559H63.4902V147.197H68.4316V145.199H63.4902V140.838H61.6104V145.199H57.0449V147.197H61.6104Z" fill="#595D7A" fill-opacity="0.26"/>
<path d="M96.6104 151.559H98.4795V140.838H96.6104V151.559ZM92.0449 147.197H103.432V145.21H92.0449V147.197Z" fill="#595D7A" fill-opacity="0.26"/>
<path d="M131.61 151.559H133.479V140.838H131.61V151.559ZM127.045 147.197H138.432V145.21H127.045V147.197Z" fill="#595D7A" fill-opacity="0.26"/>
</svg>
