<svg width="154" height="290" viewBox="0 0 154 290" fill="none" xmlns="http://www.w3.org/2000/svg">
<path d="M14.3398 34.2524C10.5053 34.2524 7.35658 33.3483 4.89376 31.5402C2.43093 29.7008 1.106 27.0821 0.918945 23.6841H10.6923C10.7858 24.8376 11.1288 25.6793 11.7211 26.2092C12.3134 26.7392 13.0772 27.0042 14.0124 27.0042C14.8542 27.0042 15.54 26.8016 16.07 26.3963C16.6311 25.9598 16.9117 25.3675 16.9117 24.6193C16.9117 23.6529 16.4597 22.9047 15.5556 22.3747C14.6515 21.8448 13.1863 21.2524 11.1599 20.5977C9.00886 19.8807 7.26306 19.1949 5.92253 18.5402C4.61318 17.8544 3.45971 16.8723 2.46211 15.5942C1.49568 14.2848 1.01247 12.5858 1.01247 10.4971C1.01247 8.37715 1.54245 6.569 2.6024 5.0726C3.66235 3.54503 5.12757 2.39155 6.99807 1.61218C8.86857 0.832802 10.9885 0.443115 13.3578 0.443115C17.1923 0.443115 20.2474 1.34719 22.5232 3.15534C24.8302 4.93231 26.0616 7.4419 26.2175 10.6841H16.257C16.2259 9.6865 15.9141 8.9383 15.3218 8.4395C14.7606 7.9407 14.028 7.6913 13.124 7.6913C12.4381 7.6913 11.877 7.89394 11.4405 8.29921C11.0041 8.70449 10.7858 9.28123 10.7858 10.0294C10.7858 10.6529 11.0196 11.1985 11.4873 11.6661C11.9861 12.1026 12.594 12.4923 13.311 12.8352C14.028 13.1469 15.088 13.5522 16.4909 14.051C18.5796 14.768 20.2942 15.4851 21.6347 16.2021C23.0064 16.8879 24.1755 17.8699 25.1419 19.1481C26.1395 20.3951 26.6383 21.985 26.6383 23.9179C26.6383 25.8819 26.1395 27.6433 25.1419 29.2021C24.1755 30.7608 22.757 31.9922 20.8865 32.8963C19.0472 33.8004 16.865 34.2524 14.3398 34.2524Z" fill="#303030"/>
<path d="M60.4063 0.957502V33.9251H51.2409V20.6913H40.0646V33.9251H30.8992V0.957502H40.0646V13.3496H51.2409V0.957502H60.4063Z" fill="#303030"/>
<path d="M74.6298 0.957502V20.0834C74.6298 21.8603 75.0351 23.232 75.8456 24.1985C76.6874 25.1649 77.9499 25.6481 79.6334 25.6481C81.3168 25.6481 82.5794 25.1649 83.4212 24.1985C84.2941 23.2009 84.7305 21.8292 84.7305 20.0834V0.957502H93.896V20.0834C93.896 23.1073 93.2569 25.6949 91.9787 27.8459C90.7005 29.9658 88.9547 31.5714 86.7413 32.6625C84.559 33.7224 82.1274 34.2524 79.4463 34.2524C76.7653 34.2524 74.3648 33.7224 72.2449 32.6625C70.1562 31.5714 68.5039 29.9658 67.2881 27.8459C66.1034 25.726 65.5111 23.1385 65.5111 20.0834V0.957502H74.6298Z" fill="#303030"/>
<path d="M115.636 33.9251L109.09 21.7668H108.108V33.9251H98.9423V0.957502H113.392C116.042 0.957502 118.286 1.42513 120.126 2.36038C121.965 3.26445 123.352 4.52704 124.288 6.14814C125.223 7.73806 125.69 9.53063 125.69 11.5258C125.69 13.7704 125.067 15.75 123.82 17.4647C122.604 19.1481 120.812 20.3484 118.442 21.0654L125.877 33.9251H115.636ZM108.108 15.5006H112.644C113.891 15.5006 114.826 15.2045 115.449 14.6122C116.073 14.0198 116.385 13.1625 116.385 12.0402C116.385 10.9803 116.057 10.1541 115.403 9.5618C114.779 8.9383 113.86 8.62655 112.644 8.62655H108.108V15.5006Z" fill="#303030"/>
<path d="M139.024 0.957502V33.9251H129.859V0.957502H139.024Z" fill="#303030"/>
<path d="M15.9323 88.9096L13.2721 96.163H11.5055L8.84521 88.9096H10.404L12.3992 94.677L14.384 88.9096H15.9323Z" fill="#303030"/>
<path d="M18.779 88.9096V96.163H17.3242V88.9096H18.779Z" fill="#303030"/>
<path d="M23.2404 96.2357C22.7346 96.2357 22.2774 96.1491 21.8687 95.9759C21.4668 95.8027 21.1482 95.5533 20.9126 95.2277C20.6771 94.9021 20.5558 94.5176 20.5489 94.0742H22.1077C22.1284 94.3721 22.2324 94.6077 22.4194 94.7809C22.6134 94.9541 22.8766 95.0407 23.2092 95.0407C23.5486 95.0407 23.8154 94.961 24.0093 94.8017C24.2033 94.6354 24.3003 94.4206 24.3003 94.1574C24.3003 93.9426 24.2345 93.766 24.1029 93.6274C23.9712 93.4888 23.805 93.3815 23.6041 93.3053C23.4101 93.2221 23.1399 93.1321 22.7935 93.0351C22.3224 92.8965 21.9379 92.7614 21.64 92.6298C21.3491 92.4912 21.0962 92.2869 20.8814 92.0167C20.6736 91.7396 20.5697 91.3724 20.5697 90.9152C20.5697 90.4857 20.6771 90.1115 20.8918 89.7929C21.1066 89.4742 21.408 89.2317 21.7959 89.0655C22.1839 88.8923 22.6272 88.8057 23.126 88.8057C23.8742 88.8057 24.4804 88.9893 24.9446 89.3564C25.4157 89.7167 25.6755 90.2224 25.724 90.8736H24.1236C24.1098 90.6242 24.0024 90.4198 23.8015 90.2605C23.6075 90.0942 23.3477 90.0111 23.0221 90.0111C22.7381 90.0111 22.5095 90.0838 22.3363 90.2293C22.17 90.3748 22.0869 90.5861 22.0869 90.8632C22.0869 91.0572 22.1492 91.22 22.2739 91.3516C22.4056 91.4763 22.5649 91.5802 22.7519 91.6634C22.9459 91.7396 23.2161 91.8296 23.5625 91.9336C24.0336 92.0721 24.4181 92.2107 24.716 92.3492C25.0139 92.4878 25.2702 92.6956 25.485 92.9727C25.6997 93.2498 25.8071 93.6135 25.8071 94.0638C25.8071 94.4518 25.7066 94.812 25.5057 95.1446C25.3048 95.4771 25.0104 95.7438 24.6224 95.9447C24.2345 96.1387 23.7738 96.2357 23.2404 96.2357Z" fill="#303030"/>
<path d="M29.0428 88.9096V96.163H27.588V88.9096H29.0428Z" fill="#303030"/>
<path d="M35.9358 88.9096V90.0838H34.003V96.163H32.5481V90.0838H30.6153V88.9096H35.9358Z" fill="#303030"/>
<path d="M56.4382 95.01H58.8283V96.1634H54.9834V88.9101H56.4382V95.01Z" fill="#303030"/>
<path d="M61.7274 90.0843V91.9029H64.1695V93.0563H61.7274V94.9788H64.4812V96.1634H60.2726V88.8997H64.4812V90.0843H61.7274Z" fill="#303030"/>
<path d="M70.7705 94.7813H67.8817L67.4036 96.1634H65.8761L68.4844 88.8997H70.1782L72.7865 96.1634H71.2486L70.7705 94.7813ZM70.3757 93.6175L69.3261 90.5831L68.2765 93.6175H70.3757Z" fill="#303030"/>
<path d="M78.0221 96.1634L76.4217 93.3369H75.7359V96.1634H74.2811V88.9101H77.0037C77.5648 88.9101 78.0428 89.0105 78.4377 89.2114C78.8326 89.4054 79.127 89.6721 79.321 90.0116C79.5219 90.3441 79.6224 90.7182 79.6224 91.1339C79.6224 91.6119 79.4838 92.0449 79.2067 92.4328C78.9296 92.8139 78.5174 93.0771 77.9701 93.2226L79.7055 96.1634H78.0221ZM75.7359 92.2458H76.9517C77.3466 92.2458 77.641 92.1523 77.835 91.9652C78.029 91.7712 78.126 91.5045 78.126 91.165C78.126 90.8325 78.029 90.5762 77.835 90.3961C77.641 90.209 77.3466 90.1155 76.9517 90.1155H75.7359V92.2458Z" fill="#303030"/>
<path d="M87.6616 96.1634H86.2068L82.9126 91.1858V96.1634H81.4578V88.8997H82.9126L86.2068 93.8877V88.8997H87.6616V96.1634Z" fill="#303030"/>
<path d="M104.5 90.0838V91.9024H106.942V93.0559H104.5V94.9783H107.254V96.163H103.045V88.8992H107.254V90.0838H104.5Z" fill="#303030"/>
<path d="M115.299 96.163H113.844L110.55 91.1854V96.163H109.095V88.8992H110.55L113.844 93.8872V88.8992H115.299V96.163Z" fill="#303030"/>
<path d="M121.486 88.9096V94.0015C121.486 94.7081 121.281 95.2589 120.873 95.6538C120.464 96.0417 119.917 96.2357 119.231 96.2357C118.538 96.2357 117.977 96.0348 117.547 95.633C117.125 95.2312 116.913 94.67 116.913 93.9495H118.368C118.375 94.2613 118.448 94.5038 118.586 94.677C118.732 94.8502 118.94 94.9367 119.21 94.9367C119.473 94.9367 119.674 94.8536 119.813 94.6873C119.951 94.5211 120.021 94.2925 120.021 94.0015V88.9096H121.486Z" fill="#303030"/>
<path d="M127.069 96.2357C126.39 96.2357 125.767 96.0764 125.199 95.7577C124.631 95.439 124.18 94.9991 123.848 94.4379C123.515 93.8699 123.349 93.2291 123.349 92.5155C123.349 91.8089 123.515 91.175 123.848 90.6138C124.18 90.0457 124.631 89.6024 125.199 89.2837C125.767 88.965 126.39 88.8057 127.069 88.8057C127.755 88.8057 128.379 88.965 128.94 89.2837C129.508 89.6024 129.955 90.0457 130.28 90.6138C130.613 91.175 130.779 91.8089 130.779 92.5155C130.779 93.2291 130.613 93.8699 130.28 94.4379C129.955 94.9991 129.508 95.439 128.94 95.7577C128.372 96.0764 127.748 96.2357 127.069 96.2357ZM127.069 94.9367C127.506 94.9367 127.89 94.8398 128.223 94.6458C128.555 94.4449 128.815 94.1608 129.002 93.7937C129.189 93.4265 129.283 93.0004 129.283 92.5155C129.283 92.0305 129.189 91.6079 129.002 91.2477C128.815 90.8805 128.555 90.6 128.223 90.406C127.89 90.212 127.506 90.115 127.069 90.115C126.633 90.115 126.245 90.212 125.905 90.406C125.573 90.6 125.313 90.8805 125.126 91.2477C124.939 91.6079 124.846 92.0305 124.846 92.5155C124.846 93.0004 124.939 93.4265 125.126 93.7937C125.313 94.1608 125.573 94.4449 125.905 94.6458C126.245 94.8398 126.633 94.9367 127.069 94.9367Z" fill="#303030"/>
<path d="M138.148 88.9096L135.696 93.6378V96.163H134.241V93.6378L131.778 88.9096H133.42L134.979 92.2245L136.527 88.9096H138.148Z" fill="#303030"/>
<path d="M141.981 256.244C135.386 256.244 130.052 261.517 130.052 268.036C130.052 276.879 141.981 289.934 141.981 289.934C141.981 289.934 153.911 276.879 153.911 268.036C153.911 261.517 148.577 256.244 141.981 256.244ZM141.981 272.247C139.63 272.247 137.721 270.36 137.721 268.036C137.721 265.711 139.63 263.825 141.981 263.825C144.333 263.825 146.242 265.711 146.242 268.036C146.242 270.36 144.333 272.247 141.981 272.247Z" fill="#98BE1D"/>
<circle cx="46.9594" cy="92.7537" r="1.78607" fill="#98BE1D"/>
<circle cx="95.3461" cy="92.7537" r="1.78607" fill="#98BE1D"/>
<path fill-rule="evenodd" clip-rule="evenodd" d="M41.3936 76.787C38.6073 76.787 36.0462 76.1397 33.7103 74.8451C31.3743 73.5223 29.5168 71.707 28.1377 69.3992C26.7868 67.0633 26.1113 64.4318 26.1113 61.5048C26.1113 58.5778 26.7868 55.9604 28.1377 53.6526C29.5168 51.3166 31.3743 49.5013 33.7103 48.2067C36.0462 46.9121 38.6073 46.2648 41.3936 46.2648C44.208 46.2648 46.7691 46.9121 49.0769 48.2067C51.4129 49.5013 53.2563 51.3166 54.6072 53.6526C55.9582 55.9604 56.6336 58.5778 56.6336 61.5048C56.6336 64.4318 55.9582 67.0633 54.6072 69.3992C53.2563 71.707 51.4129 73.5223 49.0769 74.8451C46.741 76.1397 44.1799 76.787 41.3936 76.787ZM41.3936 69.1037C43.5044 69.1037 45.1649 68.4142 46.3751 67.0351C47.6134 65.6561 48.2326 63.8126 48.2326 61.5048C48.2326 59.1407 47.6134 57.2832 46.3751 55.9323C45.1649 54.5532 43.5044 53.8637 41.3936 53.8637C39.2546 53.8637 37.5801 54.5532 36.3699 55.9323C35.1597 57.2832 34.5546 59.1407 34.5546 61.5048C34.5546 63.8408 35.1597 65.6983 36.3699 67.0773C37.5801 68.4282 39.2546 69.1037 41.3936 69.1037ZM24.0632 46.7291V53.3149H16.1266V76.4915H7.8522V69.9958C8.28695 69.9967 8.64527 69.9972 8.90817 69.9972C10.4457 69.9972 10.7241 69.2766 11.006 68.5467C11.0453 68.4448 11.0848 68.3427 11.1277 68.2424C11.1277 68.2424 11.9454 64.4988 11.4781 60.6383C11.4781 60.6383 10.525 54.3541 7.76715 52.0184H11.2515C12.4983 52.0184 12.887 53.0492 12.949 53.7729C12.9669 53.9818 12.7906 54.144 12.5809 54.144C12.3591 54.144 12.1793 54.3237 12.1793 54.5455V56.6364C12.1793 57.0208 12.4909 57.3323 12.8752 57.3323C13.2595 57.3323 13.571 57.021 13.571 56.6366V53.7454C13.571 52.045 12.0247 51.5313 11.2515 51.487H6.96971C6.59295 51.3002 6.18826 51.1858 5.75411 51.1623H2.60006H0V46.7291H24.0632ZM68.4588 63.9956V46.7291H60.2266V63.9956C60.2266 66.7537 60.7613 69.0896 61.8308 71.0034C62.9284 72.9172 64.4201 74.3667 66.3057 75.3517C68.2195 76.3086 70.3866 76.787 72.807 76.787C75.2274 76.787 77.4226 76.3086 79.3927 75.3517C81.391 74.3667 82.967 72.9172 84.1209 71.0034C85.2749 69.0615 85.8518 66.7255 85.8518 63.9956V46.7291H77.5774V63.9956C77.5774 65.5716 77.1834 66.81 76.3954 67.7106C75.6355 68.583 74.4957 69.0193 72.9759 69.0193C71.4561 69.0193 70.3163 68.583 69.5564 67.7106C68.8246 66.8381 68.4588 65.5998 68.4588 63.9956ZM99.5684 65.5153H98.6819V76.4915H90.4075V46.7291H103.452C105.845 46.7291 107.871 47.1513 109.531 47.9956C111.192 48.8118 112.444 49.9516 113.289 51.4151C114.133 52.8505 114.555 54.4688 114.555 56.27C114.555 58.2964 113.992 60.0835 112.867 61.6314C111.769 63.1512 110.151 64.2348 108.012 64.8821L114.724 76.4915H105.479L99.5684 65.5153ZM98.6819 59.8584H102.777C103.903 59.8584 104.747 59.591 105.31 59.0563C105.873 58.5215 106.154 57.7476 106.154 56.7344C106.154 55.7775 105.859 55.0317 105.268 54.4969C104.705 53.934 103.874 53.6526 102.777 53.6526H98.6819V59.8584ZM121.02 74.3385C123.243 75.9709 126.086 76.787 129.548 76.787C131.827 76.787 133.797 76.379 135.458 75.5628C137.146 74.7466 138.427 73.6349 139.299 72.2277C140.2 70.8205 140.65 69.2304 140.65 67.4573C140.65 65.7123 140.2 64.277 139.299 63.1512C138.427 61.9973 137.372 61.1108 136.133 60.4916C134.923 59.8443 133.375 59.197 131.489 58.5497C130.223 58.0994 129.266 57.7335 128.619 57.452C127.971 57.1425 127.423 56.7907 126.972 56.3966C126.55 55.9745 126.339 55.482 126.339 54.9191C126.339 54.2436 126.536 53.723 126.93 53.3571C127.324 52.9912 127.831 52.8083 128.45 52.8083C129.266 52.8083 129.927 53.0334 130.434 53.4837C130.969 53.934 131.25 54.6095 131.278 55.5101H140.27C140.13 52.5831 139.018 50.3175 136.935 48.7133C134.881 47.0809 132.123 46.2648 128.661 46.2648C126.522 46.2648 124.608 46.6166 122.92 47.3202C121.231 48.0238 119.908 49.0651 118.951 50.4442C117.994 51.7951 117.516 53.4274 117.516 55.3412C117.516 57.2269 117.952 58.7607 118.825 59.9428C119.725 61.0967 120.767 61.9832 121.949 62.6024C123.159 63.1934 124.735 63.8126 126.677 64.4599C128.506 65.051 129.829 65.5857 130.645 66.0641C131.461 66.5426 131.869 67.2181 131.869 68.0905C131.869 68.766 131.616 69.3007 131.109 69.6947C130.631 70.0606 130.012 70.2435 129.252 70.2435C128.408 70.2435 127.718 70.0043 127.183 69.5259C126.649 69.0474 126.339 68.2875 126.255 67.2462H117.431C117.6 70.3139 118.796 72.678 121.02 74.3385Z" fill="#98BE1D"/>
</svg>
